G04 #@! TF.GenerationSoftware,KiCad,Pcbnew,9.0.1*
G04 #@! TF.CreationDate,2025-07-18T15:32:59+03:00*
G04 #@! TF.ProjectId,AC-DC G__ kayna__,41432d44-4320-447f-9ce7-206b61796e61,rev?*
G04 #@! TF.SameCoordinates,Original*
G04 #@! TF.FileFunction,Legend,Top*
G04 #@! TF.FilePolarity,Positive*
%FSLAX46Y46*%
G04 Gerber Fmt 4.6, Leading zero omitted, Abs format (unit mm)*
G04 Created by KiCad (PCBNEW 9.0.1) date 2025-07-18 15:32:59*
%MOMM*%
%LPD*%
G01*
G04 APERTURE LIST*
G04 Aperture macros list*
%AMRoundRect*
0 Rectangle with rounded corners*
0 $1 Rounding radius*
0 $2 $3 $4 $5 $6 $7 $8 $9 X,Y pos of 4 corners*
0 Add a 4 corners polygon primitive as box body*
4,1,4,$2,$3,$4,$5,$6,$7,$8,$9,$2,$3,0*
0 Add four circle primitives for the rounded corners*
1,1,$1+$1,$2,$3*
1,1,$1+$1,$4,$5*
1,1,$1+$1,$6,$7*
1,1,$1+$1,$8,$9*
0 Add four rect primitives between the rounded corners*
20,1,$1+$1,$2,$3,$4,$5,0*
20,1,$1+$1,$4,$5,$6,$7,0*
20,1,$1+$1,$6,$7,$8,$9,0*
20,1,$1+$1,$8,$9,$2,$3,0*%
G04 Aperture macros list end*
%ADD10C,0.150000*%
%ADD11C,0.100000*%
%ADD12C,0.120000*%
%ADD13C,0.152400*%
%ADD14C,0.508000*%
%ADD15C,0.381000*%
%ADD16C,0.200000*%
%ADD17C,0.400000*%
%ADD18C,1.600000*%
%ADD19O,1.600000X1.600000*%
%ADD20C,2.000000*%
%ADD21C,3.500000*%
%ADD22R,2.000000X2.000000*%
%ADD23R,3.200000X3.200000*%
%ADD24C,3.200000*%
%ADD25O,3.200000X3.200000*%
%ADD26C,1.200000*%
%ADD27O,1.300000X1.050000*%
%ADD28RoundRect,0.249900X-0.400100X0.275100X-0.400100X-0.275100X0.400100X-0.275100X0.400100X0.275100X0*%
%ADD29C,2.400000*%
%ADD30R,1.600000X1.600000*%
%ADD31C,1.752600*%
%ADD32R,3.960000X1.980000*%
%ADD33O,3.960000X1.980000*%
%ADD34C,2.540000*%
G04 APERTURE END LIST*
D10*
X81154761Y-65454819D02*
X80821428Y-64978628D01*
X80583333Y-65454819D02*
X80583333Y-64454819D01*
X80583333Y-64454819D02*
X80964285Y-64454819D01*
X80964285Y-64454819D02*
X81059523Y-64502438D01*
X81059523Y-64502438D02*
X81107142Y-64550057D01*
X81107142Y-64550057D02*
X81154761Y-64645295D01*
X81154761Y-64645295D02*
X81154761Y-64788152D01*
X81154761Y-64788152D02*
X81107142Y-64883390D01*
X81107142Y-64883390D02*
X81059523Y-64931009D01*
X81059523Y-64931009D02*
X80964285Y-64978628D01*
X80964285Y-64978628D02*
X80583333Y-64978628D01*
X81440476Y-64454819D02*
X81773809Y-65454819D01*
X81773809Y-65454819D02*
X82107142Y-64454819D01*
X82964285Y-65454819D02*
X82392857Y-65454819D01*
X82678571Y-65454819D02*
X82678571Y-64454819D01*
X82678571Y-64454819D02*
X82583333Y-64597676D01*
X82583333Y-64597676D02*
X82488095Y-64692914D01*
X82488095Y-64692914D02*
X82392857Y-64740533D01*
X98254819Y-76066666D02*
X97778628Y-76399999D01*
X98254819Y-76638094D02*
X97254819Y-76638094D01*
X97254819Y-76638094D02*
X97254819Y-76257142D01*
X97254819Y-76257142D02*
X97302438Y-76161904D01*
X97302438Y-76161904D02*
X97350057Y-76114285D01*
X97350057Y-76114285D02*
X97445295Y-76066666D01*
X97445295Y-76066666D02*
X97588152Y-76066666D01*
X97588152Y-76066666D02*
X97683390Y-76114285D01*
X97683390Y-76114285D02*
X97731009Y-76161904D01*
X97731009Y-76161904D02*
X97778628Y-76257142D01*
X97778628Y-76257142D02*
X97778628Y-76638094D01*
X97254819Y-75733332D02*
X97254819Y-75114285D01*
X97254819Y-75114285D02*
X97635771Y-75447618D01*
X97635771Y-75447618D02*
X97635771Y-75304761D01*
X97635771Y-75304761D02*
X97683390Y-75209523D01*
X97683390Y-75209523D02*
X97731009Y-75161904D01*
X97731009Y-75161904D02*
X97826247Y-75114285D01*
X97826247Y-75114285D02*
X98064342Y-75114285D01*
X98064342Y-75114285D02*
X98159580Y-75161904D01*
X98159580Y-75161904D02*
X98207200Y-75209523D01*
X98207200Y-75209523D02*
X98254819Y-75304761D01*
X98254819Y-75304761D02*
X98254819Y-75590475D01*
X98254819Y-75590475D02*
X98207200Y-75685713D01*
X98207200Y-75685713D02*
X98159580Y-75733332D01*
X168966667Y-118654819D02*
X169300000Y-119654819D01*
X169300000Y-119654819D02*
X169633333Y-118654819D01*
X170538095Y-119559580D02*
X170490476Y-119607200D01*
X170490476Y-119607200D02*
X170347619Y-119654819D01*
X170347619Y-119654819D02*
X170252381Y-119654819D01*
X170252381Y-119654819D02*
X170109524Y-119607200D01*
X170109524Y-119607200D02*
X170014286Y-119511961D01*
X170014286Y-119511961D02*
X169966667Y-119416723D01*
X169966667Y-119416723D02*
X169919048Y-119226247D01*
X169919048Y-119226247D02*
X169919048Y-119083390D01*
X169919048Y-119083390D02*
X169966667Y-118892914D01*
X169966667Y-118892914D02*
X170014286Y-118797676D01*
X170014286Y-118797676D02*
X170109524Y-118702438D01*
X170109524Y-118702438D02*
X170252381Y-118654819D01*
X170252381Y-118654819D02*
X170347619Y-118654819D01*
X170347619Y-118654819D02*
X170490476Y-118702438D01*
X170490476Y-118702438D02*
X170538095Y-118750057D01*
X171538095Y-119559580D02*
X171490476Y-119607200D01*
X171490476Y-119607200D02*
X171347619Y-119654819D01*
X171347619Y-119654819D02*
X171252381Y-119654819D01*
X171252381Y-119654819D02*
X171109524Y-119607200D01*
X171109524Y-119607200D02*
X171014286Y-119511961D01*
X171014286Y-119511961D02*
X170966667Y-119416723D01*
X170966667Y-119416723D02*
X170919048Y-119226247D01*
X170919048Y-119226247D02*
X170919048Y-119083390D01*
X170919048Y-119083390D02*
X170966667Y-118892914D01*
X170966667Y-118892914D02*
X171014286Y-118797676D01*
X171014286Y-118797676D02*
X171109524Y-118702438D01*
X171109524Y-118702438D02*
X171252381Y-118654819D01*
X171252381Y-118654819D02*
X171347619Y-118654819D01*
X171347619Y-118654819D02*
X171490476Y-118702438D01*
X171490476Y-118702438D02*
X171538095Y-118750057D01*
X79909819Y-104214285D02*
X78909819Y-104214285D01*
X78909819Y-104214285D02*
X78909819Y-103976190D01*
X78909819Y-103976190D02*
X78957438Y-103833333D01*
X78957438Y-103833333D02*
X79052676Y-103738095D01*
X79052676Y-103738095D02*
X79147914Y-103690476D01*
X79147914Y-103690476D02*
X79338390Y-103642857D01*
X79338390Y-103642857D02*
X79481247Y-103642857D01*
X79481247Y-103642857D02*
X79671723Y-103690476D01*
X79671723Y-103690476D02*
X79766961Y-103738095D01*
X79766961Y-103738095D02*
X79862200Y-103833333D01*
X79862200Y-103833333D02*
X79909819Y-103976190D01*
X79909819Y-103976190D02*
X79909819Y-104214285D01*
X79005057Y-103261904D02*
X78957438Y-103214285D01*
X78957438Y-103214285D02*
X78909819Y-103119047D01*
X78909819Y-103119047D02*
X78909819Y-102880952D01*
X78909819Y-102880952D02*
X78957438Y-102785714D01*
X78957438Y-102785714D02*
X79005057Y-102738095D01*
X79005057Y-102738095D02*
X79100295Y-102690476D01*
X79100295Y-102690476D02*
X79195533Y-102690476D01*
X79195533Y-102690476D02*
X79338390Y-102738095D01*
X79338390Y-102738095D02*
X79909819Y-103309523D01*
X79909819Y-103309523D02*
X79909819Y-102690476D01*
X79338390Y-102119047D02*
X79290771Y-102214285D01*
X79290771Y-102214285D02*
X79243152Y-102261904D01*
X79243152Y-102261904D02*
X79147914Y-102309523D01*
X79147914Y-102309523D02*
X79100295Y-102309523D01*
X79100295Y-102309523D02*
X79005057Y-102261904D01*
X79005057Y-102261904D02*
X78957438Y-102214285D01*
X78957438Y-102214285D02*
X78909819Y-102119047D01*
X78909819Y-102119047D02*
X78909819Y-101928571D01*
X78909819Y-101928571D02*
X78957438Y-101833333D01*
X78957438Y-101833333D02*
X79005057Y-101785714D01*
X79005057Y-101785714D02*
X79100295Y-101738095D01*
X79100295Y-101738095D02*
X79147914Y-101738095D01*
X79147914Y-101738095D02*
X79243152Y-101785714D01*
X79243152Y-101785714D02*
X79290771Y-101833333D01*
X79290771Y-101833333D02*
X79338390Y-101928571D01*
X79338390Y-101928571D02*
X79338390Y-102119047D01*
X79338390Y-102119047D02*
X79386009Y-102214285D01*
X79386009Y-102214285D02*
X79433628Y-102261904D01*
X79433628Y-102261904D02*
X79528866Y-102309523D01*
X79528866Y-102309523D02*
X79719342Y-102309523D01*
X79719342Y-102309523D02*
X79814580Y-102261904D01*
X79814580Y-102261904D02*
X79862200Y-102214285D01*
X79862200Y-102214285D02*
X79909819Y-102119047D01*
X79909819Y-102119047D02*
X79909819Y-101928571D01*
X79909819Y-101928571D02*
X79862200Y-101833333D01*
X79862200Y-101833333D02*
X79814580Y-101785714D01*
X79814580Y-101785714D02*
X79719342Y-101738095D01*
X79719342Y-101738095D02*
X79528866Y-101738095D01*
X79528866Y-101738095D02*
X79433628Y-101785714D01*
X79433628Y-101785714D02*
X79386009Y-101833333D01*
X79386009Y-101833333D02*
X79338390Y-101928571D01*
X129859580Y-99392857D02*
X129907200Y-99440476D01*
X129907200Y-99440476D02*
X129954819Y-99583333D01*
X129954819Y-99583333D02*
X129954819Y-99678571D01*
X129954819Y-99678571D02*
X129907200Y-99821428D01*
X129907200Y-99821428D02*
X129811961Y-99916666D01*
X129811961Y-99916666D02*
X129716723Y-99964285D01*
X129716723Y-99964285D02*
X129526247Y-100011904D01*
X129526247Y-100011904D02*
X129383390Y-100011904D01*
X129383390Y-100011904D02*
X129192914Y-99964285D01*
X129192914Y-99964285D02*
X129097676Y-99916666D01*
X129097676Y-99916666D02*
X129002438Y-99821428D01*
X129002438Y-99821428D02*
X128954819Y-99678571D01*
X128954819Y-99678571D02*
X128954819Y-99583333D01*
X128954819Y-99583333D02*
X129002438Y-99440476D01*
X129002438Y-99440476D02*
X129050057Y-99392857D01*
X128954819Y-99059523D02*
X128954819Y-98440476D01*
X128954819Y-98440476D02*
X129335771Y-98773809D01*
X129335771Y-98773809D02*
X129335771Y-98630952D01*
X129335771Y-98630952D02*
X129383390Y-98535714D01*
X129383390Y-98535714D02*
X129431009Y-98488095D01*
X129431009Y-98488095D02*
X129526247Y-98440476D01*
X129526247Y-98440476D02*
X129764342Y-98440476D01*
X129764342Y-98440476D02*
X129859580Y-98488095D01*
X129859580Y-98488095D02*
X129907200Y-98535714D01*
X129907200Y-98535714D02*
X129954819Y-98630952D01*
X129954819Y-98630952D02*
X129954819Y-98916666D01*
X129954819Y-98916666D02*
X129907200Y-99011904D01*
X129907200Y-99011904D02*
X129859580Y-99059523D01*
X128954819Y-97535714D02*
X128954819Y-98011904D01*
X128954819Y-98011904D02*
X129431009Y-98059523D01*
X129431009Y-98059523D02*
X129383390Y-98011904D01*
X129383390Y-98011904D02*
X129335771Y-97916666D01*
X129335771Y-97916666D02*
X129335771Y-97678571D01*
X129335771Y-97678571D02*
X129383390Y-97583333D01*
X129383390Y-97583333D02*
X129431009Y-97535714D01*
X129431009Y-97535714D02*
X129526247Y-97488095D01*
X129526247Y-97488095D02*
X129764342Y-97488095D01*
X129764342Y-97488095D02*
X129859580Y-97535714D01*
X129859580Y-97535714D02*
X129907200Y-97583333D01*
X129907200Y-97583333D02*
X129954819Y-97678571D01*
X129954819Y-97678571D02*
X129954819Y-97916666D01*
X129954819Y-97916666D02*
X129907200Y-98011904D01*
X129907200Y-98011904D02*
X129859580Y-98059523D01*
D11*
X113022419Y-82572306D02*
X113022419Y-83143734D01*
X113022419Y-82858020D02*
X112022419Y-82858020D01*
X112022419Y-82858020D02*
X112165276Y-82953258D01*
X112165276Y-82953258D02*
X112260514Y-83048496D01*
X112260514Y-83048496D02*
X112308133Y-83143734D01*
D10*
X79909819Y-159769285D02*
X78909819Y-159769285D01*
X78909819Y-159769285D02*
X78909819Y-159531190D01*
X78909819Y-159531190D02*
X78957438Y-159388333D01*
X78957438Y-159388333D02*
X79052676Y-159293095D01*
X79052676Y-159293095D02*
X79147914Y-159245476D01*
X79147914Y-159245476D02*
X79338390Y-159197857D01*
X79338390Y-159197857D02*
X79481247Y-159197857D01*
X79481247Y-159197857D02*
X79671723Y-159245476D01*
X79671723Y-159245476D02*
X79766961Y-159293095D01*
X79766961Y-159293095D02*
X79862200Y-159388333D01*
X79862200Y-159388333D02*
X79909819Y-159531190D01*
X79909819Y-159531190D02*
X79909819Y-159769285D01*
X79909819Y-158245476D02*
X79909819Y-158816904D01*
X79909819Y-158531190D02*
X78909819Y-158531190D01*
X78909819Y-158531190D02*
X79052676Y-158626428D01*
X79052676Y-158626428D02*
X79147914Y-158721666D01*
X79147914Y-158721666D02*
X79195533Y-158816904D01*
X79338390Y-157674047D02*
X79290771Y-157769285D01*
X79290771Y-157769285D02*
X79243152Y-157816904D01*
X79243152Y-157816904D02*
X79147914Y-157864523D01*
X79147914Y-157864523D02*
X79100295Y-157864523D01*
X79100295Y-157864523D02*
X79005057Y-157816904D01*
X79005057Y-157816904D02*
X78957438Y-157769285D01*
X78957438Y-157769285D02*
X78909819Y-157674047D01*
X78909819Y-157674047D02*
X78909819Y-157483571D01*
X78909819Y-157483571D02*
X78957438Y-157388333D01*
X78957438Y-157388333D02*
X79005057Y-157340714D01*
X79005057Y-157340714D02*
X79100295Y-157293095D01*
X79100295Y-157293095D02*
X79147914Y-157293095D01*
X79147914Y-157293095D02*
X79243152Y-157340714D01*
X79243152Y-157340714D02*
X79290771Y-157388333D01*
X79290771Y-157388333D02*
X79338390Y-157483571D01*
X79338390Y-157483571D02*
X79338390Y-157674047D01*
X79338390Y-157674047D02*
X79386009Y-157769285D01*
X79386009Y-157769285D02*
X79433628Y-157816904D01*
X79433628Y-157816904D02*
X79528866Y-157864523D01*
X79528866Y-157864523D02*
X79719342Y-157864523D01*
X79719342Y-157864523D02*
X79814580Y-157816904D01*
X79814580Y-157816904D02*
X79862200Y-157769285D01*
X79862200Y-157769285D02*
X79909819Y-157674047D01*
X79909819Y-157674047D02*
X79909819Y-157483571D01*
X79909819Y-157483571D02*
X79862200Y-157388333D01*
X79862200Y-157388333D02*
X79814580Y-157340714D01*
X79814580Y-157340714D02*
X79719342Y-157293095D01*
X79719342Y-157293095D02*
X79528866Y-157293095D01*
X79528866Y-157293095D02*
X79433628Y-157340714D01*
X79433628Y-157340714D02*
X79386009Y-157388333D01*
X79386009Y-157388333D02*
X79338390Y-157483571D01*
X144384819Y-92594285D02*
X143384819Y-92594285D01*
X143384819Y-92594285D02*
X143384819Y-92356190D01*
X143384819Y-92356190D02*
X143432438Y-92213333D01*
X143432438Y-92213333D02*
X143527676Y-92118095D01*
X143527676Y-92118095D02*
X143622914Y-92070476D01*
X143622914Y-92070476D02*
X143813390Y-92022857D01*
X143813390Y-92022857D02*
X143956247Y-92022857D01*
X143956247Y-92022857D02*
X144146723Y-92070476D01*
X144146723Y-92070476D02*
X144241961Y-92118095D01*
X144241961Y-92118095D02*
X144337200Y-92213333D01*
X144337200Y-92213333D02*
X144384819Y-92356190D01*
X144384819Y-92356190D02*
X144384819Y-92594285D01*
X143480057Y-91641904D02*
X143432438Y-91594285D01*
X143432438Y-91594285D02*
X143384819Y-91499047D01*
X143384819Y-91499047D02*
X143384819Y-91260952D01*
X143384819Y-91260952D02*
X143432438Y-91165714D01*
X143432438Y-91165714D02*
X143480057Y-91118095D01*
X143480057Y-91118095D02*
X143575295Y-91070476D01*
X143575295Y-91070476D02*
X143670533Y-91070476D01*
X143670533Y-91070476D02*
X143813390Y-91118095D01*
X143813390Y-91118095D02*
X144384819Y-91689523D01*
X144384819Y-91689523D02*
X144384819Y-91070476D01*
X143480057Y-90689523D02*
X143432438Y-90641904D01*
X143432438Y-90641904D02*
X143384819Y-90546666D01*
X143384819Y-90546666D02*
X143384819Y-90308571D01*
X143384819Y-90308571D02*
X143432438Y-90213333D01*
X143432438Y-90213333D02*
X143480057Y-90165714D01*
X143480057Y-90165714D02*
X143575295Y-90118095D01*
X143575295Y-90118095D02*
X143670533Y-90118095D01*
X143670533Y-90118095D02*
X143813390Y-90165714D01*
X143813390Y-90165714D02*
X144384819Y-90737142D01*
X144384819Y-90737142D02*
X144384819Y-90118095D01*
X145504819Y-97991904D02*
X144504819Y-97991904D01*
X145504819Y-97420476D02*
X144933390Y-97849047D01*
X144504819Y-97420476D02*
X145076247Y-97991904D01*
X120909580Y-87445238D02*
X120957200Y-87492857D01*
X120957200Y-87492857D02*
X121004819Y-87635714D01*
X121004819Y-87635714D02*
X121004819Y-87730952D01*
X121004819Y-87730952D02*
X120957200Y-87873809D01*
X120957200Y-87873809D02*
X120861961Y-87969047D01*
X120861961Y-87969047D02*
X120766723Y-88016666D01*
X120766723Y-88016666D02*
X120576247Y-88064285D01*
X120576247Y-88064285D02*
X120433390Y-88064285D01*
X120433390Y-88064285D02*
X120242914Y-88016666D01*
X120242914Y-88016666D02*
X120147676Y-87969047D01*
X120147676Y-87969047D02*
X120052438Y-87873809D01*
X120052438Y-87873809D02*
X120004819Y-87730952D01*
X120004819Y-87730952D02*
X120004819Y-87635714D01*
X120004819Y-87635714D02*
X120052438Y-87492857D01*
X120052438Y-87492857D02*
X120100057Y-87445238D01*
X120528628Y-86826190D02*
X121004819Y-86826190D01*
X120004819Y-87159523D02*
X120528628Y-86826190D01*
X120528628Y-86826190D02*
X120004819Y-86492857D01*
X121004819Y-85635714D02*
X121004819Y-86207142D01*
X121004819Y-85921428D02*
X120004819Y-85921428D01*
X120004819Y-85921428D02*
X120147676Y-86016666D01*
X120147676Y-86016666D02*
X120242914Y-86111904D01*
X120242914Y-86111904D02*
X120290533Y-86207142D01*
X180357142Y-124959580D02*
X180309523Y-125007200D01*
X180309523Y-125007200D02*
X180166666Y-125054819D01*
X180166666Y-125054819D02*
X180071428Y-125054819D01*
X180071428Y-125054819D02*
X179928571Y-125007200D01*
X179928571Y-125007200D02*
X179833333Y-124911961D01*
X179833333Y-124911961D02*
X179785714Y-124816723D01*
X179785714Y-124816723D02*
X179738095Y-124626247D01*
X179738095Y-124626247D02*
X179738095Y-124483390D01*
X179738095Y-124483390D02*
X179785714Y-124292914D01*
X179785714Y-124292914D02*
X179833333Y-124197676D01*
X179833333Y-124197676D02*
X179928571Y-124102438D01*
X179928571Y-124102438D02*
X180071428Y-124054819D01*
X180071428Y-124054819D02*
X180166666Y-124054819D01*
X180166666Y-124054819D02*
X180309523Y-124102438D01*
X180309523Y-124102438D02*
X180357142Y-124150057D01*
X180738095Y-124150057D02*
X180785714Y-124102438D01*
X180785714Y-124102438D02*
X180880952Y-124054819D01*
X180880952Y-124054819D02*
X181119047Y-124054819D01*
X181119047Y-124054819D02*
X181214285Y-124102438D01*
X181214285Y-124102438D02*
X181261904Y-124150057D01*
X181261904Y-124150057D02*
X181309523Y-124245295D01*
X181309523Y-124245295D02*
X181309523Y-124340533D01*
X181309523Y-124340533D02*
X181261904Y-124483390D01*
X181261904Y-124483390D02*
X180690476Y-125054819D01*
X180690476Y-125054819D02*
X181309523Y-125054819D01*
X182214285Y-124054819D02*
X181738095Y-124054819D01*
X181738095Y-124054819D02*
X181690476Y-124531009D01*
X181690476Y-124531009D02*
X181738095Y-124483390D01*
X181738095Y-124483390D02*
X181833333Y-124435771D01*
X181833333Y-124435771D02*
X182071428Y-124435771D01*
X182071428Y-124435771D02*
X182166666Y-124483390D01*
X182166666Y-124483390D02*
X182214285Y-124531009D01*
X182214285Y-124531009D02*
X182261904Y-124626247D01*
X182261904Y-124626247D02*
X182261904Y-124864342D01*
X182261904Y-124864342D02*
X182214285Y-124959580D01*
X182214285Y-124959580D02*
X182166666Y-125007200D01*
X182166666Y-125007200D02*
X182071428Y-125054819D01*
X182071428Y-125054819D02*
X181833333Y-125054819D01*
X181833333Y-125054819D02*
X181738095Y-125007200D01*
X181738095Y-125007200D02*
X181690476Y-124959580D01*
X93159580Y-124842857D02*
X93207200Y-124890476D01*
X93207200Y-124890476D02*
X93254819Y-125033333D01*
X93254819Y-125033333D02*
X93254819Y-125128571D01*
X93254819Y-125128571D02*
X93207200Y-125271428D01*
X93207200Y-125271428D02*
X93111961Y-125366666D01*
X93111961Y-125366666D02*
X93016723Y-125414285D01*
X93016723Y-125414285D02*
X92826247Y-125461904D01*
X92826247Y-125461904D02*
X92683390Y-125461904D01*
X92683390Y-125461904D02*
X92492914Y-125414285D01*
X92492914Y-125414285D02*
X92397676Y-125366666D01*
X92397676Y-125366666D02*
X92302438Y-125271428D01*
X92302438Y-125271428D02*
X92254819Y-125128571D01*
X92254819Y-125128571D02*
X92254819Y-125033333D01*
X92254819Y-125033333D02*
X92302438Y-124890476D01*
X92302438Y-124890476D02*
X92350057Y-124842857D01*
X93254819Y-123890476D02*
X93254819Y-124461904D01*
X93254819Y-124176190D02*
X92254819Y-124176190D01*
X92254819Y-124176190D02*
X92397676Y-124271428D01*
X92397676Y-124271428D02*
X92492914Y-124366666D01*
X92492914Y-124366666D02*
X92540533Y-124461904D01*
X92254819Y-122985714D02*
X92254819Y-123461904D01*
X92254819Y-123461904D02*
X92731009Y-123509523D01*
X92731009Y-123509523D02*
X92683390Y-123461904D01*
X92683390Y-123461904D02*
X92635771Y-123366666D01*
X92635771Y-123366666D02*
X92635771Y-123128571D01*
X92635771Y-123128571D02*
X92683390Y-123033333D01*
X92683390Y-123033333D02*
X92731009Y-122985714D01*
X92731009Y-122985714D02*
X92826247Y-122938095D01*
X92826247Y-122938095D02*
X93064342Y-122938095D01*
X93064342Y-122938095D02*
X93159580Y-122985714D01*
X93159580Y-122985714D02*
X93207200Y-123033333D01*
X93207200Y-123033333D02*
X93254819Y-123128571D01*
X93254819Y-123128571D02*
X93254819Y-123366666D01*
X93254819Y-123366666D02*
X93207200Y-123461904D01*
X93207200Y-123461904D02*
X93159580Y-123509523D01*
X79909819Y-149169285D02*
X78909819Y-149169285D01*
X78909819Y-149169285D02*
X78909819Y-148931190D01*
X78909819Y-148931190D02*
X78957438Y-148788333D01*
X78957438Y-148788333D02*
X79052676Y-148693095D01*
X79052676Y-148693095D02*
X79147914Y-148645476D01*
X79147914Y-148645476D02*
X79338390Y-148597857D01*
X79338390Y-148597857D02*
X79481247Y-148597857D01*
X79481247Y-148597857D02*
X79671723Y-148645476D01*
X79671723Y-148645476D02*
X79766961Y-148693095D01*
X79766961Y-148693095D02*
X79862200Y-148788333D01*
X79862200Y-148788333D02*
X79909819Y-148931190D01*
X79909819Y-148931190D02*
X79909819Y-149169285D01*
X79005057Y-148216904D02*
X78957438Y-148169285D01*
X78957438Y-148169285D02*
X78909819Y-148074047D01*
X78909819Y-148074047D02*
X78909819Y-147835952D01*
X78909819Y-147835952D02*
X78957438Y-147740714D01*
X78957438Y-147740714D02*
X79005057Y-147693095D01*
X79005057Y-147693095D02*
X79100295Y-147645476D01*
X79100295Y-147645476D02*
X79195533Y-147645476D01*
X79195533Y-147645476D02*
X79338390Y-147693095D01*
X79338390Y-147693095D02*
X79909819Y-148264523D01*
X79909819Y-148264523D02*
X79909819Y-147645476D01*
X79909819Y-147169285D02*
X79909819Y-146978809D01*
X79909819Y-146978809D02*
X79862200Y-146883571D01*
X79862200Y-146883571D02*
X79814580Y-146835952D01*
X79814580Y-146835952D02*
X79671723Y-146740714D01*
X79671723Y-146740714D02*
X79481247Y-146693095D01*
X79481247Y-146693095D02*
X79100295Y-146693095D01*
X79100295Y-146693095D02*
X79005057Y-146740714D01*
X79005057Y-146740714D02*
X78957438Y-146788333D01*
X78957438Y-146788333D02*
X78909819Y-146883571D01*
X78909819Y-146883571D02*
X78909819Y-147074047D01*
X78909819Y-147074047D02*
X78957438Y-147169285D01*
X78957438Y-147169285D02*
X79005057Y-147216904D01*
X79005057Y-147216904D02*
X79100295Y-147264523D01*
X79100295Y-147264523D02*
X79338390Y-147264523D01*
X79338390Y-147264523D02*
X79433628Y-147216904D01*
X79433628Y-147216904D02*
X79481247Y-147169285D01*
X79481247Y-147169285D02*
X79528866Y-147074047D01*
X79528866Y-147074047D02*
X79528866Y-146883571D01*
X79528866Y-146883571D02*
X79481247Y-146788333D01*
X79481247Y-146788333D02*
X79433628Y-146740714D01*
X79433628Y-146740714D02*
X79338390Y-146693095D01*
X139414580Y-100047857D02*
X139462200Y-100095476D01*
X139462200Y-100095476D02*
X139509819Y-100238333D01*
X139509819Y-100238333D02*
X139509819Y-100333571D01*
X139509819Y-100333571D02*
X139462200Y-100476428D01*
X139462200Y-100476428D02*
X139366961Y-100571666D01*
X139366961Y-100571666D02*
X139271723Y-100619285D01*
X139271723Y-100619285D02*
X139081247Y-100666904D01*
X139081247Y-100666904D02*
X138938390Y-100666904D01*
X138938390Y-100666904D02*
X138747914Y-100619285D01*
X138747914Y-100619285D02*
X138652676Y-100571666D01*
X138652676Y-100571666D02*
X138557438Y-100476428D01*
X138557438Y-100476428D02*
X138509819Y-100333571D01*
X138509819Y-100333571D02*
X138509819Y-100238333D01*
X138509819Y-100238333D02*
X138557438Y-100095476D01*
X138557438Y-100095476D02*
X138605057Y-100047857D01*
X138509819Y-99714523D02*
X138509819Y-99095476D01*
X138509819Y-99095476D02*
X138890771Y-99428809D01*
X138890771Y-99428809D02*
X138890771Y-99285952D01*
X138890771Y-99285952D02*
X138938390Y-99190714D01*
X138938390Y-99190714D02*
X138986009Y-99143095D01*
X138986009Y-99143095D02*
X139081247Y-99095476D01*
X139081247Y-99095476D02*
X139319342Y-99095476D01*
X139319342Y-99095476D02*
X139414580Y-99143095D01*
X139414580Y-99143095D02*
X139462200Y-99190714D01*
X139462200Y-99190714D02*
X139509819Y-99285952D01*
X139509819Y-99285952D02*
X139509819Y-99571666D01*
X139509819Y-99571666D02*
X139462200Y-99666904D01*
X139462200Y-99666904D02*
X139414580Y-99714523D01*
X138843152Y-98238333D02*
X139509819Y-98238333D01*
X138462200Y-98476428D02*
X139176485Y-98714523D01*
X139176485Y-98714523D02*
X139176485Y-98095476D01*
X80216666Y-74981009D02*
X79883333Y-74981009D01*
X79883333Y-75504819D02*
X79883333Y-74504819D01*
X79883333Y-74504819D02*
X80359523Y-74504819D01*
X81264285Y-75504819D02*
X80692857Y-75504819D01*
X80978571Y-75504819D02*
X80978571Y-74504819D01*
X80978571Y-74504819D02*
X80883333Y-74647676D01*
X80883333Y-74647676D02*
X80788095Y-74742914D01*
X80788095Y-74742914D02*
X80692857Y-74790533D01*
X79909819Y-114754285D02*
X78909819Y-114754285D01*
X78909819Y-114754285D02*
X78909819Y-114516190D01*
X78909819Y-114516190D02*
X78957438Y-114373333D01*
X78957438Y-114373333D02*
X79052676Y-114278095D01*
X79052676Y-114278095D02*
X79147914Y-114230476D01*
X79147914Y-114230476D02*
X79338390Y-114182857D01*
X79338390Y-114182857D02*
X79481247Y-114182857D01*
X79481247Y-114182857D02*
X79671723Y-114230476D01*
X79671723Y-114230476D02*
X79766961Y-114278095D01*
X79766961Y-114278095D02*
X79862200Y-114373333D01*
X79862200Y-114373333D02*
X79909819Y-114516190D01*
X79909819Y-114516190D02*
X79909819Y-114754285D01*
X79909819Y-113230476D02*
X79909819Y-113801904D01*
X79909819Y-113516190D02*
X78909819Y-113516190D01*
X78909819Y-113516190D02*
X79052676Y-113611428D01*
X79052676Y-113611428D02*
X79147914Y-113706666D01*
X79147914Y-113706666D02*
X79195533Y-113801904D01*
X78909819Y-112897142D02*
X78909819Y-112230476D01*
X78909819Y-112230476D02*
X79909819Y-112659047D01*
X181350057Y-126295238D02*
X181302438Y-126390476D01*
X181302438Y-126390476D02*
X181207200Y-126485714D01*
X181207200Y-126485714D02*
X181064342Y-126628571D01*
X181064342Y-126628571D02*
X181016723Y-126723809D01*
X181016723Y-126723809D02*
X181016723Y-126819047D01*
X181254819Y-126771428D02*
X181207200Y-126866666D01*
X181207200Y-126866666D02*
X181111961Y-126961904D01*
X181111961Y-126961904D02*
X180921485Y-127009523D01*
X180921485Y-127009523D02*
X180588152Y-127009523D01*
X180588152Y-127009523D02*
X180397676Y-126961904D01*
X180397676Y-126961904D02*
X180302438Y-126866666D01*
X180302438Y-126866666D02*
X180254819Y-126771428D01*
X180254819Y-126771428D02*
X180254819Y-126580952D01*
X180254819Y-126580952D02*
X180302438Y-126485714D01*
X180302438Y-126485714D02*
X180397676Y-126390476D01*
X180397676Y-126390476D02*
X180588152Y-126342857D01*
X180588152Y-126342857D02*
X180921485Y-126342857D01*
X180921485Y-126342857D02*
X181111961Y-126390476D01*
X181111961Y-126390476D02*
X181207200Y-126485714D01*
X181207200Y-126485714D02*
X181254819Y-126580952D01*
X181254819Y-126580952D02*
X181254819Y-126771428D01*
X181254819Y-125390476D02*
X181254819Y-125961904D01*
X181254819Y-125676190D02*
X180254819Y-125676190D01*
X180254819Y-125676190D02*
X180397676Y-125771428D01*
X180397676Y-125771428D02*
X180492914Y-125866666D01*
X180492914Y-125866666D02*
X180540533Y-125961904D01*
X92157142Y-135359580D02*
X92109523Y-135407200D01*
X92109523Y-135407200D02*
X91966666Y-135454819D01*
X91966666Y-135454819D02*
X91871428Y-135454819D01*
X91871428Y-135454819D02*
X91728571Y-135407200D01*
X91728571Y-135407200D02*
X91633333Y-135311961D01*
X91633333Y-135311961D02*
X91585714Y-135216723D01*
X91585714Y-135216723D02*
X91538095Y-135026247D01*
X91538095Y-135026247D02*
X91538095Y-134883390D01*
X91538095Y-134883390D02*
X91585714Y-134692914D01*
X91585714Y-134692914D02*
X91633333Y-134597676D01*
X91633333Y-134597676D02*
X91728571Y-134502438D01*
X91728571Y-134502438D02*
X91871428Y-134454819D01*
X91871428Y-134454819D02*
X91966666Y-134454819D01*
X91966666Y-134454819D02*
X92109523Y-134502438D01*
X92109523Y-134502438D02*
X92157142Y-134550057D01*
X93109523Y-135454819D02*
X92538095Y-135454819D01*
X92823809Y-135454819D02*
X92823809Y-134454819D01*
X92823809Y-134454819D02*
X92728571Y-134597676D01*
X92728571Y-134597676D02*
X92633333Y-134692914D01*
X92633333Y-134692914D02*
X92538095Y-134740533D01*
X93966666Y-134788152D02*
X93966666Y-135454819D01*
X93728571Y-134407200D02*
X93490476Y-135121485D01*
X93490476Y-135121485D02*
X94109523Y-135121485D01*
X84159580Y-136377857D02*
X84207200Y-136425476D01*
X84207200Y-136425476D02*
X84254819Y-136568333D01*
X84254819Y-136568333D02*
X84254819Y-136663571D01*
X84254819Y-136663571D02*
X84207200Y-136806428D01*
X84207200Y-136806428D02*
X84111961Y-136901666D01*
X84111961Y-136901666D02*
X84016723Y-136949285D01*
X84016723Y-136949285D02*
X83826247Y-136996904D01*
X83826247Y-136996904D02*
X83683390Y-136996904D01*
X83683390Y-136996904D02*
X83492914Y-136949285D01*
X83492914Y-136949285D02*
X83397676Y-136901666D01*
X83397676Y-136901666D02*
X83302438Y-136806428D01*
X83302438Y-136806428D02*
X83254819Y-136663571D01*
X83254819Y-136663571D02*
X83254819Y-136568333D01*
X83254819Y-136568333D02*
X83302438Y-136425476D01*
X83302438Y-136425476D02*
X83350057Y-136377857D01*
X83350057Y-135996904D02*
X83302438Y-135949285D01*
X83302438Y-135949285D02*
X83254819Y-135854047D01*
X83254819Y-135854047D02*
X83254819Y-135615952D01*
X83254819Y-135615952D02*
X83302438Y-135520714D01*
X83302438Y-135520714D02*
X83350057Y-135473095D01*
X83350057Y-135473095D02*
X83445295Y-135425476D01*
X83445295Y-135425476D02*
X83540533Y-135425476D01*
X83540533Y-135425476D02*
X83683390Y-135473095D01*
X83683390Y-135473095D02*
X84254819Y-136044523D01*
X84254819Y-136044523D02*
X84254819Y-135425476D01*
X83254819Y-134568333D02*
X83254819Y-134758809D01*
X83254819Y-134758809D02*
X83302438Y-134854047D01*
X83302438Y-134854047D02*
X83350057Y-134901666D01*
X83350057Y-134901666D02*
X83492914Y-134996904D01*
X83492914Y-134996904D02*
X83683390Y-135044523D01*
X83683390Y-135044523D02*
X84064342Y-135044523D01*
X84064342Y-135044523D02*
X84159580Y-134996904D01*
X84159580Y-134996904D02*
X84207200Y-134949285D01*
X84207200Y-134949285D02*
X84254819Y-134854047D01*
X84254819Y-134854047D02*
X84254819Y-134663571D01*
X84254819Y-134663571D02*
X84207200Y-134568333D01*
X84207200Y-134568333D02*
X84159580Y-134520714D01*
X84159580Y-134520714D02*
X84064342Y-134473095D01*
X84064342Y-134473095D02*
X83826247Y-134473095D01*
X83826247Y-134473095D02*
X83731009Y-134520714D01*
X83731009Y-134520714D02*
X83683390Y-134568333D01*
X83683390Y-134568333D02*
X83635771Y-134663571D01*
X83635771Y-134663571D02*
X83635771Y-134854047D01*
X83635771Y-134854047D02*
X83683390Y-134949285D01*
X83683390Y-134949285D02*
X83731009Y-134996904D01*
X83731009Y-134996904D02*
X83826247Y-135044523D01*
X161957142Y-157359580D02*
X161909523Y-157407200D01*
X161909523Y-157407200D02*
X161766666Y-157454819D01*
X161766666Y-157454819D02*
X161671428Y-157454819D01*
X161671428Y-157454819D02*
X161528571Y-157407200D01*
X161528571Y-157407200D02*
X161433333Y-157311961D01*
X161433333Y-157311961D02*
X161385714Y-157216723D01*
X161385714Y-157216723D02*
X161338095Y-157026247D01*
X161338095Y-157026247D02*
X161338095Y-156883390D01*
X161338095Y-156883390D02*
X161385714Y-156692914D01*
X161385714Y-156692914D02*
X161433333Y-156597676D01*
X161433333Y-156597676D02*
X161528571Y-156502438D01*
X161528571Y-156502438D02*
X161671428Y-156454819D01*
X161671428Y-156454819D02*
X161766666Y-156454819D01*
X161766666Y-156454819D02*
X161909523Y-156502438D01*
X161909523Y-156502438D02*
X161957142Y-156550057D01*
X162290476Y-156454819D02*
X162909523Y-156454819D01*
X162909523Y-156454819D02*
X162576190Y-156835771D01*
X162576190Y-156835771D02*
X162719047Y-156835771D01*
X162719047Y-156835771D02*
X162814285Y-156883390D01*
X162814285Y-156883390D02*
X162861904Y-156931009D01*
X162861904Y-156931009D02*
X162909523Y-157026247D01*
X162909523Y-157026247D02*
X162909523Y-157264342D01*
X162909523Y-157264342D02*
X162861904Y-157359580D01*
X162861904Y-157359580D02*
X162814285Y-157407200D01*
X162814285Y-157407200D02*
X162719047Y-157454819D01*
X162719047Y-157454819D02*
X162433333Y-157454819D01*
X162433333Y-157454819D02*
X162338095Y-157407200D01*
X162338095Y-157407200D02*
X162290476Y-157359580D01*
X163861904Y-157454819D02*
X163290476Y-157454819D01*
X163576190Y-157454819D02*
X163576190Y-156454819D01*
X163576190Y-156454819D02*
X163480952Y-156597676D01*
X163480952Y-156597676D02*
X163385714Y-156692914D01*
X163385714Y-156692914D02*
X163290476Y-156740533D01*
X137859580Y-87392857D02*
X137907200Y-87440476D01*
X137907200Y-87440476D02*
X137954819Y-87583333D01*
X137954819Y-87583333D02*
X137954819Y-87678571D01*
X137954819Y-87678571D02*
X137907200Y-87821428D01*
X137907200Y-87821428D02*
X137811961Y-87916666D01*
X137811961Y-87916666D02*
X137716723Y-87964285D01*
X137716723Y-87964285D02*
X137526247Y-88011904D01*
X137526247Y-88011904D02*
X137383390Y-88011904D01*
X137383390Y-88011904D02*
X137192914Y-87964285D01*
X137192914Y-87964285D02*
X137097676Y-87916666D01*
X137097676Y-87916666D02*
X137002438Y-87821428D01*
X137002438Y-87821428D02*
X136954819Y-87678571D01*
X136954819Y-87678571D02*
X136954819Y-87583333D01*
X136954819Y-87583333D02*
X137002438Y-87440476D01*
X137002438Y-87440476D02*
X137050057Y-87392857D01*
X137954819Y-86440476D02*
X137954819Y-87011904D01*
X137954819Y-86726190D02*
X136954819Y-86726190D01*
X136954819Y-86726190D02*
X137097676Y-86821428D01*
X137097676Y-86821428D02*
X137192914Y-86916666D01*
X137192914Y-86916666D02*
X137240533Y-87011904D01*
X137954819Y-85488095D02*
X137954819Y-86059523D01*
X137954819Y-85773809D02*
X136954819Y-85773809D01*
X136954819Y-85773809D02*
X137097676Y-85869047D01*
X137097676Y-85869047D02*
X137192914Y-85964285D01*
X137192914Y-85964285D02*
X137240533Y-86059523D01*
X183557142Y-118159580D02*
X183509523Y-118207200D01*
X183509523Y-118207200D02*
X183366666Y-118254819D01*
X183366666Y-118254819D02*
X183271428Y-118254819D01*
X183271428Y-118254819D02*
X183128571Y-118207200D01*
X183128571Y-118207200D02*
X183033333Y-118111961D01*
X183033333Y-118111961D02*
X182985714Y-118016723D01*
X182985714Y-118016723D02*
X182938095Y-117826247D01*
X182938095Y-117826247D02*
X182938095Y-117683390D01*
X182938095Y-117683390D02*
X182985714Y-117492914D01*
X182985714Y-117492914D02*
X183033333Y-117397676D01*
X183033333Y-117397676D02*
X183128571Y-117302438D01*
X183128571Y-117302438D02*
X183271428Y-117254819D01*
X183271428Y-117254819D02*
X183366666Y-117254819D01*
X183366666Y-117254819D02*
X183509523Y-117302438D01*
X183509523Y-117302438D02*
X183557142Y-117350057D01*
X184414285Y-117588152D02*
X184414285Y-118254819D01*
X184176190Y-117207200D02*
X183938095Y-117921485D01*
X183938095Y-117921485D02*
X184557142Y-117921485D01*
X184842857Y-117254819D02*
X185509523Y-117254819D01*
X185509523Y-117254819D02*
X185080952Y-118254819D01*
X188738095Y-113054819D02*
X189309523Y-113054819D01*
X189023809Y-114054819D02*
X189023809Y-113054819D01*
X189642857Y-114054819D02*
X189642857Y-113054819D01*
X189642857Y-113054819D02*
X190023809Y-113054819D01*
X190023809Y-113054819D02*
X190119047Y-113102438D01*
X190119047Y-113102438D02*
X190166666Y-113150057D01*
X190166666Y-113150057D02*
X190214285Y-113245295D01*
X190214285Y-113245295D02*
X190214285Y-113388152D01*
X190214285Y-113388152D02*
X190166666Y-113483390D01*
X190166666Y-113483390D02*
X190119047Y-113531009D01*
X190119047Y-113531009D02*
X190023809Y-113578628D01*
X190023809Y-113578628D02*
X189642857Y-113578628D01*
X190785714Y-113483390D02*
X190690476Y-113435771D01*
X190690476Y-113435771D02*
X190642857Y-113388152D01*
X190642857Y-113388152D02*
X190595238Y-113292914D01*
X190595238Y-113292914D02*
X190595238Y-113245295D01*
X190595238Y-113245295D02*
X190642857Y-113150057D01*
X190642857Y-113150057D02*
X190690476Y-113102438D01*
X190690476Y-113102438D02*
X190785714Y-113054819D01*
X190785714Y-113054819D02*
X190976190Y-113054819D01*
X190976190Y-113054819D02*
X191071428Y-113102438D01*
X191071428Y-113102438D02*
X191119047Y-113150057D01*
X191119047Y-113150057D02*
X191166666Y-113245295D01*
X191166666Y-113245295D02*
X191166666Y-113292914D01*
X191166666Y-113292914D02*
X191119047Y-113388152D01*
X191119047Y-113388152D02*
X191071428Y-113435771D01*
X191071428Y-113435771D02*
X190976190Y-113483390D01*
X190976190Y-113483390D02*
X190785714Y-113483390D01*
X190785714Y-113483390D02*
X190690476Y-113531009D01*
X190690476Y-113531009D02*
X190642857Y-113578628D01*
X190642857Y-113578628D02*
X190595238Y-113673866D01*
X190595238Y-113673866D02*
X190595238Y-113864342D01*
X190595238Y-113864342D02*
X190642857Y-113959580D01*
X190642857Y-113959580D02*
X190690476Y-114007200D01*
X190690476Y-114007200D02*
X190785714Y-114054819D01*
X190785714Y-114054819D02*
X190976190Y-114054819D01*
X190976190Y-114054819D02*
X191071428Y-114007200D01*
X191071428Y-114007200D02*
X191119047Y-113959580D01*
X191119047Y-113959580D02*
X191166666Y-113864342D01*
X191166666Y-113864342D02*
X191166666Y-113673866D01*
X191166666Y-113673866D02*
X191119047Y-113578628D01*
X191119047Y-113578628D02*
X191071428Y-113531009D01*
X191071428Y-113531009D02*
X190976190Y-113483390D01*
X105554761Y-63559580D02*
X105507142Y-63607200D01*
X105507142Y-63607200D02*
X105364285Y-63654819D01*
X105364285Y-63654819D02*
X105269047Y-63654819D01*
X105269047Y-63654819D02*
X105126190Y-63607200D01*
X105126190Y-63607200D02*
X105030952Y-63511961D01*
X105030952Y-63511961D02*
X104983333Y-63416723D01*
X104983333Y-63416723D02*
X104935714Y-63226247D01*
X104935714Y-63226247D02*
X104935714Y-63083390D01*
X104935714Y-63083390D02*
X104983333Y-62892914D01*
X104983333Y-62892914D02*
X105030952Y-62797676D01*
X105030952Y-62797676D02*
X105126190Y-62702438D01*
X105126190Y-62702438D02*
X105269047Y-62654819D01*
X105269047Y-62654819D02*
X105364285Y-62654819D01*
X105364285Y-62654819D02*
X105507142Y-62702438D01*
X105507142Y-62702438D02*
X105554761Y-62750057D01*
X106173809Y-63178628D02*
X106173809Y-63654819D01*
X105840476Y-62654819D02*
X106173809Y-63178628D01*
X106173809Y-63178628D02*
X106507142Y-62654819D01*
X106888095Y-63654819D02*
X107078571Y-63654819D01*
X107078571Y-63654819D02*
X107173809Y-63607200D01*
X107173809Y-63607200D02*
X107221428Y-63559580D01*
X107221428Y-63559580D02*
X107316666Y-63416723D01*
X107316666Y-63416723D02*
X107364285Y-63226247D01*
X107364285Y-63226247D02*
X107364285Y-62845295D01*
X107364285Y-62845295D02*
X107316666Y-62750057D01*
X107316666Y-62750057D02*
X107269047Y-62702438D01*
X107269047Y-62702438D02*
X107173809Y-62654819D01*
X107173809Y-62654819D02*
X106983333Y-62654819D01*
X106983333Y-62654819D02*
X106888095Y-62702438D01*
X106888095Y-62702438D02*
X106840476Y-62750057D01*
X106840476Y-62750057D02*
X106792857Y-62845295D01*
X106792857Y-62845295D02*
X106792857Y-63083390D01*
X106792857Y-63083390D02*
X106840476Y-63178628D01*
X106840476Y-63178628D02*
X106888095Y-63226247D01*
X106888095Y-63226247D02*
X106983333Y-63273866D01*
X106983333Y-63273866D02*
X107173809Y-63273866D01*
X107173809Y-63273866D02*
X107269047Y-63226247D01*
X107269047Y-63226247D02*
X107316666Y-63178628D01*
X107316666Y-63178628D02*
X107364285Y-63083390D01*
X193688095Y-67954819D02*
X194259523Y-67954819D01*
X193973809Y-68954819D02*
X193973809Y-67954819D01*
X194592857Y-68954819D02*
X194592857Y-67954819D01*
X194592857Y-67954819D02*
X194973809Y-67954819D01*
X194973809Y-67954819D02*
X195069047Y-68002438D01*
X195069047Y-68002438D02*
X195116666Y-68050057D01*
X195116666Y-68050057D02*
X195164285Y-68145295D01*
X195164285Y-68145295D02*
X195164285Y-68288152D01*
X195164285Y-68288152D02*
X195116666Y-68383390D01*
X195116666Y-68383390D02*
X195069047Y-68431009D01*
X195069047Y-68431009D02*
X194973809Y-68478628D01*
X194973809Y-68478628D02*
X194592857Y-68478628D01*
X195497619Y-67954819D02*
X196116666Y-67954819D01*
X196116666Y-67954819D02*
X195783333Y-68335771D01*
X195783333Y-68335771D02*
X195926190Y-68335771D01*
X195926190Y-68335771D02*
X196021428Y-68383390D01*
X196021428Y-68383390D02*
X196069047Y-68431009D01*
X196069047Y-68431009D02*
X196116666Y-68526247D01*
X196116666Y-68526247D02*
X196116666Y-68764342D01*
X196116666Y-68764342D02*
X196069047Y-68859580D01*
X196069047Y-68859580D02*
X196021428Y-68907200D01*
X196021428Y-68907200D02*
X195926190Y-68954819D01*
X195926190Y-68954819D02*
X195640476Y-68954819D01*
X195640476Y-68954819D02*
X195545238Y-68907200D01*
X195545238Y-68907200D02*
X195497619Y-68859580D01*
X180466667Y-107254819D02*
X180800000Y-108254819D01*
X180800000Y-108254819D02*
X181133333Y-107254819D01*
X182038095Y-108159580D02*
X181990476Y-108207200D01*
X181990476Y-108207200D02*
X181847619Y-108254819D01*
X181847619Y-108254819D02*
X181752381Y-108254819D01*
X181752381Y-108254819D02*
X181609524Y-108207200D01*
X181609524Y-108207200D02*
X181514286Y-108111961D01*
X181514286Y-108111961D02*
X181466667Y-108016723D01*
X181466667Y-108016723D02*
X181419048Y-107826247D01*
X181419048Y-107826247D02*
X181419048Y-107683390D01*
X181419048Y-107683390D02*
X181466667Y-107492914D01*
X181466667Y-107492914D02*
X181514286Y-107397676D01*
X181514286Y-107397676D02*
X181609524Y-107302438D01*
X181609524Y-107302438D02*
X181752381Y-107254819D01*
X181752381Y-107254819D02*
X181847619Y-107254819D01*
X181847619Y-107254819D02*
X181990476Y-107302438D01*
X181990476Y-107302438D02*
X182038095Y-107350057D01*
X183038095Y-108159580D02*
X182990476Y-108207200D01*
X182990476Y-108207200D02*
X182847619Y-108254819D01*
X182847619Y-108254819D02*
X182752381Y-108254819D01*
X182752381Y-108254819D02*
X182609524Y-108207200D01*
X182609524Y-108207200D02*
X182514286Y-108111961D01*
X182514286Y-108111961D02*
X182466667Y-108016723D01*
X182466667Y-108016723D02*
X182419048Y-107826247D01*
X182419048Y-107826247D02*
X182419048Y-107683390D01*
X182419048Y-107683390D02*
X182466667Y-107492914D01*
X182466667Y-107492914D02*
X182514286Y-107397676D01*
X182514286Y-107397676D02*
X182609524Y-107302438D01*
X182609524Y-107302438D02*
X182752381Y-107254819D01*
X182752381Y-107254819D02*
X182847619Y-107254819D01*
X182847619Y-107254819D02*
X182990476Y-107302438D01*
X182990476Y-107302438D02*
X183038095Y-107350057D01*
X171785714Y-55734819D02*
X171785714Y-54734819D01*
X171785714Y-54734819D02*
X172023809Y-54734819D01*
X172023809Y-54734819D02*
X172166666Y-54782438D01*
X172166666Y-54782438D02*
X172261904Y-54877676D01*
X172261904Y-54877676D02*
X172309523Y-54972914D01*
X172309523Y-54972914D02*
X172357142Y-55163390D01*
X172357142Y-55163390D02*
X172357142Y-55306247D01*
X172357142Y-55306247D02*
X172309523Y-55496723D01*
X172309523Y-55496723D02*
X172261904Y-55591961D01*
X172261904Y-55591961D02*
X172166666Y-55687200D01*
X172166666Y-55687200D02*
X172023809Y-55734819D01*
X172023809Y-55734819D02*
X171785714Y-55734819D01*
X172738095Y-54830057D02*
X172785714Y-54782438D01*
X172785714Y-54782438D02*
X172880952Y-54734819D01*
X172880952Y-54734819D02*
X173119047Y-54734819D01*
X173119047Y-54734819D02*
X173214285Y-54782438D01*
X173214285Y-54782438D02*
X173261904Y-54830057D01*
X173261904Y-54830057D02*
X173309523Y-54925295D01*
X173309523Y-54925295D02*
X173309523Y-55020533D01*
X173309523Y-55020533D02*
X173261904Y-55163390D01*
X173261904Y-55163390D02*
X172690476Y-55734819D01*
X172690476Y-55734819D02*
X173309523Y-55734819D01*
X173642857Y-54734819D02*
X174261904Y-54734819D01*
X174261904Y-54734819D02*
X173928571Y-55115771D01*
X173928571Y-55115771D02*
X174071428Y-55115771D01*
X174071428Y-55115771D02*
X174166666Y-55163390D01*
X174166666Y-55163390D02*
X174214285Y-55211009D01*
X174214285Y-55211009D02*
X174261904Y-55306247D01*
X174261904Y-55306247D02*
X174261904Y-55544342D01*
X174261904Y-55544342D02*
X174214285Y-55639580D01*
X174214285Y-55639580D02*
X174166666Y-55687200D01*
X174166666Y-55687200D02*
X174071428Y-55734819D01*
X174071428Y-55734819D02*
X173785714Y-55734819D01*
X173785714Y-55734819D02*
X173690476Y-55687200D01*
X173690476Y-55687200D02*
X173642857Y-55639580D01*
X166388095Y-56854819D02*
X166388095Y-55854819D01*
X166959523Y-56854819D02*
X166530952Y-56283390D01*
X166959523Y-55854819D02*
X166388095Y-56426247D01*
X130559523Y-93938152D02*
X130559523Y-94604819D01*
X130321428Y-93557200D02*
X130083333Y-94271485D01*
X130083333Y-94271485D02*
X130702380Y-94271485D01*
X131273809Y-93604819D02*
X131369047Y-93604819D01*
X131369047Y-93604819D02*
X131464285Y-93652438D01*
X131464285Y-93652438D02*
X131511904Y-93700057D01*
X131511904Y-93700057D02*
X131559523Y-93795295D01*
X131559523Y-93795295D02*
X131607142Y-93985771D01*
X131607142Y-93985771D02*
X131607142Y-94223866D01*
X131607142Y-94223866D02*
X131559523Y-94414342D01*
X131559523Y-94414342D02*
X131511904Y-94509580D01*
X131511904Y-94509580D02*
X131464285Y-94557200D01*
X131464285Y-94557200D02*
X131369047Y-94604819D01*
X131369047Y-94604819D02*
X131273809Y-94604819D01*
X131273809Y-94604819D02*
X131178571Y-94557200D01*
X131178571Y-94557200D02*
X131130952Y-94509580D01*
X131130952Y-94509580D02*
X131083333Y-94414342D01*
X131083333Y-94414342D02*
X131035714Y-94223866D01*
X131035714Y-94223866D02*
X131035714Y-93985771D01*
X131035714Y-93985771D02*
X131083333Y-93795295D01*
X131083333Y-93795295D02*
X131130952Y-93700057D01*
X131130952Y-93700057D02*
X131178571Y-93652438D01*
X131178571Y-93652438D02*
X131273809Y-93604819D01*
X132226190Y-93604819D02*
X132321428Y-93604819D01*
X132321428Y-93604819D02*
X132416666Y-93652438D01*
X132416666Y-93652438D02*
X132464285Y-93700057D01*
X132464285Y-93700057D02*
X132511904Y-93795295D01*
X132511904Y-93795295D02*
X132559523Y-93985771D01*
X132559523Y-93985771D02*
X132559523Y-94223866D01*
X132559523Y-94223866D02*
X132511904Y-94414342D01*
X132511904Y-94414342D02*
X132464285Y-94509580D01*
X132464285Y-94509580D02*
X132416666Y-94557200D01*
X132416666Y-94557200D02*
X132321428Y-94604819D01*
X132321428Y-94604819D02*
X132226190Y-94604819D01*
X132226190Y-94604819D02*
X132130952Y-94557200D01*
X132130952Y-94557200D02*
X132083333Y-94509580D01*
X132083333Y-94509580D02*
X132035714Y-94414342D01*
X132035714Y-94414342D02*
X131988095Y-94223866D01*
X131988095Y-94223866D02*
X131988095Y-93985771D01*
X131988095Y-93985771D02*
X132035714Y-93795295D01*
X132035714Y-93795295D02*
X132083333Y-93700057D01*
X132083333Y-93700057D02*
X132130952Y-93652438D01*
X132130952Y-93652438D02*
X132226190Y-93604819D01*
X132845238Y-93604819D02*
X133178571Y-94604819D01*
X133178571Y-94604819D02*
X133511904Y-93604819D01*
X90264286Y-81404819D02*
X90835714Y-81404819D01*
X90550000Y-82404819D02*
X90550000Y-81404819D01*
X91169048Y-82404819D02*
X91169048Y-81404819D01*
X91169048Y-81881009D02*
X91740476Y-81881009D01*
X91740476Y-82404819D02*
X91740476Y-81404819D01*
X92740476Y-82404819D02*
X92169048Y-82404819D01*
X92454762Y-82404819D02*
X92454762Y-81404819D01*
X92454762Y-81404819D02*
X92359524Y-81547676D01*
X92359524Y-81547676D02*
X92264286Y-81642914D01*
X92264286Y-81642914D02*
X92169048Y-81690533D01*
X155085819Y-101166666D02*
X155085819Y-101642856D01*
X155085819Y-101642856D02*
X154085819Y-101642856D01*
X154085819Y-100928570D02*
X154085819Y-100309523D01*
X154085819Y-100309523D02*
X154466771Y-100642856D01*
X154466771Y-100642856D02*
X154466771Y-100499999D01*
X154466771Y-100499999D02*
X154514390Y-100404761D01*
X154514390Y-100404761D02*
X154562009Y-100357142D01*
X154562009Y-100357142D02*
X154657247Y-100309523D01*
X154657247Y-100309523D02*
X154895342Y-100309523D01*
X154895342Y-100309523D02*
X154990580Y-100357142D01*
X154990580Y-100357142D02*
X155038200Y-100404761D01*
X155038200Y-100404761D02*
X155085819Y-100499999D01*
X155085819Y-100499999D02*
X155085819Y-100785713D01*
X155085819Y-100785713D02*
X155038200Y-100880951D01*
X155038200Y-100880951D02*
X154990580Y-100928570D01*
X97638095Y-137273866D02*
X98400000Y-137273866D01*
X98019047Y-137654819D02*
X98019047Y-136892914D01*
X99399999Y-137654819D02*
X98828571Y-137654819D01*
X99114285Y-137654819D02*
X99114285Y-136654819D01*
X99114285Y-136654819D02*
X99019047Y-136797676D01*
X99019047Y-136797676D02*
X98923809Y-136892914D01*
X98923809Y-136892914D02*
X98828571Y-136940533D01*
X99780952Y-136750057D02*
X99828571Y-136702438D01*
X99828571Y-136702438D02*
X99923809Y-136654819D01*
X99923809Y-136654819D02*
X100161904Y-136654819D01*
X100161904Y-136654819D02*
X100257142Y-136702438D01*
X100257142Y-136702438D02*
X100304761Y-136750057D01*
X100304761Y-136750057D02*
X100352380Y-136845295D01*
X100352380Y-136845295D02*
X100352380Y-136940533D01*
X100352380Y-136940533D02*
X100304761Y-137083390D01*
X100304761Y-137083390D02*
X99733333Y-137654819D01*
X99733333Y-137654819D02*
X100352380Y-137654819D01*
X100638095Y-136654819D02*
X100971428Y-137654819D01*
X100971428Y-137654819D02*
X101304761Y-136654819D01*
X72454819Y-123733333D02*
X73169104Y-123733333D01*
X73169104Y-123733333D02*
X73311961Y-123780952D01*
X73311961Y-123780952D02*
X73407200Y-123876190D01*
X73407200Y-123876190D02*
X73454819Y-124019047D01*
X73454819Y-124019047D02*
X73454819Y-124114285D01*
X72550057Y-123304761D02*
X72502438Y-123257142D01*
X72502438Y-123257142D02*
X72454819Y-123161904D01*
X72454819Y-123161904D02*
X72454819Y-122923809D01*
X72454819Y-122923809D02*
X72502438Y-122828571D01*
X72502438Y-122828571D02*
X72550057Y-122780952D01*
X72550057Y-122780952D02*
X72645295Y-122733333D01*
X72645295Y-122733333D02*
X72740533Y-122733333D01*
X72740533Y-122733333D02*
X72883390Y-122780952D01*
X72883390Y-122780952D02*
X73454819Y-123352380D01*
X73454819Y-123352380D02*
X73454819Y-122733333D01*
X72754819Y-73533333D02*
X73469104Y-73533333D01*
X73469104Y-73533333D02*
X73611961Y-73580952D01*
X73611961Y-73580952D02*
X73707200Y-73676190D01*
X73707200Y-73676190D02*
X73754819Y-73819047D01*
X73754819Y-73819047D02*
X73754819Y-73914285D01*
X73754819Y-72533333D02*
X73754819Y-73104761D01*
X73754819Y-72819047D02*
X72754819Y-72819047D01*
X72754819Y-72819047D02*
X72897676Y-72914285D01*
X72897676Y-72914285D02*
X72992914Y-73009523D01*
X72992914Y-73009523D02*
X73040533Y-73104761D01*
X174535714Y-129304819D02*
X174535714Y-128304819D01*
X174535714Y-128781009D02*
X175107142Y-128781009D01*
X175107142Y-129304819D02*
X175107142Y-128304819D01*
X175440476Y-128304819D02*
X175773809Y-129304819D01*
X175773809Y-129304819D02*
X176107142Y-128304819D01*
X176964285Y-128352438D02*
X176869047Y-128304819D01*
X176869047Y-128304819D02*
X176726190Y-128304819D01*
X176726190Y-128304819D02*
X176583333Y-128352438D01*
X176583333Y-128352438D02*
X176488095Y-128447676D01*
X176488095Y-128447676D02*
X176440476Y-128542914D01*
X176440476Y-128542914D02*
X176392857Y-128733390D01*
X176392857Y-128733390D02*
X176392857Y-128876247D01*
X176392857Y-128876247D02*
X176440476Y-129066723D01*
X176440476Y-129066723D02*
X176488095Y-129161961D01*
X176488095Y-129161961D02*
X176583333Y-129257200D01*
X176583333Y-129257200D02*
X176726190Y-129304819D01*
X176726190Y-129304819D02*
X176821428Y-129304819D01*
X176821428Y-129304819D02*
X176964285Y-129257200D01*
X176964285Y-129257200D02*
X177011904Y-129209580D01*
X177011904Y-129209580D02*
X177011904Y-128876247D01*
X177011904Y-128876247D02*
X176821428Y-128876247D01*
X160892680Y-112360588D02*
X160892680Y-111789160D01*
X160892680Y-112074874D02*
X161892680Y-112074874D01*
X161892680Y-112074874D02*
X161749823Y-111979636D01*
X161749823Y-111979636D02*
X161654585Y-111884398D01*
X161654585Y-111884398D02*
X161606966Y-111789160D01*
X160392680Y-138408207D02*
X160868871Y-138074874D01*
X160392680Y-137836779D02*
X161392680Y-137836779D01*
X161392680Y-137836779D02*
X161392680Y-138217731D01*
X161392680Y-138217731D02*
X161345061Y-138312969D01*
X161345061Y-138312969D02*
X161297442Y-138360588D01*
X161297442Y-138360588D02*
X161202204Y-138408207D01*
X161202204Y-138408207D02*
X161059347Y-138408207D01*
X161059347Y-138408207D02*
X160964109Y-138360588D01*
X160964109Y-138360588D02*
X160916490Y-138312969D01*
X160916490Y-138312969D02*
X160868871Y-138217731D01*
X160868871Y-138217731D02*
X160868871Y-137836779D01*
X160440300Y-139217731D02*
X160392680Y-139122493D01*
X160392680Y-139122493D02*
X160392680Y-138932017D01*
X160392680Y-138932017D02*
X160440300Y-138836779D01*
X160440300Y-138836779D02*
X160535538Y-138789160D01*
X160535538Y-138789160D02*
X160916490Y-138789160D01*
X160916490Y-138789160D02*
X161011728Y-138836779D01*
X161011728Y-138836779D02*
X161059347Y-138932017D01*
X161059347Y-138932017D02*
X161059347Y-139122493D01*
X161059347Y-139122493D02*
X161011728Y-139217731D01*
X161011728Y-139217731D02*
X160916490Y-139265350D01*
X160916490Y-139265350D02*
X160821252Y-139265350D01*
X160821252Y-139265350D02*
X160726014Y-138789160D01*
X161059347Y-139551065D02*
X161059347Y-139932017D01*
X160392680Y-139693922D02*
X161249823Y-139693922D01*
X161249823Y-139693922D02*
X161345061Y-139741541D01*
X161345061Y-139741541D02*
X161392680Y-139836779D01*
X161392680Y-139836779D02*
X161392680Y-139932017D01*
X161392680Y-140408208D02*
X161154585Y-140408208D01*
X161249823Y-140170113D02*
X161154585Y-140408208D01*
X161154585Y-140408208D02*
X161249823Y-140646303D01*
X160964109Y-140265351D02*
X161154585Y-140408208D01*
X161154585Y-140408208D02*
X160964109Y-140551065D01*
X161392680Y-141170113D02*
X161154585Y-141170113D01*
X161249823Y-140932018D02*
X161154585Y-141170113D01*
X161154585Y-141170113D02*
X161249823Y-141408208D01*
X160964109Y-141027256D02*
X161154585Y-141170113D01*
X161154585Y-141170113D02*
X160964109Y-141312970D01*
X150509523Y-71854819D02*
X150033333Y-71854819D01*
X150033333Y-71854819D02*
X150033333Y-70854819D01*
X184438095Y-135254819D02*
X184771428Y-136254819D01*
X184771428Y-136254819D02*
X185104761Y-135254819D01*
X185390476Y-135969104D02*
X185866666Y-135969104D01*
X185295238Y-136254819D02*
X185628571Y-135254819D01*
X185628571Y-135254819D02*
X185961904Y-136254819D01*
X186295238Y-135254819D02*
X186295238Y-136064342D01*
X186295238Y-136064342D02*
X186342857Y-136159580D01*
X186342857Y-136159580D02*
X186390476Y-136207200D01*
X186390476Y-136207200D02*
X186485714Y-136254819D01*
X186485714Y-136254819D02*
X186676190Y-136254819D01*
X186676190Y-136254819D02*
X186771428Y-136207200D01*
X186771428Y-136207200D02*
X186819047Y-136159580D01*
X186819047Y-136159580D02*
X186866666Y-136064342D01*
X186866666Y-136064342D02*
X186866666Y-135254819D01*
X187247619Y-135254819D02*
X187914285Y-136254819D01*
X187914285Y-135254819D02*
X187247619Y-136254819D01*
X149914286Y-66854819D02*
X149914286Y-65854819D01*
X149914286Y-65854819D02*
X150485714Y-66854819D01*
X150485714Y-66854819D02*
X150485714Y-65854819D01*
X141409580Y-105092857D02*
X141457200Y-105140476D01*
X141457200Y-105140476D02*
X141504819Y-105283333D01*
X141504819Y-105283333D02*
X141504819Y-105378571D01*
X141504819Y-105378571D02*
X141457200Y-105521428D01*
X141457200Y-105521428D02*
X141361961Y-105616666D01*
X141361961Y-105616666D02*
X141266723Y-105664285D01*
X141266723Y-105664285D02*
X141076247Y-105711904D01*
X141076247Y-105711904D02*
X140933390Y-105711904D01*
X140933390Y-105711904D02*
X140742914Y-105664285D01*
X140742914Y-105664285D02*
X140647676Y-105616666D01*
X140647676Y-105616666D02*
X140552438Y-105521428D01*
X140552438Y-105521428D02*
X140504819Y-105378571D01*
X140504819Y-105378571D02*
X140504819Y-105283333D01*
X140504819Y-105283333D02*
X140552438Y-105140476D01*
X140552438Y-105140476D02*
X140600057Y-105092857D01*
X140504819Y-104759523D02*
X140504819Y-104140476D01*
X140504819Y-104140476D02*
X140885771Y-104473809D01*
X140885771Y-104473809D02*
X140885771Y-104330952D01*
X140885771Y-104330952D02*
X140933390Y-104235714D01*
X140933390Y-104235714D02*
X140981009Y-104188095D01*
X140981009Y-104188095D02*
X141076247Y-104140476D01*
X141076247Y-104140476D02*
X141314342Y-104140476D01*
X141314342Y-104140476D02*
X141409580Y-104188095D01*
X141409580Y-104188095D02*
X141457200Y-104235714D01*
X141457200Y-104235714D02*
X141504819Y-104330952D01*
X141504819Y-104330952D02*
X141504819Y-104616666D01*
X141504819Y-104616666D02*
X141457200Y-104711904D01*
X141457200Y-104711904D02*
X141409580Y-104759523D01*
X140504819Y-103807142D02*
X140504819Y-103188095D01*
X140504819Y-103188095D02*
X140885771Y-103521428D01*
X140885771Y-103521428D02*
X140885771Y-103378571D01*
X140885771Y-103378571D02*
X140933390Y-103283333D01*
X140933390Y-103283333D02*
X140981009Y-103235714D01*
X140981009Y-103235714D02*
X141076247Y-103188095D01*
X141076247Y-103188095D02*
X141314342Y-103188095D01*
X141314342Y-103188095D02*
X141409580Y-103235714D01*
X141409580Y-103235714D02*
X141457200Y-103283333D01*
X141457200Y-103283333D02*
X141504819Y-103378571D01*
X141504819Y-103378571D02*
X141504819Y-103664285D01*
X141504819Y-103664285D02*
X141457200Y-103759523D01*
X141457200Y-103759523D02*
X141409580Y-103807142D01*
X82854819Y-125366666D02*
X82854819Y-125842856D01*
X82854819Y-125842856D02*
X81854819Y-125842856D01*
X81950057Y-125080951D02*
X81902438Y-125033332D01*
X81902438Y-125033332D02*
X81854819Y-124938094D01*
X81854819Y-124938094D02*
X81854819Y-124699999D01*
X81854819Y-124699999D02*
X81902438Y-124604761D01*
X81902438Y-124604761D02*
X81950057Y-124557142D01*
X81950057Y-124557142D02*
X82045295Y-124509523D01*
X82045295Y-124509523D02*
X82140533Y-124509523D01*
X82140533Y-124509523D02*
X82283390Y-124557142D01*
X82283390Y-124557142D02*
X82854819Y-125128570D01*
X82854819Y-125128570D02*
X82854819Y-124509523D01*
X168095238Y-154454819D02*
X168285714Y-154454819D01*
X168285714Y-154454819D02*
X168380952Y-154502438D01*
X168380952Y-154502438D02*
X168476190Y-154597676D01*
X168476190Y-154597676D02*
X168523809Y-154788152D01*
X168523809Y-154788152D02*
X168523809Y-155121485D01*
X168523809Y-155121485D02*
X168476190Y-155311961D01*
X168476190Y-155311961D02*
X168380952Y-155407200D01*
X168380952Y-155407200D02*
X168285714Y-155454819D01*
X168285714Y-155454819D02*
X168095238Y-155454819D01*
X168095238Y-155454819D02*
X168000000Y-155407200D01*
X168000000Y-155407200D02*
X167904762Y-155311961D01*
X167904762Y-155311961D02*
X167857143Y-155121485D01*
X167857143Y-155121485D02*
X167857143Y-154788152D01*
X167857143Y-154788152D02*
X167904762Y-154597676D01*
X167904762Y-154597676D02*
X168000000Y-154502438D01*
X168000000Y-154502438D02*
X168095238Y-154454819D01*
X168952381Y-154788152D02*
X168952381Y-155788152D01*
X168952381Y-154835771D02*
X169047619Y-154788152D01*
X169047619Y-154788152D02*
X169238095Y-154788152D01*
X169238095Y-154788152D02*
X169333333Y-154835771D01*
X169333333Y-154835771D02*
X169380952Y-154883390D01*
X169380952Y-154883390D02*
X169428571Y-154978628D01*
X169428571Y-154978628D02*
X169428571Y-155264342D01*
X169428571Y-155264342D02*
X169380952Y-155359580D01*
X169380952Y-155359580D02*
X169333333Y-155407200D01*
X169333333Y-155407200D02*
X169238095Y-155454819D01*
X169238095Y-155454819D02*
X169047619Y-155454819D01*
X169047619Y-155454819D02*
X168952381Y-155407200D01*
X169714286Y-154788152D02*
X170095238Y-154788152D01*
X169857143Y-154454819D02*
X169857143Y-155311961D01*
X169857143Y-155311961D02*
X169904762Y-155407200D01*
X169904762Y-155407200D02*
X170000000Y-155454819D01*
X170000000Y-155454819D02*
X170095238Y-155454819D01*
X170571429Y-155454819D02*
X170476191Y-155407200D01*
X170476191Y-155407200D02*
X170428572Y-155359580D01*
X170428572Y-155359580D02*
X170380953Y-155264342D01*
X170380953Y-155264342D02*
X170380953Y-154978628D01*
X170380953Y-154978628D02*
X170428572Y-154883390D01*
X170428572Y-154883390D02*
X170476191Y-154835771D01*
X170476191Y-154835771D02*
X170571429Y-154788152D01*
X170571429Y-154788152D02*
X170714286Y-154788152D01*
X170714286Y-154788152D02*
X170809524Y-154835771D01*
X170809524Y-154835771D02*
X170857143Y-154883390D01*
X170857143Y-154883390D02*
X170904762Y-154978628D01*
X170904762Y-154978628D02*
X170904762Y-155264342D01*
X170904762Y-155264342D02*
X170857143Y-155359580D01*
X170857143Y-155359580D02*
X170809524Y-155407200D01*
X170809524Y-155407200D02*
X170714286Y-155454819D01*
X170714286Y-155454819D02*
X170571429Y-155454819D01*
X171333334Y-155073866D02*
X172095239Y-155073866D01*
X171714286Y-155454819D02*
X171714286Y-154692914D01*
X110838095Y-107873866D02*
X111600000Y-107873866D01*
X111219047Y-108254819D02*
X111219047Y-107492914D01*
X112599999Y-108254819D02*
X112028571Y-108254819D01*
X112314285Y-108254819D02*
X112314285Y-107254819D01*
X112314285Y-107254819D02*
X112219047Y-107397676D01*
X112219047Y-107397676D02*
X112123809Y-107492914D01*
X112123809Y-107492914D02*
X112028571Y-107540533D01*
X112980952Y-107350057D02*
X113028571Y-107302438D01*
X113028571Y-107302438D02*
X113123809Y-107254819D01*
X113123809Y-107254819D02*
X113361904Y-107254819D01*
X113361904Y-107254819D02*
X113457142Y-107302438D01*
X113457142Y-107302438D02*
X113504761Y-107350057D01*
X113504761Y-107350057D02*
X113552380Y-107445295D01*
X113552380Y-107445295D02*
X113552380Y-107540533D01*
X113552380Y-107540533D02*
X113504761Y-107683390D01*
X113504761Y-107683390D02*
X112933333Y-108254819D01*
X112933333Y-108254819D02*
X113552380Y-108254819D01*
X113838095Y-107254819D02*
X114171428Y-108254819D01*
X114171428Y-108254819D02*
X114504761Y-107254819D01*
X193738095Y-81954819D02*
X194309523Y-81954819D01*
X194023809Y-82954819D02*
X194023809Y-81954819D01*
X194642857Y-82954819D02*
X194642857Y-81954819D01*
X194642857Y-81954819D02*
X195023809Y-81954819D01*
X195023809Y-81954819D02*
X195119047Y-82002438D01*
X195119047Y-82002438D02*
X195166666Y-82050057D01*
X195166666Y-82050057D02*
X195214285Y-82145295D01*
X195214285Y-82145295D02*
X195214285Y-82288152D01*
X195214285Y-82288152D02*
X195166666Y-82383390D01*
X195166666Y-82383390D02*
X195119047Y-82431009D01*
X195119047Y-82431009D02*
X195023809Y-82478628D01*
X195023809Y-82478628D02*
X194642857Y-82478628D01*
X196071428Y-82288152D02*
X196071428Y-82954819D01*
X195833333Y-81907200D02*
X195595238Y-82621485D01*
X195595238Y-82621485D02*
X196214285Y-82621485D01*
X176854819Y-119566666D02*
X176378628Y-119899999D01*
X176854819Y-120138094D02*
X175854819Y-120138094D01*
X175854819Y-120138094D02*
X175854819Y-119757142D01*
X175854819Y-119757142D02*
X175902438Y-119661904D01*
X175902438Y-119661904D02*
X175950057Y-119614285D01*
X175950057Y-119614285D02*
X176045295Y-119566666D01*
X176045295Y-119566666D02*
X176188152Y-119566666D01*
X176188152Y-119566666D02*
X176283390Y-119614285D01*
X176283390Y-119614285D02*
X176331009Y-119661904D01*
X176331009Y-119661904D02*
X176378628Y-119757142D01*
X176378628Y-119757142D02*
X176378628Y-120138094D01*
X175950057Y-119185713D02*
X175902438Y-119138094D01*
X175902438Y-119138094D02*
X175854819Y-119042856D01*
X175854819Y-119042856D02*
X175854819Y-118804761D01*
X175854819Y-118804761D02*
X175902438Y-118709523D01*
X175902438Y-118709523D02*
X175950057Y-118661904D01*
X175950057Y-118661904D02*
X176045295Y-118614285D01*
X176045295Y-118614285D02*
X176140533Y-118614285D01*
X176140533Y-118614285D02*
X176283390Y-118661904D01*
X176283390Y-118661904D02*
X176854819Y-119233332D01*
X176854819Y-119233332D02*
X176854819Y-118614285D01*
X154404761Y-57109580D02*
X154357142Y-57157200D01*
X154357142Y-57157200D02*
X154214285Y-57204819D01*
X154214285Y-57204819D02*
X154119047Y-57204819D01*
X154119047Y-57204819D02*
X153976190Y-57157200D01*
X153976190Y-57157200D02*
X153880952Y-57061961D01*
X153880952Y-57061961D02*
X153833333Y-56966723D01*
X153833333Y-56966723D02*
X153785714Y-56776247D01*
X153785714Y-56776247D02*
X153785714Y-56633390D01*
X153785714Y-56633390D02*
X153833333Y-56442914D01*
X153833333Y-56442914D02*
X153880952Y-56347676D01*
X153880952Y-56347676D02*
X153976190Y-56252438D01*
X153976190Y-56252438D02*
X154119047Y-56204819D01*
X154119047Y-56204819D02*
X154214285Y-56204819D01*
X154214285Y-56204819D02*
X154357142Y-56252438D01*
X154357142Y-56252438D02*
X154404761Y-56300057D01*
X155023809Y-56728628D02*
X155023809Y-57204819D01*
X154690476Y-56204819D02*
X155023809Y-56728628D01*
X155023809Y-56728628D02*
X155357142Y-56204819D01*
X155642857Y-56300057D02*
X155690476Y-56252438D01*
X155690476Y-56252438D02*
X155785714Y-56204819D01*
X155785714Y-56204819D02*
X156023809Y-56204819D01*
X156023809Y-56204819D02*
X156119047Y-56252438D01*
X156119047Y-56252438D02*
X156166666Y-56300057D01*
X156166666Y-56300057D02*
X156214285Y-56395295D01*
X156214285Y-56395295D02*
X156214285Y-56490533D01*
X156214285Y-56490533D02*
X156166666Y-56633390D01*
X156166666Y-56633390D02*
X155595238Y-57204819D01*
X155595238Y-57204819D02*
X156214285Y-57204819D01*
X181357142Y-111454819D02*
X181023809Y-110978628D01*
X180785714Y-111454819D02*
X180785714Y-110454819D01*
X180785714Y-110454819D02*
X181166666Y-110454819D01*
X181166666Y-110454819D02*
X181261904Y-110502438D01*
X181261904Y-110502438D02*
X181309523Y-110550057D01*
X181309523Y-110550057D02*
X181357142Y-110645295D01*
X181357142Y-110645295D02*
X181357142Y-110788152D01*
X181357142Y-110788152D02*
X181309523Y-110883390D01*
X181309523Y-110883390D02*
X181261904Y-110931009D01*
X181261904Y-110931009D02*
X181166666Y-110978628D01*
X181166666Y-110978628D02*
X180785714Y-110978628D01*
X181690476Y-110454819D02*
X182357142Y-110454819D01*
X182357142Y-110454819D02*
X181928571Y-111454819D01*
X182690476Y-110550057D02*
X182738095Y-110502438D01*
X182738095Y-110502438D02*
X182833333Y-110454819D01*
X182833333Y-110454819D02*
X183071428Y-110454819D01*
X183071428Y-110454819D02*
X183166666Y-110502438D01*
X183166666Y-110502438D02*
X183214285Y-110550057D01*
X183214285Y-110550057D02*
X183261904Y-110645295D01*
X183261904Y-110645295D02*
X183261904Y-110740533D01*
X183261904Y-110740533D02*
X183214285Y-110883390D01*
X183214285Y-110883390D02*
X182642857Y-111454819D01*
X182642857Y-111454819D02*
X183261904Y-111454819D01*
X179957142Y-142909580D02*
X179909523Y-142957200D01*
X179909523Y-142957200D02*
X179766666Y-143004819D01*
X179766666Y-143004819D02*
X179671428Y-143004819D01*
X179671428Y-143004819D02*
X179528571Y-142957200D01*
X179528571Y-142957200D02*
X179433333Y-142861961D01*
X179433333Y-142861961D02*
X179385714Y-142766723D01*
X179385714Y-142766723D02*
X179338095Y-142576247D01*
X179338095Y-142576247D02*
X179338095Y-142433390D01*
X179338095Y-142433390D02*
X179385714Y-142242914D01*
X179385714Y-142242914D02*
X179433333Y-142147676D01*
X179433333Y-142147676D02*
X179528571Y-142052438D01*
X179528571Y-142052438D02*
X179671428Y-142004819D01*
X179671428Y-142004819D02*
X179766666Y-142004819D01*
X179766666Y-142004819D02*
X179909523Y-142052438D01*
X179909523Y-142052438D02*
X179957142Y-142100057D01*
X180861904Y-142004819D02*
X180385714Y-142004819D01*
X180385714Y-142004819D02*
X180338095Y-142481009D01*
X180338095Y-142481009D02*
X180385714Y-142433390D01*
X180385714Y-142433390D02*
X180480952Y-142385771D01*
X180480952Y-142385771D02*
X180719047Y-142385771D01*
X180719047Y-142385771D02*
X180814285Y-142433390D01*
X180814285Y-142433390D02*
X180861904Y-142481009D01*
X180861904Y-142481009D02*
X180909523Y-142576247D01*
X180909523Y-142576247D02*
X180909523Y-142814342D01*
X180909523Y-142814342D02*
X180861904Y-142909580D01*
X180861904Y-142909580D02*
X180814285Y-142957200D01*
X180814285Y-142957200D02*
X180719047Y-143004819D01*
X180719047Y-143004819D02*
X180480952Y-143004819D01*
X180480952Y-143004819D02*
X180385714Y-142957200D01*
X180385714Y-142957200D02*
X180338095Y-142909580D01*
X181861904Y-143004819D02*
X181290476Y-143004819D01*
X181576190Y-143004819D02*
X181576190Y-142004819D01*
X181576190Y-142004819D02*
X181480952Y-142147676D01*
X181480952Y-142147676D02*
X181385714Y-142242914D01*
X181385714Y-142242914D02*
X181290476Y-142290533D01*
X161940952Y-129399819D02*
X161464762Y-129399819D01*
X161464762Y-129399819D02*
X161464762Y-128399819D01*
X162131429Y-128399819D02*
X162464762Y-129399819D01*
X162464762Y-129399819D02*
X162798095Y-128399819D01*
X163655238Y-128447438D02*
X163560000Y-128399819D01*
X163560000Y-128399819D02*
X163417143Y-128399819D01*
X163417143Y-128399819D02*
X163274286Y-128447438D01*
X163274286Y-128447438D02*
X163179048Y-128542676D01*
X163179048Y-128542676D02*
X163131429Y-128637914D01*
X163131429Y-128637914D02*
X163083810Y-128828390D01*
X163083810Y-128828390D02*
X163083810Y-128971247D01*
X163083810Y-128971247D02*
X163131429Y-129161723D01*
X163131429Y-129161723D02*
X163179048Y-129256961D01*
X163179048Y-129256961D02*
X163274286Y-129352200D01*
X163274286Y-129352200D02*
X163417143Y-129399819D01*
X163417143Y-129399819D02*
X163512381Y-129399819D01*
X163512381Y-129399819D02*
X163655238Y-129352200D01*
X163655238Y-129352200D02*
X163702857Y-129304580D01*
X163702857Y-129304580D02*
X163702857Y-128971247D01*
X163702857Y-128971247D02*
X163512381Y-128971247D01*
X174959580Y-111442857D02*
X175007200Y-111490476D01*
X175007200Y-111490476D02*
X175054819Y-111633333D01*
X175054819Y-111633333D02*
X175054819Y-111728571D01*
X175054819Y-111728571D02*
X175007200Y-111871428D01*
X175007200Y-111871428D02*
X174911961Y-111966666D01*
X174911961Y-111966666D02*
X174816723Y-112014285D01*
X174816723Y-112014285D02*
X174626247Y-112061904D01*
X174626247Y-112061904D02*
X174483390Y-112061904D01*
X174483390Y-112061904D02*
X174292914Y-112014285D01*
X174292914Y-112014285D02*
X174197676Y-111966666D01*
X174197676Y-111966666D02*
X174102438Y-111871428D01*
X174102438Y-111871428D02*
X174054819Y-111728571D01*
X174054819Y-111728571D02*
X174054819Y-111633333D01*
X174054819Y-111633333D02*
X174102438Y-111490476D01*
X174102438Y-111490476D02*
X174150057Y-111442857D01*
X174388152Y-110585714D02*
X175054819Y-110585714D01*
X174007200Y-110823809D02*
X174721485Y-111061904D01*
X174721485Y-111061904D02*
X174721485Y-110442857D01*
X174054819Y-110157142D02*
X174054819Y-109538095D01*
X174054819Y-109538095D02*
X174435771Y-109871428D01*
X174435771Y-109871428D02*
X174435771Y-109728571D01*
X174435771Y-109728571D02*
X174483390Y-109633333D01*
X174483390Y-109633333D02*
X174531009Y-109585714D01*
X174531009Y-109585714D02*
X174626247Y-109538095D01*
X174626247Y-109538095D02*
X174864342Y-109538095D01*
X174864342Y-109538095D02*
X174959580Y-109585714D01*
X174959580Y-109585714D02*
X175007200Y-109633333D01*
X175007200Y-109633333D02*
X175054819Y-109728571D01*
X175054819Y-109728571D02*
X175054819Y-110014285D01*
X175054819Y-110014285D02*
X175007200Y-110109523D01*
X175007200Y-110109523D02*
X174959580Y-110157142D01*
X102261905Y-128954819D02*
X102833333Y-128954819D01*
X102547619Y-129954819D02*
X102547619Y-128954819D01*
X103166667Y-129954819D02*
X103166667Y-128954819D01*
X103166667Y-128954819D02*
X103547619Y-128954819D01*
X103547619Y-128954819D02*
X103642857Y-129002438D01*
X103642857Y-129002438D02*
X103690476Y-129050057D01*
X103690476Y-129050057D02*
X103738095Y-129145295D01*
X103738095Y-129145295D02*
X103738095Y-129288152D01*
X103738095Y-129288152D02*
X103690476Y-129383390D01*
X103690476Y-129383390D02*
X103642857Y-129431009D01*
X103642857Y-129431009D02*
X103547619Y-129478628D01*
X103547619Y-129478628D02*
X103166667Y-129478628D01*
X104690476Y-129954819D02*
X104119048Y-129954819D01*
X104404762Y-129954819D02*
X104404762Y-128954819D01*
X104404762Y-128954819D02*
X104309524Y-129097676D01*
X104309524Y-129097676D02*
X104214286Y-129192914D01*
X104214286Y-129192914D02*
X104119048Y-129240533D01*
X105023810Y-128954819D02*
X105642857Y-128954819D01*
X105642857Y-128954819D02*
X105309524Y-129335771D01*
X105309524Y-129335771D02*
X105452381Y-129335771D01*
X105452381Y-129335771D02*
X105547619Y-129383390D01*
X105547619Y-129383390D02*
X105595238Y-129431009D01*
X105595238Y-129431009D02*
X105642857Y-129526247D01*
X105642857Y-129526247D02*
X105642857Y-129764342D01*
X105642857Y-129764342D02*
X105595238Y-129859580D01*
X105595238Y-129859580D02*
X105547619Y-129907200D01*
X105547619Y-129907200D02*
X105452381Y-129954819D01*
X105452381Y-129954819D02*
X105166667Y-129954819D01*
X105166667Y-129954819D02*
X105071429Y-129907200D01*
X105071429Y-129907200D02*
X105023810Y-129859580D01*
D12*
G04 #@! TO.C,R3*
X95880000Y-70730000D02*
X95880000Y-79970000D01*
X95880000Y-79970000D02*
X99320000Y-79970000D01*
X97600000Y-70040000D02*
X97600000Y-70730000D01*
X97600000Y-80660000D02*
X97600000Y-79970000D01*
X99320000Y-70730000D02*
X95880000Y-70730000D01*
X99320000Y-79970000D02*
X99320000Y-70730000D01*
G04 #@! TO.C,VCC*
X175200000Y-119200000D02*
G75*
G02*
X172400000Y-119200000I-1400000J0D01*
G01*
X172400000Y-119200000D02*
G75*
G02*
X175200000Y-119200000I1400000J0D01*
G01*
G04 #@! TO.C,D28*
X80455000Y-97880000D02*
X96345000Y-97880000D01*
X80455000Y-108120000D02*
X80455000Y-97880000D01*
X80455000Y-108120000D02*
X96345000Y-108120000D01*
X96345000Y-100460000D02*
X98870000Y-100460000D01*
X96345000Y-105540000D02*
X98885000Y-105540000D01*
X96345000Y-108120000D02*
X96345000Y-97880000D01*
G04 #@! TO.C,D1*
X138600000Y-57800000D02*
X142200000Y-57800000D01*
X138600000Y-61000000D02*
X139100000Y-61000000D01*
X138600000Y-80100000D02*
X138600000Y-57800000D01*
X142200000Y-57800000D02*
X142200000Y-59300000D01*
X142200000Y-63300000D02*
X142200000Y-64800000D01*
X142200000Y-68000000D02*
X142200000Y-69900000D01*
X142200000Y-73000000D02*
X142200000Y-75000000D01*
X142200000Y-78100000D02*
X142200000Y-80100000D01*
X142200000Y-80100000D02*
X138600000Y-80100000D01*
G04 #@! TO.C,C35*
X128370000Y-98750000D02*
G75*
G02*
X118130000Y-98750000I-5120000J0D01*
G01*
X118130000Y-98750000D02*
G75*
G02*
X128370000Y-98750000I5120000J0D01*
G01*
G04 #@! TO.C,L1*
D11*
X112150000Y-81900000D02*
X136150000Y-81900000D01*
X136150000Y-57900000D01*
X112150000Y-57900000D01*
X112150000Y-81900000D01*
X113650000Y-77400000D02*
X134650000Y-77400000D01*
X134650000Y-62400000D01*
X113650000Y-62400000D01*
X113650000Y-77400000D01*
D12*
G04 #@! TO.C,D18*
X80455000Y-153435000D02*
X96345000Y-153435000D01*
X80455000Y-163675000D02*
X80455000Y-153435000D01*
X80455000Y-163675000D02*
X96345000Y-163675000D01*
X96345000Y-156015000D02*
X98870000Y-156015000D01*
X96345000Y-161095000D02*
X98885000Y-161095000D01*
X96345000Y-163675000D02*
X96345000Y-153435000D01*
G04 #@! TO.C,D22*
X144930000Y-86510000D02*
X145810000Y-86510000D01*
X144930000Y-94585000D02*
X150370000Y-94585000D01*
X144930000Y-94705000D02*
X150370000Y-94705000D01*
X144930000Y-94825000D02*
X150370000Y-94825000D01*
X144930000Y-96250000D02*
X144930000Y-86510000D01*
X145810000Y-96250000D02*
X144930000Y-96250000D01*
X149490000Y-96250000D02*
X150370000Y-96250000D01*
X150370000Y-86510000D02*
X149490000Y-86510000D01*
X150370000Y-96250000D02*
X150370000Y-86510000D01*
G04 #@! TO.C,CY1*
X129920000Y-86850000D02*
G75*
G02*
X121680000Y-86850000I-4120000J0D01*
G01*
X121680000Y-86850000D02*
G75*
G02*
X129920000Y-86850000I4120000J0D01*
G01*
G04 #@! TO.C,C25*
X186620000Y-121800000D02*
G75*
G02*
X181380000Y-121800000I-2620000J0D01*
G01*
X181380000Y-121800000D02*
G75*
G02*
X186620000Y-121800000I2620000J0D01*
G01*
G04 #@! TO.C,C15*
X97920000Y-124400000D02*
G75*
G02*
X87680000Y-124400000I-5120000J0D01*
G01*
X87680000Y-124400000D02*
G75*
G02*
X97920000Y-124400000I5120000J0D01*
G01*
G04 #@! TO.C,D29*
X80455000Y-142835000D02*
X96345000Y-142835000D01*
X80455000Y-153075000D02*
X80455000Y-142835000D01*
X80455000Y-153075000D02*
X96345000Y-153075000D01*
X96345000Y-145415000D02*
X98870000Y-145415000D01*
X96345000Y-150495000D02*
X98885000Y-150495000D01*
X96345000Y-153075000D02*
X96345000Y-142835000D01*
G04 #@! TO.C,C34*
X137870000Y-99500000D02*
G75*
G02*
X129630000Y-99500000I-4120000J0D01*
G01*
X129630000Y-99500000D02*
G75*
G02*
X137870000Y-99500000I4120000J0D01*
G01*
G04 #@! TO.C,F1*
X75930000Y-76180000D02*
X75930000Y-77730000D01*
X75930000Y-76180000D02*
X85170000Y-76180000D01*
X75930000Y-78870000D02*
X75930000Y-80420000D01*
X75930000Y-80420000D02*
X85170000Y-80420000D01*
X85170000Y-76180000D02*
X85170000Y-77730000D01*
X85170000Y-78870000D02*
X85170000Y-80420000D01*
G04 #@! TO.C,D17*
X80455000Y-108420000D02*
X96345000Y-108420000D01*
X80455000Y-118660000D02*
X80455000Y-108420000D01*
X80455000Y-118660000D02*
X96345000Y-118660000D01*
X96345000Y-111000000D02*
X98870000Y-111000000D01*
X96345000Y-116080000D02*
X98885000Y-116080000D01*
X96345000Y-118660000D02*
X96345000Y-108420000D01*
G04 #@! TO.C,Q1*
X181500000Y-127190000D02*
X181500000Y-129790000D01*
X181500000Y-127190000D02*
X181750000Y-126940000D01*
X181500000Y-129790000D02*
X181750000Y-130040000D01*
X182150000Y-126490000D02*
X182300000Y-126340000D01*
X182150000Y-130440000D02*
X182300000Y-130590000D01*
X182300000Y-126340000D02*
X183250000Y-126340000D01*
X183250000Y-130590000D02*
X182300000Y-130590000D01*
G04 #@! TO.C,C14*
X97820000Y-135000000D02*
G75*
G02*
X87580000Y-135000000I-5120000J0D01*
G01*
X87580000Y-135000000D02*
G75*
G02*
X97820000Y-135000000I5120000J0D01*
G01*
G04 #@! TO.C,C26*
X87320000Y-135035000D02*
G75*
G02*
X77080000Y-135035000I-5120000J0D01*
G01*
X77080000Y-135035000D02*
G75*
G02*
X87320000Y-135035000I5120000J0D01*
G01*
G04 #@! TO.C,C31*
X166085000Y-160655000D02*
G75*
G02*
X160845000Y-160655000I-2620000J0D01*
G01*
X160845000Y-160655000D02*
G75*
G02*
X166085000Y-160655000I2620000J0D01*
G01*
G04 #@! TO.C,C11*
X144620000Y-86750000D02*
G75*
G02*
X136380000Y-86750000I-4120000J0D01*
G01*
X136380000Y-86750000D02*
G75*
G02*
X144620000Y-86750000I4120000J0D01*
G01*
D10*
G04 #@! TO.C,RV1*
X78250000Y-66466660D02*
X78250000Y-70066660D01*
X78250000Y-66466660D02*
X85250000Y-66466660D01*
X78250000Y-70066660D02*
X85250000Y-70066660D01*
X85250000Y-66466660D02*
X85250000Y-70066660D01*
D12*
G04 #@! TO.C,C47*
X186620000Y-116000000D02*
G75*
G02*
X181380000Y-116000000I-2620000J0D01*
G01*
X181380000Y-116000000D02*
G75*
G02*
X186620000Y-116000000I2620000J0D01*
G01*
G04 #@! TO.C,TP8*
X191400000Y-116000000D02*
G75*
G02*
X188600000Y-116000000I-1400000J0D01*
G01*
X188600000Y-116000000D02*
G75*
G02*
X191400000Y-116000000I1400000J0D01*
G01*
G04 #@! TO.C,CY9*
X102780000Y-64430000D02*
X109020000Y-64430000D01*
X102780000Y-82670000D02*
X102780000Y-64430000D01*
X102780000Y-82670000D02*
X109020000Y-82670000D01*
X109020000Y-82670000D02*
X109020000Y-64430000D01*
G04 #@! TO.C,TP3*
X196350000Y-71000000D02*
G75*
G02*
X193550000Y-71000000I-1400000J0D01*
G01*
X193550000Y-71000000D02*
G75*
G02*
X196350000Y-71000000I1400000J0D01*
G01*
G04 #@! TO.C,VCC*
X183200000Y-105600000D02*
G75*
G02*
X180400000Y-105600000I-1400000J0D01*
G01*
X180400000Y-105600000D02*
G75*
G02*
X183200000Y-105600000I1400000J0D01*
G01*
G04 #@! TO.C,D23*
X168130000Y-56280000D02*
X177870000Y-56280000D01*
X168130000Y-57160000D02*
X168130000Y-56280000D01*
X168130000Y-60840000D02*
X168130000Y-61720000D01*
X168130000Y-61720000D02*
X177870000Y-61720000D01*
X169555000Y-56280000D02*
X169555000Y-61720000D01*
X169675000Y-56280000D02*
X169675000Y-61720000D01*
X169795000Y-56280000D02*
X169795000Y-61720000D01*
X177870000Y-56280000D02*
X177870000Y-57160000D01*
X177870000Y-61720000D02*
X177870000Y-60840000D01*
G04 #@! TO.C,400V*
X135150000Y-91750000D02*
G75*
G02*
X132350000Y-91750000I-1400000J0D01*
G01*
X132350000Y-91750000D02*
G75*
G02*
X135150000Y-91750000I1400000J0D01*
G01*
G04 #@! TO.C,TH1*
X88950000Y-78483000D02*
X88950000Y-77917000D01*
X88990000Y-78717000D02*
X88990000Y-77683000D01*
X89030000Y-78877000D02*
X89030000Y-77523000D01*
X89070000Y-79005000D02*
X89070000Y-77395000D01*
X89110000Y-79114000D02*
X89110000Y-77286000D01*
X89150000Y-79211000D02*
X89150000Y-77189000D01*
X89190000Y-79298000D02*
X89190000Y-77102000D01*
X89230000Y-79377000D02*
X89230000Y-77023000D01*
X89270000Y-77160000D02*
X89270000Y-76949000D01*
X89270000Y-79451000D02*
X89270000Y-79240000D01*
X89310000Y-77160000D02*
X89310000Y-76881000D01*
X89310000Y-79519000D02*
X89310000Y-79240000D01*
X89350000Y-77160000D02*
X89350000Y-76817000D01*
X89350000Y-79583000D02*
X89350000Y-79240000D01*
X89390000Y-77160000D02*
X89390000Y-76757000D01*
X89390000Y-79643000D02*
X89390000Y-79240000D01*
X89430000Y-77160000D02*
X89430000Y-76701000D01*
X89430000Y-79699000D02*
X89430000Y-79240000D01*
X89470000Y-77160000D02*
X89470000Y-76647000D01*
X89470000Y-79753000D02*
X89470000Y-79240000D01*
X89510000Y-77160000D02*
X89510000Y-76596000D01*
X89510000Y-79804000D02*
X89510000Y-79240000D01*
X89550000Y-77160000D02*
X89550000Y-76548000D01*
X89550000Y-79852000D02*
X89550000Y-79240000D01*
X89590000Y-77160000D02*
X89590000Y-76501000D01*
X89590000Y-79899000D02*
X89590000Y-79240000D01*
X89630000Y-77160000D02*
X89630000Y-76457000D01*
X89630000Y-79943000D02*
X89630000Y-79240000D01*
X89670000Y-77160000D02*
X89670000Y-76415000D01*
X89670000Y-79985000D02*
X89670000Y-79240000D01*
X89710000Y-77160000D02*
X89710000Y-76375000D01*
X89710000Y-80025000D02*
X89710000Y-79240000D01*
X89750000Y-77160000D02*
X89750000Y-76336000D01*
X89750000Y-80064000D02*
X89750000Y-79240000D01*
X89790000Y-77160000D02*
X89790000Y-76299000D01*
X89790000Y-80101000D02*
X89790000Y-79240000D01*
X89830000Y-77160000D02*
X89830000Y-76264000D01*
X89830000Y-80136000D02*
X89830000Y-79240000D01*
X89870000Y-77160000D02*
X89870000Y-76230000D01*
X89870000Y-80170000D02*
X89870000Y-79240000D01*
X89910000Y-77160000D02*
X89910000Y-76197000D01*
X89910000Y-80203000D02*
X89910000Y-79240000D01*
X89950000Y-77160000D02*
X89950000Y-76165000D01*
X89950000Y-80235000D02*
X89950000Y-79240000D01*
X89990000Y-77160000D02*
X89990000Y-76135000D01*
X89990000Y-80265000D02*
X89990000Y-79240000D01*
X90030000Y-77160000D02*
X90030000Y-76106000D01*
X90030000Y-80294000D02*
X90030000Y-79240000D01*
X90070000Y-77160000D02*
X90070000Y-76078000D01*
X90070000Y-80322000D02*
X90070000Y-79240000D01*
X90110000Y-77160000D02*
X90110000Y-76051000D01*
X90110000Y-80349000D02*
X90110000Y-79240000D01*
X90150000Y-77160000D02*
X90150000Y-76025000D01*
X90150000Y-80375000D02*
X90150000Y-79240000D01*
X90190000Y-77160000D02*
X90190000Y-76001000D01*
X90190000Y-80399000D02*
X90190000Y-79240000D01*
X90230000Y-77160000D02*
X90230000Y-75977000D01*
X90230000Y-80423000D02*
X90230000Y-79240000D01*
X90270000Y-77160000D02*
X90270000Y-75954000D01*
X90270000Y-80446000D02*
X90270000Y-79240000D01*
X90310000Y-77160000D02*
X90310000Y-75932000D01*
X90310000Y-80468000D02*
X90310000Y-79240000D01*
X90350000Y-77160000D02*
X90350000Y-75911000D01*
X90350000Y-80489000D02*
X90350000Y-79240000D01*
X90390000Y-77160000D02*
X90390000Y-75891000D01*
X90390000Y-80509000D02*
X90390000Y-79240000D01*
X90430000Y-77160000D02*
X90430000Y-75871000D01*
X90430000Y-80529000D02*
X90430000Y-79240000D01*
X90470000Y-77160000D02*
X90470000Y-75853000D01*
X90470000Y-80547000D02*
X90470000Y-79240000D01*
X90510000Y-77160000D02*
X90510000Y-75835000D01*
X90510000Y-80565000D02*
X90510000Y-79240000D01*
X90550000Y-77160000D02*
X90550000Y-75818000D01*
X90550000Y-80582000D02*
X90550000Y-79240000D01*
X90590000Y-77160000D02*
X90590000Y-75802000D01*
X90590000Y-80598000D02*
X90590000Y-79240000D01*
X90630000Y-77160000D02*
X90630000Y-75787000D01*
X90630000Y-80613000D02*
X90630000Y-79240000D01*
X90670000Y-77160000D02*
X90670000Y-75772000D01*
X90670000Y-80628000D02*
X90670000Y-79240000D01*
X90710000Y-77160000D02*
X90710000Y-75758000D01*
X90710000Y-80642000D02*
X90710000Y-79240000D01*
X90750000Y-77160000D02*
X90750000Y-75745000D01*
X90750000Y-80655000D02*
X90750000Y-79240000D01*
X90790000Y-77160000D02*
X90790000Y-75733000D01*
X90790000Y-80667000D02*
X90790000Y-79240000D01*
X90830000Y-77160000D02*
X90830000Y-75721000D01*
X90830000Y-80679000D02*
X90830000Y-79240000D01*
X90870000Y-77160000D02*
X90870000Y-75710000D01*
X90870000Y-80690000D02*
X90870000Y-79240000D01*
X90910000Y-77160000D02*
X90910000Y-75699000D01*
X90910000Y-80701000D02*
X90910000Y-79240000D01*
X90950000Y-77160000D02*
X90950000Y-75690000D01*
X90950000Y-80710000D02*
X90950000Y-79240000D01*
X90990000Y-77160000D02*
X90990000Y-75681000D01*
X90990000Y-80719000D02*
X90990000Y-79240000D01*
X91030000Y-77160000D02*
X91030000Y-75672000D01*
X91030000Y-80728000D02*
X91030000Y-79240000D01*
X91070000Y-77160000D02*
X91070000Y-75664000D01*
X91070000Y-80736000D02*
X91070000Y-79240000D01*
X91110000Y-77160000D02*
X91110000Y-75657000D01*
X91110000Y-80743000D02*
X91110000Y-79240000D01*
X91150000Y-77160000D02*
X91150000Y-75651000D01*
X91150000Y-80749000D02*
X91150000Y-79240000D01*
X91190000Y-77160000D02*
X91190000Y-75645000D01*
X91190000Y-80755000D02*
X91190000Y-79240000D01*
X91230000Y-77160000D02*
X91230000Y-75640000D01*
X91230000Y-80760000D02*
X91230000Y-79240000D01*
X91270000Y-77160000D02*
X91270000Y-75635000D01*
X91270000Y-80765000D02*
X91270000Y-79240000D01*
X91310000Y-77160000D02*
X91310000Y-75631000D01*
X91310000Y-80769000D02*
X91310000Y-79240000D01*
X91350000Y-80772000D02*
X91350000Y-75628000D01*
X91390000Y-80775000D02*
X91390000Y-75625000D01*
X91430000Y-80777000D02*
X91430000Y-75623000D01*
X91470000Y-80779000D02*
X91470000Y-75621000D01*
X91510000Y-80780000D02*
X91510000Y-75620000D01*
X91550000Y-80780000D02*
X91550000Y-75620000D01*
X94104775Y-79925000D02*
X94104775Y-79425000D01*
X94354775Y-79675000D02*
X93854775Y-79675000D01*
X94170000Y-78200000D02*
G75*
G02*
X88930000Y-78200000I-2620000J0D01*
G01*
X88930000Y-78200000D02*
G75*
G02*
X94170000Y-78200000I2620000J0D01*
G01*
D13*
G04 #@! TO.C,L3*
X152175303Y-63018395D02*
X152175303Y-98781595D01*
X152175303Y-98781595D02*
X191824703Y-98781595D01*
X191824703Y-63018395D02*
X152175303Y-63018395D01*
X191824703Y-98781595D02*
X191824703Y-63018395D01*
D14*
X154631000Y-99416595D02*
G75*
G02*
X153869000Y-99416595I-381000J0D01*
G01*
X153869000Y-99416595D02*
G75*
G02*
X154631000Y-99416595I381000J0D01*
G01*
D12*
G04 #@! TO.C,+12V*
X101730000Y-139700000D02*
G75*
G02*
X98930000Y-139700000I-1400000J0D01*
G01*
X98930000Y-139700000D02*
G75*
G02*
X101730000Y-139700000I1400000J0D01*
G01*
D15*
G04 #@! TO.C,REF\u002A\u002A*
X143600000Y-109660000D02*
X147600000Y-102740000D01*
D16*
X144090000Y-109640000D02*
X143823678Y-109230736D01*
X147150000Y-106415000D02*
X147360000Y-106640000D01*
X147260000Y-108295000D02*
X147770000Y-108385000D01*
X147450000Y-103160000D02*
X147760000Y-103160000D01*
X147467101Y-106679099D02*
X147712899Y-106880901D01*
D15*
X147600000Y-102740000D02*
X151600000Y-109660000D01*
D16*
X151110000Y-109640000D02*
X151376322Y-109230736D01*
D17*
X151600000Y-109660000D02*
X143600000Y-109660000D01*
D11*
X147100000Y-106700000D02*
X148264167Y-106074260D01*
X147609323Y-108460802D01*
X147944021Y-108257073D01*
X147347385Y-109144750D01*
X147129104Y-108097000D01*
X147361938Y-108417146D01*
X147638427Y-106685448D01*
X146517917Y-107282083D01*
X147245521Y-104706364D01*
X147958573Y-104706364D01*
X147100000Y-106700000D01*
G36*
X147100000Y-106700000D02*
G01*
X148264167Y-106074260D01*
X147609323Y-108460802D01*
X147944021Y-108257073D01*
X147347385Y-109144750D01*
X147129104Y-108097000D01*
X147361938Y-108417146D01*
X147638427Y-106685448D01*
X146517917Y-107282083D01*
X147245521Y-104706364D01*
X147958573Y-104706364D01*
X147100000Y-106700000D01*
G37*
D12*
G04 #@! TO.C,J2*
X60900000Y-124385000D02*
X60900000Y-134735000D01*
X60900000Y-134735000D02*
X61850000Y-134735000D01*
X61600000Y-135235000D02*
X63500000Y-135235000D01*
X61850000Y-134735000D02*
X61600000Y-135235000D01*
X63300000Y-134735000D02*
X68700000Y-134735000D01*
X63500000Y-135235000D02*
X63550000Y-135235000D01*
X63550000Y-135235000D02*
X63300000Y-134735000D01*
X68400000Y-135235000D02*
X73500000Y-135235000D01*
X68700000Y-134735000D02*
X68400000Y-135235000D01*
X73500000Y-124385000D02*
X60900000Y-124385000D01*
X73500000Y-135235000D02*
X73500000Y-124385000D01*
G04 #@! TO.C,J1*
X59900000Y-65550000D02*
X59900000Y-80950000D01*
X59900000Y-80950000D02*
X60850000Y-80950000D01*
X60550000Y-81450000D02*
X62550000Y-81450000D01*
X60850000Y-80950000D02*
X60550000Y-81450000D01*
X62300000Y-80950000D02*
X67700000Y-80950000D01*
X62550000Y-81450000D02*
X62300000Y-80950000D01*
X67450000Y-81450000D02*
X72500000Y-81450000D01*
X67700000Y-80950000D02*
X67450000Y-81450000D01*
X72500000Y-65550000D02*
X59900000Y-65550000D01*
X72500000Y-81450000D02*
X72500000Y-65550000D01*
G04 #@! TO.C,HVG*
X177150000Y-131250000D02*
G75*
G02*
X174350000Y-131250000I-1400000J0D01*
G01*
X174350000Y-131250000D02*
G75*
G02*
X177150000Y-131250000I1400000J0D01*
G01*
D11*
G04 #@! TO.C,T2*
X108262500Y-112500000D02*
X108262500Y-163500000D01*
X113262500Y-112500000D02*
X108262500Y-112500000D01*
X113262500Y-112500000D02*
X154762500Y-112500000D01*
X113262500Y-163500000D02*
X108262500Y-163500000D01*
X154762500Y-163500000D02*
X113262500Y-163500000D01*
X154762500Y-163500000D02*
X159762500Y-163500000D01*
X159762500Y-112500000D02*
X154762500Y-112500000D01*
X159762500Y-163500000D02*
X159762500Y-112500000D01*
D12*
G04 #@! TO.C,L*
X148350000Y-71500000D02*
G75*
G02*
X145550000Y-71500000I-1400000J0D01*
G01*
X145550000Y-71500000D02*
G75*
G02*
X148350000Y-71500000I1400000J0D01*
G01*
G04 #@! TO.C,VAUX*
X187600000Y-138600000D02*
G75*
G02*
X184800000Y-138600000I-1400000J0D01*
G01*
X184800000Y-138600000D02*
G75*
G02*
X187600000Y-138600000I1400000J0D01*
G01*
G04 #@! TO.C,N*
X148350000Y-66300000D02*
G75*
G02*
X145550000Y-66300000I-1400000J0D01*
G01*
X145550000Y-66300000D02*
G75*
G02*
X148350000Y-66300000I1400000J0D01*
G01*
G04 #@! TO.C,C33*
X143870000Y-100000000D02*
G75*
G02*
X138630000Y-100000000I-2620000J0D01*
G01*
X138630000Y-100000000D02*
G75*
G02*
X143870000Y-100000000I2620000J0D01*
G01*
G04 #@! TO.C,L2*
X86760000Y-125200000D02*
G75*
G02*
X78040000Y-125200000I-4360000J0D01*
G01*
X78040000Y-125200000D02*
G75*
G02*
X86760000Y-125200000I4360000J0D01*
G01*
G04 #@! TO.C,Opto+*
X167400000Y-155200000D02*
G75*
G02*
X164600000Y-155200000I-1400000J0D01*
G01*
X164600000Y-155200000D02*
G75*
G02*
X167400000Y-155200000I1400000J0D01*
G01*
G04 #@! TO.C,+12V*
X109900000Y-110000000D02*
G75*
G02*
X107100000Y-110000000I-1400000J0D01*
G01*
X107100000Y-110000000D02*
G75*
G02*
X109900000Y-110000000I1400000J0D01*
G01*
G04 #@! TO.C,TP4*
X196400000Y-85000000D02*
G75*
G02*
X193600000Y-85000000I-1400000J0D01*
G01*
X193600000Y-85000000D02*
G75*
G02*
X196400000Y-85000000I1400000J0D01*
G01*
G04 #@! TO.C,R2*
X177230000Y-116130000D02*
X177230000Y-122670000D01*
X177230000Y-122670000D02*
X179970000Y-122670000D01*
X178600000Y-115360000D02*
X178600000Y-116130000D01*
X178600000Y-123440000D02*
X178600000Y-122670000D01*
X179970000Y-116130000D02*
X177230000Y-116130000D01*
X179970000Y-122670000D02*
X179970000Y-116130000D01*
G04 #@! TO.C,CY2*
X152870000Y-57500000D02*
G75*
G02*
X144630000Y-57500000I-4120000J0D01*
G01*
X144630000Y-57500000D02*
G75*
G02*
X152870000Y-57500000I4120000J0D01*
G01*
G04 #@! TO.C,R72*
X177560000Y-111000000D02*
X178330000Y-111000000D01*
X178330000Y-109630000D02*
X178330000Y-112370000D01*
X178330000Y-112370000D02*
X184870000Y-112370000D01*
X184870000Y-109630000D02*
X178330000Y-109630000D01*
X184870000Y-112370000D02*
X184870000Y-109630000D01*
X185640000Y-111000000D02*
X184870000Y-111000000D01*
G04 #@! TO.C,C51*
X183220000Y-138800000D02*
G75*
G02*
X177980000Y-138800000I-2620000J0D01*
G01*
X177980000Y-138800000D02*
G75*
G02*
X183220000Y-138800000I2620000J0D01*
G01*
G04 #@! TO.C,LVG*
X163960000Y-131445000D02*
G75*
G02*
X161160000Y-131445000I-1400000J0D01*
G01*
X161160000Y-131445000D02*
G75*
G02*
X163960000Y-131445000I1400000J0D01*
G01*
G04 #@! TO.C,C43*
X176820000Y-106600000D02*
G75*
G02*
X171580000Y-106600000I-2620000J0D01*
G01*
X171580000Y-106600000D02*
G75*
G02*
X176820000Y-106600000I2620000J0D01*
G01*
G04 #@! TO.C,TP13*
X105400000Y-132000000D02*
G75*
G02*
X102600000Y-132000000I-1400000J0D01*
G01*
X102600000Y-132000000D02*
G75*
G02*
X105400000Y-132000000I1400000J0D01*
G01*
G04 #@! TD*
%LPC*%
D18*
G04 #@! TO.C,R3*
X97600000Y-69000000D03*
D19*
X97600000Y-81700000D03*
G04 #@! TD*
D20*
G04 #@! TO.C,VCC*
X173800000Y-119200000D03*
G04 #@! TD*
D21*
G04 #@! TO.C,D28*
X83375000Y-103000000D03*
D22*
X100035000Y-105540000D03*
D20*
X100035000Y-100460000D03*
G04 #@! TD*
D23*
G04 #@! TO.C,D1*
X141000000Y-61300000D03*
D24*
X141000000Y-66380000D03*
X141000000Y-71460000D03*
X141000000Y-76540000D03*
G04 #@! TD*
D18*
G04 #@! TO.C,C35*
X123250000Y-96250000D03*
X123250000Y-101250000D03*
G04 #@! TD*
D20*
G04 #@! TO.C,L1*
X113650000Y-77400000D03*
X134650000Y-77400000D03*
X134650000Y-62400000D03*
X113650000Y-62400000D03*
G04 #@! TD*
D21*
G04 #@! TO.C,D18*
X83375000Y-158555000D03*
D22*
X100035000Y-161095000D03*
D20*
X100035000Y-156015000D03*
G04 #@! TD*
D23*
G04 #@! TO.C,D22*
X147650000Y-97730000D03*
D25*
X147650000Y-85030000D03*
G04 #@! TD*
D18*
G04 #@! TO.C,CY1*
X125800000Y-88600000D03*
X125800000Y-85100000D03*
G04 #@! TD*
D26*
G04 #@! TO.C,C25*
X185000000Y-121800000D03*
X183000000Y-121800000D03*
G04 #@! TD*
D18*
G04 #@! TO.C,C15*
X92800000Y-121900000D03*
X92800000Y-126900000D03*
G04 #@! TD*
D21*
G04 #@! TO.C,D29*
X83375000Y-147955000D03*
D22*
X100035000Y-150495000D03*
D20*
X100035000Y-145415000D03*
G04 #@! TD*
D18*
G04 #@! TO.C,C34*
X133750000Y-97750000D03*
X133750000Y-101250000D03*
G04 #@! TD*
G04 #@! TO.C,F1*
X76800000Y-78300000D03*
X84300000Y-78300000D03*
G04 #@! TD*
D21*
G04 #@! TO.C,D17*
X83375000Y-113540000D03*
D22*
X100035000Y-116080000D03*
D20*
X100035000Y-111000000D03*
G04 #@! TD*
D27*
G04 #@! TO.C,Q1*
X182600000Y-129740000D03*
X182600000Y-128470000D03*
D28*
X182600000Y-127200000D03*
G04 #@! TD*
D18*
G04 #@! TO.C,C14*
X95200000Y-135000000D03*
X90200000Y-135000000D03*
G04 #@! TD*
G04 #@! TO.C,C26*
X82200000Y-132535000D03*
X82200000Y-137535000D03*
G04 #@! TD*
D26*
G04 #@! TO.C,C31*
X162465000Y-160655000D03*
X164465000Y-160655000D03*
G04 #@! TD*
D18*
G04 #@! TO.C,C11*
X140500000Y-85000000D03*
X140500000Y-88500000D03*
G04 #@! TD*
G04 #@! TO.C,RV1*
X79250000Y-67533330D03*
X84250000Y-69000000D03*
G04 #@! TD*
D26*
G04 #@! TO.C,C47*
X185000000Y-116000000D03*
X183000000Y-116000000D03*
G04 #@! TD*
D20*
G04 #@! TO.C,TP8*
X190000000Y-116000000D03*
G04 #@! TD*
D29*
G04 #@! TO.C,CY9*
X105900000Y-81050000D03*
X105900000Y-66050000D03*
G04 #@! TD*
D20*
G04 #@! TO.C,TP3*
X194950000Y-71000000D03*
G04 #@! TD*
G04 #@! TO.C,VCC*
X181800000Y-105600000D03*
G04 #@! TD*
D23*
G04 #@! TO.C,D23*
X166650000Y-59000000D03*
D25*
X179350000Y-59000000D03*
G04 #@! TD*
D20*
G04 #@! TO.C,400V*
X133750000Y-91750000D03*
G04 #@! TD*
D30*
G04 #@! TO.C,TH1*
X92800000Y-78200000D03*
D18*
X90300000Y-78200000D03*
G04 #@! TD*
D31*
G04 #@! TO.C,L3*
X154250000Y-95900000D03*
X154250000Y-90799990D03*
X154250000Y-85699996D03*
X154250000Y-76099994D03*
X154250000Y-71000000D03*
X154250000Y-65899990D03*
X189750005Y-95900000D03*
X189750005Y-90799990D03*
X189750005Y-85699996D03*
X189750005Y-76099994D03*
X189750005Y-71000000D03*
X189750005Y-65899990D03*
G04 #@! TD*
D20*
G04 #@! TO.C,+12V*
X100330000Y-139700000D03*
G04 #@! TD*
D32*
G04 #@! TO.C,J2*
X67200000Y-127035000D03*
D33*
X67200000Y-132035000D03*
G04 #@! TD*
D32*
G04 #@! TO.C,J1*
X66200000Y-68200000D03*
D33*
X66200000Y-73200000D03*
X66200000Y-78200000D03*
G04 #@! TD*
D20*
G04 #@! TO.C,HVG*
X175750000Y-131250000D03*
G04 #@! TD*
D34*
G04 #@! TO.C,T2*
X154762500Y-117000000D03*
X154762500Y-124000000D03*
X154762500Y-131000000D03*
X154762500Y-138000000D03*
X154762500Y-145000000D03*
X154762500Y-152000000D03*
X154762500Y-159000000D03*
X113262500Y-159000000D03*
X113262500Y-152000000D03*
X113262500Y-145000000D03*
X113262500Y-138000000D03*
X113262500Y-131000000D03*
X113262500Y-124000000D03*
X113262500Y-117000000D03*
G04 #@! TD*
D20*
G04 #@! TO.C,L*
X146950000Y-71500000D03*
G04 #@! TD*
G04 #@! TO.C,VAUX*
X186200000Y-138600000D03*
G04 #@! TD*
G04 #@! TO.C,N*
X146950000Y-66300000D03*
G04 #@! TD*
D26*
G04 #@! TO.C,C33*
X141250000Y-99000000D03*
X141250000Y-101000000D03*
G04 #@! TD*
D20*
G04 #@! TO.C,L2*
X82400000Y-122660000D03*
X82400000Y-127740000D03*
G04 #@! TD*
G04 #@! TO.C,Opto+*
X166000000Y-155200000D03*
G04 #@! TD*
G04 #@! TO.C,+12V*
X108500000Y-110000000D03*
G04 #@! TD*
G04 #@! TO.C,TP4*
X195000000Y-85000000D03*
G04 #@! TD*
D18*
G04 #@! TO.C,R2*
X178600000Y-124480000D03*
D19*
X178600000Y-114320000D03*
G04 #@! TD*
D18*
G04 #@! TO.C,CY2*
X147000000Y-57500000D03*
X150500000Y-57500000D03*
G04 #@! TD*
G04 #@! TO.C,R72*
X186680000Y-111000000D03*
D19*
X176520000Y-111000000D03*
G04 #@! TD*
D26*
G04 #@! TO.C,C51*
X181600000Y-138800000D03*
X179600000Y-138800000D03*
G04 #@! TD*
D20*
G04 #@! TO.C,LVG*
X162560000Y-131445000D03*
G04 #@! TD*
D26*
G04 #@! TO.C,C43*
X174200000Y-107600000D03*
X174200000Y-105600000D03*
G04 #@! TD*
D20*
G04 #@! TO.C,TP13*
X104000000Y-132000000D03*
G04 #@! TD*
G04 #@! TO.C,TP12*
X106600000Y-142000000D03*
G04 #@! TD*
%LPD*%
M02*
