%TF.GenerationSoftware,KiCad,Pcbnew,9.0.1*%
%TF.CreationDate,2025-07-18T15:32:59+03:00*%
%TF.ProjectId,AC-DC G__ kayna__,41432d44-4320-447f-9ce7-206b61796e61,rev?*%
%TF.SameCoordinates,Original*%
%TF.FileFunction,Drillmap*%
%TF.FilePolarity,Positive*%
%FSLAX45Y45*%
G04 Gerber Fmt 4.5, Leading zero omitted, Abs format (unit mm)*
G04 Created by KiCad (PCBNEW 9.0.1) date 2025-07-18 15:32:59*
%MOMM*%
%LPD*%
G01*
G04 APERTURE LIST*
%ADD10C,0.200000*%
%ADD11C,0.100000*%
%ADD12C,0.110000*%
%ADD13C,0.120000*%
%ADD14C,0.124460*%
%ADD15C,0.132000*%
%ADD16C,0.160000*%
G04 APERTURE END LIST*
D10*
X6160000Y-5240000D02*
X20380000Y-5240000D01*
X20380000Y-16620000D01*
X6160000Y-16620000D01*
X6160000Y-5240000D01*
D11*
X6535000Y-13360000D02*
X6565000Y-13390000D01*
X6565000Y-13360000D02*
X6535000Y-13390000D01*
X6610000Y-13360000D02*
X6640000Y-13390000D01*
X6640000Y-13360000D02*
X6610000Y-13390000D01*
X6685000Y-13360000D02*
X6715000Y-13390000D01*
X6715000Y-13360000D02*
X6685000Y-13390000D01*
X6760000Y-13360000D02*
X6790000Y-13390000D01*
X6790000Y-13360000D02*
X6760000Y-13390000D01*
X6835000Y-13360000D02*
X6865000Y-13390000D01*
X6865000Y-13360000D02*
X6835000Y-13390000D01*
X6875000Y-7230000D02*
X6905000Y-7260000D01*
X6905000Y-7230000D02*
X6875000Y-7260000D01*
X6875000Y-7310000D02*
X6905000Y-7340000D01*
X6905000Y-7310000D02*
X6875000Y-7340000D01*
X6875000Y-7390000D02*
X6905000Y-7420000D01*
X6905000Y-7390000D02*
X6875000Y-7420000D01*
X6910000Y-13360000D02*
X6940000Y-13390000D01*
X6940000Y-13360000D02*
X6910000Y-13390000D01*
X6965000Y-7230000D02*
X6995000Y-7260000D01*
X6995000Y-7230000D02*
X6965000Y-7260000D01*
X6965000Y-7310000D02*
X6995000Y-7340000D01*
X6995000Y-7310000D02*
X6965000Y-7340000D01*
X6965000Y-7390000D02*
X6995000Y-7420000D01*
X6995000Y-7390000D02*
X6965000Y-7420000D01*
X7050000Y-7230000D02*
X7080000Y-7260000D01*
X7080000Y-7230000D02*
X7050000Y-7260000D01*
X7050000Y-7310000D02*
X7080000Y-7340000D01*
X7080000Y-7310000D02*
X7050000Y-7340000D01*
X7050000Y-7390000D02*
X7080000Y-7420000D01*
X7080000Y-7390000D02*
X7050000Y-7420000D01*
X7160000Y-15785000D02*
X7190000Y-15815000D01*
X7190000Y-15785000D02*
X7160000Y-15815000D01*
X8035000Y-13735000D02*
X8065000Y-13765000D01*
X8065000Y-13735000D02*
X8035000Y-13765000D01*
X8060000Y-13660000D02*
X8090000Y-13690000D01*
X8090000Y-13660000D02*
X8060000Y-13690000D01*
X8060000Y-13810000D02*
X8090000Y-13840000D01*
X8090000Y-13810000D02*
X8060000Y-13840000D01*
X8110000Y-13860000D02*
X8140000Y-13890000D01*
X8140000Y-13860000D02*
X8110000Y-13890000D01*
X8185000Y-13885000D02*
X8215000Y-13915000D01*
X8215000Y-13885000D02*
X8185000Y-13915000D01*
X8260000Y-13885000D02*
X8290000Y-13915000D01*
X8290000Y-13885000D02*
X8260000Y-13915000D01*
X8335000Y-13835000D02*
X8365000Y-13865000D01*
X8365000Y-13835000D02*
X8335000Y-13865000D01*
X8360000Y-13760000D02*
X8390000Y-13790000D01*
X8390000Y-13760000D02*
X8360000Y-13790000D01*
X8635000Y-9310000D02*
X8665000Y-9340000D01*
X8665000Y-9310000D02*
X8635000Y-9340000D01*
X8810000Y-13460000D02*
X8840000Y-13490000D01*
X8840000Y-13460000D02*
X8810000Y-13490000D01*
X8860000Y-13385000D02*
X8890000Y-13415000D01*
X8890000Y-13385000D02*
X8860000Y-13415000D01*
X8935000Y-13335000D02*
X8965000Y-13365000D01*
X8965000Y-13335000D02*
X8935000Y-13365000D01*
X9010000Y-13310000D02*
X9040000Y-13340000D01*
X9040000Y-13310000D02*
X9010000Y-13340000D01*
X9085000Y-13335000D02*
X9115000Y-13365000D01*
X9115000Y-13335000D02*
X9085000Y-13365000D01*
X9104200Y-14848700D02*
X9134200Y-14878700D01*
X9134200Y-14848700D02*
X9104200Y-14878700D01*
X9104200Y-15864700D02*
X9134200Y-15894700D01*
X9134200Y-15864700D02*
X9104200Y-15894700D01*
X9135000Y-13410000D02*
X9165000Y-13440000D01*
X9165000Y-13410000D02*
X9135000Y-13440000D01*
X9135000Y-13560000D02*
X9165000Y-13590000D01*
X9165000Y-13560000D02*
X9135000Y-13590000D01*
X9135000Y-13785000D02*
X9165000Y-13815000D01*
X9165000Y-13785000D02*
X9135000Y-13815000D01*
X9135000Y-13860000D02*
X9165000Y-13890000D01*
X9165000Y-13860000D02*
X9135000Y-13890000D01*
X9135000Y-13935000D02*
X9165000Y-13965000D01*
X9165000Y-13935000D02*
X9135000Y-13965000D01*
X9160000Y-13485000D02*
X9190000Y-13515000D01*
X9190000Y-13485000D02*
X9160000Y-13515000D01*
X10685000Y-15235000D02*
X10715000Y-15265000D01*
X10715000Y-15235000D02*
X10685000Y-15265000D01*
X10685000Y-15310000D02*
X10715000Y-15340000D01*
X10715000Y-15310000D02*
X10685000Y-15340000D01*
X10685000Y-15385000D02*
X10715000Y-15415000D01*
X10715000Y-15385000D02*
X10685000Y-15415000D01*
X10685000Y-15460000D02*
X10715000Y-15490000D01*
X10715000Y-15460000D02*
X10685000Y-15490000D01*
X10882200Y-14505800D02*
X10912200Y-14535800D01*
X10912200Y-14505800D02*
X10882200Y-14535800D01*
X11110000Y-12310000D02*
X11140000Y-12340000D01*
X11140000Y-12310000D02*
X11110000Y-12340000D01*
X11110000Y-12435000D02*
X11140000Y-12465000D01*
X11140000Y-12435000D02*
X11110000Y-12465000D01*
X11160000Y-12210000D02*
X11190000Y-12240000D01*
X11190000Y-12210000D02*
X11160000Y-12240000D01*
X11160000Y-12535000D02*
X11190000Y-12565000D01*
X11190000Y-12535000D02*
X11160000Y-12565000D01*
X11235000Y-12585000D02*
X11265000Y-12615000D01*
X11265000Y-12585000D02*
X11235000Y-12615000D01*
X11260000Y-12160000D02*
X11290000Y-12190000D01*
X11290000Y-12160000D02*
X11260000Y-12190000D01*
X11335000Y-12585000D02*
X11365000Y-12615000D01*
X11365000Y-12585000D02*
X11335000Y-12615000D01*
X11360000Y-12160000D02*
X11390000Y-12190000D01*
X11390000Y-12160000D02*
X11360000Y-12190000D01*
X11435000Y-12185000D02*
X11465000Y-12215000D01*
X11465000Y-12185000D02*
X11435000Y-12215000D01*
X11435000Y-12560000D02*
X11465000Y-12590000D01*
X11465000Y-12560000D02*
X11435000Y-12590000D01*
X11510000Y-12260000D02*
X11540000Y-12290000D01*
X11540000Y-12260000D02*
X11510000Y-12290000D01*
X11510000Y-12460000D02*
X11540000Y-12490000D01*
X11540000Y-12460000D02*
X11510000Y-12490000D01*
X11535000Y-12360000D02*
X11565000Y-12390000D01*
X11565000Y-12360000D02*
X11535000Y-12390000D01*
X11910000Y-14810000D02*
X11940000Y-14840000D01*
X11940000Y-14810000D02*
X11910000Y-14840000D01*
X11925000Y-13785000D02*
X11955000Y-13815000D01*
X11955000Y-13785000D02*
X11925000Y-13815000D01*
X11935000Y-14235000D02*
X11965000Y-14265000D01*
X11965000Y-14235000D02*
X11935000Y-14265000D01*
X11985000Y-14810000D02*
X12015000Y-14840000D01*
X12015000Y-14810000D02*
X11985000Y-14840000D01*
X12010000Y-14235000D02*
X12040000Y-14265000D01*
X12040000Y-14235000D02*
X12010000Y-14265000D01*
X12010000Y-15110000D02*
X12040000Y-15140000D01*
X12040000Y-15110000D02*
X12010000Y-15140000D01*
X12010000Y-15185000D02*
X12040000Y-15215000D01*
X12040000Y-15185000D02*
X12010000Y-15215000D01*
X12010000Y-15260000D02*
X12040000Y-15290000D01*
X12040000Y-15260000D02*
X12010000Y-15290000D01*
X12010000Y-15335000D02*
X12040000Y-15365000D01*
X12040000Y-15335000D02*
X12010000Y-15365000D01*
X12010000Y-15410000D02*
X12040000Y-15440000D01*
X12040000Y-15410000D02*
X12010000Y-15440000D01*
X12010000Y-15485000D02*
X12040000Y-15515000D01*
X12040000Y-15485000D02*
X12010000Y-15515000D01*
X12140000Y-9460000D02*
X12170000Y-9490000D01*
X12170000Y-9460000D02*
X12140000Y-9490000D01*
X12140000Y-9540000D02*
X12170000Y-9570000D01*
X12170000Y-9540000D02*
X12140000Y-9570000D01*
X12140000Y-9620000D02*
X12170000Y-9650000D01*
X12170000Y-9620000D02*
X12140000Y-9650000D01*
X12140000Y-9620000D02*
X12170000Y-9650000D01*
X12170000Y-9620000D02*
X12140000Y-9650000D01*
X12140000Y-9700000D02*
X12170000Y-9730000D01*
X12170000Y-9700000D02*
X12140000Y-9730000D01*
X12230000Y-9460000D02*
X12260000Y-9490000D01*
X12260000Y-9460000D02*
X12230000Y-9490000D01*
X12240000Y-14855000D02*
X12270000Y-14885000D01*
X12270000Y-14855000D02*
X12240000Y-14885000D01*
X12240000Y-14930000D02*
X12270000Y-14960000D01*
X12270000Y-14930000D02*
X12240000Y-14960000D01*
X12250000Y-10265000D02*
X12280000Y-10295000D01*
X12280000Y-10265000D02*
X12250000Y-10295000D01*
X12265000Y-14180000D02*
X12295000Y-14210000D01*
X12295000Y-14180000D02*
X12265000Y-14210000D01*
X12265000Y-14255000D02*
X12295000Y-14285000D01*
X12295000Y-14255000D02*
X12265000Y-14285000D01*
X12265000Y-14690000D02*
X12295000Y-14720000D01*
X12295000Y-14690000D02*
X12265000Y-14720000D01*
X12265000Y-14765000D02*
X12295000Y-14795000D01*
X12295000Y-14765000D02*
X12265000Y-14795000D01*
X12285000Y-15050000D02*
X12315000Y-15080000D01*
X12315000Y-15050000D02*
X12285000Y-15080000D01*
X12285000Y-15125000D02*
X12315000Y-15155000D01*
X12315000Y-15125000D02*
X12285000Y-15155000D01*
X12315000Y-9460000D02*
X12345000Y-9490000D01*
X12345000Y-9460000D02*
X12315000Y-9490000D01*
X12315000Y-15415000D02*
X12345000Y-15445000D01*
X12345000Y-15415000D02*
X12315000Y-15445000D01*
X12315000Y-15490000D02*
X12345000Y-15520000D01*
X12345000Y-15490000D02*
X12315000Y-15520000D01*
X12325000Y-10265000D02*
X12355000Y-10295000D01*
X12355000Y-10265000D02*
X12325000Y-10295000D01*
X12390000Y-8785000D02*
X12420000Y-8815000D01*
X12420000Y-8785000D02*
X12390000Y-8815000D01*
X12390000Y-8865000D02*
X12420000Y-8895000D01*
X12420000Y-8865000D02*
X12390000Y-8895000D01*
X12390000Y-8865000D02*
X12420000Y-8895000D01*
X12420000Y-8865000D02*
X12390000Y-8895000D01*
X12390000Y-8945000D02*
X12420000Y-8975000D01*
X12420000Y-8945000D02*
X12390000Y-8975000D01*
X12390000Y-9025000D02*
X12420000Y-9055000D01*
X12420000Y-9025000D02*
X12390000Y-9055000D01*
X12400000Y-10265000D02*
X12430000Y-10295000D01*
X12430000Y-10265000D02*
X12400000Y-10295000D01*
X12405000Y-9460000D02*
X12435000Y-9490000D01*
X12435000Y-9460000D02*
X12405000Y-9490000D01*
X12475000Y-9025000D02*
X12505000Y-9055000D01*
X12505000Y-9025000D02*
X12475000Y-9055000D01*
X12475000Y-10265000D02*
X12505000Y-10295000D01*
X12505000Y-10265000D02*
X12475000Y-10295000D01*
X12490000Y-9460000D02*
X12520000Y-9490000D01*
X12520000Y-9460000D02*
X12490000Y-9490000D01*
X12490000Y-9540000D02*
X12520000Y-9570000D01*
X12520000Y-9540000D02*
X12490000Y-9570000D01*
X12490000Y-9620000D02*
X12520000Y-9650000D01*
X12520000Y-9620000D02*
X12490000Y-9650000D01*
X12490000Y-9620000D02*
X12520000Y-9650000D01*
X12520000Y-9620000D02*
X12490000Y-9650000D01*
X12490000Y-9700000D02*
X12520000Y-9730000D01*
X12520000Y-9700000D02*
X12490000Y-9730000D01*
X12550000Y-10265000D02*
X12580000Y-10295000D01*
X12580000Y-10265000D02*
X12550000Y-10295000D01*
X12565000Y-9025000D02*
X12595000Y-9055000D01*
X12595000Y-9025000D02*
X12565000Y-9055000D01*
X12600000Y-13350000D02*
X12630000Y-13380000D01*
X12630000Y-13350000D02*
X12600000Y-13380000D01*
X12625000Y-10265000D02*
X12655000Y-10295000D01*
X12655000Y-10265000D02*
X12625000Y-10295000D01*
X12650000Y-9025000D02*
X12680000Y-9055000D01*
X12680000Y-9025000D02*
X12650000Y-9055000D01*
X12660000Y-15700000D02*
X12690000Y-15730000D01*
X12690000Y-15700000D02*
X12660000Y-15730000D01*
X12660000Y-15775000D02*
X12690000Y-15805000D01*
X12690000Y-15775000D02*
X12660000Y-15805000D01*
X12660000Y-15850000D02*
X12690000Y-15880000D01*
X12690000Y-15850000D02*
X12660000Y-15880000D01*
X12675000Y-13350000D02*
X12705000Y-13380000D01*
X12705000Y-13350000D02*
X12675000Y-13380000D01*
X12740000Y-8785000D02*
X12770000Y-8815000D01*
X12770000Y-8785000D02*
X12740000Y-8815000D01*
X12740000Y-8865000D02*
X12770000Y-8895000D01*
X12770000Y-8865000D02*
X12740000Y-8895000D01*
X12740000Y-8865000D02*
X12770000Y-8895000D01*
X12770000Y-8865000D02*
X12740000Y-8895000D01*
X12740000Y-8945000D02*
X12770000Y-8975000D01*
X12770000Y-8945000D02*
X12740000Y-8975000D01*
X12740000Y-9025000D02*
X12770000Y-9055000D01*
X12770000Y-9025000D02*
X12740000Y-9055000D01*
X12750000Y-13350000D02*
X12780000Y-13380000D01*
X12780000Y-13350000D02*
X12750000Y-13380000D01*
X12812600Y-13413600D02*
X12842600Y-13443600D01*
X12842600Y-13413600D02*
X12812600Y-13443600D01*
X12812600Y-13489800D02*
X12842600Y-13519800D01*
X12842600Y-13489800D02*
X12812600Y-13519800D01*
X13005000Y-12965000D02*
X13035000Y-12995000D01*
X13035000Y-12965000D02*
X13005000Y-12995000D01*
X13079300Y-15267800D02*
X13109300Y-15297800D01*
X13109300Y-15267800D02*
X13079300Y-15297800D01*
X13135000Y-11360000D02*
X13165000Y-11390000D01*
X13165000Y-11360000D02*
X13135000Y-11390000D01*
X13165000Y-10275000D02*
X13195000Y-10305000D01*
X13195000Y-10275000D02*
X13165000Y-10305000D01*
X13193600Y-14455000D02*
X13223600Y-14485000D01*
X13223600Y-14455000D02*
X13193600Y-14485000D01*
X13240000Y-10275000D02*
X13270000Y-10305000D01*
X13270000Y-10275000D02*
X13240000Y-10305000D01*
X13315000Y-10275000D02*
X13345000Y-10305000D01*
X13345000Y-10275000D02*
X13315000Y-10305000D01*
X13390000Y-10275000D02*
X13420000Y-10305000D01*
X13420000Y-10275000D02*
X13390000Y-10305000D01*
X13465000Y-10275000D02*
X13495000Y-10305000D01*
X13495000Y-10275000D02*
X13465000Y-10305000D01*
X13540000Y-10275000D02*
X13570000Y-10305000D01*
X13570000Y-10275000D02*
X13540000Y-10305000D01*
X13560000Y-13280000D02*
X13590000Y-13310000D01*
X13590000Y-13280000D02*
X13560000Y-13310000D01*
X13635000Y-13280000D02*
X13665000Y-13310000D01*
X13665000Y-13280000D02*
X13635000Y-13310000D01*
X13685000Y-12105000D02*
X13715000Y-12135000D01*
X13715000Y-12105000D02*
X13685000Y-12135000D01*
X13710000Y-13280000D02*
X13740000Y-13310000D01*
X13740000Y-13280000D02*
X13710000Y-13310000D01*
X13780000Y-13170000D02*
X13810000Y-13200000D01*
X13810000Y-13170000D02*
X13780000Y-13200000D01*
X13841300Y-8917800D02*
X13871300Y-8947800D01*
X13871300Y-8917800D02*
X13841300Y-8947800D01*
X13855000Y-13170000D02*
X13885000Y-13200000D01*
X13885000Y-13170000D02*
X13855000Y-13200000D01*
X13875000Y-15385000D02*
X13905000Y-15415000D01*
X13905000Y-15385000D02*
X13875000Y-15415000D01*
X13904800Y-8968600D02*
X13934800Y-8998600D01*
X13934800Y-8968600D02*
X13904800Y-8998600D01*
X13920000Y-10280000D02*
X13950000Y-10310000D01*
X13950000Y-10280000D02*
X13920000Y-10310000D01*
X13930000Y-13170000D02*
X13960000Y-13200000D01*
X13960000Y-13170000D02*
X13930000Y-13200000D01*
X13950000Y-15385000D02*
X13980000Y-15415000D01*
X13980000Y-15385000D02*
X13950000Y-15415000D01*
X13968300Y-9006700D02*
X13998300Y-9036700D01*
X13998300Y-9006700D02*
X13968300Y-9036700D01*
X13995000Y-10280000D02*
X14025000Y-10310000D01*
X14025000Y-10280000D02*
X13995000Y-10310000D01*
X14025000Y-15385000D02*
X14055000Y-15415000D01*
X14055000Y-15385000D02*
X14025000Y-15415000D01*
X14030000Y-15225000D02*
X14060000Y-15255000D01*
X14060000Y-15225000D02*
X14030000Y-15255000D01*
X14030000Y-15300000D02*
X14060000Y-15330000D01*
X14060000Y-15300000D02*
X14030000Y-15330000D01*
X14044500Y-9044800D02*
X14074500Y-9074800D01*
X14074500Y-9044800D02*
X14044500Y-9074800D01*
X14070000Y-10280000D02*
X14100000Y-10310000D01*
X14100000Y-10280000D02*
X14070000Y-10310000D01*
X14120700Y-9019400D02*
X14150700Y-9049400D01*
X14150700Y-9019400D02*
X14120700Y-9049400D01*
X14145000Y-10280000D02*
X14175000Y-10310000D01*
X14175000Y-10280000D02*
X14145000Y-10310000D01*
X14171500Y-8968600D02*
X14201500Y-8998600D01*
X14201500Y-8968600D02*
X14171500Y-8998600D01*
X14180000Y-14660000D02*
X14210000Y-14690000D01*
X14210000Y-14660000D02*
X14180000Y-14690000D01*
X14180000Y-14735000D02*
X14210000Y-14765000D01*
X14210000Y-14735000D02*
X14180000Y-14765000D01*
X14180000Y-14810000D02*
X14210000Y-14840000D01*
X14210000Y-14810000D02*
X14180000Y-14840000D01*
X14209600Y-8905100D02*
X14239600Y-8935100D01*
X14239600Y-8905100D02*
X14209600Y-8935100D01*
X14210000Y-12255000D02*
X14240000Y-12285000D01*
X14240000Y-12255000D02*
X14210000Y-12285000D01*
X14210000Y-12330000D02*
X14240000Y-12360000D01*
X14240000Y-12330000D02*
X14210000Y-12360000D01*
X14220000Y-10280000D02*
X14250000Y-10310000D01*
X14250000Y-10280000D02*
X14220000Y-10310000D01*
X14295000Y-10280000D02*
X14325000Y-10310000D01*
X14325000Y-10280000D02*
X14295000Y-10310000D01*
X14438200Y-13286600D02*
X14468200Y-13316600D01*
X14468200Y-13286600D02*
X14438200Y-13316600D01*
X14510000Y-14660000D02*
X14540000Y-14690000D01*
X14540000Y-14660000D02*
X14510000Y-14690000D01*
X14510000Y-14735000D02*
X14540000Y-14765000D01*
X14540000Y-14735000D02*
X14510000Y-14765000D01*
X14510000Y-14810000D02*
X14540000Y-14840000D01*
X14540000Y-14810000D02*
X14510000Y-14840000D01*
X14590600Y-12854800D02*
X14620600Y-12884800D01*
X14620600Y-12854800D02*
X14590600Y-12884800D01*
X14819200Y-13439000D02*
X14849200Y-13469000D01*
X14849200Y-13439000D02*
X14819200Y-13469000D01*
X15149400Y-12600800D02*
X15179400Y-12630800D01*
X15179400Y-12600800D02*
X15149400Y-12630800D01*
X15174800Y-13972400D02*
X15204800Y-14002400D01*
X15204800Y-13972400D02*
X15174800Y-14002400D01*
X15225600Y-10162400D02*
X15255600Y-10192400D01*
X15255600Y-10162400D02*
X15225600Y-10192400D01*
X15301800Y-10340200D02*
X15331800Y-10370200D01*
X15331800Y-10340200D02*
X15301800Y-10370200D01*
X15479000Y-14082000D02*
X15509000Y-14112000D01*
X15509000Y-14082000D02*
X15479000Y-14112000D01*
X15505000Y-10492600D02*
X15535000Y-10522600D01*
X15535000Y-10492600D02*
X15505000Y-10522600D01*
X15530400Y-10162400D02*
X15560400Y-10192400D01*
X15560400Y-10162400D02*
X15530400Y-10192400D01*
X15825000Y-7825000D02*
X15855000Y-7855000D01*
X15855000Y-7825000D02*
X15825000Y-7855000D01*
X15825000Y-10205000D02*
X15855000Y-10235000D01*
X15855000Y-10205000D02*
X15825000Y-10235000D01*
X16005000Y-5975000D02*
X16035000Y-6005000D01*
X16035000Y-5975000D02*
X16005000Y-6005000D01*
X16005000Y-5975000D02*
X16035000Y-6005000D01*
X16035000Y-5975000D02*
X16005000Y-6005000D01*
X16005000Y-6275000D02*
X16035000Y-6305000D01*
X16035000Y-6275000D02*
X16005000Y-6305000D01*
X16005000Y-6275000D02*
X16035000Y-6305000D01*
X16035000Y-6275000D02*
X16005000Y-6305000D01*
X16080000Y-5975000D02*
X16110000Y-6005000D01*
X16110000Y-5975000D02*
X16080000Y-6005000D01*
X16080000Y-6275000D02*
X16110000Y-6305000D01*
X16110000Y-6275000D02*
X16080000Y-6305000D01*
X16140000Y-9959200D02*
X16170000Y-9989200D01*
X16170000Y-9959200D02*
X16140000Y-9989200D01*
X16155000Y-5975000D02*
X16185000Y-6005000D01*
X16185000Y-5975000D02*
X16155000Y-6005000D01*
X16155000Y-6275000D02*
X16185000Y-6305000D01*
X16185000Y-6275000D02*
X16155000Y-6305000D01*
X16230000Y-5975000D02*
X16260000Y-6005000D01*
X16260000Y-5975000D02*
X16230000Y-6005000D01*
X16230000Y-6275000D02*
X16260000Y-6305000D01*
X16260000Y-6275000D02*
X16230000Y-6305000D01*
X16267000Y-9997300D02*
X16297000Y-10027300D01*
X16297000Y-9997300D02*
X16267000Y-10027300D01*
X16305000Y-5975000D02*
X16335000Y-6005000D01*
X16335000Y-5975000D02*
X16305000Y-6005000D01*
X16305000Y-5975000D02*
X16335000Y-6005000D01*
X16335000Y-5975000D02*
X16305000Y-6005000D01*
X16305000Y-5975000D02*
X16335000Y-6005000D01*
X16335000Y-5975000D02*
X16305000Y-6005000D01*
X16305000Y-6050000D02*
X16335000Y-6080000D01*
X16335000Y-6050000D02*
X16305000Y-6080000D01*
X16305000Y-6125000D02*
X16335000Y-6155000D01*
X16335000Y-6125000D02*
X16305000Y-6155000D01*
X16305000Y-6200000D02*
X16335000Y-6230000D01*
X16335000Y-6200000D02*
X16305000Y-6230000D01*
X16305000Y-6275000D02*
X16335000Y-6305000D01*
X16335000Y-6275000D02*
X16305000Y-6305000D01*
X16305000Y-6275000D02*
X16335000Y-6305000D01*
X16335000Y-6275000D02*
X16305000Y-6305000D01*
X16419400Y-9795000D02*
X16449400Y-9825000D01*
X16449400Y-9795000D02*
X16419400Y-9825000D01*
X16490000Y-8960000D02*
X16520000Y-8990000D01*
X16520000Y-8960000D02*
X16490000Y-8990000D01*
X16490000Y-9045000D02*
X16520000Y-9075000D01*
X16520000Y-9045000D02*
X16490000Y-9075000D01*
X16490000Y-9120000D02*
X16520000Y-9150000D01*
X16520000Y-9120000D02*
X16490000Y-9150000D01*
X16520000Y-11135000D02*
X16550000Y-11165000D01*
X16550000Y-11135000D02*
X16520000Y-11165000D01*
X16565000Y-8960000D02*
X16595000Y-8990000D01*
X16595000Y-8960000D02*
X16565000Y-8990000D01*
X16595000Y-11135000D02*
X16625000Y-11165000D01*
X16625000Y-11135000D02*
X16595000Y-11165000D01*
X16622600Y-9984600D02*
X16652600Y-10014600D01*
X16652600Y-9984600D02*
X16622600Y-10014600D01*
X16640000Y-8735000D02*
X16670000Y-8765000D01*
X16670000Y-8735000D02*
X16640000Y-8765000D01*
X16640000Y-8810000D02*
X16670000Y-8840000D01*
X16670000Y-8810000D02*
X16640000Y-8840000D01*
X16640000Y-8885000D02*
X16670000Y-8915000D01*
X16670000Y-8885000D02*
X16640000Y-8915000D01*
X16640000Y-8960000D02*
X16670000Y-8990000D01*
X16670000Y-8960000D02*
X16640000Y-8990000D01*
X16670000Y-11135000D02*
X16700000Y-11165000D01*
X16700000Y-11135000D02*
X16670000Y-11165000D01*
X16745000Y-11020000D02*
X16775000Y-11050000D01*
X16775000Y-11020000D02*
X16745000Y-11050000D01*
X16745000Y-11135000D02*
X16775000Y-11165000D01*
X16775000Y-11135000D02*
X16745000Y-11165000D01*
X16749600Y-9984600D02*
X16779600Y-10014600D01*
X16779600Y-9984600D02*
X16749600Y-10014600D01*
X16810000Y-8190000D02*
X16840000Y-8220000D01*
X16840000Y-8190000D02*
X16810000Y-8220000D01*
X16820000Y-11020000D02*
X16850000Y-11050000D01*
X16850000Y-11020000D02*
X16820000Y-11050000D01*
X16885000Y-8190000D02*
X16915000Y-8220000D01*
X16915000Y-8190000D02*
X16885000Y-8220000D01*
X16900000Y-11020000D02*
X16930000Y-11050000D01*
X16930000Y-11020000D02*
X16900000Y-11050000D01*
X16960000Y-8190000D02*
X16990000Y-8220000D01*
X16990000Y-8190000D02*
X16960000Y-8220000D01*
X17003600Y-9375000D02*
X17033600Y-9405000D01*
X17033600Y-9375000D02*
X17003600Y-9405000D01*
X17035000Y-8190000D02*
X17065000Y-8220000D01*
X17065000Y-8190000D02*
X17035000Y-8220000D01*
X17110000Y-8190000D02*
X17140000Y-8220000D01*
X17140000Y-8190000D02*
X17110000Y-8220000D01*
X17185000Y-8190000D02*
X17215000Y-8220000D01*
X17215000Y-8190000D02*
X17185000Y-8220000D01*
X17260000Y-8190000D02*
X17290000Y-8220000D01*
X17290000Y-8190000D02*
X17260000Y-8220000D01*
X17335000Y-8190000D02*
X17365000Y-8220000D01*
X17365000Y-8190000D02*
X17335000Y-8220000D01*
X17345000Y-10420000D02*
X17375000Y-10450000D01*
X17375000Y-10420000D02*
X17345000Y-10450000D01*
X17410000Y-8190000D02*
X17440000Y-8220000D01*
X17440000Y-8190000D02*
X17410000Y-8220000D01*
X17420000Y-10420000D02*
X17450000Y-10450000D01*
X17450000Y-10420000D02*
X17420000Y-10450000D01*
X17465000Y-13585000D02*
X17495000Y-13615000D01*
X17495000Y-13585000D02*
X17465000Y-13615000D01*
X17485000Y-8190000D02*
X17515000Y-8220000D01*
X17515000Y-8190000D02*
X17485000Y-8220000D01*
X17495000Y-10420000D02*
X17525000Y-10450000D01*
X17525000Y-10420000D02*
X17495000Y-10450000D01*
X17560000Y-8190000D02*
X17590000Y-8220000D01*
X17590000Y-8190000D02*
X17560000Y-8220000D01*
X17625900Y-9362300D02*
X17655900Y-9392300D01*
X17655900Y-9362300D02*
X17625900Y-9392300D01*
X17635000Y-8190000D02*
X17665000Y-8220000D01*
X17665000Y-8190000D02*
X17635000Y-8220000D01*
X17710000Y-8190000D02*
X17740000Y-8220000D01*
X17740000Y-8190000D02*
X17710000Y-8220000D01*
X17785000Y-8190000D02*
X17815000Y-8220000D01*
X17815000Y-8190000D02*
X17785000Y-8220000D01*
X17830000Y-13780000D02*
X17860000Y-13810000D01*
X17860000Y-13780000D02*
X17830000Y-13810000D01*
X17830000Y-13855000D02*
X17860000Y-13885000D01*
X17860000Y-13855000D02*
X17830000Y-13885000D01*
X17830000Y-13930000D02*
X17860000Y-13960000D01*
X17860000Y-13930000D02*
X17830000Y-13960000D01*
X17830000Y-14010000D02*
X17860000Y-14040000D01*
X17860000Y-14010000D02*
X17830000Y-14040000D01*
X17860000Y-8190000D02*
X17890000Y-8220000D01*
X17890000Y-8190000D02*
X17860000Y-8220000D01*
X17870000Y-10770000D02*
X17900000Y-10800000D01*
X17900000Y-10770000D02*
X17870000Y-10800000D01*
X17870000Y-10845000D02*
X17900000Y-10875000D01*
X17900000Y-10845000D02*
X17870000Y-10875000D01*
X17905000Y-14010000D02*
X17935000Y-14040000D01*
X17935000Y-14010000D02*
X17905000Y-14040000D01*
X17935000Y-8190000D02*
X17965000Y-8220000D01*
X17965000Y-8190000D02*
X17935000Y-8220000D01*
X17945000Y-8840000D02*
X17975000Y-8870000D01*
X17975000Y-8840000D02*
X17945000Y-8870000D01*
X17945000Y-8915000D02*
X17975000Y-8945000D01*
X17975000Y-8915000D02*
X17945000Y-8945000D01*
X17980000Y-14010000D02*
X18010000Y-14040000D01*
X18010000Y-14010000D02*
X17980000Y-14040000D01*
X18025000Y-9025000D02*
X18055000Y-9055000D01*
X18055000Y-9025000D02*
X18025000Y-9055000D01*
X18025000Y-9100000D02*
X18055000Y-9130000D01*
X18055000Y-9100000D02*
X18025000Y-9130000D01*
X18025000Y-9175000D02*
X18055000Y-9205000D01*
X18055000Y-9175000D02*
X18025000Y-9205000D01*
X18155000Y-11545000D02*
X18185000Y-11575000D01*
X18185000Y-11545000D02*
X18155000Y-11575000D01*
X18155000Y-11620000D02*
X18185000Y-11650000D01*
X18185000Y-11620000D02*
X18155000Y-11650000D01*
X18160000Y-12120000D02*
X18190000Y-12150000D01*
X18190000Y-12120000D02*
X18160000Y-12150000D01*
X18160000Y-12195000D02*
X18190000Y-12225000D01*
X18190000Y-12195000D02*
X18160000Y-12225000D01*
X18185000Y-11690000D02*
X18215000Y-11720000D01*
X18215000Y-11690000D02*
X18185000Y-11720000D01*
X18200000Y-12060000D02*
X18230000Y-12090000D01*
X18230000Y-12060000D02*
X18200000Y-12090000D01*
X18205000Y-12255000D02*
X18235000Y-12285000D01*
X18235000Y-12255000D02*
X18205000Y-12285000D01*
X18222800Y-9146400D02*
X18252800Y-9176400D01*
X18252800Y-9146400D02*
X18222800Y-9176400D01*
X18245000Y-11750000D02*
X18275000Y-11780000D01*
X18275000Y-11750000D02*
X18245000Y-11780000D01*
X18345000Y-9425000D02*
X18375000Y-9455000D01*
X18375000Y-9425000D02*
X18345000Y-9455000D01*
X18465000Y-9445000D02*
X18495000Y-9475000D01*
X18495000Y-9445000D02*
X18465000Y-9475000D01*
X18545000Y-8205000D02*
X18575000Y-8235000D01*
X18575000Y-8205000D02*
X18545000Y-8235000D01*
X18605000Y-10470000D02*
X18635000Y-10500000D01*
X18635000Y-10470000D02*
X18605000Y-10500000D01*
X18605000Y-10545000D02*
X18635000Y-10575000D01*
X18635000Y-10545000D02*
X18605000Y-10575000D01*
X18755000Y-12805000D02*
X18785000Y-12835000D01*
X18785000Y-12805000D02*
X18755000Y-12835000D01*
X18755000Y-12880000D02*
X18785000Y-12910000D01*
X18785000Y-12880000D02*
X18755000Y-12910000D01*
X18755000Y-12955000D02*
X18785000Y-12985000D01*
X18785000Y-12955000D02*
X18755000Y-12985000D01*
X18810000Y-9060000D02*
X18840000Y-9090000D01*
X18840000Y-9060000D02*
X18810000Y-9090000D01*
X18830000Y-9135000D02*
X18860000Y-9165000D01*
X18860000Y-9135000D02*
X18830000Y-9165000D01*
X18835000Y-8985000D02*
X18865000Y-9015000D01*
X18865000Y-8985000D02*
X18835000Y-9015000D01*
X18880000Y-9190000D02*
X18910000Y-9220000D01*
X18910000Y-9190000D02*
X18880000Y-9220000D01*
X18885000Y-8930000D02*
X18915000Y-8960000D01*
X18915000Y-8930000D02*
X18885000Y-8960000D01*
X18930000Y-10475000D02*
X18960000Y-10505000D01*
X18960000Y-10475000D02*
X18930000Y-10505000D01*
X18930000Y-10550000D02*
X18960000Y-10580000D01*
X18960000Y-10550000D02*
X18930000Y-10580000D01*
X18955000Y-9220000D02*
X18985000Y-9250000D01*
X18985000Y-9220000D02*
X18955000Y-9250000D01*
X18960000Y-8905000D02*
X18990000Y-8935000D01*
X18990000Y-8905000D02*
X18960000Y-8935000D01*
X18985000Y-13030000D02*
X19015000Y-13060000D01*
X19015000Y-13030000D02*
X18985000Y-13060000D01*
X18985000Y-13330000D02*
X19015000Y-13360000D01*
X19015000Y-13330000D02*
X18985000Y-13360000D01*
X19035000Y-8935000D02*
X19065000Y-8965000D01*
X19065000Y-8935000D02*
X19035000Y-8965000D01*
X19035000Y-9195000D02*
X19065000Y-9225000D01*
X19065000Y-9195000D02*
X19035000Y-9225000D01*
X19060000Y-13030000D02*
X19090000Y-13060000D01*
X19090000Y-13030000D02*
X19060000Y-13060000D01*
X19060000Y-13330000D02*
X19090000Y-13360000D01*
X19090000Y-13330000D02*
X19060000Y-13360000D01*
X19090000Y-9140000D02*
X19120000Y-9170000D01*
X19120000Y-9140000D02*
X19090000Y-9170000D01*
X19095000Y-8985000D02*
X19125000Y-9015000D01*
X19125000Y-8985000D02*
X19095000Y-9015000D01*
X19115000Y-9060000D02*
X19145000Y-9090000D01*
X19145000Y-9060000D02*
X19115000Y-9090000D01*
X19135000Y-13030000D02*
X19165000Y-13060000D01*
X19165000Y-13030000D02*
X19135000Y-13060000D01*
X19135000Y-13330000D02*
X19165000Y-13360000D01*
X19165000Y-13330000D02*
X19135000Y-13360000D01*
X19210000Y-13030000D02*
X19240000Y-13060000D01*
X19240000Y-13030000D02*
X19210000Y-13060000D01*
X19210000Y-13330000D02*
X19240000Y-13360000D01*
X19240000Y-13330000D02*
X19210000Y-13360000D01*
X19285000Y-13030000D02*
X19315000Y-13060000D01*
X19315000Y-13030000D02*
X19285000Y-13060000D01*
X19285000Y-13330000D02*
X19315000Y-13360000D01*
X19315000Y-13330000D02*
X19285000Y-13360000D01*
X19330000Y-8485000D02*
X19360000Y-8515000D01*
X19360000Y-8485000D02*
X19330000Y-8515000D01*
X19350000Y-8560000D02*
X19380000Y-8590000D01*
X19380000Y-8560000D02*
X19350000Y-8590000D01*
X19355000Y-8410000D02*
X19385000Y-8440000D01*
X19385000Y-8410000D02*
X19355000Y-8440000D01*
X19360000Y-13030000D02*
X19390000Y-13060000D01*
X19390000Y-13030000D02*
X19360000Y-13060000D01*
X19360000Y-13030000D02*
X19390000Y-13060000D01*
X19390000Y-13030000D02*
X19360000Y-13060000D01*
X19360000Y-13105000D02*
X19390000Y-13135000D01*
X19390000Y-13105000D02*
X19360000Y-13135000D01*
X19360000Y-13180000D02*
X19390000Y-13210000D01*
X19390000Y-13180000D02*
X19360000Y-13210000D01*
X19360000Y-13255000D02*
X19390000Y-13285000D01*
X19390000Y-13255000D02*
X19360000Y-13285000D01*
X19360000Y-13330000D02*
X19390000Y-13360000D01*
X19390000Y-13330000D02*
X19360000Y-13360000D01*
X19400000Y-8615000D02*
X19430000Y-8645000D01*
X19430000Y-8615000D02*
X19400000Y-8645000D01*
X19405000Y-8355000D02*
X19435000Y-8385000D01*
X19435000Y-8355000D02*
X19405000Y-8385000D01*
X19475000Y-8645000D02*
X19505000Y-8675000D01*
X19505000Y-8645000D02*
X19475000Y-8675000D01*
X19480000Y-8330000D02*
X19510000Y-8360000D01*
X19510000Y-8330000D02*
X19480000Y-8360000D01*
X19555000Y-8620000D02*
X19585000Y-8650000D01*
X19585000Y-8620000D02*
X19555000Y-8650000D01*
X19560000Y-8355000D02*
X19590000Y-8385000D01*
X19590000Y-8355000D02*
X19560000Y-8385000D01*
X19610000Y-8565000D02*
X19640000Y-8595000D01*
X19640000Y-8565000D02*
X19610000Y-8595000D01*
X19615000Y-8410000D02*
X19645000Y-8440000D01*
X19645000Y-8410000D02*
X19615000Y-8440000D01*
X19635000Y-8485000D02*
X19665000Y-8515000D01*
X19665000Y-8485000D02*
X19635000Y-8515000D01*
X7955000Y-6753333D02*
G75*
G02*
X7895000Y-6753333I-30000J0D01*
G01*
X7895000Y-6753333D02*
G75*
G02*
X7955000Y-6753333I30000J0D01*
G01*
X8455000Y-6900000D02*
G75*
G02*
X8395000Y-6900000I-30000J0D01*
G01*
X8395000Y-6900000D02*
G75*
G02*
X8455000Y-6900000I30000J0D01*
G01*
X14155000Y-9900000D02*
G75*
G02*
X14095000Y-9900000I-30000J0D01*
G01*
X14095000Y-9900000D02*
G75*
G02*
X14155000Y-9900000I30000J0D01*
G01*
X14155000Y-10100000D02*
G75*
G02*
X14095000Y-10100000I-30000J0D01*
G01*
X14095000Y-10100000D02*
G75*
G02*
X14155000Y-10100000I30000J0D01*
G01*
X16276500Y-16065500D02*
G75*
G02*
X16216500Y-16065500I-30000J0D01*
G01*
X16216500Y-16065500D02*
G75*
G02*
X16276500Y-16065500I30000J0D01*
G01*
X16476500Y-16065500D02*
G75*
G02*
X16416500Y-16065500I-30000J0D01*
G01*
X16416500Y-16065500D02*
G75*
G02*
X16476500Y-16065500I30000J0D01*
G01*
X17450000Y-10560000D02*
G75*
G02*
X17390000Y-10560000I-30000J0D01*
G01*
X17390000Y-10560000D02*
G75*
G02*
X17450000Y-10560000I30000J0D01*
G01*
X17450000Y-10760000D02*
G75*
G02*
X17390000Y-10760000I-30000J0D01*
G01*
X17390000Y-10760000D02*
G75*
G02*
X17450000Y-10760000I30000J0D01*
G01*
X17990000Y-13880000D02*
G75*
G02*
X17930000Y-13880000I-30000J0D01*
G01*
X17930000Y-13880000D02*
G75*
G02*
X17990000Y-13880000I30000J0D01*
G01*
X18190000Y-13880000D02*
G75*
G02*
X18130000Y-13880000I-30000J0D01*
G01*
X18130000Y-13880000D02*
G75*
G02*
X18190000Y-13880000I30000J0D01*
G01*
X18330000Y-11600000D02*
G75*
G02*
X18270000Y-11600000I-30000J0D01*
G01*
X18270000Y-11600000D02*
G75*
G02*
X18330000Y-11600000I30000J0D01*
G01*
X18330000Y-12180000D02*
G75*
G02*
X18270000Y-12180000I-30000J0D01*
G01*
X18270000Y-12180000D02*
G75*
G02*
X18330000Y-12180000I30000J0D01*
G01*
X18530000Y-11600000D02*
G75*
G02*
X18470000Y-11600000I-30000J0D01*
G01*
X18470000Y-11600000D02*
G75*
G02*
X18530000Y-11600000I30000J0D01*
G01*
X18530000Y-12180000D02*
G75*
G02*
X18470000Y-12180000I-30000J0D01*
G01*
X18470000Y-12180000D02*
G75*
G02*
X18530000Y-12180000I30000J0D01*
G01*
X18260000Y-12682500D02*
X18260000Y-12757500D01*
X18222500Y-12720000D02*
X18297500Y-12720000D01*
X18260000Y-12809500D02*
X18260000Y-12884500D01*
X18222500Y-12847000D02*
X18297500Y-12847000D01*
X18260000Y-12936500D02*
X18260000Y-13011500D01*
X18222500Y-12974000D02*
X18297500Y-12974000D01*
X7708284Y-7858284D02*
X7708284Y-7801715D01*
X7651715Y-7801715D01*
X7651715Y-7858284D01*
X7708284Y-7858284D01*
X8248284Y-13281784D02*
X8248284Y-13225215D01*
X8191715Y-13225215D01*
X8191715Y-13281784D01*
X8248284Y-13281784D01*
X8248284Y-13781784D02*
X8248284Y-13725215D01*
X8191715Y-13725215D01*
X8191715Y-13781784D01*
X8248284Y-13781784D01*
X8458285Y-7858284D02*
X8458285Y-7801715D01*
X8401716Y-7801715D01*
X8401716Y-7858284D01*
X8458285Y-7858284D01*
X9048285Y-13528284D02*
X9048285Y-13471715D01*
X8991716Y-13471715D01*
X8991716Y-13528284D01*
X9048285Y-13528284D01*
X9058285Y-7848284D02*
X9058285Y-7791715D01*
X9001716Y-7791715D01*
X9001716Y-7848284D01*
X9058285Y-7848284D01*
X9308285Y-7848284D02*
X9308285Y-7791715D01*
X9251716Y-7791715D01*
X9251716Y-7848284D01*
X9308285Y-7848284D01*
X9308285Y-12218284D02*
X9308285Y-12161715D01*
X9251716Y-12161715D01*
X9251716Y-12218284D01*
X9308285Y-12218284D01*
X9308285Y-12718284D02*
X9308285Y-12661715D01*
X9251716Y-12661715D01*
X9251716Y-12718284D01*
X9308285Y-12718284D01*
X9548285Y-13528284D02*
X9548285Y-13471715D01*
X9491716Y-13471715D01*
X9491716Y-13528284D01*
X9548285Y-13528284D01*
X9788285Y-6928284D02*
X9788285Y-6871715D01*
X9731716Y-6871715D01*
X9731716Y-6928284D01*
X9788285Y-6928284D01*
X9788285Y-8198284D02*
X9788285Y-8141715D01*
X9731716Y-8141715D01*
X9731716Y-8198284D01*
X9788285Y-8198284D01*
X12353284Y-9653285D02*
X12353284Y-9596716D01*
X12296715Y-9596716D01*
X12296715Y-9653285D01*
X12353284Y-9653285D01*
X12353284Y-10153285D02*
X12353284Y-10096716D01*
X12296715Y-10096716D01*
X12296715Y-10153285D01*
X12353284Y-10153285D01*
X12608284Y-8538285D02*
X12608284Y-8481716D01*
X12551715Y-8481716D01*
X12551715Y-8538285D01*
X12608284Y-8538285D01*
X12608284Y-8888285D02*
X12608284Y-8831716D01*
X12551715Y-8831716D01*
X12551715Y-8888285D01*
X12608284Y-8888285D01*
X13403284Y-9803285D02*
X13403284Y-9746716D01*
X13346715Y-9746716D01*
X13346715Y-9803285D01*
X13403284Y-9803285D01*
X13403284Y-10153285D02*
X13403284Y-10096716D01*
X13346715Y-10096716D01*
X13346715Y-10153285D01*
X13403284Y-10153285D01*
X14078284Y-8528285D02*
X14078284Y-8471716D01*
X14021715Y-8471716D01*
X14021715Y-8528285D01*
X14078284Y-8528285D01*
X14078284Y-8878285D02*
X14078284Y-8821716D01*
X14021715Y-8821716D01*
X14021715Y-8878285D01*
X14078284Y-8878285D01*
X14728284Y-5778284D02*
X14728284Y-5721715D01*
X14671715Y-5721715D01*
X14671715Y-5778284D01*
X14728284Y-5778284D01*
X15078284Y-5778284D02*
X15078284Y-5721715D01*
X15021715Y-5721715D01*
X15021715Y-5778284D01*
X15078284Y-5778284D01*
X17680285Y-11128285D02*
X17680285Y-11071716D01*
X17623716Y-11071716D01*
X17623716Y-11128285D01*
X17680285Y-11128285D01*
X17888285Y-11460284D02*
X17888285Y-11403715D01*
X17831716Y-11403715D01*
X17831716Y-11460284D01*
X17888285Y-11460284D01*
X17888285Y-12476284D02*
X17888285Y-12419715D01*
X17831716Y-12419715D01*
X17831716Y-12476284D01*
X17888285Y-12476284D01*
X18696285Y-11128285D02*
X18696285Y-11071716D01*
X18639716Y-11071716D01*
X18639716Y-11128285D01*
X18696285Y-11128285D01*
X8240000Y-12316000D02*
X8290000Y-12266000D01*
X8240000Y-12216000D01*
X8190000Y-12266000D01*
X8240000Y-12316000D01*
X8240000Y-12824000D02*
X8290000Y-12774000D01*
X8240000Y-12724000D01*
X8190000Y-12774000D01*
X8240000Y-12824000D01*
X10033000Y-14020000D02*
X10083000Y-13970000D01*
X10033000Y-13920000D01*
X9983000Y-13970000D01*
X10033000Y-14020000D01*
X10400000Y-13250000D02*
X10450000Y-13200000D01*
X10400000Y-13150000D01*
X10350000Y-13200000D01*
X10400000Y-13250000D01*
X10660000Y-14250000D02*
X10710000Y-14200000D01*
X10660000Y-14150000D01*
X10610000Y-14200000D01*
X10660000Y-14250000D01*
X10850000Y-11050000D02*
X10900000Y-11000000D01*
X10850000Y-10950000D01*
X10800000Y-11000000D01*
X10850000Y-11050000D01*
X11365000Y-6290000D02*
X11415000Y-6240000D01*
X11365000Y-6190000D01*
X11315000Y-6240000D01*
X11365000Y-6290000D01*
X11365000Y-7790000D02*
X11415000Y-7740000D01*
X11365000Y-7690000D01*
X11315000Y-7740000D01*
X11365000Y-7790000D01*
X13375000Y-9225000D02*
X13425000Y-9175000D01*
X13375000Y-9125000D01*
X13325000Y-9175000D01*
X13375000Y-9225000D01*
X13465000Y-6290000D02*
X13515000Y-6240000D01*
X13465000Y-6190000D01*
X13415000Y-6240000D01*
X13465000Y-6290000D01*
X13465000Y-7790000D02*
X13515000Y-7740000D01*
X13465000Y-7690000D01*
X13415000Y-7740000D01*
X13465000Y-7790000D01*
X14695000Y-6680000D02*
X14745000Y-6630000D01*
X14695000Y-6580000D01*
X14645000Y-6630000D01*
X14695000Y-6680000D01*
X14695000Y-7200000D02*
X14745000Y-7150000D01*
X14695000Y-7100000D01*
X14645000Y-7150000D01*
X14695000Y-7200000D01*
X16256000Y-13194500D02*
X16306000Y-13144500D01*
X16256000Y-13094500D01*
X16206000Y-13144500D01*
X16256000Y-13194500D01*
X16600000Y-15570000D02*
X16650000Y-15520000D01*
X16600000Y-15470000D01*
X16550000Y-15520000D01*
X16600000Y-15570000D01*
X17380000Y-11970000D02*
X17430000Y-11920000D01*
X17380000Y-11870000D01*
X17330000Y-11920000D01*
X17380000Y-11970000D01*
X17575000Y-13175000D02*
X17625000Y-13125000D01*
X17575000Y-13075000D01*
X17525000Y-13125000D01*
X17575000Y-13175000D01*
X18180000Y-10610000D02*
X18230000Y-10560000D01*
X18180000Y-10510000D01*
X18130000Y-10560000D01*
X18180000Y-10610000D01*
X18620000Y-13910000D02*
X18670000Y-13860000D01*
X18620000Y-13810000D01*
X18570000Y-13860000D01*
X18620000Y-13910000D01*
X19000000Y-11650000D02*
X19050000Y-11600000D01*
X19000000Y-11550000D01*
X18950000Y-11600000D01*
X19000000Y-11650000D01*
X19495000Y-7150000D02*
X19545000Y-7100000D01*
X19495000Y-7050000D01*
X19445000Y-7100000D01*
X19495000Y-7150000D01*
X19500000Y-8550000D02*
X19550000Y-8500000D01*
X19500000Y-8450000D01*
X19450000Y-8500000D01*
X19500000Y-8550000D01*
D12*
X9948500Y-9991000D02*
X10058500Y-10101000D01*
X10058500Y-9991000D02*
X9948500Y-10101000D01*
X10058500Y-10046000D02*
G75*
G02*
X9948500Y-10046000I-55000J0D01*
G01*
X9948500Y-10046000D02*
G75*
G02*
X10058500Y-10046000I55000J0D01*
G01*
X9948500Y-10499000D02*
X10058500Y-10609000D01*
X10058500Y-10499000D02*
X9948500Y-10609000D01*
X10058500Y-10554000D02*
G75*
G02*
X9948500Y-10554000I-55000J0D01*
G01*
X9948500Y-10554000D02*
G75*
G02*
X10058500Y-10554000I55000J0D01*
G01*
X9948500Y-11045000D02*
X10058500Y-11155000D01*
X10058500Y-11045000D02*
X9948500Y-11155000D01*
X10058500Y-11100000D02*
G75*
G02*
X9948500Y-11100000I-55000J0D01*
G01*
X9948500Y-11100000D02*
G75*
G02*
X10058500Y-11100000I55000J0D01*
G01*
X9948500Y-11553000D02*
X10058500Y-11663000D01*
X10058500Y-11553000D02*
X9948500Y-11663000D01*
X10058500Y-11608000D02*
G75*
G02*
X9948500Y-11608000I-55000J0D01*
G01*
X9948500Y-11608000D02*
G75*
G02*
X10058500Y-11608000I55000J0D01*
G01*
X9948500Y-14486500D02*
X10058500Y-14596500D01*
X10058500Y-14486500D02*
X9948500Y-14596500D01*
X10058500Y-14541500D02*
G75*
G02*
X9948500Y-14541500I-55000J0D01*
G01*
X9948500Y-14541500D02*
G75*
G02*
X10058500Y-14541500I55000J0D01*
G01*
X9948500Y-14994500D02*
X10058500Y-15104500D01*
X10058500Y-14994500D02*
X9948500Y-15104500D01*
X10058500Y-15049500D02*
G75*
G02*
X9948500Y-15049500I-55000J0D01*
G01*
X9948500Y-15049500D02*
G75*
G02*
X10058500Y-15049500I55000J0D01*
G01*
X9948500Y-15546500D02*
X10058500Y-15656500D01*
X10058500Y-15546500D02*
X9948500Y-15656500D01*
X10058500Y-15601500D02*
G75*
G02*
X9948500Y-15601500I-55000J0D01*
G01*
X9948500Y-15601500D02*
G75*
G02*
X10058500Y-15601500I55000J0D01*
G01*
X9948500Y-16054500D02*
X10058500Y-16164500D01*
X10058500Y-16054500D02*
X9948500Y-16164500D01*
X10058500Y-16109500D02*
G75*
G02*
X9948500Y-16109500I-55000J0D01*
G01*
X9948500Y-16109500D02*
G75*
G02*
X10058500Y-16109500I55000J0D01*
G01*
D13*
X10530000Y-6545000D02*
X10650000Y-6665000D01*
X10650000Y-6545000D02*
X10530000Y-6665000D01*
X10590000Y-6545000D02*
X10590000Y-6665000D01*
X10530000Y-6605000D02*
X10650000Y-6605000D01*
X10530000Y-8045000D02*
X10650000Y-8165000D01*
X10650000Y-8045000D02*
X10530000Y-8165000D01*
X10590000Y-8045000D02*
X10590000Y-8165000D01*
X10530000Y-8105000D02*
X10650000Y-8105000D01*
D14*
X15362770Y-6527769D02*
X15487230Y-6652229D01*
X15487230Y-6527769D02*
X15362770Y-6652229D01*
X15469004Y-6634003D02*
X15469004Y-6545995D01*
X15380996Y-6545995D01*
X15380996Y-6634003D01*
X15469004Y-6634003D01*
X15362770Y-7037770D02*
X15487230Y-7162230D01*
X15487230Y-7037770D02*
X15362770Y-7162230D01*
X15469004Y-7144004D02*
X15469004Y-7055996D01*
X15380996Y-7055996D01*
X15380996Y-7144004D01*
X15469004Y-7144004D01*
X15362770Y-7547769D02*
X15487230Y-7672229D01*
X15487230Y-7547769D02*
X15362770Y-7672229D01*
X15469004Y-7654003D02*
X15469004Y-7565996D01*
X15380996Y-7565996D01*
X15380996Y-7654003D01*
X15469004Y-7654003D01*
X15362770Y-8507770D02*
X15487230Y-8632230D01*
X15487230Y-8507770D02*
X15362770Y-8632230D01*
X15469004Y-8614003D02*
X15469004Y-8525996D01*
X15380996Y-8525996D01*
X15380996Y-8614003D01*
X15469004Y-8614003D01*
X15362770Y-9017769D02*
X15487230Y-9142229D01*
X15487230Y-9017769D02*
X15362770Y-9142229D01*
X15469004Y-9124003D02*
X15469004Y-9035995D01*
X15380996Y-9035995D01*
X15380996Y-9124003D01*
X15469004Y-9124003D01*
X15362770Y-9527770D02*
X15487230Y-9652230D01*
X15487230Y-9527770D02*
X15362770Y-9652230D01*
X15469004Y-9634004D02*
X15469004Y-9545996D01*
X15380996Y-9545996D01*
X15380996Y-9634004D01*
X15469004Y-9634004D01*
X18912771Y-6527769D02*
X19037231Y-6652229D01*
X19037231Y-6527769D02*
X18912771Y-6652229D01*
X19019004Y-6634003D02*
X19019004Y-6545995D01*
X18930997Y-6545995D01*
X18930997Y-6634003D01*
X19019004Y-6634003D01*
X18912771Y-7037770D02*
X19037231Y-7162230D01*
X19037231Y-7037770D02*
X18912771Y-7162230D01*
X19019004Y-7144004D02*
X19019004Y-7055996D01*
X18930997Y-7055996D01*
X18930997Y-7144004D01*
X19019004Y-7144004D01*
X18912771Y-7547769D02*
X19037231Y-7672229D01*
X19037231Y-7547769D02*
X18912771Y-7672229D01*
X19019004Y-7654003D02*
X19019004Y-7565996D01*
X18930997Y-7565996D01*
X18930997Y-7654003D01*
X19019004Y-7654003D01*
X18912771Y-8507770D02*
X19037231Y-8632230D01*
X19037231Y-8507770D02*
X18912771Y-8632230D01*
X19019004Y-8614003D02*
X19019004Y-8525996D01*
X18930997Y-8525996D01*
X18930997Y-8614003D01*
X19019004Y-8614003D01*
X18912771Y-9017769D02*
X19037231Y-9142229D01*
X19037231Y-9017769D02*
X18912771Y-9142229D01*
X19019004Y-9124003D02*
X19019004Y-9035995D01*
X18930997Y-9035995D01*
X18930997Y-9124003D01*
X19019004Y-9124003D01*
X18912771Y-9527770D02*
X19037231Y-9652230D01*
X19037231Y-9527770D02*
X18912771Y-9652230D01*
X19019004Y-9634004D02*
X19019004Y-9545996D01*
X18930997Y-9545996D01*
X18930997Y-9634004D01*
X19019004Y-9634004D01*
D15*
X6554000Y-6754000D02*
X6686000Y-6886000D01*
X6686000Y-6754000D02*
X6554000Y-6886000D01*
X6620000Y-6886000D02*
X6686000Y-6820000D01*
X6620000Y-6754000D01*
X6554000Y-6820000D01*
X6620000Y-6886000D01*
X6554000Y-7254000D02*
X6686000Y-7386000D01*
X6686000Y-7254000D02*
X6554000Y-7386000D01*
X6620000Y-7386000D02*
X6686000Y-7320000D01*
X6620000Y-7254000D01*
X6554000Y-7320000D01*
X6620000Y-7386000D01*
X6554000Y-7754000D02*
X6686000Y-7886000D01*
X6686000Y-7754000D02*
X6554000Y-7886000D01*
X6620000Y-7886000D02*
X6686000Y-7820000D01*
X6620000Y-7754000D01*
X6554000Y-7820000D01*
X6620000Y-7886000D01*
X6654000Y-12637500D02*
X6786000Y-12769500D01*
X6786000Y-12637500D02*
X6654000Y-12769500D01*
X6720000Y-12769500D02*
X6786000Y-12703500D01*
X6720000Y-12637500D01*
X6654000Y-12703500D01*
X6720000Y-12769500D01*
X6654000Y-13137500D02*
X6786000Y-13269500D01*
X6786000Y-13137500D02*
X6654000Y-13269500D01*
X6720000Y-13269500D02*
X6786000Y-13203500D01*
X6720000Y-13137500D01*
X6654000Y-13203500D01*
X6720000Y-13269500D01*
D16*
X11326250Y-11620000D02*
X11326250Y-11780000D01*
X11246250Y-11700000D02*
X11406250Y-11700000D01*
X11406250Y-11700000D02*
G75*
G02*
X11246250Y-11700000I-80000J0D01*
G01*
X11246250Y-11700000D02*
G75*
G02*
X11406250Y-11700000I80000J0D01*
G01*
X11326250Y-12320000D02*
X11326250Y-12480000D01*
X11246250Y-12400000D02*
X11406250Y-12400000D01*
X11406250Y-12400000D02*
G75*
G02*
X11246250Y-12400000I-80000J0D01*
G01*
X11246250Y-12400000D02*
G75*
G02*
X11406250Y-12400000I80000J0D01*
G01*
X11326250Y-13020000D02*
X11326250Y-13180000D01*
X11246250Y-13100000D02*
X11406250Y-13100000D01*
X11406250Y-13100000D02*
G75*
G02*
X11246250Y-13100000I-80000J0D01*
G01*
X11246250Y-13100000D02*
G75*
G02*
X11406250Y-13100000I80000J0D01*
G01*
X11326250Y-13720000D02*
X11326250Y-13880000D01*
X11246250Y-13800000D02*
X11406250Y-13800000D01*
X11406250Y-13800000D02*
G75*
G02*
X11246250Y-13800000I-80000J0D01*
G01*
X11246250Y-13800000D02*
G75*
G02*
X11406250Y-13800000I80000J0D01*
G01*
X11326250Y-14420000D02*
X11326250Y-14580000D01*
X11246250Y-14500000D02*
X11406250Y-14500000D01*
X11406250Y-14500000D02*
G75*
G02*
X11246250Y-14500000I-80000J0D01*
G01*
X11246250Y-14500000D02*
G75*
G02*
X11406250Y-14500000I80000J0D01*
G01*
X11326250Y-15120000D02*
X11326250Y-15280000D01*
X11246250Y-15200000D02*
X11406250Y-15200000D01*
X11406250Y-15200000D02*
G75*
G02*
X11246250Y-15200000I-80000J0D01*
G01*
X11246250Y-15200000D02*
G75*
G02*
X11406250Y-15200000I80000J0D01*
G01*
X11326250Y-15820000D02*
X11326250Y-15980000D01*
X11246250Y-15900000D02*
X11406250Y-15900000D01*
X11406250Y-15900000D02*
G75*
G02*
X11246250Y-15900000I-80000J0D01*
G01*
X11246250Y-15900000D02*
G75*
G02*
X11406250Y-15900000I80000J0D01*
G01*
X14100000Y-6050000D02*
X14100000Y-6210000D01*
X14020000Y-6130000D02*
X14180000Y-6130000D01*
X14180000Y-6130000D02*
G75*
G02*
X14020000Y-6130000I-80000J0D01*
G01*
X14020000Y-6130000D02*
G75*
G02*
X14180000Y-6130000I80000J0D01*
G01*
X14100000Y-6558000D02*
X14100000Y-6718000D01*
X14020000Y-6638000D02*
X14180000Y-6638000D01*
X14180000Y-6638000D02*
G75*
G02*
X14020000Y-6638000I-80000J0D01*
G01*
X14020000Y-6638000D02*
G75*
G02*
X14180000Y-6638000I80000J0D01*
G01*
X14100000Y-7066000D02*
X14100000Y-7226000D01*
X14020000Y-7146000D02*
X14180000Y-7146000D01*
X14180000Y-7146000D02*
G75*
G02*
X14020000Y-7146000I-80000J0D01*
G01*
X14020000Y-7146000D02*
G75*
G02*
X14180000Y-7146000I80000J0D01*
G01*
X14100000Y-7574000D02*
X14100000Y-7734000D01*
X14020000Y-7654000D02*
X14180000Y-7654000D01*
X14180000Y-7654000D02*
G75*
G02*
X14020000Y-7654000I-80000J0D01*
G01*
X14020000Y-7654000D02*
G75*
G02*
X14180000Y-7654000I80000J0D01*
G01*
X14765000Y-8423000D02*
X14765000Y-8583000D01*
X14685000Y-8503000D02*
X14845000Y-8503000D01*
X14845000Y-8503000D02*
G75*
G02*
X14685000Y-8503000I-80000J0D01*
G01*
X14685000Y-8503000D02*
G75*
G02*
X14845000Y-8503000I80000J0D01*
G01*
X14765000Y-9693000D02*
X14765000Y-9853000D01*
X14685000Y-9773000D02*
X14845000Y-9773000D01*
X14845000Y-9773000D02*
G75*
G02*
X14685000Y-9773000I-80000J0D01*
G01*
X14685000Y-9773000D02*
G75*
G02*
X14845000Y-9773000I80000J0D01*
G01*
X15476250Y-11620000D02*
X15476250Y-11780000D01*
X15396250Y-11700000D02*
X15556250Y-11700000D01*
X15556250Y-11700000D02*
G75*
G02*
X15396250Y-11700000I-80000J0D01*
G01*
X15396250Y-11700000D02*
G75*
G02*
X15556250Y-11700000I80000J0D01*
G01*
X15476250Y-12320000D02*
X15476250Y-12480000D01*
X15396250Y-12400000D02*
X15556250Y-12400000D01*
X15556250Y-12400000D02*
G75*
G02*
X15396250Y-12400000I-80000J0D01*
G01*
X15396250Y-12400000D02*
G75*
G02*
X15556250Y-12400000I80000J0D01*
G01*
X15476250Y-13020000D02*
X15476250Y-13180000D01*
X15396250Y-13100000D02*
X15556250Y-13100000D01*
X15556250Y-13100000D02*
G75*
G02*
X15396250Y-13100000I-80000J0D01*
G01*
X15396250Y-13100000D02*
G75*
G02*
X15556250Y-13100000I80000J0D01*
G01*
X15476250Y-13720000D02*
X15476250Y-13880000D01*
X15396250Y-13800000D02*
X15556250Y-13800000D01*
X15556250Y-13800000D02*
G75*
G02*
X15396250Y-13800000I-80000J0D01*
G01*
X15396250Y-13800000D02*
G75*
G02*
X15556250Y-13800000I80000J0D01*
G01*
X15476250Y-14420000D02*
X15476250Y-14580000D01*
X15396250Y-14500000D02*
X15556250Y-14500000D01*
X15556250Y-14500000D02*
G75*
G02*
X15396250Y-14500000I-80000J0D01*
G01*
X15396250Y-14500000D02*
G75*
G02*
X15556250Y-14500000I80000J0D01*
G01*
X15476250Y-15120000D02*
X15476250Y-15280000D01*
X15396250Y-15200000D02*
X15556250Y-15200000D01*
X15556250Y-15200000D02*
G75*
G02*
X15396250Y-15200000I-80000J0D01*
G01*
X15396250Y-15200000D02*
G75*
G02*
X15556250Y-15200000I80000J0D01*
G01*
X15476250Y-15820000D02*
X15476250Y-15980000D01*
X15396250Y-15900000D02*
X15556250Y-15900000D01*
X15556250Y-15900000D02*
G75*
G02*
X15396250Y-15900000I-80000J0D01*
G01*
X15396250Y-15900000D02*
G75*
G02*
X15556250Y-15900000I80000J0D01*
G01*
X16665000Y-5820000D02*
X16665000Y-5980000D01*
X16585000Y-5900000D02*
X16745000Y-5900000D01*
X16745000Y-5900000D02*
G75*
G02*
X16585000Y-5900000I-80000J0D01*
G01*
X16585000Y-5900000D02*
G75*
G02*
X16745000Y-5900000I80000J0D01*
G01*
X17935000Y-5820000D02*
X17935000Y-5980000D01*
X17855000Y-5900000D02*
X18015000Y-5900000D01*
X18015000Y-5900000D02*
G75*
G02*
X17855000Y-5900000I-80000J0D01*
G01*
X17855000Y-5900000D02*
G75*
G02*
X18015000Y-5900000I80000J0D01*
G01*
D10*
X6410777Y-16941484D02*
X6410777Y-16741484D01*
X6410777Y-16741484D02*
X6458396Y-16741484D01*
X6458396Y-16741484D02*
X6486967Y-16751008D01*
X6486967Y-16751008D02*
X6506015Y-16770055D01*
X6506015Y-16770055D02*
X6515539Y-16789103D01*
X6515539Y-16789103D02*
X6525062Y-16827198D01*
X6525062Y-16827198D02*
X6525062Y-16855770D01*
X6525062Y-16855770D02*
X6515539Y-16893865D01*
X6515539Y-16893865D02*
X6506015Y-16912912D01*
X6506015Y-16912912D02*
X6486967Y-16931960D01*
X6486967Y-16931960D02*
X6458396Y-16941484D01*
X6458396Y-16941484D02*
X6410777Y-16941484D01*
X6610777Y-16941484D02*
X6610777Y-16808150D01*
X6610777Y-16846246D02*
X6620301Y-16827198D01*
X6620301Y-16827198D02*
X6629824Y-16817674D01*
X6629824Y-16817674D02*
X6648872Y-16808150D01*
X6648872Y-16808150D02*
X6667920Y-16808150D01*
X6734586Y-16941484D02*
X6734586Y-16808150D01*
X6734586Y-16741484D02*
X6725062Y-16751008D01*
X6725062Y-16751008D02*
X6734586Y-16760531D01*
X6734586Y-16760531D02*
X6744110Y-16751008D01*
X6744110Y-16751008D02*
X6734586Y-16741484D01*
X6734586Y-16741484D02*
X6734586Y-16760531D01*
X6858396Y-16941484D02*
X6839348Y-16931960D01*
X6839348Y-16931960D02*
X6829824Y-16912912D01*
X6829824Y-16912912D02*
X6829824Y-16741484D01*
X6963158Y-16941484D02*
X6944110Y-16931960D01*
X6944110Y-16931960D02*
X6934586Y-16912912D01*
X6934586Y-16912912D02*
X6934586Y-16741484D01*
X7191729Y-16941484D02*
X7191729Y-16741484D01*
X7191729Y-16741484D02*
X7258396Y-16884341D01*
X7258396Y-16884341D02*
X7325062Y-16741484D01*
X7325062Y-16741484D02*
X7325062Y-16941484D01*
X7506015Y-16941484D02*
X7506015Y-16836722D01*
X7506015Y-16836722D02*
X7496491Y-16817674D01*
X7496491Y-16817674D02*
X7477443Y-16808150D01*
X7477443Y-16808150D02*
X7439348Y-16808150D01*
X7439348Y-16808150D02*
X7420301Y-16817674D01*
X7506015Y-16931960D02*
X7486967Y-16941484D01*
X7486967Y-16941484D02*
X7439348Y-16941484D01*
X7439348Y-16941484D02*
X7420301Y-16931960D01*
X7420301Y-16931960D02*
X7410777Y-16912912D01*
X7410777Y-16912912D02*
X7410777Y-16893865D01*
X7410777Y-16893865D02*
X7420301Y-16874817D01*
X7420301Y-16874817D02*
X7439348Y-16865293D01*
X7439348Y-16865293D02*
X7486967Y-16865293D01*
X7486967Y-16865293D02*
X7506015Y-16855770D01*
X7601253Y-16808150D02*
X7601253Y-17008150D01*
X7601253Y-16817674D02*
X7620301Y-16808150D01*
X7620301Y-16808150D02*
X7658396Y-16808150D01*
X7658396Y-16808150D02*
X7677443Y-16817674D01*
X7677443Y-16817674D02*
X7686967Y-16827198D01*
X7686967Y-16827198D02*
X7696491Y-16846246D01*
X7696491Y-16846246D02*
X7696491Y-16903389D01*
X7696491Y-16903389D02*
X7686967Y-16922436D01*
X7686967Y-16922436D02*
X7677443Y-16931960D01*
X7677443Y-16931960D02*
X7658396Y-16941484D01*
X7658396Y-16941484D02*
X7620301Y-16941484D01*
X7620301Y-16941484D02*
X7601253Y-16931960D01*
X7782205Y-16922436D02*
X7791729Y-16931960D01*
X7791729Y-16931960D02*
X7782205Y-16941484D01*
X7782205Y-16941484D02*
X7772682Y-16931960D01*
X7772682Y-16931960D02*
X7782205Y-16922436D01*
X7782205Y-16922436D02*
X7782205Y-16941484D01*
X7782205Y-16817674D02*
X7791729Y-16827198D01*
X7791729Y-16827198D02*
X7782205Y-16836722D01*
X7782205Y-16836722D02*
X7772682Y-16827198D01*
X7772682Y-16827198D02*
X7782205Y-16817674D01*
X7782205Y-16817674D02*
X7782205Y-16836722D01*
D11*
X6120000Y-17255000D02*
X6150000Y-17285000D01*
X6150000Y-17255000D02*
X6120000Y-17285000D01*
D10*
X6448872Y-17161484D02*
X6467920Y-17161484D01*
X6467920Y-17161484D02*
X6486967Y-17171008D01*
X6486967Y-17171008D02*
X6496491Y-17180531D01*
X6496491Y-17180531D02*
X6506015Y-17199579D01*
X6506015Y-17199579D02*
X6515539Y-17237674D01*
X6515539Y-17237674D02*
X6515539Y-17285293D01*
X6515539Y-17285293D02*
X6506015Y-17323389D01*
X6506015Y-17323389D02*
X6496491Y-17342436D01*
X6496491Y-17342436D02*
X6486967Y-17351960D01*
X6486967Y-17351960D02*
X6467920Y-17361484D01*
X6467920Y-17361484D02*
X6448872Y-17361484D01*
X6448872Y-17361484D02*
X6429824Y-17351960D01*
X6429824Y-17351960D02*
X6420301Y-17342436D01*
X6420301Y-17342436D02*
X6410777Y-17323389D01*
X6410777Y-17323389D02*
X6401253Y-17285293D01*
X6401253Y-17285293D02*
X6401253Y-17237674D01*
X6401253Y-17237674D02*
X6410777Y-17199579D01*
X6410777Y-17199579D02*
X6420301Y-17180531D01*
X6420301Y-17180531D02*
X6429824Y-17171008D01*
X6429824Y-17171008D02*
X6448872Y-17161484D01*
X6601253Y-17342436D02*
X6610777Y-17351960D01*
X6610777Y-17351960D02*
X6601253Y-17361484D01*
X6601253Y-17361484D02*
X6591729Y-17351960D01*
X6591729Y-17351960D02*
X6601253Y-17342436D01*
X6601253Y-17342436D02*
X6601253Y-17361484D01*
X6677443Y-17161484D02*
X6801253Y-17161484D01*
X6801253Y-17161484D02*
X6734586Y-17237674D01*
X6734586Y-17237674D02*
X6763158Y-17237674D01*
X6763158Y-17237674D02*
X6782205Y-17247198D01*
X6782205Y-17247198D02*
X6791729Y-17256722D01*
X6791729Y-17256722D02*
X6801253Y-17275770D01*
X6801253Y-17275770D02*
X6801253Y-17323389D01*
X6801253Y-17323389D02*
X6791729Y-17342436D01*
X6791729Y-17342436D02*
X6782205Y-17351960D01*
X6782205Y-17351960D02*
X6763158Y-17361484D01*
X6763158Y-17361484D02*
X6706015Y-17361484D01*
X6706015Y-17361484D02*
X6686967Y-17351960D01*
X6686967Y-17351960D02*
X6677443Y-17342436D01*
X6925062Y-17161484D02*
X6944110Y-17161484D01*
X6944110Y-17161484D02*
X6963158Y-17171008D01*
X6963158Y-17171008D02*
X6972682Y-17180531D01*
X6972682Y-17180531D02*
X6982205Y-17199579D01*
X6982205Y-17199579D02*
X6991729Y-17237674D01*
X6991729Y-17237674D02*
X6991729Y-17285293D01*
X6991729Y-17285293D02*
X6982205Y-17323389D01*
X6982205Y-17323389D02*
X6972682Y-17342436D01*
X6972682Y-17342436D02*
X6963158Y-17351960D01*
X6963158Y-17351960D02*
X6944110Y-17361484D01*
X6944110Y-17361484D02*
X6925062Y-17361484D01*
X6925062Y-17361484D02*
X6906015Y-17351960D01*
X6906015Y-17351960D02*
X6896491Y-17342436D01*
X6896491Y-17342436D02*
X6886967Y-17323389D01*
X6886967Y-17323389D02*
X6877443Y-17285293D01*
X6877443Y-17285293D02*
X6877443Y-17237674D01*
X6877443Y-17237674D02*
X6886967Y-17199579D01*
X6886967Y-17199579D02*
X6896491Y-17180531D01*
X6896491Y-17180531D02*
X6906015Y-17171008D01*
X6906015Y-17171008D02*
X6925062Y-17161484D01*
X7115539Y-17161484D02*
X7134586Y-17161484D01*
X7134586Y-17161484D02*
X7153634Y-17171008D01*
X7153634Y-17171008D02*
X7163158Y-17180531D01*
X7163158Y-17180531D02*
X7172682Y-17199579D01*
X7172682Y-17199579D02*
X7182205Y-17237674D01*
X7182205Y-17237674D02*
X7182205Y-17285293D01*
X7182205Y-17285293D02*
X7172682Y-17323389D01*
X7172682Y-17323389D02*
X7163158Y-17342436D01*
X7163158Y-17342436D02*
X7153634Y-17351960D01*
X7153634Y-17351960D02*
X7134586Y-17361484D01*
X7134586Y-17361484D02*
X7115539Y-17361484D01*
X7115539Y-17361484D02*
X7096491Y-17351960D01*
X7096491Y-17351960D02*
X7086967Y-17342436D01*
X7086967Y-17342436D02*
X7077443Y-17323389D01*
X7077443Y-17323389D02*
X7067920Y-17285293D01*
X7067920Y-17285293D02*
X7067920Y-17237674D01*
X7067920Y-17237674D02*
X7077443Y-17199579D01*
X7077443Y-17199579D02*
X7086967Y-17180531D01*
X7086967Y-17180531D02*
X7096491Y-17171008D01*
X7096491Y-17171008D02*
X7115539Y-17161484D01*
X7267920Y-17361484D02*
X7267920Y-17228150D01*
X7267920Y-17247198D02*
X7277443Y-17237674D01*
X7277443Y-17237674D02*
X7296491Y-17228150D01*
X7296491Y-17228150D02*
X7325063Y-17228150D01*
X7325063Y-17228150D02*
X7344110Y-17237674D01*
X7344110Y-17237674D02*
X7353634Y-17256722D01*
X7353634Y-17256722D02*
X7353634Y-17361484D01*
X7353634Y-17256722D02*
X7363158Y-17237674D01*
X7363158Y-17237674D02*
X7382205Y-17228150D01*
X7382205Y-17228150D02*
X7410777Y-17228150D01*
X7410777Y-17228150D02*
X7429824Y-17237674D01*
X7429824Y-17237674D02*
X7439348Y-17256722D01*
X7439348Y-17256722D02*
X7439348Y-17361484D01*
X7534586Y-17361484D02*
X7534586Y-17228150D01*
X7534586Y-17247198D02*
X7544110Y-17237674D01*
X7544110Y-17237674D02*
X7563158Y-17228150D01*
X7563158Y-17228150D02*
X7591729Y-17228150D01*
X7591729Y-17228150D02*
X7610777Y-17237674D01*
X7610777Y-17237674D02*
X7620301Y-17256722D01*
X7620301Y-17256722D02*
X7620301Y-17361484D01*
X7620301Y-17256722D02*
X7629824Y-17237674D01*
X7629824Y-17237674D02*
X7648872Y-17228150D01*
X7648872Y-17228150D02*
X7677443Y-17228150D01*
X7677443Y-17228150D02*
X7696491Y-17237674D01*
X7696491Y-17237674D02*
X7706015Y-17256722D01*
X7706015Y-17256722D02*
X7706015Y-17361484D01*
X8096491Y-17151960D02*
X7925063Y-17409103D01*
X8353634Y-17161484D02*
X8372682Y-17161484D01*
X8372682Y-17161484D02*
X8391729Y-17171008D01*
X8391729Y-17171008D02*
X8401253Y-17180531D01*
X8401253Y-17180531D02*
X8410777Y-17199579D01*
X8410777Y-17199579D02*
X8420301Y-17237674D01*
X8420301Y-17237674D02*
X8420301Y-17285293D01*
X8420301Y-17285293D02*
X8410777Y-17323389D01*
X8410777Y-17323389D02*
X8401253Y-17342436D01*
X8401253Y-17342436D02*
X8391729Y-17351960D01*
X8391729Y-17351960D02*
X8372682Y-17361484D01*
X8372682Y-17361484D02*
X8353634Y-17361484D01*
X8353634Y-17361484D02*
X8334586Y-17351960D01*
X8334586Y-17351960D02*
X8325063Y-17342436D01*
X8325063Y-17342436D02*
X8315539Y-17323389D01*
X8315539Y-17323389D02*
X8306015Y-17285293D01*
X8306015Y-17285293D02*
X8306015Y-17237674D01*
X8306015Y-17237674D02*
X8315539Y-17199579D01*
X8315539Y-17199579D02*
X8325063Y-17180531D01*
X8325063Y-17180531D02*
X8334586Y-17171008D01*
X8334586Y-17171008D02*
X8353634Y-17161484D01*
X8506015Y-17342436D02*
X8515539Y-17351960D01*
X8515539Y-17351960D02*
X8506015Y-17361484D01*
X8506015Y-17361484D02*
X8496491Y-17351960D01*
X8496491Y-17351960D02*
X8506015Y-17342436D01*
X8506015Y-17342436D02*
X8506015Y-17361484D01*
X8639348Y-17161484D02*
X8658396Y-17161484D01*
X8658396Y-17161484D02*
X8677444Y-17171008D01*
X8677444Y-17171008D02*
X8686968Y-17180531D01*
X8686968Y-17180531D02*
X8696491Y-17199579D01*
X8696491Y-17199579D02*
X8706015Y-17237674D01*
X8706015Y-17237674D02*
X8706015Y-17285293D01*
X8706015Y-17285293D02*
X8696491Y-17323389D01*
X8696491Y-17323389D02*
X8686968Y-17342436D01*
X8686968Y-17342436D02*
X8677444Y-17351960D01*
X8677444Y-17351960D02*
X8658396Y-17361484D01*
X8658396Y-17361484D02*
X8639348Y-17361484D01*
X8639348Y-17361484D02*
X8620301Y-17351960D01*
X8620301Y-17351960D02*
X8610777Y-17342436D01*
X8610777Y-17342436D02*
X8601253Y-17323389D01*
X8601253Y-17323389D02*
X8591729Y-17285293D01*
X8591729Y-17285293D02*
X8591729Y-17237674D01*
X8591729Y-17237674D02*
X8601253Y-17199579D01*
X8601253Y-17199579D02*
X8610777Y-17180531D01*
X8610777Y-17180531D02*
X8620301Y-17171008D01*
X8620301Y-17171008D02*
X8639348Y-17161484D01*
X8896491Y-17361484D02*
X8782206Y-17361484D01*
X8839348Y-17361484D02*
X8839348Y-17161484D01*
X8839348Y-17161484D02*
X8820301Y-17190055D01*
X8820301Y-17190055D02*
X8801253Y-17209103D01*
X8801253Y-17209103D02*
X8782206Y-17218627D01*
X9086968Y-17361484D02*
X8972682Y-17361484D01*
X9029825Y-17361484D02*
X9029825Y-17161484D01*
X9029825Y-17161484D02*
X9010777Y-17190055D01*
X9010777Y-17190055D02*
X8991729Y-17209103D01*
X8991729Y-17209103D02*
X8972682Y-17218627D01*
X9201253Y-17247198D02*
X9182206Y-17237674D01*
X9182206Y-17237674D02*
X9172682Y-17228150D01*
X9172682Y-17228150D02*
X9163158Y-17209103D01*
X9163158Y-17209103D02*
X9163158Y-17199579D01*
X9163158Y-17199579D02*
X9172682Y-17180531D01*
X9172682Y-17180531D02*
X9182206Y-17171008D01*
X9182206Y-17171008D02*
X9201253Y-17161484D01*
X9201253Y-17161484D02*
X9239349Y-17161484D01*
X9239349Y-17161484D02*
X9258396Y-17171008D01*
X9258396Y-17171008D02*
X9267920Y-17180531D01*
X9267920Y-17180531D02*
X9277444Y-17199579D01*
X9277444Y-17199579D02*
X9277444Y-17209103D01*
X9277444Y-17209103D02*
X9267920Y-17228150D01*
X9267920Y-17228150D02*
X9258396Y-17237674D01*
X9258396Y-17237674D02*
X9239349Y-17247198D01*
X9239349Y-17247198D02*
X9201253Y-17247198D01*
X9201253Y-17247198D02*
X9182206Y-17256722D01*
X9182206Y-17256722D02*
X9172682Y-17266246D01*
X9172682Y-17266246D02*
X9163158Y-17285293D01*
X9163158Y-17285293D02*
X9163158Y-17323389D01*
X9163158Y-17323389D02*
X9172682Y-17342436D01*
X9172682Y-17342436D02*
X9182206Y-17351960D01*
X9182206Y-17351960D02*
X9201253Y-17361484D01*
X9201253Y-17361484D02*
X9239349Y-17361484D01*
X9239349Y-17361484D02*
X9258396Y-17351960D01*
X9258396Y-17351960D02*
X9267920Y-17342436D01*
X9267920Y-17342436D02*
X9277444Y-17323389D01*
X9277444Y-17323389D02*
X9277444Y-17285293D01*
X9277444Y-17285293D02*
X9267920Y-17266246D01*
X9267920Y-17266246D02*
X9258396Y-17256722D01*
X9258396Y-17256722D02*
X9239349Y-17247198D01*
X9353634Y-17161484D02*
X9353634Y-17199579D01*
X9429825Y-17161484D02*
X9429825Y-17199579D01*
X9725063Y-17437674D02*
X9715539Y-17428150D01*
X9715539Y-17428150D02*
X9696491Y-17399579D01*
X9696491Y-17399579D02*
X9686968Y-17380531D01*
X9686968Y-17380531D02*
X9677444Y-17351960D01*
X9677444Y-17351960D02*
X9667920Y-17304341D01*
X9667920Y-17304341D02*
X9667920Y-17266246D01*
X9667920Y-17266246D02*
X9677444Y-17218627D01*
X9677444Y-17218627D02*
X9686968Y-17190055D01*
X9686968Y-17190055D02*
X9696491Y-17171008D01*
X9696491Y-17171008D02*
X9715539Y-17142436D01*
X9715539Y-17142436D02*
X9725063Y-17132912D01*
X9782206Y-17161484D02*
X9906015Y-17161484D01*
X9906015Y-17161484D02*
X9839349Y-17237674D01*
X9839349Y-17237674D02*
X9867920Y-17237674D01*
X9867920Y-17237674D02*
X9886968Y-17247198D01*
X9886968Y-17247198D02*
X9896491Y-17256722D01*
X9896491Y-17256722D02*
X9906015Y-17275770D01*
X9906015Y-17275770D02*
X9906015Y-17323389D01*
X9906015Y-17323389D02*
X9896491Y-17342436D01*
X9896491Y-17342436D02*
X9886968Y-17351960D01*
X9886968Y-17351960D02*
X9867920Y-17361484D01*
X9867920Y-17361484D02*
X9810777Y-17361484D01*
X9810777Y-17361484D02*
X9791730Y-17351960D01*
X9791730Y-17351960D02*
X9782206Y-17342436D01*
X10029825Y-17161484D02*
X10048872Y-17161484D01*
X10048872Y-17161484D02*
X10067920Y-17171008D01*
X10067920Y-17171008D02*
X10077444Y-17180531D01*
X10077444Y-17180531D02*
X10086968Y-17199579D01*
X10086968Y-17199579D02*
X10096491Y-17237674D01*
X10096491Y-17237674D02*
X10096491Y-17285293D01*
X10096491Y-17285293D02*
X10086968Y-17323389D01*
X10086968Y-17323389D02*
X10077444Y-17342436D01*
X10077444Y-17342436D02*
X10067920Y-17351960D01*
X10067920Y-17351960D02*
X10048872Y-17361484D01*
X10048872Y-17361484D02*
X10029825Y-17361484D01*
X10029825Y-17361484D02*
X10010777Y-17351960D01*
X10010777Y-17351960D02*
X10001253Y-17342436D01*
X10001253Y-17342436D02*
X9991730Y-17323389D01*
X9991730Y-17323389D02*
X9982206Y-17285293D01*
X9982206Y-17285293D02*
X9982206Y-17237674D01*
X9982206Y-17237674D02*
X9991730Y-17199579D01*
X9991730Y-17199579D02*
X10001253Y-17180531D01*
X10001253Y-17180531D02*
X10010777Y-17171008D01*
X10010777Y-17171008D02*
X10029825Y-17161484D01*
X10267920Y-17228150D02*
X10267920Y-17361484D01*
X10220301Y-17151960D02*
X10172682Y-17294817D01*
X10172682Y-17294817D02*
X10296491Y-17294817D01*
X10525063Y-17361484D02*
X10525063Y-17161484D01*
X10610777Y-17361484D02*
X10610777Y-17256722D01*
X10610777Y-17256722D02*
X10601253Y-17237674D01*
X10601253Y-17237674D02*
X10582206Y-17228150D01*
X10582206Y-17228150D02*
X10553634Y-17228150D01*
X10553634Y-17228150D02*
X10534587Y-17237674D01*
X10534587Y-17237674D02*
X10525063Y-17247198D01*
X10734587Y-17361484D02*
X10715539Y-17351960D01*
X10715539Y-17351960D02*
X10706015Y-17342436D01*
X10706015Y-17342436D02*
X10696492Y-17323389D01*
X10696492Y-17323389D02*
X10696492Y-17266246D01*
X10696492Y-17266246D02*
X10706015Y-17247198D01*
X10706015Y-17247198D02*
X10715539Y-17237674D01*
X10715539Y-17237674D02*
X10734587Y-17228150D01*
X10734587Y-17228150D02*
X10763158Y-17228150D01*
X10763158Y-17228150D02*
X10782206Y-17237674D01*
X10782206Y-17237674D02*
X10791730Y-17247198D01*
X10791730Y-17247198D02*
X10801253Y-17266246D01*
X10801253Y-17266246D02*
X10801253Y-17323389D01*
X10801253Y-17323389D02*
X10791730Y-17342436D01*
X10791730Y-17342436D02*
X10782206Y-17351960D01*
X10782206Y-17351960D02*
X10763158Y-17361484D01*
X10763158Y-17361484D02*
X10734587Y-17361484D01*
X10915539Y-17361484D02*
X10896492Y-17351960D01*
X10896492Y-17351960D02*
X10886968Y-17332912D01*
X10886968Y-17332912D02*
X10886968Y-17161484D01*
X11067920Y-17351960D02*
X11048873Y-17361484D01*
X11048873Y-17361484D02*
X11010777Y-17361484D01*
X11010777Y-17361484D02*
X10991730Y-17351960D01*
X10991730Y-17351960D02*
X10982206Y-17332912D01*
X10982206Y-17332912D02*
X10982206Y-17256722D01*
X10982206Y-17256722D02*
X10991730Y-17237674D01*
X10991730Y-17237674D02*
X11010777Y-17228150D01*
X11010777Y-17228150D02*
X11048873Y-17228150D01*
X11048873Y-17228150D02*
X11067920Y-17237674D01*
X11067920Y-17237674D02*
X11077444Y-17256722D01*
X11077444Y-17256722D02*
X11077444Y-17275770D01*
X11077444Y-17275770D02*
X10982206Y-17294817D01*
X11153634Y-17351960D02*
X11172682Y-17361484D01*
X11172682Y-17361484D02*
X11210777Y-17361484D01*
X11210777Y-17361484D02*
X11229825Y-17351960D01*
X11229825Y-17351960D02*
X11239349Y-17332912D01*
X11239349Y-17332912D02*
X11239349Y-17323389D01*
X11239349Y-17323389D02*
X11229825Y-17304341D01*
X11229825Y-17304341D02*
X11210777Y-17294817D01*
X11210777Y-17294817D02*
X11182206Y-17294817D01*
X11182206Y-17294817D02*
X11163158Y-17285293D01*
X11163158Y-17285293D02*
X11153634Y-17266246D01*
X11153634Y-17266246D02*
X11153634Y-17256722D01*
X11153634Y-17256722D02*
X11163158Y-17237674D01*
X11163158Y-17237674D02*
X11182206Y-17228150D01*
X11182206Y-17228150D02*
X11210777Y-17228150D01*
X11210777Y-17228150D02*
X11229825Y-17237674D01*
X11306015Y-17437674D02*
X11315539Y-17428150D01*
X11315539Y-17428150D02*
X11334587Y-17399579D01*
X11334587Y-17399579D02*
X11344111Y-17380531D01*
X11344111Y-17380531D02*
X11353634Y-17351960D01*
X11353634Y-17351960D02*
X11363158Y-17304341D01*
X11363158Y-17304341D02*
X11363158Y-17266246D01*
X11363158Y-17266246D02*
X11353634Y-17218627D01*
X11353634Y-17218627D02*
X11344111Y-17190055D01*
X11344111Y-17190055D02*
X11334587Y-17171008D01*
X11334587Y-17171008D02*
X11315539Y-17142436D01*
X11315539Y-17142436D02*
X11306015Y-17132912D01*
D11*
X6150000Y-17534000D02*
G75*
G02*
X6090000Y-17534000I-30000J0D01*
G01*
X6090000Y-17534000D02*
G75*
G02*
X6150000Y-17534000I30000J0D01*
G01*
D10*
X6448872Y-17425484D02*
X6467920Y-17425484D01*
X6467920Y-17425484D02*
X6486967Y-17435008D01*
X6486967Y-17435008D02*
X6496491Y-17444531D01*
X6496491Y-17444531D02*
X6506015Y-17463579D01*
X6506015Y-17463579D02*
X6515539Y-17501674D01*
X6515539Y-17501674D02*
X6515539Y-17549293D01*
X6515539Y-17549293D02*
X6506015Y-17587389D01*
X6506015Y-17587389D02*
X6496491Y-17606436D01*
X6496491Y-17606436D02*
X6486967Y-17615960D01*
X6486967Y-17615960D02*
X6467920Y-17625484D01*
X6467920Y-17625484D02*
X6448872Y-17625484D01*
X6448872Y-17625484D02*
X6429824Y-17615960D01*
X6429824Y-17615960D02*
X6420301Y-17606436D01*
X6420301Y-17606436D02*
X6410777Y-17587389D01*
X6410777Y-17587389D02*
X6401253Y-17549293D01*
X6401253Y-17549293D02*
X6401253Y-17501674D01*
X6401253Y-17501674D02*
X6410777Y-17463579D01*
X6410777Y-17463579D02*
X6420301Y-17444531D01*
X6420301Y-17444531D02*
X6429824Y-17435008D01*
X6429824Y-17435008D02*
X6448872Y-17425484D01*
X6601253Y-17606436D02*
X6610777Y-17615960D01*
X6610777Y-17615960D02*
X6601253Y-17625484D01*
X6601253Y-17625484D02*
X6591729Y-17615960D01*
X6591729Y-17615960D02*
X6601253Y-17606436D01*
X6601253Y-17606436D02*
X6601253Y-17625484D01*
X6782205Y-17425484D02*
X6744110Y-17425484D01*
X6744110Y-17425484D02*
X6725062Y-17435008D01*
X6725062Y-17435008D02*
X6715539Y-17444531D01*
X6715539Y-17444531D02*
X6696491Y-17473103D01*
X6696491Y-17473103D02*
X6686967Y-17511198D01*
X6686967Y-17511198D02*
X6686967Y-17587389D01*
X6686967Y-17587389D02*
X6696491Y-17606436D01*
X6696491Y-17606436D02*
X6706015Y-17615960D01*
X6706015Y-17615960D02*
X6725062Y-17625484D01*
X6725062Y-17625484D02*
X6763158Y-17625484D01*
X6763158Y-17625484D02*
X6782205Y-17615960D01*
X6782205Y-17615960D02*
X6791729Y-17606436D01*
X6791729Y-17606436D02*
X6801253Y-17587389D01*
X6801253Y-17587389D02*
X6801253Y-17539770D01*
X6801253Y-17539770D02*
X6791729Y-17520722D01*
X6791729Y-17520722D02*
X6782205Y-17511198D01*
X6782205Y-17511198D02*
X6763158Y-17501674D01*
X6763158Y-17501674D02*
X6725062Y-17501674D01*
X6725062Y-17501674D02*
X6706015Y-17511198D01*
X6706015Y-17511198D02*
X6696491Y-17520722D01*
X6696491Y-17520722D02*
X6686967Y-17539770D01*
X6925062Y-17425484D02*
X6944110Y-17425484D01*
X6944110Y-17425484D02*
X6963158Y-17435008D01*
X6963158Y-17435008D02*
X6972682Y-17444531D01*
X6972682Y-17444531D02*
X6982205Y-17463579D01*
X6982205Y-17463579D02*
X6991729Y-17501674D01*
X6991729Y-17501674D02*
X6991729Y-17549293D01*
X6991729Y-17549293D02*
X6982205Y-17587389D01*
X6982205Y-17587389D02*
X6972682Y-17606436D01*
X6972682Y-17606436D02*
X6963158Y-17615960D01*
X6963158Y-17615960D02*
X6944110Y-17625484D01*
X6944110Y-17625484D02*
X6925062Y-17625484D01*
X6925062Y-17625484D02*
X6906015Y-17615960D01*
X6906015Y-17615960D02*
X6896491Y-17606436D01*
X6896491Y-17606436D02*
X6886967Y-17587389D01*
X6886967Y-17587389D02*
X6877443Y-17549293D01*
X6877443Y-17549293D02*
X6877443Y-17501674D01*
X6877443Y-17501674D02*
X6886967Y-17463579D01*
X6886967Y-17463579D02*
X6896491Y-17444531D01*
X6896491Y-17444531D02*
X6906015Y-17435008D01*
X6906015Y-17435008D02*
X6925062Y-17425484D01*
X7115539Y-17425484D02*
X7134586Y-17425484D01*
X7134586Y-17425484D02*
X7153634Y-17435008D01*
X7153634Y-17435008D02*
X7163158Y-17444531D01*
X7163158Y-17444531D02*
X7172682Y-17463579D01*
X7172682Y-17463579D02*
X7182205Y-17501674D01*
X7182205Y-17501674D02*
X7182205Y-17549293D01*
X7182205Y-17549293D02*
X7172682Y-17587389D01*
X7172682Y-17587389D02*
X7163158Y-17606436D01*
X7163158Y-17606436D02*
X7153634Y-17615960D01*
X7153634Y-17615960D02*
X7134586Y-17625484D01*
X7134586Y-17625484D02*
X7115539Y-17625484D01*
X7115539Y-17625484D02*
X7096491Y-17615960D01*
X7096491Y-17615960D02*
X7086967Y-17606436D01*
X7086967Y-17606436D02*
X7077443Y-17587389D01*
X7077443Y-17587389D02*
X7067920Y-17549293D01*
X7067920Y-17549293D02*
X7067920Y-17501674D01*
X7067920Y-17501674D02*
X7077443Y-17463579D01*
X7077443Y-17463579D02*
X7086967Y-17444531D01*
X7086967Y-17444531D02*
X7096491Y-17435008D01*
X7096491Y-17435008D02*
X7115539Y-17425484D01*
X7267920Y-17625484D02*
X7267920Y-17492150D01*
X7267920Y-17511198D02*
X7277443Y-17501674D01*
X7277443Y-17501674D02*
X7296491Y-17492150D01*
X7296491Y-17492150D02*
X7325063Y-17492150D01*
X7325063Y-17492150D02*
X7344110Y-17501674D01*
X7344110Y-17501674D02*
X7353634Y-17520722D01*
X7353634Y-17520722D02*
X7353634Y-17625484D01*
X7353634Y-17520722D02*
X7363158Y-17501674D01*
X7363158Y-17501674D02*
X7382205Y-17492150D01*
X7382205Y-17492150D02*
X7410777Y-17492150D01*
X7410777Y-17492150D02*
X7429824Y-17501674D01*
X7429824Y-17501674D02*
X7439348Y-17520722D01*
X7439348Y-17520722D02*
X7439348Y-17625484D01*
X7534586Y-17625484D02*
X7534586Y-17492150D01*
X7534586Y-17511198D02*
X7544110Y-17501674D01*
X7544110Y-17501674D02*
X7563158Y-17492150D01*
X7563158Y-17492150D02*
X7591729Y-17492150D01*
X7591729Y-17492150D02*
X7610777Y-17501674D01*
X7610777Y-17501674D02*
X7620301Y-17520722D01*
X7620301Y-17520722D02*
X7620301Y-17625484D01*
X7620301Y-17520722D02*
X7629824Y-17501674D01*
X7629824Y-17501674D02*
X7648872Y-17492150D01*
X7648872Y-17492150D02*
X7677443Y-17492150D01*
X7677443Y-17492150D02*
X7696491Y-17501674D01*
X7696491Y-17501674D02*
X7706015Y-17520722D01*
X7706015Y-17520722D02*
X7706015Y-17625484D01*
X8096491Y-17415960D02*
X7925063Y-17673103D01*
X8353634Y-17425484D02*
X8372682Y-17425484D01*
X8372682Y-17425484D02*
X8391729Y-17435008D01*
X8391729Y-17435008D02*
X8401253Y-17444531D01*
X8401253Y-17444531D02*
X8410777Y-17463579D01*
X8410777Y-17463579D02*
X8420301Y-17501674D01*
X8420301Y-17501674D02*
X8420301Y-17549293D01*
X8420301Y-17549293D02*
X8410777Y-17587389D01*
X8410777Y-17587389D02*
X8401253Y-17606436D01*
X8401253Y-17606436D02*
X8391729Y-17615960D01*
X8391729Y-17615960D02*
X8372682Y-17625484D01*
X8372682Y-17625484D02*
X8353634Y-17625484D01*
X8353634Y-17625484D02*
X8334586Y-17615960D01*
X8334586Y-17615960D02*
X8325063Y-17606436D01*
X8325063Y-17606436D02*
X8315539Y-17587389D01*
X8315539Y-17587389D02*
X8306015Y-17549293D01*
X8306015Y-17549293D02*
X8306015Y-17501674D01*
X8306015Y-17501674D02*
X8315539Y-17463579D01*
X8315539Y-17463579D02*
X8325063Y-17444531D01*
X8325063Y-17444531D02*
X8334586Y-17435008D01*
X8334586Y-17435008D02*
X8353634Y-17425484D01*
X8506015Y-17606436D02*
X8515539Y-17615960D01*
X8515539Y-17615960D02*
X8506015Y-17625484D01*
X8506015Y-17625484D02*
X8496491Y-17615960D01*
X8496491Y-17615960D02*
X8506015Y-17606436D01*
X8506015Y-17606436D02*
X8506015Y-17625484D01*
X8639348Y-17425484D02*
X8658396Y-17425484D01*
X8658396Y-17425484D02*
X8677444Y-17435008D01*
X8677444Y-17435008D02*
X8686968Y-17444531D01*
X8686968Y-17444531D02*
X8696491Y-17463579D01*
X8696491Y-17463579D02*
X8706015Y-17501674D01*
X8706015Y-17501674D02*
X8706015Y-17549293D01*
X8706015Y-17549293D02*
X8696491Y-17587389D01*
X8696491Y-17587389D02*
X8686968Y-17606436D01*
X8686968Y-17606436D02*
X8677444Y-17615960D01*
X8677444Y-17615960D02*
X8658396Y-17625484D01*
X8658396Y-17625484D02*
X8639348Y-17625484D01*
X8639348Y-17625484D02*
X8620301Y-17615960D01*
X8620301Y-17615960D02*
X8610777Y-17606436D01*
X8610777Y-17606436D02*
X8601253Y-17587389D01*
X8601253Y-17587389D02*
X8591729Y-17549293D01*
X8591729Y-17549293D02*
X8591729Y-17501674D01*
X8591729Y-17501674D02*
X8601253Y-17463579D01*
X8601253Y-17463579D02*
X8610777Y-17444531D01*
X8610777Y-17444531D02*
X8620301Y-17435008D01*
X8620301Y-17435008D02*
X8639348Y-17425484D01*
X8782206Y-17444531D02*
X8791729Y-17435008D01*
X8791729Y-17435008D02*
X8810777Y-17425484D01*
X8810777Y-17425484D02*
X8858396Y-17425484D01*
X8858396Y-17425484D02*
X8877444Y-17435008D01*
X8877444Y-17435008D02*
X8886968Y-17444531D01*
X8886968Y-17444531D02*
X8896491Y-17463579D01*
X8896491Y-17463579D02*
X8896491Y-17482627D01*
X8896491Y-17482627D02*
X8886968Y-17511198D01*
X8886968Y-17511198D02*
X8772682Y-17625484D01*
X8772682Y-17625484D02*
X8896491Y-17625484D01*
X8963158Y-17425484D02*
X9086968Y-17425484D01*
X9086968Y-17425484D02*
X9020301Y-17501674D01*
X9020301Y-17501674D02*
X9048872Y-17501674D01*
X9048872Y-17501674D02*
X9067920Y-17511198D01*
X9067920Y-17511198D02*
X9077444Y-17520722D01*
X9077444Y-17520722D02*
X9086968Y-17539770D01*
X9086968Y-17539770D02*
X9086968Y-17587389D01*
X9086968Y-17587389D02*
X9077444Y-17606436D01*
X9077444Y-17606436D02*
X9067920Y-17615960D01*
X9067920Y-17615960D02*
X9048872Y-17625484D01*
X9048872Y-17625484D02*
X8991729Y-17625484D01*
X8991729Y-17625484D02*
X8972682Y-17615960D01*
X8972682Y-17615960D02*
X8963158Y-17606436D01*
X9258396Y-17425484D02*
X9220301Y-17425484D01*
X9220301Y-17425484D02*
X9201253Y-17435008D01*
X9201253Y-17435008D02*
X9191729Y-17444531D01*
X9191729Y-17444531D02*
X9172682Y-17473103D01*
X9172682Y-17473103D02*
X9163158Y-17511198D01*
X9163158Y-17511198D02*
X9163158Y-17587389D01*
X9163158Y-17587389D02*
X9172682Y-17606436D01*
X9172682Y-17606436D02*
X9182206Y-17615960D01*
X9182206Y-17615960D02*
X9201253Y-17625484D01*
X9201253Y-17625484D02*
X9239349Y-17625484D01*
X9239349Y-17625484D02*
X9258396Y-17615960D01*
X9258396Y-17615960D02*
X9267920Y-17606436D01*
X9267920Y-17606436D02*
X9277444Y-17587389D01*
X9277444Y-17587389D02*
X9277444Y-17539770D01*
X9277444Y-17539770D02*
X9267920Y-17520722D01*
X9267920Y-17520722D02*
X9258396Y-17511198D01*
X9258396Y-17511198D02*
X9239349Y-17501674D01*
X9239349Y-17501674D02*
X9201253Y-17501674D01*
X9201253Y-17501674D02*
X9182206Y-17511198D01*
X9182206Y-17511198D02*
X9172682Y-17520722D01*
X9172682Y-17520722D02*
X9163158Y-17539770D01*
X9353634Y-17425484D02*
X9353634Y-17463579D01*
X9429825Y-17425484D02*
X9429825Y-17463579D01*
X9725063Y-17701674D02*
X9715539Y-17692150D01*
X9715539Y-17692150D02*
X9696491Y-17663579D01*
X9696491Y-17663579D02*
X9686968Y-17644531D01*
X9686968Y-17644531D02*
X9677444Y-17615960D01*
X9677444Y-17615960D02*
X9667920Y-17568341D01*
X9667920Y-17568341D02*
X9667920Y-17530246D01*
X9667920Y-17530246D02*
X9677444Y-17482627D01*
X9677444Y-17482627D02*
X9686968Y-17454055D01*
X9686968Y-17454055D02*
X9696491Y-17435008D01*
X9696491Y-17435008D02*
X9715539Y-17406436D01*
X9715539Y-17406436D02*
X9725063Y-17396912D01*
X9906015Y-17625484D02*
X9791730Y-17625484D01*
X9848872Y-17625484D02*
X9848872Y-17425484D01*
X9848872Y-17425484D02*
X9829825Y-17454055D01*
X9829825Y-17454055D02*
X9810777Y-17473103D01*
X9810777Y-17473103D02*
X9791730Y-17482627D01*
X10077444Y-17492150D02*
X10077444Y-17625484D01*
X10029825Y-17415960D02*
X9982206Y-17558817D01*
X9982206Y-17558817D02*
X10106015Y-17558817D01*
X10334587Y-17625484D02*
X10334587Y-17425484D01*
X10420301Y-17625484D02*
X10420301Y-17520722D01*
X10420301Y-17520722D02*
X10410777Y-17501674D01*
X10410777Y-17501674D02*
X10391730Y-17492150D01*
X10391730Y-17492150D02*
X10363158Y-17492150D01*
X10363158Y-17492150D02*
X10344111Y-17501674D01*
X10344111Y-17501674D02*
X10334587Y-17511198D01*
X10544111Y-17625484D02*
X10525063Y-17615960D01*
X10525063Y-17615960D02*
X10515539Y-17606436D01*
X10515539Y-17606436D02*
X10506015Y-17587389D01*
X10506015Y-17587389D02*
X10506015Y-17530246D01*
X10506015Y-17530246D02*
X10515539Y-17511198D01*
X10515539Y-17511198D02*
X10525063Y-17501674D01*
X10525063Y-17501674D02*
X10544111Y-17492150D01*
X10544111Y-17492150D02*
X10572682Y-17492150D01*
X10572682Y-17492150D02*
X10591730Y-17501674D01*
X10591730Y-17501674D02*
X10601253Y-17511198D01*
X10601253Y-17511198D02*
X10610777Y-17530246D01*
X10610777Y-17530246D02*
X10610777Y-17587389D01*
X10610777Y-17587389D02*
X10601253Y-17606436D01*
X10601253Y-17606436D02*
X10591730Y-17615960D01*
X10591730Y-17615960D02*
X10572682Y-17625484D01*
X10572682Y-17625484D02*
X10544111Y-17625484D01*
X10725063Y-17625484D02*
X10706015Y-17615960D01*
X10706015Y-17615960D02*
X10696492Y-17596912D01*
X10696492Y-17596912D02*
X10696492Y-17425484D01*
X10877444Y-17615960D02*
X10858396Y-17625484D01*
X10858396Y-17625484D02*
X10820301Y-17625484D01*
X10820301Y-17625484D02*
X10801253Y-17615960D01*
X10801253Y-17615960D02*
X10791730Y-17596912D01*
X10791730Y-17596912D02*
X10791730Y-17520722D01*
X10791730Y-17520722D02*
X10801253Y-17501674D01*
X10801253Y-17501674D02*
X10820301Y-17492150D01*
X10820301Y-17492150D02*
X10858396Y-17492150D01*
X10858396Y-17492150D02*
X10877444Y-17501674D01*
X10877444Y-17501674D02*
X10886968Y-17520722D01*
X10886968Y-17520722D02*
X10886968Y-17539770D01*
X10886968Y-17539770D02*
X10791730Y-17558817D01*
X10963158Y-17615960D02*
X10982206Y-17625484D01*
X10982206Y-17625484D02*
X11020301Y-17625484D01*
X11020301Y-17625484D02*
X11039349Y-17615960D01*
X11039349Y-17615960D02*
X11048873Y-17596912D01*
X11048873Y-17596912D02*
X11048873Y-17587389D01*
X11048873Y-17587389D02*
X11039349Y-17568341D01*
X11039349Y-17568341D02*
X11020301Y-17558817D01*
X11020301Y-17558817D02*
X10991730Y-17558817D01*
X10991730Y-17558817D02*
X10972682Y-17549293D01*
X10972682Y-17549293D02*
X10963158Y-17530246D01*
X10963158Y-17530246D02*
X10963158Y-17520722D01*
X10963158Y-17520722D02*
X10972682Y-17501674D01*
X10972682Y-17501674D02*
X10991730Y-17492150D01*
X10991730Y-17492150D02*
X11020301Y-17492150D01*
X11020301Y-17492150D02*
X11039349Y-17501674D01*
X11115539Y-17701674D02*
X11125063Y-17692150D01*
X11125063Y-17692150D02*
X11144111Y-17663579D01*
X11144111Y-17663579D02*
X11153634Y-17644531D01*
X11153634Y-17644531D02*
X11163158Y-17615960D01*
X11163158Y-17615960D02*
X11172682Y-17568341D01*
X11172682Y-17568341D02*
X11172682Y-17530246D01*
X11172682Y-17530246D02*
X11163158Y-17482627D01*
X11163158Y-17482627D02*
X11153634Y-17454055D01*
X11153634Y-17454055D02*
X11144111Y-17435008D01*
X11144111Y-17435008D02*
X11125063Y-17406436D01*
X11125063Y-17406436D02*
X11115539Y-17396912D01*
D11*
X6112500Y-17760500D02*
X6112500Y-17835500D01*
X6075000Y-17798000D02*
X6150000Y-17798000D01*
D10*
X6448872Y-17689484D02*
X6467920Y-17689484D01*
X6467920Y-17689484D02*
X6486967Y-17699008D01*
X6486967Y-17699008D02*
X6496491Y-17708531D01*
X6496491Y-17708531D02*
X6506015Y-17727579D01*
X6506015Y-17727579D02*
X6515539Y-17765674D01*
X6515539Y-17765674D02*
X6515539Y-17813293D01*
X6515539Y-17813293D02*
X6506015Y-17851389D01*
X6506015Y-17851389D02*
X6496491Y-17870436D01*
X6496491Y-17870436D02*
X6486967Y-17879960D01*
X6486967Y-17879960D02*
X6467920Y-17889484D01*
X6467920Y-17889484D02*
X6448872Y-17889484D01*
X6448872Y-17889484D02*
X6429824Y-17879960D01*
X6429824Y-17879960D02*
X6420301Y-17870436D01*
X6420301Y-17870436D02*
X6410777Y-17851389D01*
X6410777Y-17851389D02*
X6401253Y-17813293D01*
X6401253Y-17813293D02*
X6401253Y-17765674D01*
X6401253Y-17765674D02*
X6410777Y-17727579D01*
X6410777Y-17727579D02*
X6420301Y-17708531D01*
X6420301Y-17708531D02*
X6429824Y-17699008D01*
X6429824Y-17699008D02*
X6448872Y-17689484D01*
X6601253Y-17870436D02*
X6610777Y-17879960D01*
X6610777Y-17879960D02*
X6601253Y-17889484D01*
X6601253Y-17889484D02*
X6591729Y-17879960D01*
X6591729Y-17879960D02*
X6601253Y-17870436D01*
X6601253Y-17870436D02*
X6601253Y-17889484D01*
X6677443Y-17689484D02*
X6810777Y-17689484D01*
X6810777Y-17689484D02*
X6725062Y-17889484D01*
X6982205Y-17689484D02*
X6886967Y-17689484D01*
X6886967Y-17689484D02*
X6877443Y-17784722D01*
X6877443Y-17784722D02*
X6886967Y-17775198D01*
X6886967Y-17775198D02*
X6906015Y-17765674D01*
X6906015Y-17765674D02*
X6953634Y-17765674D01*
X6953634Y-17765674D02*
X6972682Y-17775198D01*
X6972682Y-17775198D02*
X6982205Y-17784722D01*
X6982205Y-17784722D02*
X6991729Y-17803770D01*
X6991729Y-17803770D02*
X6991729Y-17851389D01*
X6991729Y-17851389D02*
X6982205Y-17870436D01*
X6982205Y-17870436D02*
X6972682Y-17879960D01*
X6972682Y-17879960D02*
X6953634Y-17889484D01*
X6953634Y-17889484D02*
X6906015Y-17889484D01*
X6906015Y-17889484D02*
X6886967Y-17879960D01*
X6886967Y-17879960D02*
X6877443Y-17870436D01*
X7115539Y-17689484D02*
X7134586Y-17689484D01*
X7134586Y-17689484D02*
X7153634Y-17699008D01*
X7153634Y-17699008D02*
X7163158Y-17708531D01*
X7163158Y-17708531D02*
X7172682Y-17727579D01*
X7172682Y-17727579D02*
X7182205Y-17765674D01*
X7182205Y-17765674D02*
X7182205Y-17813293D01*
X7182205Y-17813293D02*
X7172682Y-17851389D01*
X7172682Y-17851389D02*
X7163158Y-17870436D01*
X7163158Y-17870436D02*
X7153634Y-17879960D01*
X7153634Y-17879960D02*
X7134586Y-17889484D01*
X7134586Y-17889484D02*
X7115539Y-17889484D01*
X7115539Y-17889484D02*
X7096491Y-17879960D01*
X7096491Y-17879960D02*
X7086967Y-17870436D01*
X7086967Y-17870436D02*
X7077443Y-17851389D01*
X7077443Y-17851389D02*
X7067920Y-17813293D01*
X7067920Y-17813293D02*
X7067920Y-17765674D01*
X7067920Y-17765674D02*
X7077443Y-17727579D01*
X7077443Y-17727579D02*
X7086967Y-17708531D01*
X7086967Y-17708531D02*
X7096491Y-17699008D01*
X7096491Y-17699008D02*
X7115539Y-17689484D01*
X7267920Y-17889484D02*
X7267920Y-17756150D01*
X7267920Y-17775198D02*
X7277443Y-17765674D01*
X7277443Y-17765674D02*
X7296491Y-17756150D01*
X7296491Y-17756150D02*
X7325063Y-17756150D01*
X7325063Y-17756150D02*
X7344110Y-17765674D01*
X7344110Y-17765674D02*
X7353634Y-17784722D01*
X7353634Y-17784722D02*
X7353634Y-17889484D01*
X7353634Y-17784722D02*
X7363158Y-17765674D01*
X7363158Y-17765674D02*
X7382205Y-17756150D01*
X7382205Y-17756150D02*
X7410777Y-17756150D01*
X7410777Y-17756150D02*
X7429824Y-17765674D01*
X7429824Y-17765674D02*
X7439348Y-17784722D01*
X7439348Y-17784722D02*
X7439348Y-17889484D01*
X7534586Y-17889484D02*
X7534586Y-17756150D01*
X7534586Y-17775198D02*
X7544110Y-17765674D01*
X7544110Y-17765674D02*
X7563158Y-17756150D01*
X7563158Y-17756150D02*
X7591729Y-17756150D01*
X7591729Y-17756150D02*
X7610777Y-17765674D01*
X7610777Y-17765674D02*
X7620301Y-17784722D01*
X7620301Y-17784722D02*
X7620301Y-17889484D01*
X7620301Y-17784722D02*
X7629824Y-17765674D01*
X7629824Y-17765674D02*
X7648872Y-17756150D01*
X7648872Y-17756150D02*
X7677443Y-17756150D01*
X7677443Y-17756150D02*
X7696491Y-17765674D01*
X7696491Y-17765674D02*
X7706015Y-17784722D01*
X7706015Y-17784722D02*
X7706015Y-17889484D01*
X8096491Y-17679960D02*
X7925063Y-17937103D01*
X8353634Y-17689484D02*
X8372682Y-17689484D01*
X8372682Y-17689484D02*
X8391729Y-17699008D01*
X8391729Y-17699008D02*
X8401253Y-17708531D01*
X8401253Y-17708531D02*
X8410777Y-17727579D01*
X8410777Y-17727579D02*
X8420301Y-17765674D01*
X8420301Y-17765674D02*
X8420301Y-17813293D01*
X8420301Y-17813293D02*
X8410777Y-17851389D01*
X8410777Y-17851389D02*
X8401253Y-17870436D01*
X8401253Y-17870436D02*
X8391729Y-17879960D01*
X8391729Y-17879960D02*
X8372682Y-17889484D01*
X8372682Y-17889484D02*
X8353634Y-17889484D01*
X8353634Y-17889484D02*
X8334586Y-17879960D01*
X8334586Y-17879960D02*
X8325063Y-17870436D01*
X8325063Y-17870436D02*
X8315539Y-17851389D01*
X8315539Y-17851389D02*
X8306015Y-17813293D01*
X8306015Y-17813293D02*
X8306015Y-17765674D01*
X8306015Y-17765674D02*
X8315539Y-17727579D01*
X8315539Y-17727579D02*
X8325063Y-17708531D01*
X8325063Y-17708531D02*
X8334586Y-17699008D01*
X8334586Y-17699008D02*
X8353634Y-17689484D01*
X8506015Y-17870436D02*
X8515539Y-17879960D01*
X8515539Y-17879960D02*
X8506015Y-17889484D01*
X8506015Y-17889484D02*
X8496491Y-17879960D01*
X8496491Y-17879960D02*
X8506015Y-17870436D01*
X8506015Y-17870436D02*
X8506015Y-17889484D01*
X8639348Y-17689484D02*
X8658396Y-17689484D01*
X8658396Y-17689484D02*
X8677444Y-17699008D01*
X8677444Y-17699008D02*
X8686968Y-17708531D01*
X8686968Y-17708531D02*
X8696491Y-17727579D01*
X8696491Y-17727579D02*
X8706015Y-17765674D01*
X8706015Y-17765674D02*
X8706015Y-17813293D01*
X8706015Y-17813293D02*
X8696491Y-17851389D01*
X8696491Y-17851389D02*
X8686968Y-17870436D01*
X8686968Y-17870436D02*
X8677444Y-17879960D01*
X8677444Y-17879960D02*
X8658396Y-17889484D01*
X8658396Y-17889484D02*
X8639348Y-17889484D01*
X8639348Y-17889484D02*
X8620301Y-17879960D01*
X8620301Y-17879960D02*
X8610777Y-17870436D01*
X8610777Y-17870436D02*
X8601253Y-17851389D01*
X8601253Y-17851389D02*
X8591729Y-17813293D01*
X8591729Y-17813293D02*
X8591729Y-17765674D01*
X8591729Y-17765674D02*
X8601253Y-17727579D01*
X8601253Y-17727579D02*
X8610777Y-17708531D01*
X8610777Y-17708531D02*
X8620301Y-17699008D01*
X8620301Y-17699008D02*
X8639348Y-17689484D01*
X8782206Y-17708531D02*
X8791729Y-17699008D01*
X8791729Y-17699008D02*
X8810777Y-17689484D01*
X8810777Y-17689484D02*
X8858396Y-17689484D01*
X8858396Y-17689484D02*
X8877444Y-17699008D01*
X8877444Y-17699008D02*
X8886968Y-17708531D01*
X8886968Y-17708531D02*
X8896491Y-17727579D01*
X8896491Y-17727579D02*
X8896491Y-17746627D01*
X8896491Y-17746627D02*
X8886968Y-17775198D01*
X8886968Y-17775198D02*
X8772682Y-17889484D01*
X8772682Y-17889484D02*
X8896491Y-17889484D01*
X8991729Y-17889484D02*
X9029825Y-17889484D01*
X9029825Y-17889484D02*
X9048872Y-17879960D01*
X9048872Y-17879960D02*
X9058396Y-17870436D01*
X9058396Y-17870436D02*
X9077444Y-17841865D01*
X9077444Y-17841865D02*
X9086968Y-17803770D01*
X9086968Y-17803770D02*
X9086968Y-17727579D01*
X9086968Y-17727579D02*
X9077444Y-17708531D01*
X9077444Y-17708531D02*
X9067920Y-17699008D01*
X9067920Y-17699008D02*
X9048872Y-17689484D01*
X9048872Y-17689484D02*
X9010777Y-17689484D01*
X9010777Y-17689484D02*
X8991729Y-17699008D01*
X8991729Y-17699008D02*
X8982206Y-17708531D01*
X8982206Y-17708531D02*
X8972682Y-17727579D01*
X8972682Y-17727579D02*
X8972682Y-17775198D01*
X8972682Y-17775198D02*
X8982206Y-17794246D01*
X8982206Y-17794246D02*
X8991729Y-17803770D01*
X8991729Y-17803770D02*
X9010777Y-17813293D01*
X9010777Y-17813293D02*
X9048872Y-17813293D01*
X9048872Y-17813293D02*
X9067920Y-17803770D01*
X9067920Y-17803770D02*
X9077444Y-17794246D01*
X9077444Y-17794246D02*
X9086968Y-17775198D01*
X9267920Y-17689484D02*
X9172682Y-17689484D01*
X9172682Y-17689484D02*
X9163158Y-17784722D01*
X9163158Y-17784722D02*
X9172682Y-17775198D01*
X9172682Y-17775198D02*
X9191729Y-17765674D01*
X9191729Y-17765674D02*
X9239349Y-17765674D01*
X9239349Y-17765674D02*
X9258396Y-17775198D01*
X9258396Y-17775198D02*
X9267920Y-17784722D01*
X9267920Y-17784722D02*
X9277444Y-17803770D01*
X9277444Y-17803770D02*
X9277444Y-17851389D01*
X9277444Y-17851389D02*
X9267920Y-17870436D01*
X9267920Y-17870436D02*
X9258396Y-17879960D01*
X9258396Y-17879960D02*
X9239349Y-17889484D01*
X9239349Y-17889484D02*
X9191729Y-17889484D01*
X9191729Y-17889484D02*
X9172682Y-17879960D01*
X9172682Y-17879960D02*
X9163158Y-17870436D01*
X9353634Y-17689484D02*
X9353634Y-17727579D01*
X9429825Y-17689484D02*
X9429825Y-17727579D01*
X9725063Y-17965674D02*
X9715539Y-17956150D01*
X9715539Y-17956150D02*
X9696491Y-17927579D01*
X9696491Y-17927579D02*
X9686968Y-17908531D01*
X9686968Y-17908531D02*
X9677444Y-17879960D01*
X9677444Y-17879960D02*
X9667920Y-17832341D01*
X9667920Y-17832341D02*
X9667920Y-17794246D01*
X9667920Y-17794246D02*
X9677444Y-17746627D01*
X9677444Y-17746627D02*
X9686968Y-17718055D01*
X9686968Y-17718055D02*
X9696491Y-17699008D01*
X9696491Y-17699008D02*
X9715539Y-17670436D01*
X9715539Y-17670436D02*
X9725063Y-17660912D01*
X9782206Y-17689484D02*
X9906015Y-17689484D01*
X9906015Y-17689484D02*
X9839349Y-17765674D01*
X9839349Y-17765674D02*
X9867920Y-17765674D01*
X9867920Y-17765674D02*
X9886968Y-17775198D01*
X9886968Y-17775198D02*
X9896491Y-17784722D01*
X9896491Y-17784722D02*
X9906015Y-17803770D01*
X9906015Y-17803770D02*
X9906015Y-17851389D01*
X9906015Y-17851389D02*
X9896491Y-17870436D01*
X9896491Y-17870436D02*
X9886968Y-17879960D01*
X9886968Y-17879960D02*
X9867920Y-17889484D01*
X9867920Y-17889484D02*
X9810777Y-17889484D01*
X9810777Y-17889484D02*
X9791730Y-17879960D01*
X9791730Y-17879960D02*
X9782206Y-17870436D01*
X10144111Y-17889484D02*
X10144111Y-17689484D01*
X10229825Y-17889484D02*
X10229825Y-17784722D01*
X10229825Y-17784722D02*
X10220301Y-17765674D01*
X10220301Y-17765674D02*
X10201253Y-17756150D01*
X10201253Y-17756150D02*
X10172682Y-17756150D01*
X10172682Y-17756150D02*
X10153634Y-17765674D01*
X10153634Y-17765674D02*
X10144111Y-17775198D01*
X10353634Y-17889484D02*
X10334587Y-17879960D01*
X10334587Y-17879960D02*
X10325063Y-17870436D01*
X10325063Y-17870436D02*
X10315539Y-17851389D01*
X10315539Y-17851389D02*
X10315539Y-17794246D01*
X10315539Y-17794246D02*
X10325063Y-17775198D01*
X10325063Y-17775198D02*
X10334587Y-17765674D01*
X10334587Y-17765674D02*
X10353634Y-17756150D01*
X10353634Y-17756150D02*
X10382206Y-17756150D01*
X10382206Y-17756150D02*
X10401253Y-17765674D01*
X10401253Y-17765674D02*
X10410777Y-17775198D01*
X10410777Y-17775198D02*
X10420301Y-17794246D01*
X10420301Y-17794246D02*
X10420301Y-17851389D01*
X10420301Y-17851389D02*
X10410777Y-17870436D01*
X10410777Y-17870436D02*
X10401253Y-17879960D01*
X10401253Y-17879960D02*
X10382206Y-17889484D01*
X10382206Y-17889484D02*
X10353634Y-17889484D01*
X10534587Y-17889484D02*
X10515539Y-17879960D01*
X10515539Y-17879960D02*
X10506015Y-17860912D01*
X10506015Y-17860912D02*
X10506015Y-17689484D01*
X10686968Y-17879960D02*
X10667920Y-17889484D01*
X10667920Y-17889484D02*
X10629825Y-17889484D01*
X10629825Y-17889484D02*
X10610777Y-17879960D01*
X10610777Y-17879960D02*
X10601253Y-17860912D01*
X10601253Y-17860912D02*
X10601253Y-17784722D01*
X10601253Y-17784722D02*
X10610777Y-17765674D01*
X10610777Y-17765674D02*
X10629825Y-17756150D01*
X10629825Y-17756150D02*
X10667920Y-17756150D01*
X10667920Y-17756150D02*
X10686968Y-17765674D01*
X10686968Y-17765674D02*
X10696492Y-17784722D01*
X10696492Y-17784722D02*
X10696492Y-17803770D01*
X10696492Y-17803770D02*
X10601253Y-17822817D01*
X10772682Y-17879960D02*
X10791730Y-17889484D01*
X10791730Y-17889484D02*
X10829825Y-17889484D01*
X10829825Y-17889484D02*
X10848873Y-17879960D01*
X10848873Y-17879960D02*
X10858396Y-17860912D01*
X10858396Y-17860912D02*
X10858396Y-17851389D01*
X10858396Y-17851389D02*
X10848873Y-17832341D01*
X10848873Y-17832341D02*
X10829825Y-17822817D01*
X10829825Y-17822817D02*
X10801253Y-17822817D01*
X10801253Y-17822817D02*
X10782206Y-17813293D01*
X10782206Y-17813293D02*
X10772682Y-17794246D01*
X10772682Y-17794246D02*
X10772682Y-17784722D01*
X10772682Y-17784722D02*
X10782206Y-17765674D01*
X10782206Y-17765674D02*
X10801253Y-17756150D01*
X10801253Y-17756150D02*
X10829825Y-17756150D01*
X10829825Y-17756150D02*
X10848873Y-17765674D01*
X10925063Y-17965674D02*
X10934587Y-17956150D01*
X10934587Y-17956150D02*
X10953634Y-17927579D01*
X10953634Y-17927579D02*
X10963158Y-17908531D01*
X10963158Y-17908531D02*
X10972682Y-17879960D01*
X10972682Y-17879960D02*
X10982206Y-17832341D01*
X10982206Y-17832341D02*
X10982206Y-17794246D01*
X10982206Y-17794246D02*
X10972682Y-17746627D01*
X10972682Y-17746627D02*
X10963158Y-17718055D01*
X10963158Y-17718055D02*
X10953634Y-17699008D01*
X10953634Y-17699008D02*
X10934587Y-17670436D01*
X10934587Y-17670436D02*
X10925063Y-17660912D01*
D11*
X6138284Y-18090285D02*
X6138284Y-18033716D01*
X6081715Y-18033716D01*
X6081715Y-18090285D01*
X6138284Y-18090285D01*
D10*
X6448872Y-17953484D02*
X6467920Y-17953484D01*
X6467920Y-17953484D02*
X6486967Y-17963008D01*
X6486967Y-17963008D02*
X6496491Y-17972531D01*
X6496491Y-17972531D02*
X6506015Y-17991579D01*
X6506015Y-17991579D02*
X6515539Y-18029674D01*
X6515539Y-18029674D02*
X6515539Y-18077293D01*
X6515539Y-18077293D02*
X6506015Y-18115389D01*
X6506015Y-18115389D02*
X6496491Y-18134436D01*
X6496491Y-18134436D02*
X6486967Y-18143960D01*
X6486967Y-18143960D02*
X6467920Y-18153484D01*
X6467920Y-18153484D02*
X6448872Y-18153484D01*
X6448872Y-18153484D02*
X6429824Y-18143960D01*
X6429824Y-18143960D02*
X6420301Y-18134436D01*
X6420301Y-18134436D02*
X6410777Y-18115389D01*
X6410777Y-18115389D02*
X6401253Y-18077293D01*
X6401253Y-18077293D02*
X6401253Y-18029674D01*
X6401253Y-18029674D02*
X6410777Y-17991579D01*
X6410777Y-17991579D02*
X6420301Y-17972531D01*
X6420301Y-17972531D02*
X6429824Y-17963008D01*
X6429824Y-17963008D02*
X6448872Y-17953484D01*
X6601253Y-18134436D02*
X6610777Y-18143960D01*
X6610777Y-18143960D02*
X6601253Y-18153484D01*
X6601253Y-18153484D02*
X6591729Y-18143960D01*
X6591729Y-18143960D02*
X6601253Y-18134436D01*
X6601253Y-18134436D02*
X6601253Y-18153484D01*
X6725062Y-18039198D02*
X6706015Y-18029674D01*
X6706015Y-18029674D02*
X6696491Y-18020150D01*
X6696491Y-18020150D02*
X6686967Y-18001103D01*
X6686967Y-18001103D02*
X6686967Y-17991579D01*
X6686967Y-17991579D02*
X6696491Y-17972531D01*
X6696491Y-17972531D02*
X6706015Y-17963008D01*
X6706015Y-17963008D02*
X6725062Y-17953484D01*
X6725062Y-17953484D02*
X6763158Y-17953484D01*
X6763158Y-17953484D02*
X6782205Y-17963008D01*
X6782205Y-17963008D02*
X6791729Y-17972531D01*
X6791729Y-17972531D02*
X6801253Y-17991579D01*
X6801253Y-17991579D02*
X6801253Y-18001103D01*
X6801253Y-18001103D02*
X6791729Y-18020150D01*
X6791729Y-18020150D02*
X6782205Y-18029674D01*
X6782205Y-18029674D02*
X6763158Y-18039198D01*
X6763158Y-18039198D02*
X6725062Y-18039198D01*
X6725062Y-18039198D02*
X6706015Y-18048722D01*
X6706015Y-18048722D02*
X6696491Y-18058246D01*
X6696491Y-18058246D02*
X6686967Y-18077293D01*
X6686967Y-18077293D02*
X6686967Y-18115389D01*
X6686967Y-18115389D02*
X6696491Y-18134436D01*
X6696491Y-18134436D02*
X6706015Y-18143960D01*
X6706015Y-18143960D02*
X6725062Y-18153484D01*
X6725062Y-18153484D02*
X6763158Y-18153484D01*
X6763158Y-18153484D02*
X6782205Y-18143960D01*
X6782205Y-18143960D02*
X6791729Y-18134436D01*
X6791729Y-18134436D02*
X6801253Y-18115389D01*
X6801253Y-18115389D02*
X6801253Y-18077293D01*
X6801253Y-18077293D02*
X6791729Y-18058246D01*
X6791729Y-18058246D02*
X6782205Y-18048722D01*
X6782205Y-18048722D02*
X6763158Y-18039198D01*
X6925062Y-17953484D02*
X6944110Y-17953484D01*
X6944110Y-17953484D02*
X6963158Y-17963008D01*
X6963158Y-17963008D02*
X6972682Y-17972531D01*
X6972682Y-17972531D02*
X6982205Y-17991579D01*
X6982205Y-17991579D02*
X6991729Y-18029674D01*
X6991729Y-18029674D02*
X6991729Y-18077293D01*
X6991729Y-18077293D02*
X6982205Y-18115389D01*
X6982205Y-18115389D02*
X6972682Y-18134436D01*
X6972682Y-18134436D02*
X6963158Y-18143960D01*
X6963158Y-18143960D02*
X6944110Y-18153484D01*
X6944110Y-18153484D02*
X6925062Y-18153484D01*
X6925062Y-18153484D02*
X6906015Y-18143960D01*
X6906015Y-18143960D02*
X6896491Y-18134436D01*
X6896491Y-18134436D02*
X6886967Y-18115389D01*
X6886967Y-18115389D02*
X6877443Y-18077293D01*
X6877443Y-18077293D02*
X6877443Y-18029674D01*
X6877443Y-18029674D02*
X6886967Y-17991579D01*
X6886967Y-17991579D02*
X6896491Y-17972531D01*
X6896491Y-17972531D02*
X6906015Y-17963008D01*
X6906015Y-17963008D02*
X6925062Y-17953484D01*
X7115539Y-17953484D02*
X7134586Y-17953484D01*
X7134586Y-17953484D02*
X7153634Y-17963008D01*
X7153634Y-17963008D02*
X7163158Y-17972531D01*
X7163158Y-17972531D02*
X7172682Y-17991579D01*
X7172682Y-17991579D02*
X7182205Y-18029674D01*
X7182205Y-18029674D02*
X7182205Y-18077293D01*
X7182205Y-18077293D02*
X7172682Y-18115389D01*
X7172682Y-18115389D02*
X7163158Y-18134436D01*
X7163158Y-18134436D02*
X7153634Y-18143960D01*
X7153634Y-18143960D02*
X7134586Y-18153484D01*
X7134586Y-18153484D02*
X7115539Y-18153484D01*
X7115539Y-18153484D02*
X7096491Y-18143960D01*
X7096491Y-18143960D02*
X7086967Y-18134436D01*
X7086967Y-18134436D02*
X7077443Y-18115389D01*
X7077443Y-18115389D02*
X7067920Y-18077293D01*
X7067920Y-18077293D02*
X7067920Y-18029674D01*
X7067920Y-18029674D02*
X7077443Y-17991579D01*
X7077443Y-17991579D02*
X7086967Y-17972531D01*
X7086967Y-17972531D02*
X7096491Y-17963008D01*
X7096491Y-17963008D02*
X7115539Y-17953484D01*
X7267920Y-18153484D02*
X7267920Y-18020150D01*
X7267920Y-18039198D02*
X7277443Y-18029674D01*
X7277443Y-18029674D02*
X7296491Y-18020150D01*
X7296491Y-18020150D02*
X7325063Y-18020150D01*
X7325063Y-18020150D02*
X7344110Y-18029674D01*
X7344110Y-18029674D02*
X7353634Y-18048722D01*
X7353634Y-18048722D02*
X7353634Y-18153484D01*
X7353634Y-18048722D02*
X7363158Y-18029674D01*
X7363158Y-18029674D02*
X7382205Y-18020150D01*
X7382205Y-18020150D02*
X7410777Y-18020150D01*
X7410777Y-18020150D02*
X7429824Y-18029674D01*
X7429824Y-18029674D02*
X7439348Y-18048722D01*
X7439348Y-18048722D02*
X7439348Y-18153484D01*
X7534586Y-18153484D02*
X7534586Y-18020150D01*
X7534586Y-18039198D02*
X7544110Y-18029674D01*
X7544110Y-18029674D02*
X7563158Y-18020150D01*
X7563158Y-18020150D02*
X7591729Y-18020150D01*
X7591729Y-18020150D02*
X7610777Y-18029674D01*
X7610777Y-18029674D02*
X7620301Y-18048722D01*
X7620301Y-18048722D02*
X7620301Y-18153484D01*
X7620301Y-18048722D02*
X7629824Y-18029674D01*
X7629824Y-18029674D02*
X7648872Y-18020150D01*
X7648872Y-18020150D02*
X7677443Y-18020150D01*
X7677443Y-18020150D02*
X7696491Y-18029674D01*
X7696491Y-18029674D02*
X7706015Y-18048722D01*
X7706015Y-18048722D02*
X7706015Y-18153484D01*
X8096491Y-17943960D02*
X7925063Y-18201103D01*
X8353634Y-17953484D02*
X8372682Y-17953484D01*
X8372682Y-17953484D02*
X8391729Y-17963008D01*
X8391729Y-17963008D02*
X8401253Y-17972531D01*
X8401253Y-17972531D02*
X8410777Y-17991579D01*
X8410777Y-17991579D02*
X8420301Y-18029674D01*
X8420301Y-18029674D02*
X8420301Y-18077293D01*
X8420301Y-18077293D02*
X8410777Y-18115389D01*
X8410777Y-18115389D02*
X8401253Y-18134436D01*
X8401253Y-18134436D02*
X8391729Y-18143960D01*
X8391729Y-18143960D02*
X8372682Y-18153484D01*
X8372682Y-18153484D02*
X8353634Y-18153484D01*
X8353634Y-18153484D02*
X8334586Y-18143960D01*
X8334586Y-18143960D02*
X8325063Y-18134436D01*
X8325063Y-18134436D02*
X8315539Y-18115389D01*
X8315539Y-18115389D02*
X8306015Y-18077293D01*
X8306015Y-18077293D02*
X8306015Y-18029674D01*
X8306015Y-18029674D02*
X8315539Y-17991579D01*
X8315539Y-17991579D02*
X8325063Y-17972531D01*
X8325063Y-17972531D02*
X8334586Y-17963008D01*
X8334586Y-17963008D02*
X8353634Y-17953484D01*
X8506015Y-18134436D02*
X8515539Y-18143960D01*
X8515539Y-18143960D02*
X8506015Y-18153484D01*
X8506015Y-18153484D02*
X8496491Y-18143960D01*
X8496491Y-18143960D02*
X8506015Y-18134436D01*
X8506015Y-18134436D02*
X8506015Y-18153484D01*
X8639348Y-17953484D02*
X8658396Y-17953484D01*
X8658396Y-17953484D02*
X8677444Y-17963008D01*
X8677444Y-17963008D02*
X8686968Y-17972531D01*
X8686968Y-17972531D02*
X8696491Y-17991579D01*
X8696491Y-17991579D02*
X8706015Y-18029674D01*
X8706015Y-18029674D02*
X8706015Y-18077293D01*
X8706015Y-18077293D02*
X8696491Y-18115389D01*
X8696491Y-18115389D02*
X8686968Y-18134436D01*
X8686968Y-18134436D02*
X8677444Y-18143960D01*
X8677444Y-18143960D02*
X8658396Y-18153484D01*
X8658396Y-18153484D02*
X8639348Y-18153484D01*
X8639348Y-18153484D02*
X8620301Y-18143960D01*
X8620301Y-18143960D02*
X8610777Y-18134436D01*
X8610777Y-18134436D02*
X8601253Y-18115389D01*
X8601253Y-18115389D02*
X8591729Y-18077293D01*
X8591729Y-18077293D02*
X8591729Y-18029674D01*
X8591729Y-18029674D02*
X8601253Y-17991579D01*
X8601253Y-17991579D02*
X8610777Y-17972531D01*
X8610777Y-17972531D02*
X8620301Y-17963008D01*
X8620301Y-17963008D02*
X8639348Y-17953484D01*
X8772682Y-17953484D02*
X8896491Y-17953484D01*
X8896491Y-17953484D02*
X8829825Y-18029674D01*
X8829825Y-18029674D02*
X8858396Y-18029674D01*
X8858396Y-18029674D02*
X8877444Y-18039198D01*
X8877444Y-18039198D02*
X8886968Y-18048722D01*
X8886968Y-18048722D02*
X8896491Y-18067770D01*
X8896491Y-18067770D02*
X8896491Y-18115389D01*
X8896491Y-18115389D02*
X8886968Y-18134436D01*
X8886968Y-18134436D02*
X8877444Y-18143960D01*
X8877444Y-18143960D02*
X8858396Y-18153484D01*
X8858396Y-18153484D02*
X8801253Y-18153484D01*
X8801253Y-18153484D02*
X8782206Y-18143960D01*
X8782206Y-18143960D02*
X8772682Y-18134436D01*
X9086968Y-18153484D02*
X8972682Y-18153484D01*
X9029825Y-18153484D02*
X9029825Y-17953484D01*
X9029825Y-17953484D02*
X9010777Y-17982055D01*
X9010777Y-17982055D02*
X8991729Y-18001103D01*
X8991729Y-18001103D02*
X8972682Y-18010627D01*
X9267920Y-17953484D02*
X9172682Y-17953484D01*
X9172682Y-17953484D02*
X9163158Y-18048722D01*
X9163158Y-18048722D02*
X9172682Y-18039198D01*
X9172682Y-18039198D02*
X9191729Y-18029674D01*
X9191729Y-18029674D02*
X9239349Y-18029674D01*
X9239349Y-18029674D02*
X9258396Y-18039198D01*
X9258396Y-18039198D02*
X9267920Y-18048722D01*
X9267920Y-18048722D02*
X9277444Y-18067770D01*
X9277444Y-18067770D02*
X9277444Y-18115389D01*
X9277444Y-18115389D02*
X9267920Y-18134436D01*
X9267920Y-18134436D02*
X9258396Y-18143960D01*
X9258396Y-18143960D02*
X9239349Y-18153484D01*
X9239349Y-18153484D02*
X9191729Y-18153484D01*
X9191729Y-18153484D02*
X9172682Y-18143960D01*
X9172682Y-18143960D02*
X9163158Y-18134436D01*
X9353634Y-17953484D02*
X9353634Y-17991579D01*
X9429825Y-17953484D02*
X9429825Y-17991579D01*
X9725063Y-18229674D02*
X9715539Y-18220150D01*
X9715539Y-18220150D02*
X9696491Y-18191579D01*
X9696491Y-18191579D02*
X9686968Y-18172531D01*
X9686968Y-18172531D02*
X9677444Y-18143960D01*
X9677444Y-18143960D02*
X9667920Y-18096341D01*
X9667920Y-18096341D02*
X9667920Y-18058246D01*
X9667920Y-18058246D02*
X9677444Y-18010627D01*
X9677444Y-18010627D02*
X9686968Y-17982055D01*
X9686968Y-17982055D02*
X9696491Y-17963008D01*
X9696491Y-17963008D02*
X9715539Y-17934436D01*
X9715539Y-17934436D02*
X9725063Y-17924912D01*
X9791730Y-17972531D02*
X9801253Y-17963008D01*
X9801253Y-17963008D02*
X9820301Y-17953484D01*
X9820301Y-17953484D02*
X9867920Y-17953484D01*
X9867920Y-17953484D02*
X9886968Y-17963008D01*
X9886968Y-17963008D02*
X9896491Y-17972531D01*
X9896491Y-17972531D02*
X9906015Y-17991579D01*
X9906015Y-17991579D02*
X9906015Y-18010627D01*
X9906015Y-18010627D02*
X9896491Y-18039198D01*
X9896491Y-18039198D02*
X9782206Y-18153484D01*
X9782206Y-18153484D02*
X9906015Y-18153484D01*
X10077444Y-17953484D02*
X10039349Y-17953484D01*
X10039349Y-17953484D02*
X10020301Y-17963008D01*
X10020301Y-17963008D02*
X10010777Y-17972531D01*
X10010777Y-17972531D02*
X9991730Y-18001103D01*
X9991730Y-18001103D02*
X9982206Y-18039198D01*
X9982206Y-18039198D02*
X9982206Y-18115389D01*
X9982206Y-18115389D02*
X9991730Y-18134436D01*
X9991730Y-18134436D02*
X10001253Y-18143960D01*
X10001253Y-18143960D02*
X10020301Y-18153484D01*
X10020301Y-18153484D02*
X10058396Y-18153484D01*
X10058396Y-18153484D02*
X10077444Y-18143960D01*
X10077444Y-18143960D02*
X10086968Y-18134436D01*
X10086968Y-18134436D02*
X10096491Y-18115389D01*
X10096491Y-18115389D02*
X10096491Y-18067770D01*
X10096491Y-18067770D02*
X10086968Y-18048722D01*
X10086968Y-18048722D02*
X10077444Y-18039198D01*
X10077444Y-18039198D02*
X10058396Y-18029674D01*
X10058396Y-18029674D02*
X10020301Y-18029674D01*
X10020301Y-18029674D02*
X10001253Y-18039198D01*
X10001253Y-18039198D02*
X9991730Y-18048722D01*
X9991730Y-18048722D02*
X9982206Y-18067770D01*
X10334587Y-18153484D02*
X10334587Y-17953484D01*
X10420301Y-18153484D02*
X10420301Y-18048722D01*
X10420301Y-18048722D02*
X10410777Y-18029674D01*
X10410777Y-18029674D02*
X10391730Y-18020150D01*
X10391730Y-18020150D02*
X10363158Y-18020150D01*
X10363158Y-18020150D02*
X10344111Y-18029674D01*
X10344111Y-18029674D02*
X10334587Y-18039198D01*
X10544111Y-18153484D02*
X10525063Y-18143960D01*
X10525063Y-18143960D02*
X10515539Y-18134436D01*
X10515539Y-18134436D02*
X10506015Y-18115389D01*
X10506015Y-18115389D02*
X10506015Y-18058246D01*
X10506015Y-18058246D02*
X10515539Y-18039198D01*
X10515539Y-18039198D02*
X10525063Y-18029674D01*
X10525063Y-18029674D02*
X10544111Y-18020150D01*
X10544111Y-18020150D02*
X10572682Y-18020150D01*
X10572682Y-18020150D02*
X10591730Y-18029674D01*
X10591730Y-18029674D02*
X10601253Y-18039198D01*
X10601253Y-18039198D02*
X10610777Y-18058246D01*
X10610777Y-18058246D02*
X10610777Y-18115389D01*
X10610777Y-18115389D02*
X10601253Y-18134436D01*
X10601253Y-18134436D02*
X10591730Y-18143960D01*
X10591730Y-18143960D02*
X10572682Y-18153484D01*
X10572682Y-18153484D02*
X10544111Y-18153484D01*
X10725063Y-18153484D02*
X10706015Y-18143960D01*
X10706015Y-18143960D02*
X10696492Y-18124912D01*
X10696492Y-18124912D02*
X10696492Y-17953484D01*
X10877444Y-18143960D02*
X10858396Y-18153484D01*
X10858396Y-18153484D02*
X10820301Y-18153484D01*
X10820301Y-18153484D02*
X10801253Y-18143960D01*
X10801253Y-18143960D02*
X10791730Y-18124912D01*
X10791730Y-18124912D02*
X10791730Y-18048722D01*
X10791730Y-18048722D02*
X10801253Y-18029674D01*
X10801253Y-18029674D02*
X10820301Y-18020150D01*
X10820301Y-18020150D02*
X10858396Y-18020150D01*
X10858396Y-18020150D02*
X10877444Y-18029674D01*
X10877444Y-18029674D02*
X10886968Y-18048722D01*
X10886968Y-18048722D02*
X10886968Y-18067770D01*
X10886968Y-18067770D02*
X10791730Y-18086817D01*
X10963158Y-18143960D02*
X10982206Y-18153484D01*
X10982206Y-18153484D02*
X11020301Y-18153484D01*
X11020301Y-18153484D02*
X11039349Y-18143960D01*
X11039349Y-18143960D02*
X11048873Y-18124912D01*
X11048873Y-18124912D02*
X11048873Y-18115389D01*
X11048873Y-18115389D02*
X11039349Y-18096341D01*
X11039349Y-18096341D02*
X11020301Y-18086817D01*
X11020301Y-18086817D02*
X10991730Y-18086817D01*
X10991730Y-18086817D02*
X10972682Y-18077293D01*
X10972682Y-18077293D02*
X10963158Y-18058246D01*
X10963158Y-18058246D02*
X10963158Y-18048722D01*
X10963158Y-18048722D02*
X10972682Y-18029674D01*
X10972682Y-18029674D02*
X10991730Y-18020150D01*
X10991730Y-18020150D02*
X11020301Y-18020150D01*
X11020301Y-18020150D02*
X11039349Y-18029674D01*
X11115539Y-18229674D02*
X11125063Y-18220150D01*
X11125063Y-18220150D02*
X11144111Y-18191579D01*
X11144111Y-18191579D02*
X11153634Y-18172531D01*
X11153634Y-18172531D02*
X11163158Y-18143960D01*
X11163158Y-18143960D02*
X11172682Y-18096341D01*
X11172682Y-18096341D02*
X11172682Y-18058246D01*
X11172682Y-18058246D02*
X11163158Y-18010627D01*
X11163158Y-18010627D02*
X11153634Y-17982055D01*
X11153634Y-17982055D02*
X11144111Y-17963008D01*
X11144111Y-17963008D02*
X11125063Y-17934436D01*
X11125063Y-17934436D02*
X11115539Y-17924912D01*
D11*
X6100000Y-18376000D02*
X6150000Y-18326000D01*
X6100000Y-18276000D01*
X6050000Y-18326000D01*
X6100000Y-18376000D01*
D10*
X6515539Y-18417484D02*
X6401253Y-18417484D01*
X6458396Y-18417484D02*
X6458396Y-18217484D01*
X6458396Y-18217484D02*
X6439348Y-18246055D01*
X6439348Y-18246055D02*
X6420301Y-18265103D01*
X6420301Y-18265103D02*
X6401253Y-18274627D01*
X6601253Y-18398436D02*
X6610777Y-18407960D01*
X6610777Y-18407960D02*
X6601253Y-18417484D01*
X6601253Y-18417484D02*
X6591729Y-18407960D01*
X6591729Y-18407960D02*
X6601253Y-18398436D01*
X6601253Y-18398436D02*
X6601253Y-18417484D01*
X6734586Y-18217484D02*
X6753634Y-18217484D01*
X6753634Y-18217484D02*
X6772682Y-18227008D01*
X6772682Y-18227008D02*
X6782205Y-18236531D01*
X6782205Y-18236531D02*
X6791729Y-18255579D01*
X6791729Y-18255579D02*
X6801253Y-18293674D01*
X6801253Y-18293674D02*
X6801253Y-18341293D01*
X6801253Y-18341293D02*
X6791729Y-18379389D01*
X6791729Y-18379389D02*
X6782205Y-18398436D01*
X6782205Y-18398436D02*
X6772682Y-18407960D01*
X6772682Y-18407960D02*
X6753634Y-18417484D01*
X6753634Y-18417484D02*
X6734586Y-18417484D01*
X6734586Y-18417484D02*
X6715539Y-18407960D01*
X6715539Y-18407960D02*
X6706015Y-18398436D01*
X6706015Y-18398436D02*
X6696491Y-18379389D01*
X6696491Y-18379389D02*
X6686967Y-18341293D01*
X6686967Y-18341293D02*
X6686967Y-18293674D01*
X6686967Y-18293674D02*
X6696491Y-18255579D01*
X6696491Y-18255579D02*
X6706015Y-18236531D01*
X6706015Y-18236531D02*
X6715539Y-18227008D01*
X6715539Y-18227008D02*
X6734586Y-18217484D01*
X6925062Y-18217484D02*
X6944110Y-18217484D01*
X6944110Y-18217484D02*
X6963158Y-18227008D01*
X6963158Y-18227008D02*
X6972682Y-18236531D01*
X6972682Y-18236531D02*
X6982205Y-18255579D01*
X6982205Y-18255579D02*
X6991729Y-18293674D01*
X6991729Y-18293674D02*
X6991729Y-18341293D01*
X6991729Y-18341293D02*
X6982205Y-18379389D01*
X6982205Y-18379389D02*
X6972682Y-18398436D01*
X6972682Y-18398436D02*
X6963158Y-18407960D01*
X6963158Y-18407960D02*
X6944110Y-18417484D01*
X6944110Y-18417484D02*
X6925062Y-18417484D01*
X6925062Y-18417484D02*
X6906015Y-18407960D01*
X6906015Y-18407960D02*
X6896491Y-18398436D01*
X6896491Y-18398436D02*
X6886967Y-18379389D01*
X6886967Y-18379389D02*
X6877443Y-18341293D01*
X6877443Y-18341293D02*
X6877443Y-18293674D01*
X6877443Y-18293674D02*
X6886967Y-18255579D01*
X6886967Y-18255579D02*
X6896491Y-18236531D01*
X6896491Y-18236531D02*
X6906015Y-18227008D01*
X6906015Y-18227008D02*
X6925062Y-18217484D01*
X7115539Y-18217484D02*
X7134586Y-18217484D01*
X7134586Y-18217484D02*
X7153634Y-18227008D01*
X7153634Y-18227008D02*
X7163158Y-18236531D01*
X7163158Y-18236531D02*
X7172682Y-18255579D01*
X7172682Y-18255579D02*
X7182205Y-18293674D01*
X7182205Y-18293674D02*
X7182205Y-18341293D01*
X7182205Y-18341293D02*
X7172682Y-18379389D01*
X7172682Y-18379389D02*
X7163158Y-18398436D01*
X7163158Y-18398436D02*
X7153634Y-18407960D01*
X7153634Y-18407960D02*
X7134586Y-18417484D01*
X7134586Y-18417484D02*
X7115539Y-18417484D01*
X7115539Y-18417484D02*
X7096491Y-18407960D01*
X7096491Y-18407960D02*
X7086967Y-18398436D01*
X7086967Y-18398436D02*
X7077443Y-18379389D01*
X7077443Y-18379389D02*
X7067920Y-18341293D01*
X7067920Y-18341293D02*
X7067920Y-18293674D01*
X7067920Y-18293674D02*
X7077443Y-18255579D01*
X7077443Y-18255579D02*
X7086967Y-18236531D01*
X7086967Y-18236531D02*
X7096491Y-18227008D01*
X7096491Y-18227008D02*
X7115539Y-18217484D01*
X7267920Y-18417484D02*
X7267920Y-18284150D01*
X7267920Y-18303198D02*
X7277443Y-18293674D01*
X7277443Y-18293674D02*
X7296491Y-18284150D01*
X7296491Y-18284150D02*
X7325063Y-18284150D01*
X7325063Y-18284150D02*
X7344110Y-18293674D01*
X7344110Y-18293674D02*
X7353634Y-18312722D01*
X7353634Y-18312722D02*
X7353634Y-18417484D01*
X7353634Y-18312722D02*
X7363158Y-18293674D01*
X7363158Y-18293674D02*
X7382205Y-18284150D01*
X7382205Y-18284150D02*
X7410777Y-18284150D01*
X7410777Y-18284150D02*
X7429824Y-18293674D01*
X7429824Y-18293674D02*
X7439348Y-18312722D01*
X7439348Y-18312722D02*
X7439348Y-18417484D01*
X7534586Y-18417484D02*
X7534586Y-18284150D01*
X7534586Y-18303198D02*
X7544110Y-18293674D01*
X7544110Y-18293674D02*
X7563158Y-18284150D01*
X7563158Y-18284150D02*
X7591729Y-18284150D01*
X7591729Y-18284150D02*
X7610777Y-18293674D01*
X7610777Y-18293674D02*
X7620301Y-18312722D01*
X7620301Y-18312722D02*
X7620301Y-18417484D01*
X7620301Y-18312722D02*
X7629824Y-18293674D01*
X7629824Y-18293674D02*
X7648872Y-18284150D01*
X7648872Y-18284150D02*
X7677443Y-18284150D01*
X7677443Y-18284150D02*
X7696491Y-18293674D01*
X7696491Y-18293674D02*
X7706015Y-18312722D01*
X7706015Y-18312722D02*
X7706015Y-18417484D01*
X8096491Y-18207960D02*
X7925063Y-18465103D01*
X8353634Y-18217484D02*
X8372682Y-18217484D01*
X8372682Y-18217484D02*
X8391729Y-18227008D01*
X8391729Y-18227008D02*
X8401253Y-18236531D01*
X8401253Y-18236531D02*
X8410777Y-18255579D01*
X8410777Y-18255579D02*
X8420301Y-18293674D01*
X8420301Y-18293674D02*
X8420301Y-18341293D01*
X8420301Y-18341293D02*
X8410777Y-18379389D01*
X8410777Y-18379389D02*
X8401253Y-18398436D01*
X8401253Y-18398436D02*
X8391729Y-18407960D01*
X8391729Y-18407960D02*
X8372682Y-18417484D01*
X8372682Y-18417484D02*
X8353634Y-18417484D01*
X8353634Y-18417484D02*
X8334586Y-18407960D01*
X8334586Y-18407960D02*
X8325063Y-18398436D01*
X8325063Y-18398436D02*
X8315539Y-18379389D01*
X8315539Y-18379389D02*
X8306015Y-18341293D01*
X8306015Y-18341293D02*
X8306015Y-18293674D01*
X8306015Y-18293674D02*
X8315539Y-18255579D01*
X8315539Y-18255579D02*
X8325063Y-18236531D01*
X8325063Y-18236531D02*
X8334586Y-18227008D01*
X8334586Y-18227008D02*
X8353634Y-18217484D01*
X8506015Y-18398436D02*
X8515539Y-18407960D01*
X8515539Y-18407960D02*
X8506015Y-18417484D01*
X8506015Y-18417484D02*
X8496491Y-18407960D01*
X8496491Y-18407960D02*
X8506015Y-18398436D01*
X8506015Y-18398436D02*
X8506015Y-18417484D01*
X8639348Y-18217484D02*
X8658396Y-18217484D01*
X8658396Y-18217484D02*
X8677444Y-18227008D01*
X8677444Y-18227008D02*
X8686968Y-18236531D01*
X8686968Y-18236531D02*
X8696491Y-18255579D01*
X8696491Y-18255579D02*
X8706015Y-18293674D01*
X8706015Y-18293674D02*
X8706015Y-18341293D01*
X8706015Y-18341293D02*
X8696491Y-18379389D01*
X8696491Y-18379389D02*
X8686968Y-18398436D01*
X8686968Y-18398436D02*
X8677444Y-18407960D01*
X8677444Y-18407960D02*
X8658396Y-18417484D01*
X8658396Y-18417484D02*
X8639348Y-18417484D01*
X8639348Y-18417484D02*
X8620301Y-18407960D01*
X8620301Y-18407960D02*
X8610777Y-18398436D01*
X8610777Y-18398436D02*
X8601253Y-18379389D01*
X8601253Y-18379389D02*
X8591729Y-18341293D01*
X8591729Y-18341293D02*
X8591729Y-18293674D01*
X8591729Y-18293674D02*
X8601253Y-18255579D01*
X8601253Y-18255579D02*
X8610777Y-18236531D01*
X8610777Y-18236531D02*
X8620301Y-18227008D01*
X8620301Y-18227008D02*
X8639348Y-18217484D01*
X8772682Y-18217484D02*
X8896491Y-18217484D01*
X8896491Y-18217484D02*
X8829825Y-18293674D01*
X8829825Y-18293674D02*
X8858396Y-18293674D01*
X8858396Y-18293674D02*
X8877444Y-18303198D01*
X8877444Y-18303198D02*
X8886968Y-18312722D01*
X8886968Y-18312722D02*
X8896491Y-18331770D01*
X8896491Y-18331770D02*
X8896491Y-18379389D01*
X8896491Y-18379389D02*
X8886968Y-18398436D01*
X8886968Y-18398436D02*
X8877444Y-18407960D01*
X8877444Y-18407960D02*
X8858396Y-18417484D01*
X8858396Y-18417484D02*
X8801253Y-18417484D01*
X8801253Y-18417484D02*
X8782206Y-18407960D01*
X8782206Y-18407960D02*
X8772682Y-18398436D01*
X8991729Y-18417484D02*
X9029825Y-18417484D01*
X9029825Y-18417484D02*
X9048872Y-18407960D01*
X9048872Y-18407960D02*
X9058396Y-18398436D01*
X9058396Y-18398436D02*
X9077444Y-18369865D01*
X9077444Y-18369865D02*
X9086968Y-18331770D01*
X9086968Y-18331770D02*
X9086968Y-18255579D01*
X9086968Y-18255579D02*
X9077444Y-18236531D01*
X9077444Y-18236531D02*
X9067920Y-18227008D01*
X9067920Y-18227008D02*
X9048872Y-18217484D01*
X9048872Y-18217484D02*
X9010777Y-18217484D01*
X9010777Y-18217484D02*
X8991729Y-18227008D01*
X8991729Y-18227008D02*
X8982206Y-18236531D01*
X8982206Y-18236531D02*
X8972682Y-18255579D01*
X8972682Y-18255579D02*
X8972682Y-18303198D01*
X8972682Y-18303198D02*
X8982206Y-18322246D01*
X8982206Y-18322246D02*
X8991729Y-18331770D01*
X8991729Y-18331770D02*
X9010777Y-18341293D01*
X9010777Y-18341293D02*
X9048872Y-18341293D01*
X9048872Y-18341293D02*
X9067920Y-18331770D01*
X9067920Y-18331770D02*
X9077444Y-18322246D01*
X9077444Y-18322246D02*
X9086968Y-18303198D01*
X9258396Y-18284150D02*
X9258396Y-18417484D01*
X9210777Y-18207960D02*
X9163158Y-18350817D01*
X9163158Y-18350817D02*
X9286968Y-18350817D01*
X9353634Y-18217484D02*
X9353634Y-18255579D01*
X9429825Y-18217484D02*
X9429825Y-18255579D01*
X9725063Y-18493674D02*
X9715539Y-18484150D01*
X9715539Y-18484150D02*
X9696491Y-18455579D01*
X9696491Y-18455579D02*
X9686968Y-18436531D01*
X9686968Y-18436531D02*
X9677444Y-18407960D01*
X9677444Y-18407960D02*
X9667920Y-18360341D01*
X9667920Y-18360341D02*
X9667920Y-18322246D01*
X9667920Y-18322246D02*
X9677444Y-18274627D01*
X9677444Y-18274627D02*
X9686968Y-18246055D01*
X9686968Y-18246055D02*
X9696491Y-18227008D01*
X9696491Y-18227008D02*
X9715539Y-18198436D01*
X9715539Y-18198436D02*
X9725063Y-18188912D01*
X9791730Y-18236531D02*
X9801253Y-18227008D01*
X9801253Y-18227008D02*
X9820301Y-18217484D01*
X9820301Y-18217484D02*
X9867920Y-18217484D01*
X9867920Y-18217484D02*
X9886968Y-18227008D01*
X9886968Y-18227008D02*
X9896491Y-18236531D01*
X9896491Y-18236531D02*
X9906015Y-18255579D01*
X9906015Y-18255579D02*
X9906015Y-18274627D01*
X9906015Y-18274627D02*
X9896491Y-18303198D01*
X9896491Y-18303198D02*
X9782206Y-18417484D01*
X9782206Y-18417484D02*
X9906015Y-18417484D01*
X9982206Y-18236531D02*
X9991730Y-18227008D01*
X9991730Y-18227008D02*
X10010777Y-18217484D01*
X10010777Y-18217484D02*
X10058396Y-18217484D01*
X10058396Y-18217484D02*
X10077444Y-18227008D01*
X10077444Y-18227008D02*
X10086968Y-18236531D01*
X10086968Y-18236531D02*
X10096491Y-18255579D01*
X10096491Y-18255579D02*
X10096491Y-18274627D01*
X10096491Y-18274627D02*
X10086968Y-18303198D01*
X10086968Y-18303198D02*
X9972682Y-18417484D01*
X9972682Y-18417484D02*
X10096491Y-18417484D01*
X10334587Y-18417484D02*
X10334587Y-18217484D01*
X10420301Y-18417484D02*
X10420301Y-18312722D01*
X10420301Y-18312722D02*
X10410777Y-18293674D01*
X10410777Y-18293674D02*
X10391730Y-18284150D01*
X10391730Y-18284150D02*
X10363158Y-18284150D01*
X10363158Y-18284150D02*
X10344111Y-18293674D01*
X10344111Y-18293674D02*
X10334587Y-18303198D01*
X10544111Y-18417484D02*
X10525063Y-18407960D01*
X10525063Y-18407960D02*
X10515539Y-18398436D01*
X10515539Y-18398436D02*
X10506015Y-18379389D01*
X10506015Y-18379389D02*
X10506015Y-18322246D01*
X10506015Y-18322246D02*
X10515539Y-18303198D01*
X10515539Y-18303198D02*
X10525063Y-18293674D01*
X10525063Y-18293674D02*
X10544111Y-18284150D01*
X10544111Y-18284150D02*
X10572682Y-18284150D01*
X10572682Y-18284150D02*
X10591730Y-18293674D01*
X10591730Y-18293674D02*
X10601253Y-18303198D01*
X10601253Y-18303198D02*
X10610777Y-18322246D01*
X10610777Y-18322246D02*
X10610777Y-18379389D01*
X10610777Y-18379389D02*
X10601253Y-18398436D01*
X10601253Y-18398436D02*
X10591730Y-18407960D01*
X10591730Y-18407960D02*
X10572682Y-18417484D01*
X10572682Y-18417484D02*
X10544111Y-18417484D01*
X10725063Y-18417484D02*
X10706015Y-18407960D01*
X10706015Y-18407960D02*
X10696492Y-18388912D01*
X10696492Y-18388912D02*
X10696492Y-18217484D01*
X10877444Y-18407960D02*
X10858396Y-18417484D01*
X10858396Y-18417484D02*
X10820301Y-18417484D01*
X10820301Y-18417484D02*
X10801253Y-18407960D01*
X10801253Y-18407960D02*
X10791730Y-18388912D01*
X10791730Y-18388912D02*
X10791730Y-18312722D01*
X10791730Y-18312722D02*
X10801253Y-18293674D01*
X10801253Y-18293674D02*
X10820301Y-18284150D01*
X10820301Y-18284150D02*
X10858396Y-18284150D01*
X10858396Y-18284150D02*
X10877444Y-18293674D01*
X10877444Y-18293674D02*
X10886968Y-18312722D01*
X10886968Y-18312722D02*
X10886968Y-18331770D01*
X10886968Y-18331770D02*
X10791730Y-18350817D01*
X10963158Y-18407960D02*
X10982206Y-18417484D01*
X10982206Y-18417484D02*
X11020301Y-18417484D01*
X11020301Y-18417484D02*
X11039349Y-18407960D01*
X11039349Y-18407960D02*
X11048873Y-18388912D01*
X11048873Y-18388912D02*
X11048873Y-18379389D01*
X11048873Y-18379389D02*
X11039349Y-18360341D01*
X11039349Y-18360341D02*
X11020301Y-18350817D01*
X11020301Y-18350817D02*
X10991730Y-18350817D01*
X10991730Y-18350817D02*
X10972682Y-18341293D01*
X10972682Y-18341293D02*
X10963158Y-18322246D01*
X10963158Y-18322246D02*
X10963158Y-18312722D01*
X10963158Y-18312722D02*
X10972682Y-18293674D01*
X10972682Y-18293674D02*
X10991730Y-18284150D01*
X10991730Y-18284150D02*
X11020301Y-18284150D01*
X11020301Y-18284150D02*
X11039349Y-18293674D01*
X11115539Y-18493674D02*
X11125063Y-18484150D01*
X11125063Y-18484150D02*
X11144111Y-18455579D01*
X11144111Y-18455579D02*
X11153634Y-18436531D01*
X11153634Y-18436531D02*
X11163158Y-18407960D01*
X11163158Y-18407960D02*
X11172682Y-18360341D01*
X11172682Y-18360341D02*
X11172682Y-18322246D01*
X11172682Y-18322246D02*
X11163158Y-18274627D01*
X11163158Y-18274627D02*
X11153634Y-18246055D01*
X11153634Y-18246055D02*
X11144111Y-18227008D01*
X11144111Y-18227008D02*
X11125063Y-18198436D01*
X11125063Y-18198436D02*
X11115539Y-18188912D01*
D12*
X6040000Y-18535000D02*
X6150000Y-18645000D01*
X6150000Y-18535000D02*
X6040000Y-18645000D01*
X6150000Y-18590000D02*
G75*
G02*
X6040000Y-18590000I-55000J0D01*
G01*
X6040000Y-18590000D02*
G75*
G02*
X6150000Y-18590000I55000J0D01*
G01*
D10*
X6515539Y-18681484D02*
X6401253Y-18681484D01*
X6458396Y-18681484D02*
X6458396Y-18481484D01*
X6458396Y-18481484D02*
X6439348Y-18510055D01*
X6439348Y-18510055D02*
X6420301Y-18529103D01*
X6420301Y-18529103D02*
X6401253Y-18538627D01*
X6601253Y-18662436D02*
X6610777Y-18671960D01*
X6610777Y-18671960D02*
X6601253Y-18681484D01*
X6601253Y-18681484D02*
X6591729Y-18671960D01*
X6591729Y-18671960D02*
X6601253Y-18662436D01*
X6601253Y-18662436D02*
X6601253Y-18681484D01*
X6801253Y-18681484D02*
X6686967Y-18681484D01*
X6744110Y-18681484D02*
X6744110Y-18481484D01*
X6744110Y-18481484D02*
X6725062Y-18510055D01*
X6725062Y-18510055D02*
X6706015Y-18529103D01*
X6706015Y-18529103D02*
X6686967Y-18538627D01*
X6925062Y-18481484D02*
X6944110Y-18481484D01*
X6944110Y-18481484D02*
X6963158Y-18491008D01*
X6963158Y-18491008D02*
X6972682Y-18500531D01*
X6972682Y-18500531D02*
X6982205Y-18519579D01*
X6982205Y-18519579D02*
X6991729Y-18557674D01*
X6991729Y-18557674D02*
X6991729Y-18605293D01*
X6991729Y-18605293D02*
X6982205Y-18643389D01*
X6982205Y-18643389D02*
X6972682Y-18662436D01*
X6972682Y-18662436D02*
X6963158Y-18671960D01*
X6963158Y-18671960D02*
X6944110Y-18681484D01*
X6944110Y-18681484D02*
X6925062Y-18681484D01*
X6925062Y-18681484D02*
X6906015Y-18671960D01*
X6906015Y-18671960D02*
X6896491Y-18662436D01*
X6896491Y-18662436D02*
X6886967Y-18643389D01*
X6886967Y-18643389D02*
X6877443Y-18605293D01*
X6877443Y-18605293D02*
X6877443Y-18557674D01*
X6877443Y-18557674D02*
X6886967Y-18519579D01*
X6886967Y-18519579D02*
X6896491Y-18500531D01*
X6896491Y-18500531D02*
X6906015Y-18491008D01*
X6906015Y-18491008D02*
X6925062Y-18481484D01*
X7115539Y-18481484D02*
X7134586Y-18481484D01*
X7134586Y-18481484D02*
X7153634Y-18491008D01*
X7153634Y-18491008D02*
X7163158Y-18500531D01*
X7163158Y-18500531D02*
X7172682Y-18519579D01*
X7172682Y-18519579D02*
X7182205Y-18557674D01*
X7182205Y-18557674D02*
X7182205Y-18605293D01*
X7182205Y-18605293D02*
X7172682Y-18643389D01*
X7172682Y-18643389D02*
X7163158Y-18662436D01*
X7163158Y-18662436D02*
X7153634Y-18671960D01*
X7153634Y-18671960D02*
X7134586Y-18681484D01*
X7134586Y-18681484D02*
X7115539Y-18681484D01*
X7115539Y-18681484D02*
X7096491Y-18671960D01*
X7096491Y-18671960D02*
X7086967Y-18662436D01*
X7086967Y-18662436D02*
X7077443Y-18643389D01*
X7077443Y-18643389D02*
X7067920Y-18605293D01*
X7067920Y-18605293D02*
X7067920Y-18557674D01*
X7067920Y-18557674D02*
X7077443Y-18519579D01*
X7077443Y-18519579D02*
X7086967Y-18500531D01*
X7086967Y-18500531D02*
X7096491Y-18491008D01*
X7096491Y-18491008D02*
X7115539Y-18481484D01*
X7267920Y-18681484D02*
X7267920Y-18548150D01*
X7267920Y-18567198D02*
X7277443Y-18557674D01*
X7277443Y-18557674D02*
X7296491Y-18548150D01*
X7296491Y-18548150D02*
X7325063Y-18548150D01*
X7325063Y-18548150D02*
X7344110Y-18557674D01*
X7344110Y-18557674D02*
X7353634Y-18576722D01*
X7353634Y-18576722D02*
X7353634Y-18681484D01*
X7353634Y-18576722D02*
X7363158Y-18557674D01*
X7363158Y-18557674D02*
X7382205Y-18548150D01*
X7382205Y-18548150D02*
X7410777Y-18548150D01*
X7410777Y-18548150D02*
X7429824Y-18557674D01*
X7429824Y-18557674D02*
X7439348Y-18576722D01*
X7439348Y-18576722D02*
X7439348Y-18681484D01*
X7534586Y-18681484D02*
X7534586Y-18548150D01*
X7534586Y-18567198D02*
X7544110Y-18557674D01*
X7544110Y-18557674D02*
X7563158Y-18548150D01*
X7563158Y-18548150D02*
X7591729Y-18548150D01*
X7591729Y-18548150D02*
X7610777Y-18557674D01*
X7610777Y-18557674D02*
X7620301Y-18576722D01*
X7620301Y-18576722D02*
X7620301Y-18681484D01*
X7620301Y-18576722D02*
X7629824Y-18557674D01*
X7629824Y-18557674D02*
X7648872Y-18548150D01*
X7648872Y-18548150D02*
X7677443Y-18548150D01*
X7677443Y-18548150D02*
X7696491Y-18557674D01*
X7696491Y-18557674D02*
X7706015Y-18576722D01*
X7706015Y-18576722D02*
X7706015Y-18681484D01*
X8096491Y-18471960D02*
X7925063Y-18729103D01*
X8353634Y-18481484D02*
X8372682Y-18481484D01*
X8372682Y-18481484D02*
X8391729Y-18491008D01*
X8391729Y-18491008D02*
X8401253Y-18500531D01*
X8401253Y-18500531D02*
X8410777Y-18519579D01*
X8410777Y-18519579D02*
X8420301Y-18557674D01*
X8420301Y-18557674D02*
X8420301Y-18605293D01*
X8420301Y-18605293D02*
X8410777Y-18643389D01*
X8410777Y-18643389D02*
X8401253Y-18662436D01*
X8401253Y-18662436D02*
X8391729Y-18671960D01*
X8391729Y-18671960D02*
X8372682Y-18681484D01*
X8372682Y-18681484D02*
X8353634Y-18681484D01*
X8353634Y-18681484D02*
X8334586Y-18671960D01*
X8334586Y-18671960D02*
X8325063Y-18662436D01*
X8325063Y-18662436D02*
X8315539Y-18643389D01*
X8315539Y-18643389D02*
X8306015Y-18605293D01*
X8306015Y-18605293D02*
X8306015Y-18557674D01*
X8306015Y-18557674D02*
X8315539Y-18519579D01*
X8315539Y-18519579D02*
X8325063Y-18500531D01*
X8325063Y-18500531D02*
X8334586Y-18491008D01*
X8334586Y-18491008D02*
X8353634Y-18481484D01*
X8506015Y-18662436D02*
X8515539Y-18671960D01*
X8515539Y-18671960D02*
X8506015Y-18681484D01*
X8506015Y-18681484D02*
X8496491Y-18671960D01*
X8496491Y-18671960D02*
X8506015Y-18662436D01*
X8506015Y-18662436D02*
X8506015Y-18681484D01*
X8639348Y-18481484D02*
X8658396Y-18481484D01*
X8658396Y-18481484D02*
X8677444Y-18491008D01*
X8677444Y-18491008D02*
X8686968Y-18500531D01*
X8686968Y-18500531D02*
X8696491Y-18519579D01*
X8696491Y-18519579D02*
X8706015Y-18557674D01*
X8706015Y-18557674D02*
X8706015Y-18605293D01*
X8706015Y-18605293D02*
X8696491Y-18643389D01*
X8696491Y-18643389D02*
X8686968Y-18662436D01*
X8686968Y-18662436D02*
X8677444Y-18671960D01*
X8677444Y-18671960D02*
X8658396Y-18681484D01*
X8658396Y-18681484D02*
X8639348Y-18681484D01*
X8639348Y-18681484D02*
X8620301Y-18671960D01*
X8620301Y-18671960D02*
X8610777Y-18662436D01*
X8610777Y-18662436D02*
X8601253Y-18643389D01*
X8601253Y-18643389D02*
X8591729Y-18605293D01*
X8591729Y-18605293D02*
X8591729Y-18557674D01*
X8591729Y-18557674D02*
X8601253Y-18519579D01*
X8601253Y-18519579D02*
X8610777Y-18500531D01*
X8610777Y-18500531D02*
X8620301Y-18491008D01*
X8620301Y-18491008D02*
X8639348Y-18481484D01*
X8877444Y-18548150D02*
X8877444Y-18681484D01*
X8829825Y-18471960D02*
X8782206Y-18614817D01*
X8782206Y-18614817D02*
X8906015Y-18614817D01*
X8963158Y-18481484D02*
X9086968Y-18481484D01*
X9086968Y-18481484D02*
X9020301Y-18557674D01*
X9020301Y-18557674D02*
X9048872Y-18557674D01*
X9048872Y-18557674D02*
X9067920Y-18567198D01*
X9067920Y-18567198D02*
X9077444Y-18576722D01*
X9077444Y-18576722D02*
X9086968Y-18595770D01*
X9086968Y-18595770D02*
X9086968Y-18643389D01*
X9086968Y-18643389D02*
X9077444Y-18662436D01*
X9077444Y-18662436D02*
X9067920Y-18671960D01*
X9067920Y-18671960D02*
X9048872Y-18681484D01*
X9048872Y-18681484D02*
X8991729Y-18681484D01*
X8991729Y-18681484D02*
X8972682Y-18671960D01*
X8972682Y-18671960D02*
X8963158Y-18662436D01*
X9153634Y-18481484D02*
X9277444Y-18481484D01*
X9277444Y-18481484D02*
X9210777Y-18557674D01*
X9210777Y-18557674D02*
X9239349Y-18557674D01*
X9239349Y-18557674D02*
X9258396Y-18567198D01*
X9258396Y-18567198D02*
X9267920Y-18576722D01*
X9267920Y-18576722D02*
X9277444Y-18595770D01*
X9277444Y-18595770D02*
X9277444Y-18643389D01*
X9277444Y-18643389D02*
X9267920Y-18662436D01*
X9267920Y-18662436D02*
X9258396Y-18671960D01*
X9258396Y-18671960D02*
X9239349Y-18681484D01*
X9239349Y-18681484D02*
X9182206Y-18681484D01*
X9182206Y-18681484D02*
X9163158Y-18671960D01*
X9163158Y-18671960D02*
X9153634Y-18662436D01*
X9353634Y-18481484D02*
X9353634Y-18519579D01*
X9429825Y-18481484D02*
X9429825Y-18519579D01*
X9725063Y-18757674D02*
X9715539Y-18748150D01*
X9715539Y-18748150D02*
X9696491Y-18719579D01*
X9696491Y-18719579D02*
X9686968Y-18700531D01*
X9686968Y-18700531D02*
X9677444Y-18671960D01*
X9677444Y-18671960D02*
X9667920Y-18624341D01*
X9667920Y-18624341D02*
X9667920Y-18586246D01*
X9667920Y-18586246D02*
X9677444Y-18538627D01*
X9677444Y-18538627D02*
X9686968Y-18510055D01*
X9686968Y-18510055D02*
X9696491Y-18491008D01*
X9696491Y-18491008D02*
X9715539Y-18462436D01*
X9715539Y-18462436D02*
X9725063Y-18452912D01*
X9829825Y-18567198D02*
X9810777Y-18557674D01*
X9810777Y-18557674D02*
X9801253Y-18548150D01*
X9801253Y-18548150D02*
X9791730Y-18529103D01*
X9791730Y-18529103D02*
X9791730Y-18519579D01*
X9791730Y-18519579D02*
X9801253Y-18500531D01*
X9801253Y-18500531D02*
X9810777Y-18491008D01*
X9810777Y-18491008D02*
X9829825Y-18481484D01*
X9829825Y-18481484D02*
X9867920Y-18481484D01*
X9867920Y-18481484D02*
X9886968Y-18491008D01*
X9886968Y-18491008D02*
X9896491Y-18500531D01*
X9896491Y-18500531D02*
X9906015Y-18519579D01*
X9906015Y-18519579D02*
X9906015Y-18529103D01*
X9906015Y-18529103D02*
X9896491Y-18548150D01*
X9896491Y-18548150D02*
X9886968Y-18557674D01*
X9886968Y-18557674D02*
X9867920Y-18567198D01*
X9867920Y-18567198D02*
X9829825Y-18567198D01*
X9829825Y-18567198D02*
X9810777Y-18576722D01*
X9810777Y-18576722D02*
X9801253Y-18586246D01*
X9801253Y-18586246D02*
X9791730Y-18605293D01*
X9791730Y-18605293D02*
X9791730Y-18643389D01*
X9791730Y-18643389D02*
X9801253Y-18662436D01*
X9801253Y-18662436D02*
X9810777Y-18671960D01*
X9810777Y-18671960D02*
X9829825Y-18681484D01*
X9829825Y-18681484D02*
X9867920Y-18681484D01*
X9867920Y-18681484D02*
X9886968Y-18671960D01*
X9886968Y-18671960D02*
X9896491Y-18662436D01*
X9896491Y-18662436D02*
X9906015Y-18643389D01*
X9906015Y-18643389D02*
X9906015Y-18605293D01*
X9906015Y-18605293D02*
X9896491Y-18586246D01*
X9896491Y-18586246D02*
X9886968Y-18576722D01*
X9886968Y-18576722D02*
X9867920Y-18567198D01*
X10144111Y-18681484D02*
X10144111Y-18481484D01*
X10229825Y-18681484D02*
X10229825Y-18576722D01*
X10229825Y-18576722D02*
X10220301Y-18557674D01*
X10220301Y-18557674D02*
X10201253Y-18548150D01*
X10201253Y-18548150D02*
X10172682Y-18548150D01*
X10172682Y-18548150D02*
X10153634Y-18557674D01*
X10153634Y-18557674D02*
X10144111Y-18567198D01*
X10353634Y-18681484D02*
X10334587Y-18671960D01*
X10334587Y-18671960D02*
X10325063Y-18662436D01*
X10325063Y-18662436D02*
X10315539Y-18643389D01*
X10315539Y-18643389D02*
X10315539Y-18586246D01*
X10315539Y-18586246D02*
X10325063Y-18567198D01*
X10325063Y-18567198D02*
X10334587Y-18557674D01*
X10334587Y-18557674D02*
X10353634Y-18548150D01*
X10353634Y-18548150D02*
X10382206Y-18548150D01*
X10382206Y-18548150D02*
X10401253Y-18557674D01*
X10401253Y-18557674D02*
X10410777Y-18567198D01*
X10410777Y-18567198D02*
X10420301Y-18586246D01*
X10420301Y-18586246D02*
X10420301Y-18643389D01*
X10420301Y-18643389D02*
X10410777Y-18662436D01*
X10410777Y-18662436D02*
X10401253Y-18671960D01*
X10401253Y-18671960D02*
X10382206Y-18681484D01*
X10382206Y-18681484D02*
X10353634Y-18681484D01*
X10534587Y-18681484D02*
X10515539Y-18671960D01*
X10515539Y-18671960D02*
X10506015Y-18652912D01*
X10506015Y-18652912D02*
X10506015Y-18481484D01*
X10686968Y-18671960D02*
X10667920Y-18681484D01*
X10667920Y-18681484D02*
X10629825Y-18681484D01*
X10629825Y-18681484D02*
X10610777Y-18671960D01*
X10610777Y-18671960D02*
X10601253Y-18652912D01*
X10601253Y-18652912D02*
X10601253Y-18576722D01*
X10601253Y-18576722D02*
X10610777Y-18557674D01*
X10610777Y-18557674D02*
X10629825Y-18548150D01*
X10629825Y-18548150D02*
X10667920Y-18548150D01*
X10667920Y-18548150D02*
X10686968Y-18557674D01*
X10686968Y-18557674D02*
X10696492Y-18576722D01*
X10696492Y-18576722D02*
X10696492Y-18595770D01*
X10696492Y-18595770D02*
X10601253Y-18614817D01*
X10772682Y-18671960D02*
X10791730Y-18681484D01*
X10791730Y-18681484D02*
X10829825Y-18681484D01*
X10829825Y-18681484D02*
X10848873Y-18671960D01*
X10848873Y-18671960D02*
X10858396Y-18652912D01*
X10858396Y-18652912D02*
X10858396Y-18643389D01*
X10858396Y-18643389D02*
X10848873Y-18624341D01*
X10848873Y-18624341D02*
X10829825Y-18614817D01*
X10829825Y-18614817D02*
X10801253Y-18614817D01*
X10801253Y-18614817D02*
X10782206Y-18605293D01*
X10782206Y-18605293D02*
X10772682Y-18586246D01*
X10772682Y-18586246D02*
X10772682Y-18576722D01*
X10772682Y-18576722D02*
X10782206Y-18557674D01*
X10782206Y-18557674D02*
X10801253Y-18548150D01*
X10801253Y-18548150D02*
X10829825Y-18548150D01*
X10829825Y-18548150D02*
X10848873Y-18557674D01*
X10925063Y-18757674D02*
X10934587Y-18748150D01*
X10934587Y-18748150D02*
X10953634Y-18719579D01*
X10953634Y-18719579D02*
X10963158Y-18700531D01*
X10963158Y-18700531D02*
X10972682Y-18671960D01*
X10972682Y-18671960D02*
X10982206Y-18624341D01*
X10982206Y-18624341D02*
X10982206Y-18586246D01*
X10982206Y-18586246D02*
X10972682Y-18538627D01*
X10972682Y-18538627D02*
X10963158Y-18510055D01*
X10963158Y-18510055D02*
X10953634Y-18491008D01*
X10953634Y-18491008D02*
X10934587Y-18462436D01*
X10934587Y-18462436D02*
X10925063Y-18452912D01*
D13*
X6030000Y-18794000D02*
X6150000Y-18914000D01*
X6150000Y-18794000D02*
X6030000Y-18914000D01*
X6090000Y-18794000D02*
X6090000Y-18914000D01*
X6030000Y-18854000D02*
X6150000Y-18854000D01*
D10*
X6515539Y-18945484D02*
X6401253Y-18945484D01*
X6458396Y-18945484D02*
X6458396Y-18745484D01*
X6458396Y-18745484D02*
X6439348Y-18774055D01*
X6439348Y-18774055D02*
X6420301Y-18793103D01*
X6420301Y-18793103D02*
X6401253Y-18802627D01*
X6601253Y-18926436D02*
X6610777Y-18935960D01*
X6610777Y-18935960D02*
X6601253Y-18945484D01*
X6601253Y-18945484D02*
X6591729Y-18935960D01*
X6591729Y-18935960D02*
X6601253Y-18926436D01*
X6601253Y-18926436D02*
X6601253Y-18945484D01*
X6686967Y-18764531D02*
X6696491Y-18755008D01*
X6696491Y-18755008D02*
X6715539Y-18745484D01*
X6715539Y-18745484D02*
X6763158Y-18745484D01*
X6763158Y-18745484D02*
X6782205Y-18755008D01*
X6782205Y-18755008D02*
X6791729Y-18764531D01*
X6791729Y-18764531D02*
X6801253Y-18783579D01*
X6801253Y-18783579D02*
X6801253Y-18802627D01*
X6801253Y-18802627D02*
X6791729Y-18831198D01*
X6791729Y-18831198D02*
X6677443Y-18945484D01*
X6677443Y-18945484D02*
X6801253Y-18945484D01*
X6925062Y-18745484D02*
X6944110Y-18745484D01*
X6944110Y-18745484D02*
X6963158Y-18755008D01*
X6963158Y-18755008D02*
X6972682Y-18764531D01*
X6972682Y-18764531D02*
X6982205Y-18783579D01*
X6982205Y-18783579D02*
X6991729Y-18821674D01*
X6991729Y-18821674D02*
X6991729Y-18869293D01*
X6991729Y-18869293D02*
X6982205Y-18907389D01*
X6982205Y-18907389D02*
X6972682Y-18926436D01*
X6972682Y-18926436D02*
X6963158Y-18935960D01*
X6963158Y-18935960D02*
X6944110Y-18945484D01*
X6944110Y-18945484D02*
X6925062Y-18945484D01*
X6925062Y-18945484D02*
X6906015Y-18935960D01*
X6906015Y-18935960D02*
X6896491Y-18926436D01*
X6896491Y-18926436D02*
X6886967Y-18907389D01*
X6886967Y-18907389D02*
X6877443Y-18869293D01*
X6877443Y-18869293D02*
X6877443Y-18821674D01*
X6877443Y-18821674D02*
X6886967Y-18783579D01*
X6886967Y-18783579D02*
X6896491Y-18764531D01*
X6896491Y-18764531D02*
X6906015Y-18755008D01*
X6906015Y-18755008D02*
X6925062Y-18745484D01*
X7115539Y-18745484D02*
X7134586Y-18745484D01*
X7134586Y-18745484D02*
X7153634Y-18755008D01*
X7153634Y-18755008D02*
X7163158Y-18764531D01*
X7163158Y-18764531D02*
X7172682Y-18783579D01*
X7172682Y-18783579D02*
X7182205Y-18821674D01*
X7182205Y-18821674D02*
X7182205Y-18869293D01*
X7182205Y-18869293D02*
X7172682Y-18907389D01*
X7172682Y-18907389D02*
X7163158Y-18926436D01*
X7163158Y-18926436D02*
X7153634Y-18935960D01*
X7153634Y-18935960D02*
X7134586Y-18945484D01*
X7134586Y-18945484D02*
X7115539Y-18945484D01*
X7115539Y-18945484D02*
X7096491Y-18935960D01*
X7096491Y-18935960D02*
X7086967Y-18926436D01*
X7086967Y-18926436D02*
X7077443Y-18907389D01*
X7077443Y-18907389D02*
X7067920Y-18869293D01*
X7067920Y-18869293D02*
X7067920Y-18821674D01*
X7067920Y-18821674D02*
X7077443Y-18783579D01*
X7077443Y-18783579D02*
X7086967Y-18764531D01*
X7086967Y-18764531D02*
X7096491Y-18755008D01*
X7096491Y-18755008D02*
X7115539Y-18745484D01*
X7267920Y-18945484D02*
X7267920Y-18812150D01*
X7267920Y-18831198D02*
X7277443Y-18821674D01*
X7277443Y-18821674D02*
X7296491Y-18812150D01*
X7296491Y-18812150D02*
X7325063Y-18812150D01*
X7325063Y-18812150D02*
X7344110Y-18821674D01*
X7344110Y-18821674D02*
X7353634Y-18840722D01*
X7353634Y-18840722D02*
X7353634Y-18945484D01*
X7353634Y-18840722D02*
X7363158Y-18821674D01*
X7363158Y-18821674D02*
X7382205Y-18812150D01*
X7382205Y-18812150D02*
X7410777Y-18812150D01*
X7410777Y-18812150D02*
X7429824Y-18821674D01*
X7429824Y-18821674D02*
X7439348Y-18840722D01*
X7439348Y-18840722D02*
X7439348Y-18945484D01*
X7534586Y-18945484D02*
X7534586Y-18812150D01*
X7534586Y-18831198D02*
X7544110Y-18821674D01*
X7544110Y-18821674D02*
X7563158Y-18812150D01*
X7563158Y-18812150D02*
X7591729Y-18812150D01*
X7591729Y-18812150D02*
X7610777Y-18821674D01*
X7610777Y-18821674D02*
X7620301Y-18840722D01*
X7620301Y-18840722D02*
X7620301Y-18945484D01*
X7620301Y-18840722D02*
X7629824Y-18821674D01*
X7629824Y-18821674D02*
X7648872Y-18812150D01*
X7648872Y-18812150D02*
X7677443Y-18812150D01*
X7677443Y-18812150D02*
X7696491Y-18821674D01*
X7696491Y-18821674D02*
X7706015Y-18840722D01*
X7706015Y-18840722D02*
X7706015Y-18945484D01*
X8096491Y-18735960D02*
X7925063Y-18993103D01*
X8353634Y-18745484D02*
X8372682Y-18745484D01*
X8372682Y-18745484D02*
X8391729Y-18755008D01*
X8391729Y-18755008D02*
X8401253Y-18764531D01*
X8401253Y-18764531D02*
X8410777Y-18783579D01*
X8410777Y-18783579D02*
X8420301Y-18821674D01*
X8420301Y-18821674D02*
X8420301Y-18869293D01*
X8420301Y-18869293D02*
X8410777Y-18907389D01*
X8410777Y-18907389D02*
X8401253Y-18926436D01*
X8401253Y-18926436D02*
X8391729Y-18935960D01*
X8391729Y-18935960D02*
X8372682Y-18945484D01*
X8372682Y-18945484D02*
X8353634Y-18945484D01*
X8353634Y-18945484D02*
X8334586Y-18935960D01*
X8334586Y-18935960D02*
X8325063Y-18926436D01*
X8325063Y-18926436D02*
X8315539Y-18907389D01*
X8315539Y-18907389D02*
X8306015Y-18869293D01*
X8306015Y-18869293D02*
X8306015Y-18821674D01*
X8306015Y-18821674D02*
X8315539Y-18783579D01*
X8315539Y-18783579D02*
X8325063Y-18764531D01*
X8325063Y-18764531D02*
X8334586Y-18755008D01*
X8334586Y-18755008D02*
X8353634Y-18745484D01*
X8506015Y-18926436D02*
X8515539Y-18935960D01*
X8515539Y-18935960D02*
X8506015Y-18945484D01*
X8506015Y-18945484D02*
X8496491Y-18935960D01*
X8496491Y-18935960D02*
X8506015Y-18926436D01*
X8506015Y-18926436D02*
X8506015Y-18945484D01*
X8639348Y-18745484D02*
X8658396Y-18745484D01*
X8658396Y-18745484D02*
X8677444Y-18755008D01*
X8677444Y-18755008D02*
X8686968Y-18764531D01*
X8686968Y-18764531D02*
X8696491Y-18783579D01*
X8696491Y-18783579D02*
X8706015Y-18821674D01*
X8706015Y-18821674D02*
X8706015Y-18869293D01*
X8706015Y-18869293D02*
X8696491Y-18907389D01*
X8696491Y-18907389D02*
X8686968Y-18926436D01*
X8686968Y-18926436D02*
X8677444Y-18935960D01*
X8677444Y-18935960D02*
X8658396Y-18945484D01*
X8658396Y-18945484D02*
X8639348Y-18945484D01*
X8639348Y-18945484D02*
X8620301Y-18935960D01*
X8620301Y-18935960D02*
X8610777Y-18926436D01*
X8610777Y-18926436D02*
X8601253Y-18907389D01*
X8601253Y-18907389D02*
X8591729Y-18869293D01*
X8591729Y-18869293D02*
X8591729Y-18821674D01*
X8591729Y-18821674D02*
X8601253Y-18783579D01*
X8601253Y-18783579D02*
X8610777Y-18764531D01*
X8610777Y-18764531D02*
X8620301Y-18755008D01*
X8620301Y-18755008D02*
X8639348Y-18745484D01*
X8877444Y-18812150D02*
X8877444Y-18945484D01*
X8829825Y-18735960D02*
X8782206Y-18878817D01*
X8782206Y-18878817D02*
X8906015Y-18878817D01*
X8963158Y-18745484D02*
X9096491Y-18745484D01*
X9096491Y-18745484D02*
X9010777Y-18945484D01*
X9163158Y-18764531D02*
X9172682Y-18755008D01*
X9172682Y-18755008D02*
X9191729Y-18745484D01*
X9191729Y-18745484D02*
X9239349Y-18745484D01*
X9239349Y-18745484D02*
X9258396Y-18755008D01*
X9258396Y-18755008D02*
X9267920Y-18764531D01*
X9267920Y-18764531D02*
X9277444Y-18783579D01*
X9277444Y-18783579D02*
X9277444Y-18802627D01*
X9277444Y-18802627D02*
X9267920Y-18831198D01*
X9267920Y-18831198D02*
X9153634Y-18945484D01*
X9153634Y-18945484D02*
X9277444Y-18945484D01*
X9353634Y-18745484D02*
X9353634Y-18783579D01*
X9429825Y-18745484D02*
X9429825Y-18783579D01*
X9725063Y-19021674D02*
X9715539Y-19012150D01*
X9715539Y-19012150D02*
X9696491Y-18983579D01*
X9696491Y-18983579D02*
X9686968Y-18964531D01*
X9686968Y-18964531D02*
X9677444Y-18935960D01*
X9677444Y-18935960D02*
X9667920Y-18888341D01*
X9667920Y-18888341D02*
X9667920Y-18850246D01*
X9667920Y-18850246D02*
X9677444Y-18802627D01*
X9677444Y-18802627D02*
X9686968Y-18774055D01*
X9686968Y-18774055D02*
X9696491Y-18755008D01*
X9696491Y-18755008D02*
X9715539Y-18726436D01*
X9715539Y-18726436D02*
X9725063Y-18716912D01*
X9791730Y-18764531D02*
X9801253Y-18755008D01*
X9801253Y-18755008D02*
X9820301Y-18745484D01*
X9820301Y-18745484D02*
X9867920Y-18745484D01*
X9867920Y-18745484D02*
X9886968Y-18755008D01*
X9886968Y-18755008D02*
X9896491Y-18764531D01*
X9896491Y-18764531D02*
X9906015Y-18783579D01*
X9906015Y-18783579D02*
X9906015Y-18802627D01*
X9906015Y-18802627D02*
X9896491Y-18831198D01*
X9896491Y-18831198D02*
X9782206Y-18945484D01*
X9782206Y-18945484D02*
X9906015Y-18945484D01*
X10144111Y-18945484D02*
X10144111Y-18745484D01*
X10229825Y-18945484D02*
X10229825Y-18840722D01*
X10229825Y-18840722D02*
X10220301Y-18821674D01*
X10220301Y-18821674D02*
X10201253Y-18812150D01*
X10201253Y-18812150D02*
X10172682Y-18812150D01*
X10172682Y-18812150D02*
X10153634Y-18821674D01*
X10153634Y-18821674D02*
X10144111Y-18831198D01*
X10353634Y-18945484D02*
X10334587Y-18935960D01*
X10334587Y-18935960D02*
X10325063Y-18926436D01*
X10325063Y-18926436D02*
X10315539Y-18907389D01*
X10315539Y-18907389D02*
X10315539Y-18850246D01*
X10315539Y-18850246D02*
X10325063Y-18831198D01*
X10325063Y-18831198D02*
X10334587Y-18821674D01*
X10334587Y-18821674D02*
X10353634Y-18812150D01*
X10353634Y-18812150D02*
X10382206Y-18812150D01*
X10382206Y-18812150D02*
X10401253Y-18821674D01*
X10401253Y-18821674D02*
X10410777Y-18831198D01*
X10410777Y-18831198D02*
X10420301Y-18850246D01*
X10420301Y-18850246D02*
X10420301Y-18907389D01*
X10420301Y-18907389D02*
X10410777Y-18926436D01*
X10410777Y-18926436D02*
X10401253Y-18935960D01*
X10401253Y-18935960D02*
X10382206Y-18945484D01*
X10382206Y-18945484D02*
X10353634Y-18945484D01*
X10534587Y-18945484D02*
X10515539Y-18935960D01*
X10515539Y-18935960D02*
X10506015Y-18916912D01*
X10506015Y-18916912D02*
X10506015Y-18745484D01*
X10686968Y-18935960D02*
X10667920Y-18945484D01*
X10667920Y-18945484D02*
X10629825Y-18945484D01*
X10629825Y-18945484D02*
X10610777Y-18935960D01*
X10610777Y-18935960D02*
X10601253Y-18916912D01*
X10601253Y-18916912D02*
X10601253Y-18840722D01*
X10601253Y-18840722D02*
X10610777Y-18821674D01*
X10610777Y-18821674D02*
X10629825Y-18812150D01*
X10629825Y-18812150D02*
X10667920Y-18812150D01*
X10667920Y-18812150D02*
X10686968Y-18821674D01*
X10686968Y-18821674D02*
X10696492Y-18840722D01*
X10696492Y-18840722D02*
X10696492Y-18859770D01*
X10696492Y-18859770D02*
X10601253Y-18878817D01*
X10772682Y-18935960D02*
X10791730Y-18945484D01*
X10791730Y-18945484D02*
X10829825Y-18945484D01*
X10829825Y-18945484D02*
X10848873Y-18935960D01*
X10848873Y-18935960D02*
X10858396Y-18916912D01*
X10858396Y-18916912D02*
X10858396Y-18907389D01*
X10858396Y-18907389D02*
X10848873Y-18888341D01*
X10848873Y-18888341D02*
X10829825Y-18878817D01*
X10829825Y-18878817D02*
X10801253Y-18878817D01*
X10801253Y-18878817D02*
X10782206Y-18869293D01*
X10782206Y-18869293D02*
X10772682Y-18850246D01*
X10772682Y-18850246D02*
X10772682Y-18840722D01*
X10772682Y-18840722D02*
X10782206Y-18821674D01*
X10782206Y-18821674D02*
X10801253Y-18812150D01*
X10801253Y-18812150D02*
X10829825Y-18812150D01*
X10829825Y-18812150D02*
X10848873Y-18821674D01*
X10925063Y-19021674D02*
X10934587Y-19012150D01*
X10934587Y-19012150D02*
X10953634Y-18983579D01*
X10953634Y-18983579D02*
X10963158Y-18964531D01*
X10963158Y-18964531D02*
X10972682Y-18935960D01*
X10972682Y-18935960D02*
X10982206Y-18888341D01*
X10982206Y-18888341D02*
X10982206Y-18850246D01*
X10982206Y-18850246D02*
X10972682Y-18802627D01*
X10972682Y-18802627D02*
X10963158Y-18774055D01*
X10963158Y-18774055D02*
X10953634Y-18755008D01*
X10953634Y-18755008D02*
X10934587Y-18726436D01*
X10934587Y-18726436D02*
X10925063Y-18716912D01*
D14*
X6025540Y-19055770D02*
X6150000Y-19180230D01*
X6150000Y-19055770D02*
X6025540Y-19180230D01*
X6131774Y-19162004D02*
X6131774Y-19073996D01*
X6043766Y-19073996D01*
X6043766Y-19162004D01*
X6131774Y-19162004D01*
D10*
X6515539Y-19209484D02*
X6401253Y-19209484D01*
X6458396Y-19209484D02*
X6458396Y-19009484D01*
X6458396Y-19009484D02*
X6439348Y-19038055D01*
X6439348Y-19038055D02*
X6420301Y-19057103D01*
X6420301Y-19057103D02*
X6401253Y-19066627D01*
X6601253Y-19190436D02*
X6610777Y-19199960D01*
X6610777Y-19199960D02*
X6601253Y-19209484D01*
X6601253Y-19209484D02*
X6591729Y-19199960D01*
X6591729Y-19199960D02*
X6601253Y-19190436D01*
X6601253Y-19190436D02*
X6601253Y-19209484D01*
X6686967Y-19028531D02*
X6696491Y-19019008D01*
X6696491Y-19019008D02*
X6715539Y-19009484D01*
X6715539Y-19009484D02*
X6763158Y-19009484D01*
X6763158Y-19009484D02*
X6782205Y-19019008D01*
X6782205Y-19019008D02*
X6791729Y-19028531D01*
X6791729Y-19028531D02*
X6801253Y-19047579D01*
X6801253Y-19047579D02*
X6801253Y-19066627D01*
X6801253Y-19066627D02*
X6791729Y-19095198D01*
X6791729Y-19095198D02*
X6677443Y-19209484D01*
X6677443Y-19209484D02*
X6801253Y-19209484D01*
X6972682Y-19076150D02*
X6972682Y-19209484D01*
X6925062Y-18999960D02*
X6877443Y-19142817D01*
X6877443Y-19142817D02*
X7001253Y-19142817D01*
X7172682Y-19009484D02*
X7077443Y-19009484D01*
X7077443Y-19009484D02*
X7067920Y-19104722D01*
X7067920Y-19104722D02*
X7077443Y-19095198D01*
X7077443Y-19095198D02*
X7096491Y-19085674D01*
X7096491Y-19085674D02*
X7144110Y-19085674D01*
X7144110Y-19085674D02*
X7163158Y-19095198D01*
X7163158Y-19095198D02*
X7172682Y-19104722D01*
X7172682Y-19104722D02*
X7182205Y-19123770D01*
X7182205Y-19123770D02*
X7182205Y-19171389D01*
X7182205Y-19171389D02*
X7172682Y-19190436D01*
X7172682Y-19190436D02*
X7163158Y-19199960D01*
X7163158Y-19199960D02*
X7144110Y-19209484D01*
X7144110Y-19209484D02*
X7096491Y-19209484D01*
X7096491Y-19209484D02*
X7077443Y-19199960D01*
X7077443Y-19199960D02*
X7067920Y-19190436D01*
X7267920Y-19209484D02*
X7267920Y-19076150D01*
X7267920Y-19095198D02*
X7277443Y-19085674D01*
X7277443Y-19085674D02*
X7296491Y-19076150D01*
X7296491Y-19076150D02*
X7325063Y-19076150D01*
X7325063Y-19076150D02*
X7344110Y-19085674D01*
X7344110Y-19085674D02*
X7353634Y-19104722D01*
X7353634Y-19104722D02*
X7353634Y-19209484D01*
X7353634Y-19104722D02*
X7363158Y-19085674D01*
X7363158Y-19085674D02*
X7382205Y-19076150D01*
X7382205Y-19076150D02*
X7410777Y-19076150D01*
X7410777Y-19076150D02*
X7429824Y-19085674D01*
X7429824Y-19085674D02*
X7439348Y-19104722D01*
X7439348Y-19104722D02*
X7439348Y-19209484D01*
X7534586Y-19209484D02*
X7534586Y-19076150D01*
X7534586Y-19095198D02*
X7544110Y-19085674D01*
X7544110Y-19085674D02*
X7563158Y-19076150D01*
X7563158Y-19076150D02*
X7591729Y-19076150D01*
X7591729Y-19076150D02*
X7610777Y-19085674D01*
X7610777Y-19085674D02*
X7620301Y-19104722D01*
X7620301Y-19104722D02*
X7620301Y-19209484D01*
X7620301Y-19104722D02*
X7629824Y-19085674D01*
X7629824Y-19085674D02*
X7648872Y-19076150D01*
X7648872Y-19076150D02*
X7677443Y-19076150D01*
X7677443Y-19076150D02*
X7696491Y-19085674D01*
X7696491Y-19085674D02*
X7706015Y-19104722D01*
X7706015Y-19104722D02*
X7706015Y-19209484D01*
X8096491Y-18999960D02*
X7925063Y-19257103D01*
X8353634Y-19009484D02*
X8372682Y-19009484D01*
X8372682Y-19009484D02*
X8391729Y-19019008D01*
X8391729Y-19019008D02*
X8401253Y-19028531D01*
X8401253Y-19028531D02*
X8410777Y-19047579D01*
X8410777Y-19047579D02*
X8420301Y-19085674D01*
X8420301Y-19085674D02*
X8420301Y-19133293D01*
X8420301Y-19133293D02*
X8410777Y-19171389D01*
X8410777Y-19171389D02*
X8401253Y-19190436D01*
X8401253Y-19190436D02*
X8391729Y-19199960D01*
X8391729Y-19199960D02*
X8372682Y-19209484D01*
X8372682Y-19209484D02*
X8353634Y-19209484D01*
X8353634Y-19209484D02*
X8334586Y-19199960D01*
X8334586Y-19199960D02*
X8325063Y-19190436D01*
X8325063Y-19190436D02*
X8315539Y-19171389D01*
X8315539Y-19171389D02*
X8306015Y-19133293D01*
X8306015Y-19133293D02*
X8306015Y-19085674D01*
X8306015Y-19085674D02*
X8315539Y-19047579D01*
X8315539Y-19047579D02*
X8325063Y-19028531D01*
X8325063Y-19028531D02*
X8334586Y-19019008D01*
X8334586Y-19019008D02*
X8353634Y-19009484D01*
X8506015Y-19190436D02*
X8515539Y-19199960D01*
X8515539Y-19199960D02*
X8506015Y-19209484D01*
X8506015Y-19209484D02*
X8496491Y-19199960D01*
X8496491Y-19199960D02*
X8506015Y-19190436D01*
X8506015Y-19190436D02*
X8506015Y-19209484D01*
X8639348Y-19009484D02*
X8658396Y-19009484D01*
X8658396Y-19009484D02*
X8677444Y-19019008D01*
X8677444Y-19019008D02*
X8686968Y-19028531D01*
X8686968Y-19028531D02*
X8696491Y-19047579D01*
X8696491Y-19047579D02*
X8706015Y-19085674D01*
X8706015Y-19085674D02*
X8706015Y-19133293D01*
X8706015Y-19133293D02*
X8696491Y-19171389D01*
X8696491Y-19171389D02*
X8686968Y-19190436D01*
X8686968Y-19190436D02*
X8677444Y-19199960D01*
X8677444Y-19199960D02*
X8658396Y-19209484D01*
X8658396Y-19209484D02*
X8639348Y-19209484D01*
X8639348Y-19209484D02*
X8620301Y-19199960D01*
X8620301Y-19199960D02*
X8610777Y-19190436D01*
X8610777Y-19190436D02*
X8601253Y-19171389D01*
X8601253Y-19171389D02*
X8591729Y-19133293D01*
X8591729Y-19133293D02*
X8591729Y-19085674D01*
X8591729Y-19085674D02*
X8601253Y-19047579D01*
X8601253Y-19047579D02*
X8610777Y-19028531D01*
X8610777Y-19028531D02*
X8620301Y-19019008D01*
X8620301Y-19019008D02*
X8639348Y-19009484D01*
X8877444Y-19076150D02*
X8877444Y-19209484D01*
X8829825Y-18999960D02*
X8782206Y-19142817D01*
X8782206Y-19142817D02*
X8906015Y-19142817D01*
X8991729Y-19209484D02*
X9029825Y-19209484D01*
X9029825Y-19209484D02*
X9048872Y-19199960D01*
X9048872Y-19199960D02*
X9058396Y-19190436D01*
X9058396Y-19190436D02*
X9077444Y-19161865D01*
X9077444Y-19161865D02*
X9086968Y-19123770D01*
X9086968Y-19123770D02*
X9086968Y-19047579D01*
X9086968Y-19047579D02*
X9077444Y-19028531D01*
X9077444Y-19028531D02*
X9067920Y-19019008D01*
X9067920Y-19019008D02*
X9048872Y-19009484D01*
X9048872Y-19009484D02*
X9010777Y-19009484D01*
X9010777Y-19009484D02*
X8991729Y-19019008D01*
X8991729Y-19019008D02*
X8982206Y-19028531D01*
X8982206Y-19028531D02*
X8972682Y-19047579D01*
X8972682Y-19047579D02*
X8972682Y-19095198D01*
X8972682Y-19095198D02*
X8982206Y-19114246D01*
X8982206Y-19114246D02*
X8991729Y-19123770D01*
X8991729Y-19123770D02*
X9010777Y-19133293D01*
X9010777Y-19133293D02*
X9048872Y-19133293D01*
X9048872Y-19133293D02*
X9067920Y-19123770D01*
X9067920Y-19123770D02*
X9077444Y-19114246D01*
X9077444Y-19114246D02*
X9086968Y-19095198D01*
X9210777Y-19009484D02*
X9229825Y-19009484D01*
X9229825Y-19009484D02*
X9248872Y-19019008D01*
X9248872Y-19019008D02*
X9258396Y-19028531D01*
X9258396Y-19028531D02*
X9267920Y-19047579D01*
X9267920Y-19047579D02*
X9277444Y-19085674D01*
X9277444Y-19085674D02*
X9277444Y-19133293D01*
X9277444Y-19133293D02*
X9267920Y-19171389D01*
X9267920Y-19171389D02*
X9258396Y-19190436D01*
X9258396Y-19190436D02*
X9248872Y-19199960D01*
X9248872Y-19199960D02*
X9229825Y-19209484D01*
X9229825Y-19209484D02*
X9210777Y-19209484D01*
X9210777Y-19209484D02*
X9191729Y-19199960D01*
X9191729Y-19199960D02*
X9182206Y-19190436D01*
X9182206Y-19190436D02*
X9172682Y-19171389D01*
X9172682Y-19171389D02*
X9163158Y-19133293D01*
X9163158Y-19133293D02*
X9163158Y-19085674D01*
X9163158Y-19085674D02*
X9172682Y-19047579D01*
X9172682Y-19047579D02*
X9182206Y-19028531D01*
X9182206Y-19028531D02*
X9191729Y-19019008D01*
X9191729Y-19019008D02*
X9210777Y-19009484D01*
X9353634Y-19009484D02*
X9353634Y-19047579D01*
X9429825Y-19009484D02*
X9429825Y-19047579D01*
X9725063Y-19285674D02*
X9715539Y-19276150D01*
X9715539Y-19276150D02*
X9696491Y-19247579D01*
X9696491Y-19247579D02*
X9686968Y-19228531D01*
X9686968Y-19228531D02*
X9677444Y-19199960D01*
X9677444Y-19199960D02*
X9667920Y-19152341D01*
X9667920Y-19152341D02*
X9667920Y-19114246D01*
X9667920Y-19114246D02*
X9677444Y-19066627D01*
X9677444Y-19066627D02*
X9686968Y-19038055D01*
X9686968Y-19038055D02*
X9696491Y-19019008D01*
X9696491Y-19019008D02*
X9715539Y-18990436D01*
X9715539Y-18990436D02*
X9725063Y-18980912D01*
X9906015Y-19209484D02*
X9791730Y-19209484D01*
X9848872Y-19209484D02*
X9848872Y-19009484D01*
X9848872Y-19009484D02*
X9829825Y-19038055D01*
X9829825Y-19038055D02*
X9810777Y-19057103D01*
X9810777Y-19057103D02*
X9791730Y-19066627D01*
X9982206Y-19028531D02*
X9991730Y-19019008D01*
X9991730Y-19019008D02*
X10010777Y-19009484D01*
X10010777Y-19009484D02*
X10058396Y-19009484D01*
X10058396Y-19009484D02*
X10077444Y-19019008D01*
X10077444Y-19019008D02*
X10086968Y-19028531D01*
X10086968Y-19028531D02*
X10096491Y-19047579D01*
X10096491Y-19047579D02*
X10096491Y-19066627D01*
X10096491Y-19066627D02*
X10086968Y-19095198D01*
X10086968Y-19095198D02*
X9972682Y-19209484D01*
X9972682Y-19209484D02*
X10096491Y-19209484D01*
X10334587Y-19209484D02*
X10334587Y-19009484D01*
X10420301Y-19209484D02*
X10420301Y-19104722D01*
X10420301Y-19104722D02*
X10410777Y-19085674D01*
X10410777Y-19085674D02*
X10391730Y-19076150D01*
X10391730Y-19076150D02*
X10363158Y-19076150D01*
X10363158Y-19076150D02*
X10344111Y-19085674D01*
X10344111Y-19085674D02*
X10334587Y-19095198D01*
X10544111Y-19209484D02*
X10525063Y-19199960D01*
X10525063Y-19199960D02*
X10515539Y-19190436D01*
X10515539Y-19190436D02*
X10506015Y-19171389D01*
X10506015Y-19171389D02*
X10506015Y-19114246D01*
X10506015Y-19114246D02*
X10515539Y-19095198D01*
X10515539Y-19095198D02*
X10525063Y-19085674D01*
X10525063Y-19085674D02*
X10544111Y-19076150D01*
X10544111Y-19076150D02*
X10572682Y-19076150D01*
X10572682Y-19076150D02*
X10591730Y-19085674D01*
X10591730Y-19085674D02*
X10601253Y-19095198D01*
X10601253Y-19095198D02*
X10610777Y-19114246D01*
X10610777Y-19114246D02*
X10610777Y-19171389D01*
X10610777Y-19171389D02*
X10601253Y-19190436D01*
X10601253Y-19190436D02*
X10591730Y-19199960D01*
X10591730Y-19199960D02*
X10572682Y-19209484D01*
X10572682Y-19209484D02*
X10544111Y-19209484D01*
X10725063Y-19209484D02*
X10706015Y-19199960D01*
X10706015Y-19199960D02*
X10696492Y-19180912D01*
X10696492Y-19180912D02*
X10696492Y-19009484D01*
X10877444Y-19199960D02*
X10858396Y-19209484D01*
X10858396Y-19209484D02*
X10820301Y-19209484D01*
X10820301Y-19209484D02*
X10801253Y-19199960D01*
X10801253Y-19199960D02*
X10791730Y-19180912D01*
X10791730Y-19180912D02*
X10791730Y-19104722D01*
X10791730Y-19104722D02*
X10801253Y-19085674D01*
X10801253Y-19085674D02*
X10820301Y-19076150D01*
X10820301Y-19076150D02*
X10858396Y-19076150D01*
X10858396Y-19076150D02*
X10877444Y-19085674D01*
X10877444Y-19085674D02*
X10886968Y-19104722D01*
X10886968Y-19104722D02*
X10886968Y-19123770D01*
X10886968Y-19123770D02*
X10791730Y-19142817D01*
X10963158Y-19199960D02*
X10982206Y-19209484D01*
X10982206Y-19209484D02*
X11020301Y-19209484D01*
X11020301Y-19209484D02*
X11039349Y-19199960D01*
X11039349Y-19199960D02*
X11048873Y-19180912D01*
X11048873Y-19180912D02*
X11048873Y-19171389D01*
X11048873Y-19171389D02*
X11039349Y-19152341D01*
X11039349Y-19152341D02*
X11020301Y-19142817D01*
X11020301Y-19142817D02*
X10991730Y-19142817D01*
X10991730Y-19142817D02*
X10972682Y-19133293D01*
X10972682Y-19133293D02*
X10963158Y-19114246D01*
X10963158Y-19114246D02*
X10963158Y-19104722D01*
X10963158Y-19104722D02*
X10972682Y-19085674D01*
X10972682Y-19085674D02*
X10991730Y-19076150D01*
X10991730Y-19076150D02*
X11020301Y-19076150D01*
X11020301Y-19076150D02*
X11039349Y-19085674D01*
X11115539Y-19285674D02*
X11125063Y-19276150D01*
X11125063Y-19276150D02*
X11144111Y-19247579D01*
X11144111Y-19247579D02*
X11153634Y-19228531D01*
X11153634Y-19228531D02*
X11163158Y-19199960D01*
X11163158Y-19199960D02*
X11172682Y-19152341D01*
X11172682Y-19152341D02*
X11172682Y-19114246D01*
X11172682Y-19114246D02*
X11163158Y-19066627D01*
X11163158Y-19066627D02*
X11153634Y-19038055D01*
X11153634Y-19038055D02*
X11144111Y-19019008D01*
X11144111Y-19019008D02*
X11125063Y-18990436D01*
X11125063Y-18990436D02*
X11115539Y-18980912D01*
D15*
X6018000Y-19316000D02*
X6150000Y-19448000D01*
X6150000Y-19316000D02*
X6018000Y-19448000D01*
X6084000Y-19448000D02*
X6150000Y-19382000D01*
X6084000Y-19316000D01*
X6018000Y-19382000D01*
X6084000Y-19448000D01*
D10*
X6515539Y-19473484D02*
X6401253Y-19473484D01*
X6458396Y-19473484D02*
X6458396Y-19273484D01*
X6458396Y-19273484D02*
X6439348Y-19302055D01*
X6439348Y-19302055D02*
X6420301Y-19321103D01*
X6420301Y-19321103D02*
X6401253Y-19330627D01*
X6601253Y-19454436D02*
X6610777Y-19463960D01*
X6610777Y-19463960D02*
X6601253Y-19473484D01*
X6601253Y-19473484D02*
X6591729Y-19463960D01*
X6591729Y-19463960D02*
X6601253Y-19454436D01*
X6601253Y-19454436D02*
X6601253Y-19473484D01*
X6677443Y-19273484D02*
X6801253Y-19273484D01*
X6801253Y-19273484D02*
X6734586Y-19349674D01*
X6734586Y-19349674D02*
X6763158Y-19349674D01*
X6763158Y-19349674D02*
X6782205Y-19359198D01*
X6782205Y-19359198D02*
X6791729Y-19368722D01*
X6791729Y-19368722D02*
X6801253Y-19387770D01*
X6801253Y-19387770D02*
X6801253Y-19435389D01*
X6801253Y-19435389D02*
X6791729Y-19454436D01*
X6791729Y-19454436D02*
X6782205Y-19463960D01*
X6782205Y-19463960D02*
X6763158Y-19473484D01*
X6763158Y-19473484D02*
X6706015Y-19473484D01*
X6706015Y-19473484D02*
X6686967Y-19463960D01*
X6686967Y-19463960D02*
X6677443Y-19454436D01*
X6877443Y-19292531D02*
X6886967Y-19283008D01*
X6886967Y-19283008D02*
X6906015Y-19273484D01*
X6906015Y-19273484D02*
X6953634Y-19273484D01*
X6953634Y-19273484D02*
X6972682Y-19283008D01*
X6972682Y-19283008D02*
X6982205Y-19292531D01*
X6982205Y-19292531D02*
X6991729Y-19311579D01*
X6991729Y-19311579D02*
X6991729Y-19330627D01*
X6991729Y-19330627D02*
X6982205Y-19359198D01*
X6982205Y-19359198D02*
X6867920Y-19473484D01*
X6867920Y-19473484D02*
X6991729Y-19473484D01*
X7115539Y-19273484D02*
X7134586Y-19273484D01*
X7134586Y-19273484D02*
X7153634Y-19283008D01*
X7153634Y-19283008D02*
X7163158Y-19292531D01*
X7163158Y-19292531D02*
X7172682Y-19311579D01*
X7172682Y-19311579D02*
X7182205Y-19349674D01*
X7182205Y-19349674D02*
X7182205Y-19397293D01*
X7182205Y-19397293D02*
X7172682Y-19435389D01*
X7172682Y-19435389D02*
X7163158Y-19454436D01*
X7163158Y-19454436D02*
X7153634Y-19463960D01*
X7153634Y-19463960D02*
X7134586Y-19473484D01*
X7134586Y-19473484D02*
X7115539Y-19473484D01*
X7115539Y-19473484D02*
X7096491Y-19463960D01*
X7096491Y-19463960D02*
X7086967Y-19454436D01*
X7086967Y-19454436D02*
X7077443Y-19435389D01*
X7077443Y-19435389D02*
X7067920Y-19397293D01*
X7067920Y-19397293D02*
X7067920Y-19349674D01*
X7067920Y-19349674D02*
X7077443Y-19311579D01*
X7077443Y-19311579D02*
X7086967Y-19292531D01*
X7086967Y-19292531D02*
X7096491Y-19283008D01*
X7096491Y-19283008D02*
X7115539Y-19273484D01*
X7267920Y-19473484D02*
X7267920Y-19340150D01*
X7267920Y-19359198D02*
X7277443Y-19349674D01*
X7277443Y-19349674D02*
X7296491Y-19340150D01*
X7296491Y-19340150D02*
X7325063Y-19340150D01*
X7325063Y-19340150D02*
X7344110Y-19349674D01*
X7344110Y-19349674D02*
X7353634Y-19368722D01*
X7353634Y-19368722D02*
X7353634Y-19473484D01*
X7353634Y-19368722D02*
X7363158Y-19349674D01*
X7363158Y-19349674D02*
X7382205Y-19340150D01*
X7382205Y-19340150D02*
X7410777Y-19340150D01*
X7410777Y-19340150D02*
X7429824Y-19349674D01*
X7429824Y-19349674D02*
X7439348Y-19368722D01*
X7439348Y-19368722D02*
X7439348Y-19473484D01*
X7534586Y-19473484D02*
X7534586Y-19340150D01*
X7534586Y-19359198D02*
X7544110Y-19349674D01*
X7544110Y-19349674D02*
X7563158Y-19340150D01*
X7563158Y-19340150D02*
X7591729Y-19340150D01*
X7591729Y-19340150D02*
X7610777Y-19349674D01*
X7610777Y-19349674D02*
X7620301Y-19368722D01*
X7620301Y-19368722D02*
X7620301Y-19473484D01*
X7620301Y-19368722D02*
X7629824Y-19349674D01*
X7629824Y-19349674D02*
X7648872Y-19340150D01*
X7648872Y-19340150D02*
X7677443Y-19340150D01*
X7677443Y-19340150D02*
X7696491Y-19349674D01*
X7696491Y-19349674D02*
X7706015Y-19368722D01*
X7706015Y-19368722D02*
X7706015Y-19473484D01*
X8096491Y-19263960D02*
X7925063Y-19521103D01*
X8353634Y-19273484D02*
X8372682Y-19273484D01*
X8372682Y-19273484D02*
X8391729Y-19283008D01*
X8391729Y-19283008D02*
X8401253Y-19292531D01*
X8401253Y-19292531D02*
X8410777Y-19311579D01*
X8410777Y-19311579D02*
X8420301Y-19349674D01*
X8420301Y-19349674D02*
X8420301Y-19397293D01*
X8420301Y-19397293D02*
X8410777Y-19435389D01*
X8410777Y-19435389D02*
X8401253Y-19454436D01*
X8401253Y-19454436D02*
X8391729Y-19463960D01*
X8391729Y-19463960D02*
X8372682Y-19473484D01*
X8372682Y-19473484D02*
X8353634Y-19473484D01*
X8353634Y-19473484D02*
X8334586Y-19463960D01*
X8334586Y-19463960D02*
X8325063Y-19454436D01*
X8325063Y-19454436D02*
X8315539Y-19435389D01*
X8315539Y-19435389D02*
X8306015Y-19397293D01*
X8306015Y-19397293D02*
X8306015Y-19349674D01*
X8306015Y-19349674D02*
X8315539Y-19311579D01*
X8315539Y-19311579D02*
X8325063Y-19292531D01*
X8325063Y-19292531D02*
X8334586Y-19283008D01*
X8334586Y-19283008D02*
X8353634Y-19273484D01*
X8506015Y-19454436D02*
X8515539Y-19463960D01*
X8515539Y-19463960D02*
X8506015Y-19473484D01*
X8506015Y-19473484D02*
X8496491Y-19463960D01*
X8496491Y-19463960D02*
X8506015Y-19454436D01*
X8506015Y-19454436D02*
X8506015Y-19473484D01*
X8639348Y-19273484D02*
X8658396Y-19273484D01*
X8658396Y-19273484D02*
X8677444Y-19283008D01*
X8677444Y-19283008D02*
X8686968Y-19292531D01*
X8686968Y-19292531D02*
X8696491Y-19311579D01*
X8696491Y-19311579D02*
X8706015Y-19349674D01*
X8706015Y-19349674D02*
X8706015Y-19397293D01*
X8706015Y-19397293D02*
X8696491Y-19435389D01*
X8696491Y-19435389D02*
X8686968Y-19454436D01*
X8686968Y-19454436D02*
X8677444Y-19463960D01*
X8677444Y-19463960D02*
X8658396Y-19473484D01*
X8658396Y-19473484D02*
X8639348Y-19473484D01*
X8639348Y-19473484D02*
X8620301Y-19463960D01*
X8620301Y-19463960D02*
X8610777Y-19454436D01*
X8610777Y-19454436D02*
X8601253Y-19435389D01*
X8601253Y-19435389D02*
X8591729Y-19397293D01*
X8591729Y-19397293D02*
X8591729Y-19349674D01*
X8591729Y-19349674D02*
X8601253Y-19311579D01*
X8601253Y-19311579D02*
X8610777Y-19292531D01*
X8610777Y-19292531D02*
X8620301Y-19283008D01*
X8620301Y-19283008D02*
X8639348Y-19273484D01*
X8886968Y-19273484D02*
X8791729Y-19273484D01*
X8791729Y-19273484D02*
X8782206Y-19368722D01*
X8782206Y-19368722D02*
X8791729Y-19359198D01*
X8791729Y-19359198D02*
X8810777Y-19349674D01*
X8810777Y-19349674D02*
X8858396Y-19349674D01*
X8858396Y-19349674D02*
X8877444Y-19359198D01*
X8877444Y-19359198D02*
X8886968Y-19368722D01*
X8886968Y-19368722D02*
X8896491Y-19387770D01*
X8896491Y-19387770D02*
X8896491Y-19435389D01*
X8896491Y-19435389D02*
X8886968Y-19454436D01*
X8886968Y-19454436D02*
X8877444Y-19463960D01*
X8877444Y-19463960D02*
X8858396Y-19473484D01*
X8858396Y-19473484D02*
X8810777Y-19473484D01*
X8810777Y-19473484D02*
X8791729Y-19463960D01*
X8791729Y-19463960D02*
X8782206Y-19454436D01*
X8972682Y-19292531D02*
X8982206Y-19283008D01*
X8982206Y-19283008D02*
X9001253Y-19273484D01*
X9001253Y-19273484D02*
X9048872Y-19273484D01*
X9048872Y-19273484D02*
X9067920Y-19283008D01*
X9067920Y-19283008D02*
X9077444Y-19292531D01*
X9077444Y-19292531D02*
X9086968Y-19311579D01*
X9086968Y-19311579D02*
X9086968Y-19330627D01*
X9086968Y-19330627D02*
X9077444Y-19359198D01*
X9077444Y-19359198D02*
X8963158Y-19473484D01*
X8963158Y-19473484D02*
X9086968Y-19473484D01*
X9210777Y-19273484D02*
X9229825Y-19273484D01*
X9229825Y-19273484D02*
X9248872Y-19283008D01*
X9248872Y-19283008D02*
X9258396Y-19292531D01*
X9258396Y-19292531D02*
X9267920Y-19311579D01*
X9267920Y-19311579D02*
X9277444Y-19349674D01*
X9277444Y-19349674D02*
X9277444Y-19397293D01*
X9277444Y-19397293D02*
X9267920Y-19435389D01*
X9267920Y-19435389D02*
X9258396Y-19454436D01*
X9258396Y-19454436D02*
X9248872Y-19463960D01*
X9248872Y-19463960D02*
X9229825Y-19473484D01*
X9229825Y-19473484D02*
X9210777Y-19473484D01*
X9210777Y-19473484D02*
X9191729Y-19463960D01*
X9191729Y-19463960D02*
X9182206Y-19454436D01*
X9182206Y-19454436D02*
X9172682Y-19435389D01*
X9172682Y-19435389D02*
X9163158Y-19397293D01*
X9163158Y-19397293D02*
X9163158Y-19349674D01*
X9163158Y-19349674D02*
X9172682Y-19311579D01*
X9172682Y-19311579D02*
X9182206Y-19292531D01*
X9182206Y-19292531D02*
X9191729Y-19283008D01*
X9191729Y-19283008D02*
X9210777Y-19273484D01*
X9353634Y-19273484D02*
X9353634Y-19311579D01*
X9429825Y-19273484D02*
X9429825Y-19311579D01*
X9725063Y-19549674D02*
X9715539Y-19540150D01*
X9715539Y-19540150D02*
X9696491Y-19511579D01*
X9696491Y-19511579D02*
X9686968Y-19492531D01*
X9686968Y-19492531D02*
X9677444Y-19463960D01*
X9677444Y-19463960D02*
X9667920Y-19416341D01*
X9667920Y-19416341D02*
X9667920Y-19378246D01*
X9667920Y-19378246D02*
X9677444Y-19330627D01*
X9677444Y-19330627D02*
X9686968Y-19302055D01*
X9686968Y-19302055D02*
X9696491Y-19283008D01*
X9696491Y-19283008D02*
X9715539Y-19254436D01*
X9715539Y-19254436D02*
X9725063Y-19244912D01*
X9896491Y-19273484D02*
X9801253Y-19273484D01*
X9801253Y-19273484D02*
X9791730Y-19368722D01*
X9791730Y-19368722D02*
X9801253Y-19359198D01*
X9801253Y-19359198D02*
X9820301Y-19349674D01*
X9820301Y-19349674D02*
X9867920Y-19349674D01*
X9867920Y-19349674D02*
X9886968Y-19359198D01*
X9886968Y-19359198D02*
X9896491Y-19368722D01*
X9896491Y-19368722D02*
X9906015Y-19387770D01*
X9906015Y-19387770D02*
X9906015Y-19435389D01*
X9906015Y-19435389D02*
X9896491Y-19454436D01*
X9896491Y-19454436D02*
X9886968Y-19463960D01*
X9886968Y-19463960D02*
X9867920Y-19473484D01*
X9867920Y-19473484D02*
X9820301Y-19473484D01*
X9820301Y-19473484D02*
X9801253Y-19463960D01*
X9801253Y-19463960D02*
X9791730Y-19454436D01*
X10144111Y-19473484D02*
X10144111Y-19273484D01*
X10229825Y-19473484D02*
X10229825Y-19368722D01*
X10229825Y-19368722D02*
X10220301Y-19349674D01*
X10220301Y-19349674D02*
X10201253Y-19340150D01*
X10201253Y-19340150D02*
X10172682Y-19340150D01*
X10172682Y-19340150D02*
X10153634Y-19349674D01*
X10153634Y-19349674D02*
X10144111Y-19359198D01*
X10353634Y-19473484D02*
X10334587Y-19463960D01*
X10334587Y-19463960D02*
X10325063Y-19454436D01*
X10325063Y-19454436D02*
X10315539Y-19435389D01*
X10315539Y-19435389D02*
X10315539Y-19378246D01*
X10315539Y-19378246D02*
X10325063Y-19359198D01*
X10325063Y-19359198D02*
X10334587Y-19349674D01*
X10334587Y-19349674D02*
X10353634Y-19340150D01*
X10353634Y-19340150D02*
X10382206Y-19340150D01*
X10382206Y-19340150D02*
X10401253Y-19349674D01*
X10401253Y-19349674D02*
X10410777Y-19359198D01*
X10410777Y-19359198D02*
X10420301Y-19378246D01*
X10420301Y-19378246D02*
X10420301Y-19435389D01*
X10420301Y-19435389D02*
X10410777Y-19454436D01*
X10410777Y-19454436D02*
X10401253Y-19463960D01*
X10401253Y-19463960D02*
X10382206Y-19473484D01*
X10382206Y-19473484D02*
X10353634Y-19473484D01*
X10534587Y-19473484D02*
X10515539Y-19463960D01*
X10515539Y-19463960D02*
X10506015Y-19444912D01*
X10506015Y-19444912D02*
X10506015Y-19273484D01*
X10686968Y-19463960D02*
X10667920Y-19473484D01*
X10667920Y-19473484D02*
X10629825Y-19473484D01*
X10629825Y-19473484D02*
X10610777Y-19463960D01*
X10610777Y-19463960D02*
X10601253Y-19444912D01*
X10601253Y-19444912D02*
X10601253Y-19368722D01*
X10601253Y-19368722D02*
X10610777Y-19349674D01*
X10610777Y-19349674D02*
X10629825Y-19340150D01*
X10629825Y-19340150D02*
X10667920Y-19340150D01*
X10667920Y-19340150D02*
X10686968Y-19349674D01*
X10686968Y-19349674D02*
X10696492Y-19368722D01*
X10696492Y-19368722D02*
X10696492Y-19387770D01*
X10696492Y-19387770D02*
X10601253Y-19406817D01*
X10772682Y-19463960D02*
X10791730Y-19473484D01*
X10791730Y-19473484D02*
X10829825Y-19473484D01*
X10829825Y-19473484D02*
X10848873Y-19463960D01*
X10848873Y-19463960D02*
X10858396Y-19444912D01*
X10858396Y-19444912D02*
X10858396Y-19435389D01*
X10858396Y-19435389D02*
X10848873Y-19416341D01*
X10848873Y-19416341D02*
X10829825Y-19406817D01*
X10829825Y-19406817D02*
X10801253Y-19406817D01*
X10801253Y-19406817D02*
X10782206Y-19397293D01*
X10782206Y-19397293D02*
X10772682Y-19378246D01*
X10772682Y-19378246D02*
X10772682Y-19368722D01*
X10772682Y-19368722D02*
X10782206Y-19349674D01*
X10782206Y-19349674D02*
X10801253Y-19340150D01*
X10801253Y-19340150D02*
X10829825Y-19340150D01*
X10829825Y-19340150D02*
X10848873Y-19349674D01*
X10925063Y-19549674D02*
X10934587Y-19540150D01*
X10934587Y-19540150D02*
X10953634Y-19511579D01*
X10953634Y-19511579D02*
X10963158Y-19492531D01*
X10963158Y-19492531D02*
X10972682Y-19463960D01*
X10972682Y-19463960D02*
X10982206Y-19416341D01*
X10982206Y-19416341D02*
X10982206Y-19378246D01*
X10982206Y-19378246D02*
X10972682Y-19330627D01*
X10972682Y-19330627D02*
X10963158Y-19302055D01*
X10963158Y-19302055D02*
X10953634Y-19283008D01*
X10953634Y-19283008D02*
X10934587Y-19254436D01*
X10934587Y-19254436D02*
X10925063Y-19244912D01*
D16*
X6070000Y-19566000D02*
X6070000Y-19726000D01*
X5990000Y-19646000D02*
X6150000Y-19646000D01*
X6150000Y-19646000D02*
G75*
G02*
X5990000Y-19646000I-80000J0D01*
G01*
X5990000Y-19646000D02*
G75*
G02*
X6150000Y-19646000I80000J0D01*
G01*
D10*
X6515539Y-19737484D02*
X6401253Y-19737484D01*
X6458396Y-19737484D02*
X6458396Y-19537484D01*
X6458396Y-19537484D02*
X6439348Y-19566055D01*
X6439348Y-19566055D02*
X6420301Y-19585103D01*
X6420301Y-19585103D02*
X6401253Y-19594627D01*
X6601253Y-19718436D02*
X6610777Y-19727960D01*
X6610777Y-19727960D02*
X6601253Y-19737484D01*
X6601253Y-19737484D02*
X6591729Y-19727960D01*
X6591729Y-19727960D02*
X6601253Y-19718436D01*
X6601253Y-19718436D02*
X6601253Y-19737484D01*
X6782205Y-19537484D02*
X6744110Y-19537484D01*
X6744110Y-19537484D02*
X6725062Y-19547008D01*
X6725062Y-19547008D02*
X6715539Y-19556531D01*
X6715539Y-19556531D02*
X6696491Y-19585103D01*
X6696491Y-19585103D02*
X6686967Y-19623198D01*
X6686967Y-19623198D02*
X6686967Y-19699389D01*
X6686967Y-19699389D02*
X6696491Y-19718436D01*
X6696491Y-19718436D02*
X6706015Y-19727960D01*
X6706015Y-19727960D02*
X6725062Y-19737484D01*
X6725062Y-19737484D02*
X6763158Y-19737484D01*
X6763158Y-19737484D02*
X6782205Y-19727960D01*
X6782205Y-19727960D02*
X6791729Y-19718436D01*
X6791729Y-19718436D02*
X6801253Y-19699389D01*
X6801253Y-19699389D02*
X6801253Y-19651770D01*
X6801253Y-19651770D02*
X6791729Y-19632722D01*
X6791729Y-19632722D02*
X6782205Y-19623198D01*
X6782205Y-19623198D02*
X6763158Y-19613674D01*
X6763158Y-19613674D02*
X6725062Y-19613674D01*
X6725062Y-19613674D02*
X6706015Y-19623198D01*
X6706015Y-19623198D02*
X6696491Y-19632722D01*
X6696491Y-19632722D02*
X6686967Y-19651770D01*
X6925062Y-19537484D02*
X6944110Y-19537484D01*
X6944110Y-19537484D02*
X6963158Y-19547008D01*
X6963158Y-19547008D02*
X6972682Y-19556531D01*
X6972682Y-19556531D02*
X6982205Y-19575579D01*
X6982205Y-19575579D02*
X6991729Y-19613674D01*
X6991729Y-19613674D02*
X6991729Y-19661293D01*
X6991729Y-19661293D02*
X6982205Y-19699389D01*
X6982205Y-19699389D02*
X6972682Y-19718436D01*
X6972682Y-19718436D02*
X6963158Y-19727960D01*
X6963158Y-19727960D02*
X6944110Y-19737484D01*
X6944110Y-19737484D02*
X6925062Y-19737484D01*
X6925062Y-19737484D02*
X6906015Y-19727960D01*
X6906015Y-19727960D02*
X6896491Y-19718436D01*
X6896491Y-19718436D02*
X6886967Y-19699389D01*
X6886967Y-19699389D02*
X6877443Y-19661293D01*
X6877443Y-19661293D02*
X6877443Y-19613674D01*
X6877443Y-19613674D02*
X6886967Y-19575579D01*
X6886967Y-19575579D02*
X6896491Y-19556531D01*
X6896491Y-19556531D02*
X6906015Y-19547008D01*
X6906015Y-19547008D02*
X6925062Y-19537484D01*
X7115539Y-19537484D02*
X7134586Y-19537484D01*
X7134586Y-19537484D02*
X7153634Y-19547008D01*
X7153634Y-19547008D02*
X7163158Y-19556531D01*
X7163158Y-19556531D02*
X7172682Y-19575579D01*
X7172682Y-19575579D02*
X7182205Y-19613674D01*
X7182205Y-19613674D02*
X7182205Y-19661293D01*
X7182205Y-19661293D02*
X7172682Y-19699389D01*
X7172682Y-19699389D02*
X7163158Y-19718436D01*
X7163158Y-19718436D02*
X7153634Y-19727960D01*
X7153634Y-19727960D02*
X7134586Y-19737484D01*
X7134586Y-19737484D02*
X7115539Y-19737484D01*
X7115539Y-19737484D02*
X7096491Y-19727960D01*
X7096491Y-19727960D02*
X7086967Y-19718436D01*
X7086967Y-19718436D02*
X7077443Y-19699389D01*
X7077443Y-19699389D02*
X7067920Y-19661293D01*
X7067920Y-19661293D02*
X7067920Y-19613674D01*
X7067920Y-19613674D02*
X7077443Y-19575579D01*
X7077443Y-19575579D02*
X7086967Y-19556531D01*
X7086967Y-19556531D02*
X7096491Y-19547008D01*
X7096491Y-19547008D02*
X7115539Y-19537484D01*
X7267920Y-19737484D02*
X7267920Y-19604150D01*
X7267920Y-19623198D02*
X7277443Y-19613674D01*
X7277443Y-19613674D02*
X7296491Y-19604150D01*
X7296491Y-19604150D02*
X7325063Y-19604150D01*
X7325063Y-19604150D02*
X7344110Y-19613674D01*
X7344110Y-19613674D02*
X7353634Y-19632722D01*
X7353634Y-19632722D02*
X7353634Y-19737484D01*
X7353634Y-19632722D02*
X7363158Y-19613674D01*
X7363158Y-19613674D02*
X7382205Y-19604150D01*
X7382205Y-19604150D02*
X7410777Y-19604150D01*
X7410777Y-19604150D02*
X7429824Y-19613674D01*
X7429824Y-19613674D02*
X7439348Y-19632722D01*
X7439348Y-19632722D02*
X7439348Y-19737484D01*
X7534586Y-19737484D02*
X7534586Y-19604150D01*
X7534586Y-19623198D02*
X7544110Y-19613674D01*
X7544110Y-19613674D02*
X7563158Y-19604150D01*
X7563158Y-19604150D02*
X7591729Y-19604150D01*
X7591729Y-19604150D02*
X7610777Y-19613674D01*
X7610777Y-19613674D02*
X7620301Y-19632722D01*
X7620301Y-19632722D02*
X7620301Y-19737484D01*
X7620301Y-19632722D02*
X7629824Y-19613674D01*
X7629824Y-19613674D02*
X7648872Y-19604150D01*
X7648872Y-19604150D02*
X7677443Y-19604150D01*
X7677443Y-19604150D02*
X7696491Y-19613674D01*
X7696491Y-19613674D02*
X7706015Y-19632722D01*
X7706015Y-19632722D02*
X7706015Y-19737484D01*
X8096491Y-19527960D02*
X7925063Y-19785103D01*
X8353634Y-19537484D02*
X8372682Y-19537484D01*
X8372682Y-19537484D02*
X8391729Y-19547008D01*
X8391729Y-19547008D02*
X8401253Y-19556531D01*
X8401253Y-19556531D02*
X8410777Y-19575579D01*
X8410777Y-19575579D02*
X8420301Y-19613674D01*
X8420301Y-19613674D02*
X8420301Y-19661293D01*
X8420301Y-19661293D02*
X8410777Y-19699389D01*
X8410777Y-19699389D02*
X8401253Y-19718436D01*
X8401253Y-19718436D02*
X8391729Y-19727960D01*
X8391729Y-19727960D02*
X8372682Y-19737484D01*
X8372682Y-19737484D02*
X8353634Y-19737484D01*
X8353634Y-19737484D02*
X8334586Y-19727960D01*
X8334586Y-19727960D02*
X8325063Y-19718436D01*
X8325063Y-19718436D02*
X8315539Y-19699389D01*
X8315539Y-19699389D02*
X8306015Y-19661293D01*
X8306015Y-19661293D02*
X8306015Y-19613674D01*
X8306015Y-19613674D02*
X8315539Y-19575579D01*
X8315539Y-19575579D02*
X8325063Y-19556531D01*
X8325063Y-19556531D02*
X8334586Y-19547008D01*
X8334586Y-19547008D02*
X8353634Y-19537484D01*
X8506015Y-19718436D02*
X8515539Y-19727960D01*
X8515539Y-19727960D02*
X8506015Y-19737484D01*
X8506015Y-19737484D02*
X8496491Y-19727960D01*
X8496491Y-19727960D02*
X8506015Y-19718436D01*
X8506015Y-19718436D02*
X8506015Y-19737484D01*
X8639348Y-19537484D02*
X8658396Y-19537484D01*
X8658396Y-19537484D02*
X8677444Y-19547008D01*
X8677444Y-19547008D02*
X8686968Y-19556531D01*
X8686968Y-19556531D02*
X8696491Y-19575579D01*
X8696491Y-19575579D02*
X8706015Y-19613674D01*
X8706015Y-19613674D02*
X8706015Y-19661293D01*
X8706015Y-19661293D02*
X8696491Y-19699389D01*
X8696491Y-19699389D02*
X8686968Y-19718436D01*
X8686968Y-19718436D02*
X8677444Y-19727960D01*
X8677444Y-19727960D02*
X8658396Y-19737484D01*
X8658396Y-19737484D02*
X8639348Y-19737484D01*
X8639348Y-19737484D02*
X8620301Y-19727960D01*
X8620301Y-19727960D02*
X8610777Y-19718436D01*
X8610777Y-19718436D02*
X8601253Y-19699389D01*
X8601253Y-19699389D02*
X8591729Y-19661293D01*
X8591729Y-19661293D02*
X8591729Y-19613674D01*
X8591729Y-19613674D02*
X8601253Y-19575579D01*
X8601253Y-19575579D02*
X8610777Y-19556531D01*
X8610777Y-19556531D02*
X8620301Y-19547008D01*
X8620301Y-19547008D02*
X8639348Y-19537484D01*
X8877444Y-19537484D02*
X8839348Y-19537484D01*
X8839348Y-19537484D02*
X8820301Y-19547008D01*
X8820301Y-19547008D02*
X8810777Y-19556531D01*
X8810777Y-19556531D02*
X8791729Y-19585103D01*
X8791729Y-19585103D02*
X8782206Y-19623198D01*
X8782206Y-19623198D02*
X8782206Y-19699389D01*
X8782206Y-19699389D02*
X8791729Y-19718436D01*
X8791729Y-19718436D02*
X8801253Y-19727960D01*
X8801253Y-19727960D02*
X8820301Y-19737484D01*
X8820301Y-19737484D02*
X8858396Y-19737484D01*
X8858396Y-19737484D02*
X8877444Y-19727960D01*
X8877444Y-19727960D02*
X8886968Y-19718436D01*
X8886968Y-19718436D02*
X8896491Y-19699389D01*
X8896491Y-19699389D02*
X8896491Y-19651770D01*
X8896491Y-19651770D02*
X8886968Y-19632722D01*
X8886968Y-19632722D02*
X8877444Y-19623198D01*
X8877444Y-19623198D02*
X8858396Y-19613674D01*
X8858396Y-19613674D02*
X8820301Y-19613674D01*
X8820301Y-19613674D02*
X8801253Y-19623198D01*
X8801253Y-19623198D02*
X8791729Y-19632722D01*
X8791729Y-19632722D02*
X8782206Y-19651770D01*
X8963158Y-19537484D02*
X9086968Y-19537484D01*
X9086968Y-19537484D02*
X9020301Y-19613674D01*
X9020301Y-19613674D02*
X9048872Y-19613674D01*
X9048872Y-19613674D02*
X9067920Y-19623198D01*
X9067920Y-19623198D02*
X9077444Y-19632722D01*
X9077444Y-19632722D02*
X9086968Y-19651770D01*
X9086968Y-19651770D02*
X9086968Y-19699389D01*
X9086968Y-19699389D02*
X9077444Y-19718436D01*
X9077444Y-19718436D02*
X9067920Y-19727960D01*
X9067920Y-19727960D02*
X9048872Y-19737484D01*
X9048872Y-19737484D02*
X8991729Y-19737484D01*
X8991729Y-19737484D02*
X8972682Y-19727960D01*
X8972682Y-19727960D02*
X8963158Y-19718436D01*
X9210777Y-19537484D02*
X9229825Y-19537484D01*
X9229825Y-19537484D02*
X9248872Y-19547008D01*
X9248872Y-19547008D02*
X9258396Y-19556531D01*
X9258396Y-19556531D02*
X9267920Y-19575579D01*
X9267920Y-19575579D02*
X9277444Y-19613674D01*
X9277444Y-19613674D02*
X9277444Y-19661293D01*
X9277444Y-19661293D02*
X9267920Y-19699389D01*
X9267920Y-19699389D02*
X9258396Y-19718436D01*
X9258396Y-19718436D02*
X9248872Y-19727960D01*
X9248872Y-19727960D02*
X9229825Y-19737484D01*
X9229825Y-19737484D02*
X9210777Y-19737484D01*
X9210777Y-19737484D02*
X9191729Y-19727960D01*
X9191729Y-19727960D02*
X9182206Y-19718436D01*
X9182206Y-19718436D02*
X9172682Y-19699389D01*
X9172682Y-19699389D02*
X9163158Y-19661293D01*
X9163158Y-19661293D02*
X9163158Y-19613674D01*
X9163158Y-19613674D02*
X9172682Y-19575579D01*
X9172682Y-19575579D02*
X9182206Y-19556531D01*
X9182206Y-19556531D02*
X9191729Y-19547008D01*
X9191729Y-19547008D02*
X9210777Y-19537484D01*
X9353634Y-19537484D02*
X9353634Y-19575579D01*
X9429825Y-19537484D02*
X9429825Y-19575579D01*
X9725063Y-19813674D02*
X9715539Y-19804150D01*
X9715539Y-19804150D02*
X9696491Y-19775579D01*
X9696491Y-19775579D02*
X9686968Y-19756531D01*
X9686968Y-19756531D02*
X9677444Y-19727960D01*
X9677444Y-19727960D02*
X9667920Y-19680341D01*
X9667920Y-19680341D02*
X9667920Y-19642246D01*
X9667920Y-19642246D02*
X9677444Y-19594627D01*
X9677444Y-19594627D02*
X9686968Y-19566055D01*
X9686968Y-19566055D02*
X9696491Y-19547008D01*
X9696491Y-19547008D02*
X9715539Y-19518436D01*
X9715539Y-19518436D02*
X9725063Y-19508912D01*
X9791730Y-19556531D02*
X9801253Y-19547008D01*
X9801253Y-19547008D02*
X9820301Y-19537484D01*
X9820301Y-19537484D02*
X9867920Y-19537484D01*
X9867920Y-19537484D02*
X9886968Y-19547008D01*
X9886968Y-19547008D02*
X9896491Y-19556531D01*
X9896491Y-19556531D02*
X9906015Y-19575579D01*
X9906015Y-19575579D02*
X9906015Y-19594627D01*
X9906015Y-19594627D02*
X9896491Y-19623198D01*
X9896491Y-19623198D02*
X9782206Y-19737484D01*
X9782206Y-19737484D02*
X9906015Y-19737484D01*
X9982206Y-19556531D02*
X9991730Y-19547008D01*
X9991730Y-19547008D02*
X10010777Y-19537484D01*
X10010777Y-19537484D02*
X10058396Y-19537484D01*
X10058396Y-19537484D02*
X10077444Y-19547008D01*
X10077444Y-19547008D02*
X10086968Y-19556531D01*
X10086968Y-19556531D02*
X10096491Y-19575579D01*
X10096491Y-19575579D02*
X10096491Y-19594627D01*
X10096491Y-19594627D02*
X10086968Y-19623198D01*
X10086968Y-19623198D02*
X9972682Y-19737484D01*
X9972682Y-19737484D02*
X10096491Y-19737484D01*
X10334587Y-19737484D02*
X10334587Y-19537484D01*
X10420301Y-19737484D02*
X10420301Y-19632722D01*
X10420301Y-19632722D02*
X10410777Y-19613674D01*
X10410777Y-19613674D02*
X10391730Y-19604150D01*
X10391730Y-19604150D02*
X10363158Y-19604150D01*
X10363158Y-19604150D02*
X10344111Y-19613674D01*
X10344111Y-19613674D02*
X10334587Y-19623198D01*
X10544111Y-19737484D02*
X10525063Y-19727960D01*
X10525063Y-19727960D02*
X10515539Y-19718436D01*
X10515539Y-19718436D02*
X10506015Y-19699389D01*
X10506015Y-19699389D02*
X10506015Y-19642246D01*
X10506015Y-19642246D02*
X10515539Y-19623198D01*
X10515539Y-19623198D02*
X10525063Y-19613674D01*
X10525063Y-19613674D02*
X10544111Y-19604150D01*
X10544111Y-19604150D02*
X10572682Y-19604150D01*
X10572682Y-19604150D02*
X10591730Y-19613674D01*
X10591730Y-19613674D02*
X10601253Y-19623198D01*
X10601253Y-19623198D02*
X10610777Y-19642246D01*
X10610777Y-19642246D02*
X10610777Y-19699389D01*
X10610777Y-19699389D02*
X10601253Y-19718436D01*
X10601253Y-19718436D02*
X10591730Y-19727960D01*
X10591730Y-19727960D02*
X10572682Y-19737484D01*
X10572682Y-19737484D02*
X10544111Y-19737484D01*
X10725063Y-19737484D02*
X10706015Y-19727960D01*
X10706015Y-19727960D02*
X10696492Y-19708912D01*
X10696492Y-19708912D02*
X10696492Y-19537484D01*
X10877444Y-19727960D02*
X10858396Y-19737484D01*
X10858396Y-19737484D02*
X10820301Y-19737484D01*
X10820301Y-19737484D02*
X10801253Y-19727960D01*
X10801253Y-19727960D02*
X10791730Y-19708912D01*
X10791730Y-19708912D02*
X10791730Y-19632722D01*
X10791730Y-19632722D02*
X10801253Y-19613674D01*
X10801253Y-19613674D02*
X10820301Y-19604150D01*
X10820301Y-19604150D02*
X10858396Y-19604150D01*
X10858396Y-19604150D02*
X10877444Y-19613674D01*
X10877444Y-19613674D02*
X10886968Y-19632722D01*
X10886968Y-19632722D02*
X10886968Y-19651770D01*
X10886968Y-19651770D02*
X10791730Y-19670817D01*
X10963158Y-19727960D02*
X10982206Y-19737484D01*
X10982206Y-19737484D02*
X11020301Y-19737484D01*
X11020301Y-19737484D02*
X11039349Y-19727960D01*
X11039349Y-19727960D02*
X11048873Y-19708912D01*
X11048873Y-19708912D02*
X11048873Y-19699389D01*
X11048873Y-19699389D02*
X11039349Y-19680341D01*
X11039349Y-19680341D02*
X11020301Y-19670817D01*
X11020301Y-19670817D02*
X10991730Y-19670817D01*
X10991730Y-19670817D02*
X10972682Y-19661293D01*
X10972682Y-19661293D02*
X10963158Y-19642246D01*
X10963158Y-19642246D02*
X10963158Y-19632722D01*
X10963158Y-19632722D02*
X10972682Y-19613674D01*
X10972682Y-19613674D02*
X10991730Y-19604150D01*
X10991730Y-19604150D02*
X11020301Y-19604150D01*
X11020301Y-19604150D02*
X11039349Y-19613674D01*
X11115539Y-19813674D02*
X11125063Y-19804150D01*
X11125063Y-19804150D02*
X11144111Y-19775579D01*
X11144111Y-19775579D02*
X11153634Y-19756531D01*
X11153634Y-19756531D02*
X11163158Y-19727960D01*
X11163158Y-19727960D02*
X11172682Y-19680341D01*
X11172682Y-19680341D02*
X11172682Y-19642246D01*
X11172682Y-19642246D02*
X11163158Y-19594627D01*
X11163158Y-19594627D02*
X11153634Y-19566055D01*
X11153634Y-19566055D02*
X11144111Y-19547008D01*
X11144111Y-19547008D02*
X11125063Y-19518436D01*
X11125063Y-19518436D02*
X11115539Y-19508912D01*
M02*
