G04 #@! TF.GenerationSoftware,KiCad,Pcbnew,9.0.1*
G04 #@! TF.CreationDate,2025-07-18T15:32:59+03:00*
G04 #@! TF.ProjectId,AC-DC G__ kayna__,41432d44-4320-447f-9ce7-206b61796e61,rev?*
G04 #@! TF.SameCoordinates,Original*
G04 #@! TF.FileFunction,Soldermask,Top*
G04 #@! TF.FilePolarity,Negative*
%FSLAX46Y46*%
G04 Gerber Fmt 4.6, Leading zero omitted, Abs format (unit mm)*
G04 Created by KiCad (PCBNEW 9.0.1) date 2025-07-18 15:32:59*
%MOMM*%
%LPD*%
G01*
G04 APERTURE LIST*
G04 Aperture macros list*
%AMRoundRect*
0 Rectangle with rounded corners*
0 $1 Rounding radius*
0 $2 $3 $4 $5 $6 $7 $8 $9 X,Y pos of 4 corners*
0 Add a 4 corners polygon primitive as box body*
4,1,4,$2,$3,$4,$5,$6,$7,$8,$9,$2,$3,0*
0 Add four circle primitives for the rounded corners*
1,1,$1+$1,$2,$3*
1,1,$1+$1,$4,$5*
1,1,$1+$1,$6,$7*
1,1,$1+$1,$8,$9*
0 Add four rect primitives between the rounded corners*
20,1,$1+$1,$2,$3,$4,$5,0*
20,1,$1+$1,$4,$5,$6,$7,0*
20,1,$1+$1,$6,$7,$8,$9,0*
20,1,$1+$1,$8,$9,$2,$3,0*%
G04 Aperture macros list end*
%ADD10C,1.600000*%
%ADD11O,1.600000X1.600000*%
%ADD12C,2.000000*%
%ADD13C,3.500000*%
%ADD14R,2.000000X2.000000*%
%ADD15R,3.200000X3.200000*%
%ADD16C,3.200000*%
%ADD17O,3.200000X3.200000*%
%ADD18C,1.200000*%
%ADD19O,1.300000X1.050000*%
%ADD20RoundRect,0.249900X-0.400100X0.275100X-0.400100X-0.275100X0.400100X-0.275100X0.400100X0.275100X0*%
%ADD21C,2.400000*%
%ADD22R,1.600000X1.600000*%
%ADD23C,1.752600*%
%ADD24R,3.960000X1.980000*%
%ADD25O,3.960000X1.980000*%
%ADD26C,2.540000*%
G04 APERTURE END LIST*
D10*
G04 #@! TO.C,R3*
X97600000Y-69000000D03*
D11*
X97600000Y-81700000D03*
G04 #@! TD*
D12*
G04 #@! TO.C,VCC*
X173800000Y-119200000D03*
G04 #@! TD*
D13*
G04 #@! TO.C,D28*
X83375000Y-103000000D03*
D14*
X100035000Y-105540000D03*
D12*
X100035000Y-100460000D03*
G04 #@! TD*
D15*
G04 #@! TO.C,D1*
X141000000Y-61300000D03*
D16*
X141000000Y-66380000D03*
X141000000Y-71460000D03*
X141000000Y-76540000D03*
G04 #@! TD*
D10*
G04 #@! TO.C,C35*
X123250000Y-96250000D03*
X123250000Y-101250000D03*
G04 #@! TD*
D12*
G04 #@! TO.C,L1*
X113650000Y-77400000D03*
X134650000Y-77400000D03*
X134650000Y-62400000D03*
X113650000Y-62400000D03*
G04 #@! TD*
D13*
G04 #@! TO.C,D18*
X83375000Y-158555000D03*
D14*
X100035000Y-161095000D03*
D12*
X100035000Y-156015000D03*
G04 #@! TD*
D15*
G04 #@! TO.C,D22*
X147650000Y-97730000D03*
D17*
X147650000Y-85030000D03*
G04 #@! TD*
D10*
G04 #@! TO.C,CY1*
X125800000Y-88600000D03*
X125800000Y-85100000D03*
G04 #@! TD*
D18*
G04 #@! TO.C,C25*
X185000000Y-121800000D03*
X183000000Y-121800000D03*
G04 #@! TD*
D10*
G04 #@! TO.C,C15*
X92800000Y-121900000D03*
X92800000Y-126900000D03*
G04 #@! TD*
D13*
G04 #@! TO.C,D29*
X83375000Y-147955000D03*
D14*
X100035000Y-150495000D03*
D12*
X100035000Y-145415000D03*
G04 #@! TD*
D10*
G04 #@! TO.C,C34*
X133750000Y-97750000D03*
X133750000Y-101250000D03*
G04 #@! TD*
G04 #@! TO.C,F1*
X76800000Y-78300000D03*
X84300000Y-78300000D03*
G04 #@! TD*
D13*
G04 #@! TO.C,D17*
X83375000Y-113540000D03*
D14*
X100035000Y-116080000D03*
D12*
X100035000Y-111000000D03*
G04 #@! TD*
D19*
G04 #@! TO.C,Q1*
X182600000Y-129740000D03*
X182600000Y-128470000D03*
D20*
X182600000Y-127200000D03*
G04 #@! TD*
D10*
G04 #@! TO.C,C14*
X95200000Y-135000000D03*
X90200000Y-135000000D03*
G04 #@! TD*
G04 #@! TO.C,C26*
X82200000Y-132535000D03*
X82200000Y-137535000D03*
G04 #@! TD*
D18*
G04 #@! TO.C,C31*
X162465000Y-160655000D03*
X164465000Y-160655000D03*
G04 #@! TD*
D10*
G04 #@! TO.C,C11*
X140500000Y-85000000D03*
X140500000Y-88500000D03*
G04 #@! TD*
G04 #@! TO.C,RV1*
X79250000Y-67533330D03*
X84250000Y-69000000D03*
G04 #@! TD*
D18*
G04 #@! TO.C,C47*
X185000000Y-116000000D03*
X183000000Y-116000000D03*
G04 #@! TD*
D12*
G04 #@! TO.C,TP8*
X190000000Y-116000000D03*
G04 #@! TD*
D21*
G04 #@! TO.C,CY9*
X105900000Y-81050000D03*
X105900000Y-66050000D03*
G04 #@! TD*
D12*
G04 #@! TO.C,TP3*
X194950000Y-71000000D03*
G04 #@! TD*
G04 #@! TO.C,VCC*
X181800000Y-105600000D03*
G04 #@! TD*
D15*
G04 #@! TO.C,D23*
X166650000Y-59000000D03*
D17*
X179350000Y-59000000D03*
G04 #@! TD*
D12*
G04 #@! TO.C,400V*
X133750000Y-91750000D03*
G04 #@! TD*
D22*
G04 #@! TO.C,TH1*
X92800000Y-78200000D03*
D10*
X90300000Y-78200000D03*
G04 #@! TD*
D23*
G04 #@! TO.C,L3*
X154250000Y-95900000D03*
X154250000Y-90799990D03*
X154250000Y-85699996D03*
X154250000Y-76099994D03*
X154250000Y-71000000D03*
X154250000Y-65899990D03*
X189750005Y-95900000D03*
X189750005Y-90799990D03*
X189750005Y-85699996D03*
X189750005Y-76099994D03*
X189750005Y-71000000D03*
X189750005Y-65899990D03*
G04 #@! TD*
D12*
G04 #@! TO.C,+12V*
X100330000Y-139700000D03*
G04 #@! TD*
D24*
G04 #@! TO.C,J2*
X67200000Y-127035000D03*
D25*
X67200000Y-132035000D03*
G04 #@! TD*
D24*
G04 #@! TO.C,J1*
X66200000Y-68200000D03*
D25*
X66200000Y-73200000D03*
X66200000Y-78200000D03*
G04 #@! TD*
D12*
G04 #@! TO.C,HVG*
X175750000Y-131250000D03*
G04 #@! TD*
D26*
G04 #@! TO.C,T2*
X154762500Y-117000000D03*
X154762500Y-124000000D03*
X154762500Y-131000000D03*
X154762500Y-138000000D03*
X154762500Y-145000000D03*
X154762500Y-152000000D03*
X154762500Y-159000000D03*
X113262500Y-159000000D03*
X113262500Y-152000000D03*
X113262500Y-145000000D03*
X113262500Y-138000000D03*
X113262500Y-131000000D03*
X113262500Y-124000000D03*
X113262500Y-117000000D03*
G04 #@! TD*
D12*
G04 #@! TO.C,L*
X146950000Y-71500000D03*
G04 #@! TD*
G04 #@! TO.C,VAUX*
X186200000Y-138600000D03*
G04 #@! TD*
G04 #@! TO.C,N*
X146950000Y-66300000D03*
G04 #@! TD*
D18*
G04 #@! TO.C,C33*
X141250000Y-99000000D03*
X141250000Y-101000000D03*
G04 #@! TD*
D12*
G04 #@! TO.C,L2*
X82400000Y-122660000D03*
X82400000Y-127740000D03*
G04 #@! TD*
G04 #@! TO.C,Opto+*
X166000000Y-155200000D03*
G04 #@! TD*
G04 #@! TO.C,+12V*
X108500000Y-110000000D03*
G04 #@! TD*
G04 #@! TO.C,TP4*
X195000000Y-85000000D03*
G04 #@! TD*
D10*
G04 #@! TO.C,R2*
X178600000Y-124480000D03*
D11*
X178600000Y-114320000D03*
G04 #@! TD*
D10*
G04 #@! TO.C,CY2*
X147000000Y-57500000D03*
X150500000Y-57500000D03*
G04 #@! TD*
G04 #@! TO.C,R72*
X186680000Y-111000000D03*
D11*
X176520000Y-111000000D03*
G04 #@! TD*
D18*
G04 #@! TO.C,C51*
X181600000Y-138800000D03*
X179600000Y-138800000D03*
G04 #@! TD*
D12*
G04 #@! TO.C,LVG*
X162560000Y-131445000D03*
G04 #@! TD*
D18*
G04 #@! TO.C,C43*
X174200000Y-107600000D03*
X174200000Y-105600000D03*
G04 #@! TD*
D12*
G04 #@! TO.C,TP13*
X104000000Y-132000000D03*
G04 #@! TD*
G04 #@! TO.C,TP12*
X106600000Y-142000000D03*
G04 #@! TD*
M02*
