%TF.GenerationSoftware,KiCad,Pcbnew,9.0.1*%
%TF.CreationDate,2025-07-18T15:32:59+03:00*%
%TF.ProjectId,AC-DC G__ kayna__,41432d44-4320-447f-9ce7-206b61796e61,rev?*%
%TF.SameCoordinates,Original*%
%TF.FileFunction,Drillmap*%
%TF.FilePolarity,Positive*%
%FSLAX45Y45*%
G04 Gerber Fmt 4.5, Leading zero omitted, Abs format (unit mm)*
G04 Created by KiCad (PCBNEW 9.0.1) date 2025-07-18 15:32:59*
%MOMM*%
%LPD*%
G01*
G04 APERTURE LIST*
%ADD10C,0.200000*%
%ADD11C,0.350000*%
G04 APERTURE END LIST*
D10*
X6160000Y-5240000D02*
X20380000Y-5240000D01*
X20380000Y-16620000D01*
X6160000Y-16620000D01*
X6160000Y-5240000D01*
D11*
X8162500Y-10125000D02*
X8512500Y-10475000D01*
X8512500Y-10125000D02*
X8162500Y-10475000D01*
X8162500Y-11179000D02*
X8512500Y-11529000D01*
X8512500Y-11179000D02*
X8162500Y-11529000D01*
X8162500Y-14620500D02*
X8512500Y-14970500D01*
X8512500Y-14620500D02*
X8162500Y-14970500D01*
X8162500Y-15680500D02*
X8512500Y-16030500D01*
X8512500Y-15680500D02*
X8162500Y-16030500D01*
D10*
X6410777Y-16941484D02*
X6410777Y-16741484D01*
X6410777Y-16741484D02*
X6458396Y-16741484D01*
X6458396Y-16741484D02*
X6486967Y-16751008D01*
X6486967Y-16751008D02*
X6506015Y-16770055D01*
X6506015Y-16770055D02*
X6515539Y-16789103D01*
X6515539Y-16789103D02*
X6525062Y-16827198D01*
X6525062Y-16827198D02*
X6525062Y-16855770D01*
X6525062Y-16855770D02*
X6515539Y-16893865D01*
X6515539Y-16893865D02*
X6506015Y-16912912D01*
X6506015Y-16912912D02*
X6486967Y-16931960D01*
X6486967Y-16931960D02*
X6458396Y-16941484D01*
X6458396Y-16941484D02*
X6410777Y-16941484D01*
X6610777Y-16941484D02*
X6610777Y-16808150D01*
X6610777Y-16846246D02*
X6620301Y-16827198D01*
X6620301Y-16827198D02*
X6629824Y-16817674D01*
X6629824Y-16817674D02*
X6648872Y-16808150D01*
X6648872Y-16808150D02*
X6667920Y-16808150D01*
X6734586Y-16941484D02*
X6734586Y-16808150D01*
X6734586Y-16741484D02*
X6725062Y-16751008D01*
X6725062Y-16751008D02*
X6734586Y-16760531D01*
X6734586Y-16760531D02*
X6744110Y-16751008D01*
X6744110Y-16751008D02*
X6734586Y-16741484D01*
X6734586Y-16741484D02*
X6734586Y-16760531D01*
X6858396Y-16941484D02*
X6839348Y-16931960D01*
X6839348Y-16931960D02*
X6829824Y-16912912D01*
X6829824Y-16912912D02*
X6829824Y-16741484D01*
X6963158Y-16941484D02*
X6944110Y-16931960D01*
X6944110Y-16931960D02*
X6934586Y-16912912D01*
X6934586Y-16912912D02*
X6934586Y-16741484D01*
X7191729Y-16941484D02*
X7191729Y-16741484D01*
X7191729Y-16741484D02*
X7258396Y-16884341D01*
X7258396Y-16884341D02*
X7325062Y-16741484D01*
X7325062Y-16741484D02*
X7325062Y-16941484D01*
X7506015Y-16941484D02*
X7506015Y-16836722D01*
X7506015Y-16836722D02*
X7496491Y-16817674D01*
X7496491Y-16817674D02*
X7477443Y-16808150D01*
X7477443Y-16808150D02*
X7439348Y-16808150D01*
X7439348Y-16808150D02*
X7420301Y-16817674D01*
X7506015Y-16931960D02*
X7486967Y-16941484D01*
X7486967Y-16941484D02*
X7439348Y-16941484D01*
X7439348Y-16941484D02*
X7420301Y-16931960D01*
X7420301Y-16931960D02*
X7410777Y-16912912D01*
X7410777Y-16912912D02*
X7410777Y-16893865D01*
X7410777Y-16893865D02*
X7420301Y-16874817D01*
X7420301Y-16874817D02*
X7439348Y-16865293D01*
X7439348Y-16865293D02*
X7486967Y-16865293D01*
X7486967Y-16865293D02*
X7506015Y-16855770D01*
X7601253Y-16808150D02*
X7601253Y-17008150D01*
X7601253Y-16817674D02*
X7620301Y-16808150D01*
X7620301Y-16808150D02*
X7658396Y-16808150D01*
X7658396Y-16808150D02*
X7677443Y-16817674D01*
X7677443Y-16817674D02*
X7686967Y-16827198D01*
X7686967Y-16827198D02*
X7696491Y-16846246D01*
X7696491Y-16846246D02*
X7696491Y-16903389D01*
X7696491Y-16903389D02*
X7686967Y-16922436D01*
X7686967Y-16922436D02*
X7677443Y-16931960D01*
X7677443Y-16931960D02*
X7658396Y-16941484D01*
X7658396Y-16941484D02*
X7620301Y-16941484D01*
X7620301Y-16941484D02*
X7601253Y-16931960D01*
X7782205Y-16922436D02*
X7791729Y-16931960D01*
X7791729Y-16931960D02*
X7782205Y-16941484D01*
X7782205Y-16941484D02*
X7772682Y-16931960D01*
X7772682Y-16931960D02*
X7782205Y-16922436D01*
X7782205Y-16922436D02*
X7782205Y-16941484D01*
X7782205Y-16817674D02*
X7791729Y-16827198D01*
X7791729Y-16827198D02*
X7782205Y-16836722D01*
X7782205Y-16836722D02*
X7772682Y-16827198D01*
X7772682Y-16827198D02*
X7782205Y-16817674D01*
X7782205Y-16817674D02*
X7782205Y-16836722D01*
X5950000Y-17170000D02*
X6150000Y-17370000D01*
X6150000Y-17170000D02*
X5950000Y-17370000D01*
X6391729Y-17161484D02*
X6515539Y-17161484D01*
X6515539Y-17161484D02*
X6448872Y-17237674D01*
X6448872Y-17237674D02*
X6477443Y-17237674D01*
X6477443Y-17237674D02*
X6496491Y-17247198D01*
X6496491Y-17247198D02*
X6506015Y-17256722D01*
X6506015Y-17256722D02*
X6515539Y-17275770D01*
X6515539Y-17275770D02*
X6515539Y-17323389D01*
X6515539Y-17323389D02*
X6506015Y-17342436D01*
X6506015Y-17342436D02*
X6496491Y-17351960D01*
X6496491Y-17351960D02*
X6477443Y-17361484D01*
X6477443Y-17361484D02*
X6420301Y-17361484D01*
X6420301Y-17361484D02*
X6401253Y-17351960D01*
X6401253Y-17351960D02*
X6391729Y-17342436D01*
X6601253Y-17342436D02*
X6610777Y-17351960D01*
X6610777Y-17351960D02*
X6601253Y-17361484D01*
X6601253Y-17361484D02*
X6591729Y-17351960D01*
X6591729Y-17351960D02*
X6601253Y-17342436D01*
X6601253Y-17342436D02*
X6601253Y-17361484D01*
X6791729Y-17161484D02*
X6696491Y-17161484D01*
X6696491Y-17161484D02*
X6686967Y-17256722D01*
X6686967Y-17256722D02*
X6696491Y-17247198D01*
X6696491Y-17247198D02*
X6715539Y-17237674D01*
X6715539Y-17237674D02*
X6763158Y-17237674D01*
X6763158Y-17237674D02*
X6782205Y-17247198D01*
X6782205Y-17247198D02*
X6791729Y-17256722D01*
X6791729Y-17256722D02*
X6801253Y-17275770D01*
X6801253Y-17275770D02*
X6801253Y-17323389D01*
X6801253Y-17323389D02*
X6791729Y-17342436D01*
X6791729Y-17342436D02*
X6782205Y-17351960D01*
X6782205Y-17351960D02*
X6763158Y-17361484D01*
X6763158Y-17361484D02*
X6715539Y-17361484D01*
X6715539Y-17361484D02*
X6696491Y-17351960D01*
X6696491Y-17351960D02*
X6686967Y-17342436D01*
X6925062Y-17161484D02*
X6944110Y-17161484D01*
X6944110Y-17161484D02*
X6963158Y-17171008D01*
X6963158Y-17171008D02*
X6972682Y-17180531D01*
X6972682Y-17180531D02*
X6982205Y-17199579D01*
X6982205Y-17199579D02*
X6991729Y-17237674D01*
X6991729Y-17237674D02*
X6991729Y-17285293D01*
X6991729Y-17285293D02*
X6982205Y-17323389D01*
X6982205Y-17323389D02*
X6972682Y-17342436D01*
X6972682Y-17342436D02*
X6963158Y-17351960D01*
X6963158Y-17351960D02*
X6944110Y-17361484D01*
X6944110Y-17361484D02*
X6925062Y-17361484D01*
X6925062Y-17361484D02*
X6906015Y-17351960D01*
X6906015Y-17351960D02*
X6896491Y-17342436D01*
X6896491Y-17342436D02*
X6886967Y-17323389D01*
X6886967Y-17323389D02*
X6877443Y-17285293D01*
X6877443Y-17285293D02*
X6877443Y-17237674D01*
X6877443Y-17237674D02*
X6886967Y-17199579D01*
X6886967Y-17199579D02*
X6896491Y-17180531D01*
X6896491Y-17180531D02*
X6906015Y-17171008D01*
X6906015Y-17171008D02*
X6925062Y-17161484D01*
X7115539Y-17161484D02*
X7134586Y-17161484D01*
X7134586Y-17161484D02*
X7153634Y-17171008D01*
X7153634Y-17171008D02*
X7163158Y-17180531D01*
X7163158Y-17180531D02*
X7172682Y-17199579D01*
X7172682Y-17199579D02*
X7182205Y-17237674D01*
X7182205Y-17237674D02*
X7182205Y-17285293D01*
X7182205Y-17285293D02*
X7172682Y-17323389D01*
X7172682Y-17323389D02*
X7163158Y-17342436D01*
X7163158Y-17342436D02*
X7153634Y-17351960D01*
X7153634Y-17351960D02*
X7134586Y-17361484D01*
X7134586Y-17361484D02*
X7115539Y-17361484D01*
X7115539Y-17361484D02*
X7096491Y-17351960D01*
X7096491Y-17351960D02*
X7086967Y-17342436D01*
X7086967Y-17342436D02*
X7077443Y-17323389D01*
X7077443Y-17323389D02*
X7067920Y-17285293D01*
X7067920Y-17285293D02*
X7067920Y-17237674D01*
X7067920Y-17237674D02*
X7077443Y-17199579D01*
X7077443Y-17199579D02*
X7086967Y-17180531D01*
X7086967Y-17180531D02*
X7096491Y-17171008D01*
X7096491Y-17171008D02*
X7115539Y-17161484D01*
X7267920Y-17361484D02*
X7267920Y-17228150D01*
X7267920Y-17247198D02*
X7277443Y-17237674D01*
X7277443Y-17237674D02*
X7296491Y-17228150D01*
X7296491Y-17228150D02*
X7325063Y-17228150D01*
X7325063Y-17228150D02*
X7344110Y-17237674D01*
X7344110Y-17237674D02*
X7353634Y-17256722D01*
X7353634Y-17256722D02*
X7353634Y-17361484D01*
X7353634Y-17256722D02*
X7363158Y-17237674D01*
X7363158Y-17237674D02*
X7382205Y-17228150D01*
X7382205Y-17228150D02*
X7410777Y-17228150D01*
X7410777Y-17228150D02*
X7429824Y-17237674D01*
X7429824Y-17237674D02*
X7439348Y-17256722D01*
X7439348Y-17256722D02*
X7439348Y-17361484D01*
X7534586Y-17361484D02*
X7534586Y-17228150D01*
X7534586Y-17247198D02*
X7544110Y-17237674D01*
X7544110Y-17237674D02*
X7563158Y-17228150D01*
X7563158Y-17228150D02*
X7591729Y-17228150D01*
X7591729Y-17228150D02*
X7610777Y-17237674D01*
X7610777Y-17237674D02*
X7620301Y-17256722D01*
X7620301Y-17256722D02*
X7620301Y-17361484D01*
X7620301Y-17256722D02*
X7629824Y-17237674D01*
X7629824Y-17237674D02*
X7648872Y-17228150D01*
X7648872Y-17228150D02*
X7677443Y-17228150D01*
X7677443Y-17228150D02*
X7696491Y-17237674D01*
X7696491Y-17237674D02*
X7706015Y-17256722D01*
X7706015Y-17256722D02*
X7706015Y-17361484D01*
X8096491Y-17151960D02*
X7925063Y-17409103D01*
X8353634Y-17161484D02*
X8372682Y-17161484D01*
X8372682Y-17161484D02*
X8391729Y-17171008D01*
X8391729Y-17171008D02*
X8401253Y-17180531D01*
X8401253Y-17180531D02*
X8410777Y-17199579D01*
X8410777Y-17199579D02*
X8420301Y-17237674D01*
X8420301Y-17237674D02*
X8420301Y-17285293D01*
X8420301Y-17285293D02*
X8410777Y-17323389D01*
X8410777Y-17323389D02*
X8401253Y-17342436D01*
X8401253Y-17342436D02*
X8391729Y-17351960D01*
X8391729Y-17351960D02*
X8372682Y-17361484D01*
X8372682Y-17361484D02*
X8353634Y-17361484D01*
X8353634Y-17361484D02*
X8334586Y-17351960D01*
X8334586Y-17351960D02*
X8325063Y-17342436D01*
X8325063Y-17342436D02*
X8315539Y-17323389D01*
X8315539Y-17323389D02*
X8306015Y-17285293D01*
X8306015Y-17285293D02*
X8306015Y-17237674D01*
X8306015Y-17237674D02*
X8315539Y-17199579D01*
X8315539Y-17199579D02*
X8325063Y-17180531D01*
X8325063Y-17180531D02*
X8334586Y-17171008D01*
X8334586Y-17171008D02*
X8353634Y-17161484D01*
X8506015Y-17342436D02*
X8515539Y-17351960D01*
X8515539Y-17351960D02*
X8506015Y-17361484D01*
X8506015Y-17361484D02*
X8496491Y-17351960D01*
X8496491Y-17351960D02*
X8506015Y-17342436D01*
X8506015Y-17342436D02*
X8506015Y-17361484D01*
X8706015Y-17361484D02*
X8591729Y-17361484D01*
X8648872Y-17361484D02*
X8648872Y-17161484D01*
X8648872Y-17161484D02*
X8629825Y-17190055D01*
X8629825Y-17190055D02*
X8610777Y-17209103D01*
X8610777Y-17209103D02*
X8591729Y-17218627D01*
X8772682Y-17161484D02*
X8896491Y-17161484D01*
X8896491Y-17161484D02*
X8829825Y-17237674D01*
X8829825Y-17237674D02*
X8858396Y-17237674D01*
X8858396Y-17237674D02*
X8877444Y-17247198D01*
X8877444Y-17247198D02*
X8886968Y-17256722D01*
X8886968Y-17256722D02*
X8896491Y-17275770D01*
X8896491Y-17275770D02*
X8896491Y-17323389D01*
X8896491Y-17323389D02*
X8886968Y-17342436D01*
X8886968Y-17342436D02*
X8877444Y-17351960D01*
X8877444Y-17351960D02*
X8858396Y-17361484D01*
X8858396Y-17361484D02*
X8801253Y-17361484D01*
X8801253Y-17361484D02*
X8782206Y-17351960D01*
X8782206Y-17351960D02*
X8772682Y-17342436D01*
X8963158Y-17161484D02*
X9096491Y-17161484D01*
X9096491Y-17161484D02*
X9010777Y-17361484D01*
X9201253Y-17247198D02*
X9182206Y-17237674D01*
X9182206Y-17237674D02*
X9172682Y-17228150D01*
X9172682Y-17228150D02*
X9163158Y-17209103D01*
X9163158Y-17209103D02*
X9163158Y-17199579D01*
X9163158Y-17199579D02*
X9172682Y-17180531D01*
X9172682Y-17180531D02*
X9182206Y-17171008D01*
X9182206Y-17171008D02*
X9201253Y-17161484D01*
X9201253Y-17161484D02*
X9239349Y-17161484D01*
X9239349Y-17161484D02*
X9258396Y-17171008D01*
X9258396Y-17171008D02*
X9267920Y-17180531D01*
X9267920Y-17180531D02*
X9277444Y-17199579D01*
X9277444Y-17199579D02*
X9277444Y-17209103D01*
X9277444Y-17209103D02*
X9267920Y-17228150D01*
X9267920Y-17228150D02*
X9258396Y-17237674D01*
X9258396Y-17237674D02*
X9239349Y-17247198D01*
X9239349Y-17247198D02*
X9201253Y-17247198D01*
X9201253Y-17247198D02*
X9182206Y-17256722D01*
X9182206Y-17256722D02*
X9172682Y-17266246D01*
X9172682Y-17266246D02*
X9163158Y-17285293D01*
X9163158Y-17285293D02*
X9163158Y-17323389D01*
X9163158Y-17323389D02*
X9172682Y-17342436D01*
X9172682Y-17342436D02*
X9182206Y-17351960D01*
X9182206Y-17351960D02*
X9201253Y-17361484D01*
X9201253Y-17361484D02*
X9239349Y-17361484D01*
X9239349Y-17361484D02*
X9258396Y-17351960D01*
X9258396Y-17351960D02*
X9267920Y-17342436D01*
X9267920Y-17342436D02*
X9277444Y-17323389D01*
X9277444Y-17323389D02*
X9277444Y-17285293D01*
X9277444Y-17285293D02*
X9267920Y-17266246D01*
X9267920Y-17266246D02*
X9258396Y-17256722D01*
X9258396Y-17256722D02*
X9239349Y-17247198D01*
X9353634Y-17161484D02*
X9353634Y-17199579D01*
X9429825Y-17161484D02*
X9429825Y-17199579D01*
X9725063Y-17437674D02*
X9715539Y-17428150D01*
X9715539Y-17428150D02*
X9696491Y-17399579D01*
X9696491Y-17399579D02*
X9686968Y-17380531D01*
X9686968Y-17380531D02*
X9677444Y-17351960D01*
X9677444Y-17351960D02*
X9667920Y-17304341D01*
X9667920Y-17304341D02*
X9667920Y-17266246D01*
X9667920Y-17266246D02*
X9677444Y-17218627D01*
X9677444Y-17218627D02*
X9686968Y-17190055D01*
X9686968Y-17190055D02*
X9696491Y-17171008D01*
X9696491Y-17171008D02*
X9715539Y-17142436D01*
X9715539Y-17142436D02*
X9725063Y-17132912D01*
X9886968Y-17228150D02*
X9886968Y-17361484D01*
X9839349Y-17151960D02*
X9791730Y-17294817D01*
X9791730Y-17294817D02*
X9915539Y-17294817D01*
X10144111Y-17361484D02*
X10144111Y-17161484D01*
X10229825Y-17361484D02*
X10229825Y-17256722D01*
X10229825Y-17256722D02*
X10220301Y-17237674D01*
X10220301Y-17237674D02*
X10201253Y-17228150D01*
X10201253Y-17228150D02*
X10172682Y-17228150D01*
X10172682Y-17228150D02*
X10153634Y-17237674D01*
X10153634Y-17237674D02*
X10144111Y-17247198D01*
X10353634Y-17361484D02*
X10334587Y-17351960D01*
X10334587Y-17351960D02*
X10325063Y-17342436D01*
X10325063Y-17342436D02*
X10315539Y-17323389D01*
X10315539Y-17323389D02*
X10315539Y-17266246D01*
X10315539Y-17266246D02*
X10325063Y-17247198D01*
X10325063Y-17247198D02*
X10334587Y-17237674D01*
X10334587Y-17237674D02*
X10353634Y-17228150D01*
X10353634Y-17228150D02*
X10382206Y-17228150D01*
X10382206Y-17228150D02*
X10401253Y-17237674D01*
X10401253Y-17237674D02*
X10410777Y-17247198D01*
X10410777Y-17247198D02*
X10420301Y-17266246D01*
X10420301Y-17266246D02*
X10420301Y-17323389D01*
X10420301Y-17323389D02*
X10410777Y-17342436D01*
X10410777Y-17342436D02*
X10401253Y-17351960D01*
X10401253Y-17351960D02*
X10382206Y-17361484D01*
X10382206Y-17361484D02*
X10353634Y-17361484D01*
X10534587Y-17361484D02*
X10515539Y-17351960D01*
X10515539Y-17351960D02*
X10506015Y-17332912D01*
X10506015Y-17332912D02*
X10506015Y-17161484D01*
X10686968Y-17351960D02*
X10667920Y-17361484D01*
X10667920Y-17361484D02*
X10629825Y-17361484D01*
X10629825Y-17361484D02*
X10610777Y-17351960D01*
X10610777Y-17351960D02*
X10601253Y-17332912D01*
X10601253Y-17332912D02*
X10601253Y-17256722D01*
X10601253Y-17256722D02*
X10610777Y-17237674D01*
X10610777Y-17237674D02*
X10629825Y-17228150D01*
X10629825Y-17228150D02*
X10667920Y-17228150D01*
X10667920Y-17228150D02*
X10686968Y-17237674D01*
X10686968Y-17237674D02*
X10696492Y-17256722D01*
X10696492Y-17256722D02*
X10696492Y-17275770D01*
X10696492Y-17275770D02*
X10601253Y-17294817D01*
X10772682Y-17351960D02*
X10791730Y-17361484D01*
X10791730Y-17361484D02*
X10829825Y-17361484D01*
X10829825Y-17361484D02*
X10848873Y-17351960D01*
X10848873Y-17351960D02*
X10858396Y-17332912D01*
X10858396Y-17332912D02*
X10858396Y-17323389D01*
X10858396Y-17323389D02*
X10848873Y-17304341D01*
X10848873Y-17304341D02*
X10829825Y-17294817D01*
X10829825Y-17294817D02*
X10801253Y-17294817D01*
X10801253Y-17294817D02*
X10782206Y-17285293D01*
X10782206Y-17285293D02*
X10772682Y-17266246D01*
X10772682Y-17266246D02*
X10772682Y-17256722D01*
X10772682Y-17256722D02*
X10782206Y-17237674D01*
X10782206Y-17237674D02*
X10801253Y-17228150D01*
X10801253Y-17228150D02*
X10829825Y-17228150D01*
X10829825Y-17228150D02*
X10848873Y-17237674D01*
X10925063Y-17437674D02*
X10934587Y-17428150D01*
X10934587Y-17428150D02*
X10953634Y-17399579D01*
X10953634Y-17399579D02*
X10963158Y-17380531D01*
X10963158Y-17380531D02*
X10972682Y-17351960D01*
X10972682Y-17351960D02*
X10982206Y-17304341D01*
X10982206Y-17304341D02*
X10982206Y-17266246D01*
X10982206Y-17266246D02*
X10972682Y-17218627D01*
X10972682Y-17218627D02*
X10963158Y-17190055D01*
X10963158Y-17190055D02*
X10953634Y-17171008D01*
X10953634Y-17171008D02*
X10934587Y-17142436D01*
X10934587Y-17142436D02*
X10925063Y-17132912D01*
X11286968Y-17437674D02*
X11277444Y-17428150D01*
X11277444Y-17428150D02*
X11258396Y-17399579D01*
X11258396Y-17399579D02*
X11248872Y-17380531D01*
X11248872Y-17380531D02*
X11239349Y-17351960D01*
X11239349Y-17351960D02*
X11229825Y-17304341D01*
X11229825Y-17304341D02*
X11229825Y-17266246D01*
X11229825Y-17266246D02*
X11239349Y-17218627D01*
X11239349Y-17218627D02*
X11248872Y-17190055D01*
X11248872Y-17190055D02*
X11258396Y-17171008D01*
X11258396Y-17171008D02*
X11277444Y-17142436D01*
X11277444Y-17142436D02*
X11286968Y-17132912D01*
X11363158Y-17228150D02*
X11363158Y-17361484D01*
X11363158Y-17247198D02*
X11372682Y-17237674D01*
X11372682Y-17237674D02*
X11391730Y-17228150D01*
X11391730Y-17228150D02*
X11420301Y-17228150D01*
X11420301Y-17228150D02*
X11439349Y-17237674D01*
X11439349Y-17237674D02*
X11448872Y-17256722D01*
X11448872Y-17256722D02*
X11448872Y-17361484D01*
X11572682Y-17361484D02*
X11553634Y-17351960D01*
X11553634Y-17351960D02*
X11544111Y-17342436D01*
X11544111Y-17342436D02*
X11534587Y-17323389D01*
X11534587Y-17323389D02*
X11534587Y-17266246D01*
X11534587Y-17266246D02*
X11544111Y-17247198D01*
X11544111Y-17247198D02*
X11553634Y-17237674D01*
X11553634Y-17237674D02*
X11572682Y-17228150D01*
X11572682Y-17228150D02*
X11601253Y-17228150D01*
X11601253Y-17228150D02*
X11620301Y-17237674D01*
X11620301Y-17237674D02*
X11629825Y-17247198D01*
X11629825Y-17247198D02*
X11639349Y-17266246D01*
X11639349Y-17266246D02*
X11639349Y-17323389D01*
X11639349Y-17323389D02*
X11629825Y-17342436D01*
X11629825Y-17342436D02*
X11620301Y-17351960D01*
X11620301Y-17351960D02*
X11601253Y-17361484D01*
X11601253Y-17361484D02*
X11572682Y-17361484D01*
X11696492Y-17228150D02*
X11772682Y-17228150D01*
X11725063Y-17161484D02*
X11725063Y-17332912D01*
X11725063Y-17332912D02*
X11734587Y-17351960D01*
X11734587Y-17351960D02*
X11753634Y-17361484D01*
X11753634Y-17361484D02*
X11772682Y-17361484D01*
X11991730Y-17228150D02*
X11991730Y-17428150D01*
X11991730Y-17237674D02*
X12010777Y-17228150D01*
X12010777Y-17228150D02*
X12048873Y-17228150D01*
X12048873Y-17228150D02*
X12067920Y-17237674D01*
X12067920Y-17237674D02*
X12077444Y-17247198D01*
X12077444Y-17247198D02*
X12086968Y-17266246D01*
X12086968Y-17266246D02*
X12086968Y-17323389D01*
X12086968Y-17323389D02*
X12077444Y-17342436D01*
X12077444Y-17342436D02*
X12067920Y-17351960D01*
X12067920Y-17351960D02*
X12048873Y-17361484D01*
X12048873Y-17361484D02*
X12010777Y-17361484D01*
X12010777Y-17361484D02*
X11991730Y-17351960D01*
X12201253Y-17361484D02*
X12182206Y-17351960D01*
X12182206Y-17351960D02*
X12172682Y-17332912D01*
X12172682Y-17332912D02*
X12172682Y-17161484D01*
X12363158Y-17361484D02*
X12363158Y-17256722D01*
X12363158Y-17256722D02*
X12353634Y-17237674D01*
X12353634Y-17237674D02*
X12334587Y-17228150D01*
X12334587Y-17228150D02*
X12296492Y-17228150D01*
X12296492Y-17228150D02*
X12277444Y-17237674D01*
X12363158Y-17351960D02*
X12344111Y-17361484D01*
X12344111Y-17361484D02*
X12296492Y-17361484D01*
X12296492Y-17361484D02*
X12277444Y-17351960D01*
X12277444Y-17351960D02*
X12267920Y-17332912D01*
X12267920Y-17332912D02*
X12267920Y-17313865D01*
X12267920Y-17313865D02*
X12277444Y-17294817D01*
X12277444Y-17294817D02*
X12296492Y-17285293D01*
X12296492Y-17285293D02*
X12344111Y-17285293D01*
X12344111Y-17285293D02*
X12363158Y-17275770D01*
X12429825Y-17228150D02*
X12506015Y-17228150D01*
X12458396Y-17161484D02*
X12458396Y-17332912D01*
X12458396Y-17332912D02*
X12467920Y-17351960D01*
X12467920Y-17351960D02*
X12486968Y-17361484D01*
X12486968Y-17361484D02*
X12506015Y-17361484D01*
X12648873Y-17351960D02*
X12629825Y-17361484D01*
X12629825Y-17361484D02*
X12591730Y-17361484D01*
X12591730Y-17361484D02*
X12572682Y-17351960D01*
X12572682Y-17351960D02*
X12563158Y-17332912D01*
X12563158Y-17332912D02*
X12563158Y-17256722D01*
X12563158Y-17256722D02*
X12572682Y-17237674D01*
X12572682Y-17237674D02*
X12591730Y-17228150D01*
X12591730Y-17228150D02*
X12629825Y-17228150D01*
X12629825Y-17228150D02*
X12648873Y-17237674D01*
X12648873Y-17237674D02*
X12658396Y-17256722D01*
X12658396Y-17256722D02*
X12658396Y-17275770D01*
X12658396Y-17275770D02*
X12563158Y-17294817D01*
X12829825Y-17361484D02*
X12829825Y-17161484D01*
X12829825Y-17351960D02*
X12810777Y-17361484D01*
X12810777Y-17361484D02*
X12772682Y-17361484D01*
X12772682Y-17361484D02*
X12753634Y-17351960D01*
X12753634Y-17351960D02*
X12744111Y-17342436D01*
X12744111Y-17342436D02*
X12734587Y-17323389D01*
X12734587Y-17323389D02*
X12734587Y-17266246D01*
X12734587Y-17266246D02*
X12744111Y-17247198D01*
X12744111Y-17247198D02*
X12753634Y-17237674D01*
X12753634Y-17237674D02*
X12772682Y-17228150D01*
X12772682Y-17228150D02*
X12810777Y-17228150D01*
X12810777Y-17228150D02*
X12829825Y-17237674D01*
X12906015Y-17437674D02*
X12915539Y-17428150D01*
X12915539Y-17428150D02*
X12934587Y-17399579D01*
X12934587Y-17399579D02*
X12944111Y-17380531D01*
X12944111Y-17380531D02*
X12953634Y-17351960D01*
X12953634Y-17351960D02*
X12963158Y-17304341D01*
X12963158Y-17304341D02*
X12963158Y-17266246D01*
X12963158Y-17266246D02*
X12953634Y-17218627D01*
X12953634Y-17218627D02*
X12944111Y-17190055D01*
X12944111Y-17190055D02*
X12934587Y-17171008D01*
X12934587Y-17171008D02*
X12915539Y-17142436D01*
X12915539Y-17142436D02*
X12906015Y-17132912D01*
M02*
