M48
; DRILL file {KiCad 9.0.1} date 2025-07-18T15:32:59+0300
; FORMAT={-:-/ absolute / metric / decimal}
; #@! TF.CreationDate,2025-07-18T15:32:59+03:00
; #@! TF.GenerationSoftware,Kicad,Pcbnew,9.0.1
; #@! TF.FileFunction,Plated,1,2,PTH
FMAT,2
METRIC
; #@! TA.AperFunction,Plated,PTH,ViaDrill
T1C0.300
; #@! TA.AperFunction,Plated,PTH,ComponentDrill
T2C0.600
; #@! TA.AperFunction,Plated,PTH,ComponentDrill
T3C0.750
; #@! TA.AperFunction,Plated,PTH,ComponentDrill
T4C0.800
; #@! TA.AperFunction,Plated,PTH,ComponentDrill
T5C1.000
; #@! TA.AperFunction,Plated,PTH,ComponentDrill
T6C1.100
; #@! TA.AperFunction,Plated,PTH,ComponentDrill
T7C1.200
; #@! TA.AperFunction,Plated,PTH,ComponentDrill
T8C1.245
; #@! TA.AperFunction,Plated,PTH,ComponentDrill
T9C1.320
; #@! TA.AperFunction,Plated,PTH,ComponentDrill
T10C1.600
%
G90
G05
T1
X65.5Y-133.75
X66.25Y-133.75
X67.0Y-133.75
X67.75Y-133.75
X68.5Y-133.75
X68.9Y-72.45
X68.9Y-73.25
X68.9Y-74.05
X69.25Y-133.75
X69.8Y-72.45
X69.8Y-73.25
X69.8Y-74.05
X70.65Y-72.45
X70.65Y-73.25
X70.65Y-74.05
X71.75Y-158.0
X80.5Y-137.5
X80.75Y-136.75
X80.75Y-138.25
X81.25Y-138.75
X82.0Y-139.0
X82.75Y-139.0
X83.5Y-138.5
X83.75Y-137.75
X86.5Y-93.25
X88.25Y-134.75
X88.75Y-134.0
X89.5Y-133.5
X90.25Y-133.25
X91.0Y-133.5
X91.192Y-148.637
X91.192Y-158.797
X91.5Y-134.25
X91.5Y-135.75
X91.5Y-138.0
X91.5Y-138.75
X91.5Y-139.5
X91.75Y-135.0
X107.0Y-152.5
X107.0Y-153.25
X107.0Y-154.0
X107.0Y-154.75
X108.972Y-145.208
X111.25Y-123.25
X111.25Y-124.5
X111.75Y-122.25
X111.75Y-125.5
X112.5Y-126.0
X112.75Y-121.75
X113.5Y-126.0
X113.75Y-121.75
X114.5Y-122.0
X114.5Y-125.75
X115.25Y-122.75
X115.25Y-124.75
X115.5Y-123.75
X119.25Y-148.25
X119.4Y-138.0
X119.5Y-142.5
X120.0Y-148.25
X120.25Y-142.5
X120.25Y-151.25
X120.25Y-152.0
X120.25Y-152.75
X120.25Y-153.5
X120.25Y-154.25
X120.25Y-155.0
X121.55Y-94.75
X121.55Y-95.55
X121.55Y-96.35
X121.55Y-96.35
X121.55Y-97.15
X122.45Y-94.75
X122.55Y-148.7
X122.55Y-149.45
X122.65Y-102.8
X122.8Y-141.95
X122.8Y-142.7
X122.8Y-147.05
X122.8Y-147.8
X123.0Y-150.65
X123.0Y-151.4
X123.3Y-94.75
X123.3Y-154.3
X123.3Y-155.05
X123.4Y-102.8
X124.05Y-88.0
X124.05Y-88.8
X124.05Y-88.8
X124.05Y-89.6
X124.05Y-90.4
X124.15Y-102.8
X124.2Y-94.75
X124.9Y-90.4
X124.9Y-102.8
X125.05Y-94.75
X125.05Y-95.55
X125.05Y-96.35
X125.05Y-96.35
X125.05Y-97.15
X125.65Y-102.8
X125.8Y-90.4
X126.15Y-133.65
X126.4Y-102.8
X126.65Y-90.4
X126.75Y-157.15
X126.75Y-157.9
X126.75Y-158.65
X126.9Y-133.65
X127.55Y-88.0
X127.55Y-88.8
X127.55Y-88.8
X127.55Y-89.6
X127.55Y-90.4
X127.65Y-133.65
X128.276Y-134.286
X128.276Y-135.048
X130.2Y-129.8
X130.943Y-152.828
X131.5Y-113.75
X131.8Y-102.9
X132.086Y-144.7
X132.55Y-102.9
X133.3Y-102.9
X134.05Y-102.9
X134.8Y-102.9
X135.55Y-102.9
X135.75Y-132.95
X136.5Y-132.95
X137.0Y-121.2
X137.25Y-132.95
X137.95Y-131.85
X138.563Y-89.328
X138.7Y-131.85
X138.9Y-154.0
X139.198Y-89.836
X139.35Y-102.95
X139.45Y-131.85
X139.65Y-154.0
X139.833Y-90.217
X140.1Y-102.95
X140.4Y-154.0
X140.45Y-152.4
X140.45Y-153.15
X140.595Y-90.598
X140.85Y-102.95
X141.357Y-90.344
X141.6Y-102.95
X141.865Y-89.836
X141.95Y-146.75
X141.95Y-147.5
X141.95Y-148.25
X142.246Y-89.201
X142.25Y-122.7
X142.25Y-123.45
X142.35Y-102.95
X143.1Y-102.95
X144.532Y-133.016
X145.25Y-146.75
X145.25Y-147.5
X145.25Y-148.25
X146.056Y-128.698
X148.342Y-134.54
X151.644Y-126.158
X151.898Y-139.874
X152.406Y-101.774
X153.168Y-103.552
X154.94Y-140.97
X155.2Y-105.076
X155.454Y-101.774
X158.4Y-78.4
X158.4Y-102.2
X160.2Y-59.9
X160.2Y-59.9
X160.2Y-62.9
X160.2Y-62.9
X160.95Y-59.9
X160.95Y-62.9
X161.55Y-99.742
X161.7Y-59.9
X161.7Y-62.9
X162.45Y-59.9
X162.45Y-62.9
X162.82Y-100.123
X163.2Y-59.9
X163.2Y-59.9
X163.2Y-59.9
X163.2Y-60.65
X163.2Y-61.4
X163.2Y-62.15
X163.2Y-62.9
X163.2Y-62.9
X164.344Y-98.1
X165.05Y-89.75
X165.05Y-90.6
X165.05Y-91.35
X165.35Y-111.5
X165.8Y-89.75
X166.1Y-111.5
X166.376Y-99.996
X166.55Y-87.5
X166.55Y-88.25
X166.55Y-89.0
X166.55Y-89.75
X166.85Y-111.5
X167.6Y-110.35
X167.6Y-111.5
X167.646Y-99.996
X168.25Y-82.05
X168.35Y-110.35
X169.0Y-82.05
X169.15Y-110.35
X169.75Y-82.05
X170.186Y-93.9
X170.5Y-82.05
X171.25Y-82.05
X172.0Y-82.05
X172.75Y-82.05
X173.5Y-82.05
X173.6Y-104.35
X174.25Y-82.05
X174.35Y-104.35
X174.8Y-136.0
X175.0Y-82.05
X175.1Y-104.35
X175.75Y-82.05
X176.409Y-93.773
X176.5Y-82.05
X177.25Y-82.05
X178.0Y-82.05
X178.45Y-137.95
X178.45Y-138.7
X178.45Y-139.45
X178.45Y-140.25
X178.75Y-82.05
X178.85Y-107.85
X178.85Y-108.6
X179.2Y-140.25
X179.5Y-82.05
X179.6Y-88.55
X179.6Y-89.3
X179.95Y-140.25
X180.4Y-90.4
X180.4Y-91.15
X180.4Y-91.9
X181.7Y-115.6
X181.7Y-116.35
X181.75Y-121.35
X181.75Y-122.1
X182.0Y-117.05
X182.15Y-120.75
X182.2Y-122.7
X182.378Y-91.614
X182.6Y-117.65
X183.6Y-94.4
X184.8Y-94.6
X185.6Y-82.2
X186.2Y-104.85
X186.2Y-105.6
X187.7Y-128.2
X187.7Y-128.95
X187.7Y-129.7
X188.25Y-90.75
X188.45Y-91.5
X188.5Y-90.0
X188.95Y-92.05
X189.0Y-89.45
X189.45Y-104.9
X189.45Y-105.65
X189.7Y-92.35
X189.75Y-89.2
X190.0Y-130.45
X190.0Y-133.45
X190.5Y-89.5
X190.5Y-92.1
X190.75Y-130.45
X190.75Y-133.45
X191.05Y-91.55
X191.1Y-90.0
X191.3Y-90.75
X191.5Y-130.45
X191.5Y-133.45
X192.25Y-130.45
X192.25Y-133.45
X193.0Y-130.45
X193.0Y-133.45
X193.45Y-85.0
X193.65Y-85.75
X193.7Y-84.25
X193.75Y-130.45
X193.75Y-130.45
X193.75Y-131.2
X193.75Y-131.95
X193.75Y-132.7
X193.75Y-133.45
X194.15Y-86.3
X194.2Y-83.7
X194.9Y-86.6
X194.95Y-83.45
X195.7Y-86.35
X195.75Y-83.7
X196.25Y-85.8
X196.3Y-84.25
X196.5Y-85.0
T2
X79.25Y-67.533
X84.25Y-69.0
X141.25Y-99.0
X141.25Y-101.0
X162.465Y-160.655
X164.465Y-160.655
X174.2Y-105.6
X174.2Y-107.6
X179.6Y-138.8
X181.6Y-138.8
X183.0Y-116.0
X183.0Y-121.8
X185.0Y-116.0
X185.0Y-121.8
T3
X182.6Y-127.2
X182.6Y-128.47
X182.6Y-129.74
T4
X76.8Y-78.3
X82.2Y-132.535
X82.2Y-137.535
X84.3Y-78.3
X90.2Y-135.0
X90.3Y-78.2
X92.8Y-78.2
X92.8Y-121.9
X92.8Y-126.9
X95.2Y-135.0
X97.6Y-69.0
X97.6Y-81.7
X123.25Y-96.25
X123.25Y-101.25
X125.8Y-85.1
X125.8Y-88.6
X133.75Y-97.75
X133.75Y-101.25
X140.5Y-85.0
X140.5Y-88.5
X147.0Y-57.5
X150.5Y-57.5
X176.52Y-111.0
X178.6Y-114.32
X178.6Y-124.48
X186.68Y-111.0
T5
X82.4Y-122.66
X82.4Y-127.74
X100.33Y-139.7
X104.0Y-132.0
X106.6Y-142.0
X108.5Y-110.0
X113.65Y-62.4
X113.65Y-77.4
X133.75Y-91.75
X134.65Y-62.4
X134.65Y-77.4
X146.95Y-66.3
X146.95Y-71.5
X162.56Y-131.445
X166.0Y-155.2
X173.8Y-119.2
X175.75Y-131.25
X181.8Y-105.6
X186.2Y-138.6
X190.0Y-116.0
X194.95Y-71.0
X195.0Y-85.0
T6
X100.035Y-100.46
X100.035Y-105.54
X100.035Y-111.0
X100.035Y-116.08
X100.035Y-145.415
X100.035Y-150.495
X100.035Y-156.015
X100.035Y-161.095
T7
X105.9Y-66.05
X105.9Y-81.05
T8
X154.25Y-65.9
X154.25Y-71.0
X154.25Y-76.1
X154.25Y-85.7
X154.25Y-90.8
X154.25Y-95.9
X189.75Y-65.9
X189.75Y-71.0
X189.75Y-76.1
X189.75Y-85.7
X189.75Y-90.8
X189.75Y-95.9
T9
X66.2Y-68.2
X66.2Y-73.2
X66.2Y-78.2
X67.2Y-127.035
X67.2Y-132.035
T10
X113.262Y-117.0
X113.262Y-124.0
X113.262Y-131.0
X113.262Y-138.0
X113.262Y-145.0
X113.262Y-152.0
X113.262Y-159.0
X141.0Y-61.3
X141.0Y-66.38
X141.0Y-71.46
X141.0Y-76.54
X147.65Y-85.03
X147.65Y-97.73
X154.762Y-117.0
X154.762Y-124.0
X154.762Y-131.0
X154.762Y-138.0
X154.762Y-145.0
X154.762Y-152.0
X154.762Y-159.0
X166.65Y-59.0
X179.35Y-59.0
M30
