G04 #@! TF.GenerationSoftware,KiCad,Pcbnew,9.0.1*
G04 #@! TF.CreationDate,2025-07-18T15:32:59+03:00*
G04 #@! TF.ProjectId,AC-DC G__ kayna__,41432d44-4320-447f-9ce7-206b61796e61,rev?*
G04 #@! TF.SameCoordinates,Original*
G04 #@! TF.FileFunction,Legend,Bot*
G04 #@! TF.FilePolarity,Positive*
%FSLAX46Y46*%
G04 Gerber Fmt 4.6, Leading zero omitted, Abs format (unit mm)*
G04 Created by KiCad (PCBNEW 9.0.1) date 2025-07-18 15:32:59*
%MOMM*%
%LPD*%
G01*
G04 APERTURE LIST*
G04 Aperture macros list*
%AMRoundRect*
0 Rectangle with rounded corners*
0 $1 Rounding radius*
0 $2 $3 $4 $5 $6 $7 $8 $9 X,Y pos of 4 corners*
0 Add a 4 corners polygon primitive as box body*
4,1,4,$2,$3,$4,$5,$6,$7,$8,$9,$2,$3,0*
0 Add four circle primitives for the rounded corners*
1,1,$1+$1,$2,$3*
1,1,$1+$1,$4,$5*
1,1,$1+$1,$6,$7*
1,1,$1+$1,$8,$9*
0 Add four rect primitives between the rounded corners*
20,1,$1+$1,$2,$3,$4,$5,0*
20,1,$1+$1,$4,$5,$6,$7,0*
20,1,$1+$1,$6,$7,$8,$9,0*
20,1,$1+$1,$8,$9,$2,$3,0*%
G04 Aperture macros list end*
%ADD10C,0.150000*%
%ADD11C,0.508000*%
%ADD12C,0.120000*%
%ADD13C,0.100000*%
%ADD14C,1.600000*%
%ADD15O,1.600000X1.600000*%
%ADD16C,2.000000*%
%ADD17C,3.500000*%
%ADD18R,2.000000X2.000000*%
%ADD19R,3.200000X3.200000*%
%ADD20C,3.200000*%
%ADD21O,3.200000X3.200000*%
%ADD22C,1.200000*%
%ADD23O,1.300000X1.050000*%
%ADD24RoundRect,0.249900X-0.400100X0.275100X-0.400100X-0.275100X0.400100X-0.275100X0.400100X0.275100X0*%
%ADD25C,2.400000*%
%ADD26R,1.600000X1.600000*%
%ADD27C,1.752600*%
%ADD28R,3.960000X1.980000*%
%ADD29O,3.960000X1.980000*%
%ADD30C,2.540000*%
%ADD31RoundRect,0.250000X0.600000X-1.400000X0.600000X1.400000X-0.600000X1.400000X-0.600000X-1.400000X0*%
%ADD32RoundRect,0.250000X-0.600000X1.400000X-0.600000X-1.400000X0.600000X-1.400000X0.600000X1.400000X0*%
%ADD33RoundRect,0.250000X-0.400000X-0.625000X0.400000X-0.625000X0.400000X0.625000X-0.400000X0.625000X0*%
%ADD34RoundRect,0.250000X0.400000X0.625000X-0.400000X0.625000X-0.400000X-0.625000X0.400000X-0.625000X0*%
%ADD35RoundRect,0.237500X-0.300000X-0.237500X0.300000X-0.237500X0.300000X0.237500X-0.300000X0.237500X0*%
%ADD36RoundRect,0.250000X-1.400000X-0.600000X1.400000X-0.600000X1.400000X0.600000X-1.400000X0.600000X0*%
%ADD37RoundRect,0.250000X-0.650000X0.412500X-0.650000X-0.412500X0.650000X-0.412500X0.650000X0.412500X0*%
%ADD38RoundRect,0.250000X0.625000X-0.312500X0.625000X0.312500X-0.625000X0.312500X-0.625000X-0.312500X0*%
%ADD39RoundRect,0.250000X0.350000X-0.850000X0.350000X0.850000X-0.350000X0.850000X-0.350000X-0.850000X0*%
%ADD40RoundRect,0.249997X2.650003X-2.950003X2.650003X2.950003X-2.650003X2.950003X-2.650003X-2.950003X0*%
%ADD41RoundRect,0.250000X-0.625000X0.400000X-0.625000X-0.400000X0.625000X-0.400000X0.625000X0.400000X0*%
%ADD42RoundRect,0.150000X-0.837500X-0.150000X0.837500X-0.150000X0.837500X0.150000X-0.837500X0.150000X0*%
%ADD43RoundRect,0.250000X-0.312500X-0.625000X0.312500X-0.625000X0.312500X0.625000X-0.312500X0.625000X0*%
%ADD44RoundRect,0.237500X0.300000X0.237500X-0.300000X0.237500X-0.300000X-0.237500X0.300000X-0.237500X0*%
%ADD45RoundRect,0.237500X0.237500X-0.300000X0.237500X0.300000X-0.237500X0.300000X-0.237500X-0.300000X0*%
%ADD46RoundRect,0.250000X-0.475000X0.337500X-0.475000X-0.337500X0.475000X-0.337500X0.475000X0.337500X0*%
%ADD47RoundRect,0.250000X0.350000X1.750000X-0.350000X1.750000X-0.350000X-1.750000X0.350000X-1.750000X0*%
%ADD48RoundRect,0.120000X0.480000X1.880000X-0.480000X1.880000X-0.480000X-1.880000X0.480000X-1.880000X0*%
%ADD49RoundRect,0.250000X0.625000X-0.400000X0.625000X0.400000X-0.625000X0.400000X-0.625000X-0.400000X0*%
%ADD50RoundRect,0.250000X-0.450000X0.350000X-0.450000X-0.350000X0.450000X-0.350000X0.450000X0.350000X0*%
%ADD51RoundRect,0.150000X-0.512500X-0.150000X0.512500X-0.150000X0.512500X0.150000X-0.512500X0.150000X0*%
%ADD52RoundRect,0.155000X-0.212500X-0.155000X0.212500X-0.155000X0.212500X0.155000X-0.212500X0.155000X0*%
%ADD53RoundRect,0.150000X-0.587500X-0.150000X0.587500X-0.150000X0.587500X0.150000X-0.587500X0.150000X0*%
%ADD54RoundRect,0.250000X0.650000X-0.412500X0.650000X0.412500X-0.650000X0.412500X-0.650000X-0.412500X0*%
%ADD55RoundRect,0.225000X0.225000X0.250000X-0.225000X0.250000X-0.225000X-0.250000X0.225000X-0.250000X0*%
%ADD56RoundRect,0.150000X-0.825000X-0.150000X0.825000X-0.150000X0.825000X0.150000X-0.825000X0.150000X0*%
%ADD57RoundRect,0.250000X1.400000X0.600000X-1.400000X0.600000X-1.400000X-0.600000X1.400000X-0.600000X0*%
%ADD58RoundRect,0.249999X-0.750001X-0.640001X0.750001X-0.640001X0.750001X0.640001X-0.750001X0.640001X0*%
%ADD59RoundRect,0.250000X0.475000X-0.250000X0.475000X0.250000X-0.475000X0.250000X-0.475000X-0.250000X0*%
%ADD60RoundRect,0.250000X-0.850000X-0.350000X0.850000X-0.350000X0.850000X0.350000X-0.850000X0.350000X0*%
%ADD61RoundRect,0.249997X-2.950003X-2.650003X2.950003X-2.650003X2.950003X2.650003X-2.950003X2.650003X0*%
%ADD62RoundRect,0.250000X-0.350000X-0.450000X0.350000X-0.450000X0.350000X0.450000X-0.350000X0.450000X0*%
G04 APERTURE END LIST*
D10*
X138154819Y-68261905D02*
X137154819Y-68261905D01*
X137154819Y-68261905D02*
X137154819Y-68500000D01*
X137154819Y-68500000D02*
X137202438Y-68642857D01*
X137202438Y-68642857D02*
X137297676Y-68738095D01*
X137297676Y-68738095D02*
X137392914Y-68785714D01*
X137392914Y-68785714D02*
X137583390Y-68833333D01*
X137583390Y-68833333D02*
X137726247Y-68833333D01*
X137726247Y-68833333D02*
X137916723Y-68785714D01*
X137916723Y-68785714D02*
X138011961Y-68738095D01*
X138011961Y-68738095D02*
X138107200Y-68642857D01*
X138107200Y-68642857D02*
X138154819Y-68500000D01*
X138154819Y-68500000D02*
X138154819Y-68261905D01*
X138154819Y-69785714D02*
X138154819Y-69214286D01*
X138154819Y-69500000D02*
X137154819Y-69500000D01*
X137154819Y-69500000D02*
X137297676Y-69404762D01*
X137297676Y-69404762D02*
X137392914Y-69309524D01*
X137392914Y-69309524D02*
X137440533Y-69214286D01*
X106454819Y-155011905D02*
X105454819Y-155011905D01*
X105454819Y-155011905D02*
X105454819Y-155250000D01*
X105454819Y-155250000D02*
X105502438Y-155392857D01*
X105502438Y-155392857D02*
X105597676Y-155488095D01*
X105597676Y-155488095D02*
X105692914Y-155535714D01*
X105692914Y-155535714D02*
X105883390Y-155583333D01*
X105883390Y-155583333D02*
X106026247Y-155583333D01*
X106026247Y-155583333D02*
X106216723Y-155535714D01*
X106216723Y-155535714D02*
X106311961Y-155488095D01*
X106311961Y-155488095D02*
X106407200Y-155392857D01*
X106407200Y-155392857D02*
X106454819Y-155250000D01*
X106454819Y-155250000D02*
X106454819Y-155011905D01*
X106454819Y-156059524D02*
X106454819Y-156250000D01*
X106454819Y-156250000D02*
X106407200Y-156345238D01*
X106407200Y-156345238D02*
X106359580Y-156392857D01*
X106359580Y-156392857D02*
X106216723Y-156488095D01*
X106216723Y-156488095D02*
X106026247Y-156535714D01*
X106026247Y-156535714D02*
X105645295Y-156535714D01*
X105645295Y-156535714D02*
X105550057Y-156488095D01*
X105550057Y-156488095D02*
X105502438Y-156440476D01*
X105502438Y-156440476D02*
X105454819Y-156345238D01*
X105454819Y-156345238D02*
X105454819Y-156154762D01*
X105454819Y-156154762D02*
X105502438Y-156059524D01*
X105502438Y-156059524D02*
X105550057Y-156011905D01*
X105550057Y-156011905D02*
X105645295Y-155964286D01*
X105645295Y-155964286D02*
X105883390Y-155964286D01*
X105883390Y-155964286D02*
X105978628Y-156011905D01*
X105978628Y-156011905D02*
X106026247Y-156059524D01*
X106026247Y-156059524D02*
X106073866Y-156154762D01*
X106073866Y-156154762D02*
X106073866Y-156345238D01*
X106073866Y-156345238D02*
X106026247Y-156440476D01*
X106026247Y-156440476D02*
X105978628Y-156488095D01*
X105978628Y-156488095D02*
X105883390Y-156535714D01*
X141954819Y-143285714D02*
X140954819Y-143285714D01*
X140954819Y-143285714D02*
X140954819Y-143523809D01*
X140954819Y-143523809D02*
X141002438Y-143666666D01*
X141002438Y-143666666D02*
X141097676Y-143761904D01*
X141097676Y-143761904D02*
X141192914Y-143809523D01*
X141192914Y-143809523D02*
X141383390Y-143857142D01*
X141383390Y-143857142D02*
X141526247Y-143857142D01*
X141526247Y-143857142D02*
X141716723Y-143809523D01*
X141716723Y-143809523D02*
X141811961Y-143761904D01*
X141811961Y-143761904D02*
X141907200Y-143666666D01*
X141907200Y-143666666D02*
X141954819Y-143523809D01*
X141954819Y-143523809D02*
X141954819Y-143285714D01*
X141954819Y-144809523D02*
X141954819Y-144238095D01*
X141954819Y-144523809D02*
X140954819Y-144523809D01*
X140954819Y-144523809D02*
X141097676Y-144428571D01*
X141097676Y-144428571D02*
X141192914Y-144333333D01*
X141192914Y-144333333D02*
X141240533Y-144238095D01*
X141050057Y-145190476D02*
X141002438Y-145238095D01*
X141002438Y-145238095D02*
X140954819Y-145333333D01*
X140954819Y-145333333D02*
X140954819Y-145571428D01*
X140954819Y-145571428D02*
X141002438Y-145666666D01*
X141002438Y-145666666D02*
X141050057Y-145714285D01*
X141050057Y-145714285D02*
X141145295Y-145761904D01*
X141145295Y-145761904D02*
X141240533Y-145761904D01*
X141240533Y-145761904D02*
X141383390Y-145714285D01*
X141383390Y-145714285D02*
X141954819Y-145142857D01*
X141954819Y-145142857D02*
X141954819Y-145761904D01*
X106292857Y-164284819D02*
X106626190Y-163808628D01*
X106864285Y-164284819D02*
X106864285Y-163284819D01*
X106864285Y-163284819D02*
X106483333Y-163284819D01*
X106483333Y-163284819D02*
X106388095Y-163332438D01*
X106388095Y-163332438D02*
X106340476Y-163380057D01*
X106340476Y-163380057D02*
X106292857Y-163475295D01*
X106292857Y-163475295D02*
X106292857Y-163618152D01*
X106292857Y-163618152D02*
X106340476Y-163713390D01*
X106340476Y-163713390D02*
X106388095Y-163761009D01*
X106388095Y-163761009D02*
X106483333Y-163808628D01*
X106483333Y-163808628D02*
X106864285Y-163808628D01*
X105911904Y-163380057D02*
X105864285Y-163332438D01*
X105864285Y-163332438D02*
X105769047Y-163284819D01*
X105769047Y-163284819D02*
X105530952Y-163284819D01*
X105530952Y-163284819D02*
X105435714Y-163332438D01*
X105435714Y-163332438D02*
X105388095Y-163380057D01*
X105388095Y-163380057D02*
X105340476Y-163475295D01*
X105340476Y-163475295D02*
X105340476Y-163570533D01*
X105340476Y-163570533D02*
X105388095Y-163713390D01*
X105388095Y-163713390D02*
X105959523Y-164284819D01*
X105959523Y-164284819D02*
X105340476Y-164284819D01*
X105007142Y-163284819D02*
X104388095Y-163284819D01*
X104388095Y-163284819D02*
X104721428Y-163665771D01*
X104721428Y-163665771D02*
X104578571Y-163665771D01*
X104578571Y-163665771D02*
X104483333Y-163713390D01*
X104483333Y-163713390D02*
X104435714Y-163761009D01*
X104435714Y-163761009D02*
X104388095Y-163856247D01*
X104388095Y-163856247D02*
X104388095Y-164094342D01*
X104388095Y-164094342D02*
X104435714Y-164189580D01*
X104435714Y-164189580D02*
X104483333Y-164237200D01*
X104483333Y-164237200D02*
X104578571Y-164284819D01*
X104578571Y-164284819D02*
X104864285Y-164284819D01*
X104864285Y-164284819D02*
X104959523Y-164237200D01*
X104959523Y-164237200D02*
X105007142Y-164189580D01*
X185842857Y-96854819D02*
X186176190Y-96378628D01*
X186414285Y-96854819D02*
X186414285Y-95854819D01*
X186414285Y-95854819D02*
X186033333Y-95854819D01*
X186033333Y-95854819D02*
X185938095Y-95902438D01*
X185938095Y-95902438D02*
X185890476Y-95950057D01*
X185890476Y-95950057D02*
X185842857Y-96045295D01*
X185842857Y-96045295D02*
X185842857Y-96188152D01*
X185842857Y-96188152D02*
X185890476Y-96283390D01*
X185890476Y-96283390D02*
X185938095Y-96331009D01*
X185938095Y-96331009D02*
X186033333Y-96378628D01*
X186033333Y-96378628D02*
X186414285Y-96378628D01*
X185271428Y-96283390D02*
X185366666Y-96235771D01*
X185366666Y-96235771D02*
X185414285Y-96188152D01*
X185414285Y-96188152D02*
X185461904Y-96092914D01*
X185461904Y-96092914D02*
X185461904Y-96045295D01*
X185461904Y-96045295D02*
X185414285Y-95950057D01*
X185414285Y-95950057D02*
X185366666Y-95902438D01*
X185366666Y-95902438D02*
X185271428Y-95854819D01*
X185271428Y-95854819D02*
X185080952Y-95854819D01*
X185080952Y-95854819D02*
X184985714Y-95902438D01*
X184985714Y-95902438D02*
X184938095Y-95950057D01*
X184938095Y-95950057D02*
X184890476Y-96045295D01*
X184890476Y-96045295D02*
X184890476Y-96092914D01*
X184890476Y-96092914D02*
X184938095Y-96188152D01*
X184938095Y-96188152D02*
X184985714Y-96235771D01*
X184985714Y-96235771D02*
X185080952Y-96283390D01*
X185080952Y-96283390D02*
X185271428Y-96283390D01*
X185271428Y-96283390D02*
X185366666Y-96331009D01*
X185366666Y-96331009D02*
X185414285Y-96378628D01*
X185414285Y-96378628D02*
X185461904Y-96473866D01*
X185461904Y-96473866D02*
X185461904Y-96664342D01*
X185461904Y-96664342D02*
X185414285Y-96759580D01*
X185414285Y-96759580D02*
X185366666Y-96807200D01*
X185366666Y-96807200D02*
X185271428Y-96854819D01*
X185271428Y-96854819D02*
X185080952Y-96854819D01*
X185080952Y-96854819D02*
X184985714Y-96807200D01*
X184985714Y-96807200D02*
X184938095Y-96759580D01*
X184938095Y-96759580D02*
X184890476Y-96664342D01*
X184890476Y-96664342D02*
X184890476Y-96473866D01*
X184890476Y-96473866D02*
X184938095Y-96378628D01*
X184938095Y-96378628D02*
X184985714Y-96331009D01*
X184985714Y-96331009D02*
X185080952Y-96283390D01*
X184557142Y-95854819D02*
X183938095Y-95854819D01*
X183938095Y-95854819D02*
X184271428Y-96235771D01*
X184271428Y-96235771D02*
X184128571Y-96235771D01*
X184128571Y-96235771D02*
X184033333Y-96283390D01*
X184033333Y-96283390D02*
X183985714Y-96331009D01*
X183985714Y-96331009D02*
X183938095Y-96426247D01*
X183938095Y-96426247D02*
X183938095Y-96664342D01*
X183938095Y-96664342D02*
X183985714Y-96759580D01*
X183985714Y-96759580D02*
X184033333Y-96807200D01*
X184033333Y-96807200D02*
X184128571Y-96854819D01*
X184128571Y-96854819D02*
X184414285Y-96854819D01*
X184414285Y-96854819D02*
X184509523Y-96807200D01*
X184509523Y-96807200D02*
X184557142Y-96759580D01*
X122966666Y-155159580D02*
X123014285Y-155207200D01*
X123014285Y-155207200D02*
X123157142Y-155254819D01*
X123157142Y-155254819D02*
X123252380Y-155254819D01*
X123252380Y-155254819D02*
X123395237Y-155207200D01*
X123395237Y-155207200D02*
X123490475Y-155111961D01*
X123490475Y-155111961D02*
X123538094Y-155016723D01*
X123538094Y-155016723D02*
X123585713Y-154826247D01*
X123585713Y-154826247D02*
X123585713Y-154683390D01*
X123585713Y-154683390D02*
X123538094Y-154492914D01*
X123538094Y-154492914D02*
X123490475Y-154397676D01*
X123490475Y-154397676D02*
X123395237Y-154302438D01*
X123395237Y-154302438D02*
X123252380Y-154254819D01*
X123252380Y-154254819D02*
X123157142Y-154254819D01*
X123157142Y-154254819D02*
X123014285Y-154302438D01*
X123014285Y-154302438D02*
X122966666Y-154350057D01*
X122395237Y-154683390D02*
X122490475Y-154635771D01*
X122490475Y-154635771D02*
X122538094Y-154588152D01*
X122538094Y-154588152D02*
X122585713Y-154492914D01*
X122585713Y-154492914D02*
X122585713Y-154445295D01*
X122585713Y-154445295D02*
X122538094Y-154350057D01*
X122538094Y-154350057D02*
X122490475Y-154302438D01*
X122490475Y-154302438D02*
X122395237Y-154254819D01*
X122395237Y-154254819D02*
X122204761Y-154254819D01*
X122204761Y-154254819D02*
X122109523Y-154302438D01*
X122109523Y-154302438D02*
X122061904Y-154350057D01*
X122061904Y-154350057D02*
X122014285Y-154445295D01*
X122014285Y-154445295D02*
X122014285Y-154492914D01*
X122014285Y-154492914D02*
X122061904Y-154588152D01*
X122061904Y-154588152D02*
X122109523Y-154635771D01*
X122109523Y-154635771D02*
X122204761Y-154683390D01*
X122204761Y-154683390D02*
X122395237Y-154683390D01*
X122395237Y-154683390D02*
X122490475Y-154731009D01*
X122490475Y-154731009D02*
X122538094Y-154778628D01*
X122538094Y-154778628D02*
X122585713Y-154873866D01*
X122585713Y-154873866D02*
X122585713Y-155064342D01*
X122585713Y-155064342D02*
X122538094Y-155159580D01*
X122538094Y-155159580D02*
X122490475Y-155207200D01*
X122490475Y-155207200D02*
X122395237Y-155254819D01*
X122395237Y-155254819D02*
X122204761Y-155254819D01*
X122204761Y-155254819D02*
X122109523Y-155207200D01*
X122109523Y-155207200D02*
X122061904Y-155159580D01*
X122061904Y-155159580D02*
X122014285Y-155064342D01*
X122014285Y-155064342D02*
X122014285Y-154873866D01*
X122014285Y-154873866D02*
X122061904Y-154778628D01*
X122061904Y-154778628D02*
X122109523Y-154731009D01*
X122109523Y-154731009D02*
X122204761Y-154683390D01*
X110842857Y-147624819D02*
X111176190Y-147148628D01*
X111414285Y-147624819D02*
X111414285Y-146624819D01*
X111414285Y-146624819D02*
X111033333Y-146624819D01*
X111033333Y-146624819D02*
X110938095Y-146672438D01*
X110938095Y-146672438D02*
X110890476Y-146720057D01*
X110890476Y-146720057D02*
X110842857Y-146815295D01*
X110842857Y-146815295D02*
X110842857Y-146958152D01*
X110842857Y-146958152D02*
X110890476Y-147053390D01*
X110890476Y-147053390D02*
X110938095Y-147101009D01*
X110938095Y-147101009D02*
X111033333Y-147148628D01*
X111033333Y-147148628D02*
X111414285Y-147148628D01*
X110461904Y-146720057D02*
X110414285Y-146672438D01*
X110414285Y-146672438D02*
X110319047Y-146624819D01*
X110319047Y-146624819D02*
X110080952Y-146624819D01*
X110080952Y-146624819D02*
X109985714Y-146672438D01*
X109985714Y-146672438D02*
X109938095Y-146720057D01*
X109938095Y-146720057D02*
X109890476Y-146815295D01*
X109890476Y-146815295D02*
X109890476Y-146910533D01*
X109890476Y-146910533D02*
X109938095Y-147053390D01*
X109938095Y-147053390D02*
X110509523Y-147624819D01*
X110509523Y-147624819D02*
X109890476Y-147624819D01*
X109509523Y-146720057D02*
X109461904Y-146672438D01*
X109461904Y-146672438D02*
X109366666Y-146624819D01*
X109366666Y-146624819D02*
X109128571Y-146624819D01*
X109128571Y-146624819D02*
X109033333Y-146672438D01*
X109033333Y-146672438D02*
X108985714Y-146720057D01*
X108985714Y-146720057D02*
X108938095Y-146815295D01*
X108938095Y-146815295D02*
X108938095Y-146910533D01*
X108938095Y-146910533D02*
X108985714Y-147053390D01*
X108985714Y-147053390D02*
X109557142Y-147624819D01*
X109557142Y-147624819D02*
X108938095Y-147624819D01*
X189814285Y-134454819D02*
X189814285Y-133454819D01*
X189814285Y-133454819D02*
X189576190Y-133454819D01*
X189576190Y-133454819D02*
X189433333Y-133502438D01*
X189433333Y-133502438D02*
X189338095Y-133597676D01*
X189338095Y-133597676D02*
X189290476Y-133692914D01*
X189290476Y-133692914D02*
X189242857Y-133883390D01*
X189242857Y-133883390D02*
X189242857Y-134026247D01*
X189242857Y-134026247D02*
X189290476Y-134216723D01*
X189290476Y-134216723D02*
X189338095Y-134311961D01*
X189338095Y-134311961D02*
X189433333Y-134407200D01*
X189433333Y-134407200D02*
X189576190Y-134454819D01*
X189576190Y-134454819D02*
X189814285Y-134454819D01*
X188290476Y-134454819D02*
X188861904Y-134454819D01*
X188576190Y-134454819D02*
X188576190Y-133454819D01*
X188576190Y-133454819D02*
X188671428Y-133597676D01*
X188671428Y-133597676D02*
X188766666Y-133692914D01*
X188766666Y-133692914D02*
X188861904Y-133740533D01*
X187338095Y-134454819D02*
X187909523Y-134454819D01*
X187623809Y-134454819D02*
X187623809Y-133454819D01*
X187623809Y-133454819D02*
X187719047Y-133597676D01*
X187719047Y-133597676D02*
X187814285Y-133692914D01*
X187814285Y-133692914D02*
X187909523Y-133740533D01*
X138654819Y-155757142D02*
X138178628Y-155423809D01*
X138654819Y-155185714D02*
X137654819Y-155185714D01*
X137654819Y-155185714D02*
X137654819Y-155566666D01*
X137654819Y-155566666D02*
X137702438Y-155661904D01*
X137702438Y-155661904D02*
X137750057Y-155709523D01*
X137750057Y-155709523D02*
X137845295Y-155757142D01*
X137845295Y-155757142D02*
X137988152Y-155757142D01*
X137988152Y-155757142D02*
X138083390Y-155709523D01*
X138083390Y-155709523D02*
X138131009Y-155661904D01*
X138131009Y-155661904D02*
X138178628Y-155566666D01*
X138178628Y-155566666D02*
X138178628Y-155185714D01*
X138654819Y-156709523D02*
X138654819Y-156138095D01*
X138654819Y-156423809D02*
X137654819Y-156423809D01*
X137654819Y-156423809D02*
X137797676Y-156328571D01*
X137797676Y-156328571D02*
X137892914Y-156233333D01*
X137892914Y-156233333D02*
X137940533Y-156138095D01*
X138083390Y-157280952D02*
X138035771Y-157185714D01*
X138035771Y-157185714D02*
X137988152Y-157138095D01*
X137988152Y-157138095D02*
X137892914Y-157090476D01*
X137892914Y-157090476D02*
X137845295Y-157090476D01*
X137845295Y-157090476D02*
X137750057Y-157138095D01*
X137750057Y-157138095D02*
X137702438Y-157185714D01*
X137702438Y-157185714D02*
X137654819Y-157280952D01*
X137654819Y-157280952D02*
X137654819Y-157471428D01*
X137654819Y-157471428D02*
X137702438Y-157566666D01*
X137702438Y-157566666D02*
X137750057Y-157614285D01*
X137750057Y-157614285D02*
X137845295Y-157661904D01*
X137845295Y-157661904D02*
X137892914Y-157661904D01*
X137892914Y-157661904D02*
X137988152Y-157614285D01*
X137988152Y-157614285D02*
X138035771Y-157566666D01*
X138035771Y-157566666D02*
X138083390Y-157471428D01*
X138083390Y-157471428D02*
X138083390Y-157280952D01*
X138083390Y-157280952D02*
X138131009Y-157185714D01*
X138131009Y-157185714D02*
X138178628Y-157138095D01*
X138178628Y-157138095D02*
X138273866Y-157090476D01*
X138273866Y-157090476D02*
X138464342Y-157090476D01*
X138464342Y-157090476D02*
X138559580Y-157138095D01*
X138559580Y-157138095D02*
X138607200Y-157185714D01*
X138607200Y-157185714D02*
X138654819Y-157280952D01*
X138654819Y-157280952D02*
X138654819Y-157471428D01*
X138654819Y-157471428D02*
X138607200Y-157566666D01*
X138607200Y-157566666D02*
X138559580Y-157614285D01*
X138559580Y-157614285D02*
X138464342Y-157661904D01*
X138464342Y-157661904D02*
X138273866Y-157661904D01*
X138273866Y-157661904D02*
X138178628Y-157614285D01*
X138178628Y-157614285D02*
X138131009Y-157566666D01*
X138131009Y-157566666D02*
X138083390Y-157471428D01*
X168954819Y-128761905D02*
X167954819Y-128761905D01*
X167954819Y-128761905D02*
X167954819Y-129000000D01*
X167954819Y-129000000D02*
X168002438Y-129142857D01*
X168002438Y-129142857D02*
X168097676Y-129238095D01*
X168097676Y-129238095D02*
X168192914Y-129285714D01*
X168192914Y-129285714D02*
X168383390Y-129333333D01*
X168383390Y-129333333D02*
X168526247Y-129333333D01*
X168526247Y-129333333D02*
X168716723Y-129285714D01*
X168716723Y-129285714D02*
X168811961Y-129238095D01*
X168811961Y-129238095D02*
X168907200Y-129142857D01*
X168907200Y-129142857D02*
X168954819Y-129000000D01*
X168954819Y-129000000D02*
X168954819Y-128761905D01*
X167954819Y-129666667D02*
X167954819Y-130285714D01*
X167954819Y-130285714D02*
X168335771Y-129952381D01*
X168335771Y-129952381D02*
X168335771Y-130095238D01*
X168335771Y-130095238D02*
X168383390Y-130190476D01*
X168383390Y-130190476D02*
X168431009Y-130238095D01*
X168431009Y-130238095D02*
X168526247Y-130285714D01*
X168526247Y-130285714D02*
X168764342Y-130285714D01*
X168764342Y-130285714D02*
X168859580Y-130238095D01*
X168859580Y-130238095D02*
X168907200Y-130190476D01*
X168907200Y-130190476D02*
X168954819Y-130095238D01*
X168954819Y-130095238D02*
X168954819Y-129809524D01*
X168954819Y-129809524D02*
X168907200Y-129714286D01*
X168907200Y-129714286D02*
X168859580Y-129666667D01*
X169254819Y-80357142D02*
X168778628Y-80023809D01*
X169254819Y-79785714D02*
X168254819Y-79785714D01*
X168254819Y-79785714D02*
X168254819Y-80166666D01*
X168254819Y-80166666D02*
X168302438Y-80261904D01*
X168302438Y-80261904D02*
X168350057Y-80309523D01*
X168350057Y-80309523D02*
X168445295Y-80357142D01*
X168445295Y-80357142D02*
X168588152Y-80357142D01*
X168588152Y-80357142D02*
X168683390Y-80309523D01*
X168683390Y-80309523D02*
X168731009Y-80261904D01*
X168731009Y-80261904D02*
X168778628Y-80166666D01*
X168778628Y-80166666D02*
X168778628Y-79785714D01*
X169254819Y-81309523D02*
X169254819Y-80738095D01*
X169254819Y-81023809D02*
X168254819Y-81023809D01*
X168254819Y-81023809D02*
X168397676Y-80928571D01*
X168397676Y-80928571D02*
X168492914Y-80833333D01*
X168492914Y-80833333D02*
X168540533Y-80738095D01*
X169254819Y-81785714D02*
X169254819Y-81976190D01*
X169254819Y-81976190D02*
X169207200Y-82071428D01*
X169207200Y-82071428D02*
X169159580Y-82119047D01*
X169159580Y-82119047D02*
X169016723Y-82214285D01*
X169016723Y-82214285D02*
X168826247Y-82261904D01*
X168826247Y-82261904D02*
X168445295Y-82261904D01*
X168445295Y-82261904D02*
X168350057Y-82214285D01*
X168350057Y-82214285D02*
X168302438Y-82166666D01*
X168302438Y-82166666D02*
X168254819Y-82071428D01*
X168254819Y-82071428D02*
X168254819Y-81880952D01*
X168254819Y-81880952D02*
X168302438Y-81785714D01*
X168302438Y-81785714D02*
X168350057Y-81738095D01*
X168350057Y-81738095D02*
X168445295Y-81690476D01*
X168445295Y-81690476D02*
X168683390Y-81690476D01*
X168683390Y-81690476D02*
X168778628Y-81738095D01*
X168778628Y-81738095D02*
X168826247Y-81785714D01*
X168826247Y-81785714D02*
X168873866Y-81880952D01*
X168873866Y-81880952D02*
X168873866Y-82071428D01*
X168873866Y-82071428D02*
X168826247Y-82166666D01*
X168826247Y-82166666D02*
X168778628Y-82214285D01*
X168778628Y-82214285D02*
X168683390Y-82261904D01*
X151020057Y-118684761D02*
X150972438Y-118589523D01*
X150972438Y-118589523D02*
X150877200Y-118494285D01*
X150877200Y-118494285D02*
X150734342Y-118351428D01*
X150734342Y-118351428D02*
X150686723Y-118256190D01*
X150686723Y-118256190D02*
X150686723Y-118160952D01*
X150924819Y-118208571D02*
X150877200Y-118113333D01*
X150877200Y-118113333D02*
X150781961Y-118018095D01*
X150781961Y-118018095D02*
X150591485Y-117970476D01*
X150591485Y-117970476D02*
X150258152Y-117970476D01*
X150258152Y-117970476D02*
X150067676Y-118018095D01*
X150067676Y-118018095D02*
X149972438Y-118113333D01*
X149972438Y-118113333D02*
X149924819Y-118208571D01*
X149924819Y-118208571D02*
X149924819Y-118399047D01*
X149924819Y-118399047D02*
X149972438Y-118494285D01*
X149972438Y-118494285D02*
X150067676Y-118589523D01*
X150067676Y-118589523D02*
X150258152Y-118637142D01*
X150258152Y-118637142D02*
X150591485Y-118637142D01*
X150591485Y-118637142D02*
X150781961Y-118589523D01*
X150781961Y-118589523D02*
X150877200Y-118494285D01*
X150877200Y-118494285D02*
X150924819Y-118399047D01*
X150924819Y-118399047D02*
X150924819Y-118208571D01*
X149924819Y-118970476D02*
X149924819Y-119637142D01*
X149924819Y-119637142D02*
X150924819Y-119208571D01*
X121966666Y-144654819D02*
X122299999Y-144178628D01*
X122538094Y-144654819D02*
X122538094Y-143654819D01*
X122538094Y-143654819D02*
X122157142Y-143654819D01*
X122157142Y-143654819D02*
X122061904Y-143702438D01*
X122061904Y-143702438D02*
X122014285Y-143750057D01*
X122014285Y-143750057D02*
X121966666Y-143845295D01*
X121966666Y-143845295D02*
X121966666Y-143988152D01*
X121966666Y-143988152D02*
X122014285Y-144083390D01*
X122014285Y-144083390D02*
X122061904Y-144131009D01*
X122061904Y-144131009D02*
X122157142Y-144178628D01*
X122157142Y-144178628D02*
X122538094Y-144178628D01*
X121109523Y-143654819D02*
X121299999Y-143654819D01*
X121299999Y-143654819D02*
X121395237Y-143702438D01*
X121395237Y-143702438D02*
X121442856Y-143750057D01*
X121442856Y-143750057D02*
X121538094Y-143892914D01*
X121538094Y-143892914D02*
X121585713Y-144083390D01*
X121585713Y-144083390D02*
X121585713Y-144464342D01*
X121585713Y-144464342D02*
X121538094Y-144559580D01*
X121538094Y-144559580D02*
X121490475Y-144607200D01*
X121490475Y-144607200D02*
X121395237Y-144654819D01*
X121395237Y-144654819D02*
X121204761Y-144654819D01*
X121204761Y-144654819D02*
X121109523Y-144607200D01*
X121109523Y-144607200D02*
X121061904Y-144559580D01*
X121061904Y-144559580D02*
X121014285Y-144464342D01*
X121014285Y-144464342D02*
X121014285Y-144226247D01*
X121014285Y-144226247D02*
X121061904Y-144131009D01*
X121061904Y-144131009D02*
X121109523Y-144083390D01*
X121109523Y-144083390D02*
X121204761Y-144035771D01*
X121204761Y-144035771D02*
X121395237Y-144035771D01*
X121395237Y-144035771D02*
X121490475Y-144083390D01*
X121490475Y-144083390D02*
X121538094Y-144131009D01*
X121538094Y-144131009D02*
X121585713Y-144226247D01*
X141442857Y-126654819D02*
X141776190Y-126178628D01*
X142014285Y-126654819D02*
X142014285Y-125654819D01*
X142014285Y-125654819D02*
X141633333Y-125654819D01*
X141633333Y-125654819D02*
X141538095Y-125702438D01*
X141538095Y-125702438D02*
X141490476Y-125750057D01*
X141490476Y-125750057D02*
X141442857Y-125845295D01*
X141442857Y-125845295D02*
X141442857Y-125988152D01*
X141442857Y-125988152D02*
X141490476Y-126083390D01*
X141490476Y-126083390D02*
X141538095Y-126131009D01*
X141538095Y-126131009D02*
X141633333Y-126178628D01*
X141633333Y-126178628D02*
X142014285Y-126178628D01*
X141109523Y-125654819D02*
X140490476Y-125654819D01*
X140490476Y-125654819D02*
X140823809Y-126035771D01*
X140823809Y-126035771D02*
X140680952Y-126035771D01*
X140680952Y-126035771D02*
X140585714Y-126083390D01*
X140585714Y-126083390D02*
X140538095Y-126131009D01*
X140538095Y-126131009D02*
X140490476Y-126226247D01*
X140490476Y-126226247D02*
X140490476Y-126464342D01*
X140490476Y-126464342D02*
X140538095Y-126559580D01*
X140538095Y-126559580D02*
X140585714Y-126607200D01*
X140585714Y-126607200D02*
X140680952Y-126654819D01*
X140680952Y-126654819D02*
X140966666Y-126654819D01*
X140966666Y-126654819D02*
X141061904Y-126607200D01*
X141061904Y-126607200D02*
X141109523Y-126559580D01*
X140157142Y-125654819D02*
X139538095Y-125654819D01*
X139538095Y-125654819D02*
X139871428Y-126035771D01*
X139871428Y-126035771D02*
X139728571Y-126035771D01*
X139728571Y-126035771D02*
X139633333Y-126083390D01*
X139633333Y-126083390D02*
X139585714Y-126131009D01*
X139585714Y-126131009D02*
X139538095Y-126226247D01*
X139538095Y-126226247D02*
X139538095Y-126464342D01*
X139538095Y-126464342D02*
X139585714Y-126559580D01*
X139585714Y-126559580D02*
X139633333Y-126607200D01*
X139633333Y-126607200D02*
X139728571Y-126654819D01*
X139728571Y-126654819D02*
X140014285Y-126654819D01*
X140014285Y-126654819D02*
X140109523Y-126607200D01*
X140109523Y-126607200D02*
X140157142Y-126559580D01*
X117042857Y-163654819D02*
X117376190Y-163178628D01*
X117614285Y-163654819D02*
X117614285Y-162654819D01*
X117614285Y-162654819D02*
X117233333Y-162654819D01*
X117233333Y-162654819D02*
X117138095Y-162702438D01*
X117138095Y-162702438D02*
X117090476Y-162750057D01*
X117090476Y-162750057D02*
X117042857Y-162845295D01*
X117042857Y-162845295D02*
X117042857Y-162988152D01*
X117042857Y-162988152D02*
X117090476Y-163083390D01*
X117090476Y-163083390D02*
X117138095Y-163131009D01*
X117138095Y-163131009D02*
X117233333Y-163178628D01*
X117233333Y-163178628D02*
X117614285Y-163178628D01*
X116185714Y-162988152D02*
X116185714Y-163654819D01*
X116423809Y-162607200D02*
X116661904Y-163321485D01*
X116661904Y-163321485D02*
X116042857Y-163321485D01*
X115709523Y-162750057D02*
X115661904Y-162702438D01*
X115661904Y-162702438D02*
X115566666Y-162654819D01*
X115566666Y-162654819D02*
X115328571Y-162654819D01*
X115328571Y-162654819D02*
X115233333Y-162702438D01*
X115233333Y-162702438D02*
X115185714Y-162750057D01*
X115185714Y-162750057D02*
X115138095Y-162845295D01*
X115138095Y-162845295D02*
X115138095Y-162940533D01*
X115138095Y-162940533D02*
X115185714Y-163083390D01*
X115185714Y-163083390D02*
X115757142Y-163654819D01*
X115757142Y-163654819D02*
X115138095Y-163654819D01*
X166854819Y-95357142D02*
X166378628Y-95023809D01*
X166854819Y-94785714D02*
X165854819Y-94785714D01*
X165854819Y-94785714D02*
X165854819Y-95166666D01*
X165854819Y-95166666D02*
X165902438Y-95261904D01*
X165902438Y-95261904D02*
X165950057Y-95309523D01*
X165950057Y-95309523D02*
X166045295Y-95357142D01*
X166045295Y-95357142D02*
X166188152Y-95357142D01*
X166188152Y-95357142D02*
X166283390Y-95309523D01*
X166283390Y-95309523D02*
X166331009Y-95261904D01*
X166331009Y-95261904D02*
X166378628Y-95166666D01*
X166378628Y-95166666D02*
X166378628Y-94785714D01*
X166283390Y-95928571D02*
X166235771Y-95833333D01*
X166235771Y-95833333D02*
X166188152Y-95785714D01*
X166188152Y-95785714D02*
X166092914Y-95738095D01*
X166092914Y-95738095D02*
X166045295Y-95738095D01*
X166045295Y-95738095D02*
X165950057Y-95785714D01*
X165950057Y-95785714D02*
X165902438Y-95833333D01*
X165902438Y-95833333D02*
X165854819Y-95928571D01*
X165854819Y-95928571D02*
X165854819Y-96119047D01*
X165854819Y-96119047D02*
X165902438Y-96214285D01*
X165902438Y-96214285D02*
X165950057Y-96261904D01*
X165950057Y-96261904D02*
X166045295Y-96309523D01*
X166045295Y-96309523D02*
X166092914Y-96309523D01*
X166092914Y-96309523D02*
X166188152Y-96261904D01*
X166188152Y-96261904D02*
X166235771Y-96214285D01*
X166235771Y-96214285D02*
X166283390Y-96119047D01*
X166283390Y-96119047D02*
X166283390Y-95928571D01*
X166283390Y-95928571D02*
X166331009Y-95833333D01*
X166331009Y-95833333D02*
X166378628Y-95785714D01*
X166378628Y-95785714D02*
X166473866Y-95738095D01*
X166473866Y-95738095D02*
X166664342Y-95738095D01*
X166664342Y-95738095D02*
X166759580Y-95785714D01*
X166759580Y-95785714D02*
X166807200Y-95833333D01*
X166807200Y-95833333D02*
X166854819Y-95928571D01*
X166854819Y-95928571D02*
X166854819Y-96119047D01*
X166854819Y-96119047D02*
X166807200Y-96214285D01*
X166807200Y-96214285D02*
X166759580Y-96261904D01*
X166759580Y-96261904D02*
X166664342Y-96309523D01*
X166664342Y-96309523D02*
X166473866Y-96309523D01*
X166473866Y-96309523D02*
X166378628Y-96261904D01*
X166378628Y-96261904D02*
X166331009Y-96214285D01*
X166331009Y-96214285D02*
X166283390Y-96119047D01*
X166854819Y-97261904D02*
X166854819Y-96690476D01*
X166854819Y-96976190D02*
X165854819Y-96976190D01*
X165854819Y-96976190D02*
X165997676Y-96880952D01*
X165997676Y-96880952D02*
X166092914Y-96785714D01*
X166092914Y-96785714D02*
X166140533Y-96690476D01*
X132661904Y-150942319D02*
X132661904Y-151751842D01*
X132661904Y-151751842D02*
X132614285Y-151847080D01*
X132614285Y-151847080D02*
X132566666Y-151894700D01*
X132566666Y-151894700D02*
X132471428Y-151942319D01*
X132471428Y-151942319D02*
X132280952Y-151942319D01*
X132280952Y-151942319D02*
X132185714Y-151894700D01*
X132185714Y-151894700D02*
X132138095Y-151847080D01*
X132138095Y-151847080D02*
X132090476Y-151751842D01*
X132090476Y-151751842D02*
X132090476Y-150942319D01*
X131138095Y-150942319D02*
X131614285Y-150942319D01*
X131614285Y-150942319D02*
X131661904Y-151418509D01*
X131661904Y-151418509D02*
X131614285Y-151370890D01*
X131614285Y-151370890D02*
X131519047Y-151323271D01*
X131519047Y-151323271D02*
X131280952Y-151323271D01*
X131280952Y-151323271D02*
X131185714Y-151370890D01*
X131185714Y-151370890D02*
X131138095Y-151418509D01*
X131138095Y-151418509D02*
X131090476Y-151513747D01*
X131090476Y-151513747D02*
X131090476Y-151751842D01*
X131090476Y-151751842D02*
X131138095Y-151847080D01*
X131138095Y-151847080D02*
X131185714Y-151894700D01*
X131185714Y-151894700D02*
X131280952Y-151942319D01*
X131280952Y-151942319D02*
X131519047Y-151942319D01*
X131519047Y-151942319D02*
X131614285Y-151894700D01*
X131614285Y-151894700D02*
X131661904Y-151847080D01*
X164624819Y-107957142D02*
X164148628Y-107623809D01*
X164624819Y-107385714D02*
X163624819Y-107385714D01*
X163624819Y-107385714D02*
X163624819Y-107766666D01*
X163624819Y-107766666D02*
X163672438Y-107861904D01*
X163672438Y-107861904D02*
X163720057Y-107909523D01*
X163720057Y-107909523D02*
X163815295Y-107957142D01*
X163815295Y-107957142D02*
X163958152Y-107957142D01*
X163958152Y-107957142D02*
X164053390Y-107909523D01*
X164053390Y-107909523D02*
X164101009Y-107861904D01*
X164101009Y-107861904D02*
X164148628Y-107766666D01*
X164148628Y-107766666D02*
X164148628Y-107385714D01*
X163624819Y-108290476D02*
X163624819Y-108957142D01*
X163624819Y-108957142D02*
X164624819Y-108528571D01*
X163624819Y-109814285D02*
X163624819Y-109338095D01*
X163624819Y-109338095D02*
X164101009Y-109290476D01*
X164101009Y-109290476D02*
X164053390Y-109338095D01*
X164053390Y-109338095D02*
X164005771Y-109433333D01*
X164005771Y-109433333D02*
X164005771Y-109671428D01*
X164005771Y-109671428D02*
X164053390Y-109766666D01*
X164053390Y-109766666D02*
X164101009Y-109814285D01*
X164101009Y-109814285D02*
X164196247Y-109861904D01*
X164196247Y-109861904D02*
X164434342Y-109861904D01*
X164434342Y-109861904D02*
X164529580Y-109814285D01*
X164529580Y-109814285D02*
X164577200Y-109766666D01*
X164577200Y-109766666D02*
X164624819Y-109671428D01*
X164624819Y-109671428D02*
X164624819Y-109433333D01*
X164624819Y-109433333D02*
X164577200Y-109338095D01*
X164577200Y-109338095D02*
X164529580Y-109290476D01*
X125642857Y-146359580D02*
X125690476Y-146407200D01*
X125690476Y-146407200D02*
X125833333Y-146454819D01*
X125833333Y-146454819D02*
X125928571Y-146454819D01*
X125928571Y-146454819D02*
X126071428Y-146407200D01*
X126071428Y-146407200D02*
X126166666Y-146311961D01*
X126166666Y-146311961D02*
X126214285Y-146216723D01*
X126214285Y-146216723D02*
X126261904Y-146026247D01*
X126261904Y-146026247D02*
X126261904Y-145883390D01*
X126261904Y-145883390D02*
X126214285Y-145692914D01*
X126214285Y-145692914D02*
X126166666Y-145597676D01*
X126166666Y-145597676D02*
X126071428Y-145502438D01*
X126071428Y-145502438D02*
X125928571Y-145454819D01*
X125928571Y-145454819D02*
X125833333Y-145454819D01*
X125833333Y-145454819D02*
X125690476Y-145502438D01*
X125690476Y-145502438D02*
X125642857Y-145550057D01*
X125261904Y-145550057D02*
X125214285Y-145502438D01*
X125214285Y-145502438D02*
X125119047Y-145454819D01*
X125119047Y-145454819D02*
X124880952Y-145454819D01*
X124880952Y-145454819D02*
X124785714Y-145502438D01*
X124785714Y-145502438D02*
X124738095Y-145550057D01*
X124738095Y-145550057D02*
X124690476Y-145645295D01*
X124690476Y-145645295D02*
X124690476Y-145740533D01*
X124690476Y-145740533D02*
X124738095Y-145883390D01*
X124738095Y-145883390D02*
X125309523Y-146454819D01*
X125309523Y-146454819D02*
X124690476Y-146454819D01*
X124071428Y-145454819D02*
X123976190Y-145454819D01*
X123976190Y-145454819D02*
X123880952Y-145502438D01*
X123880952Y-145502438D02*
X123833333Y-145550057D01*
X123833333Y-145550057D02*
X123785714Y-145645295D01*
X123785714Y-145645295D02*
X123738095Y-145835771D01*
X123738095Y-145835771D02*
X123738095Y-146073866D01*
X123738095Y-146073866D02*
X123785714Y-146264342D01*
X123785714Y-146264342D02*
X123833333Y-146359580D01*
X123833333Y-146359580D02*
X123880952Y-146407200D01*
X123880952Y-146407200D02*
X123976190Y-146454819D01*
X123976190Y-146454819D02*
X124071428Y-146454819D01*
X124071428Y-146454819D02*
X124166666Y-146407200D01*
X124166666Y-146407200D02*
X124214285Y-146359580D01*
X124214285Y-146359580D02*
X124261904Y-146264342D01*
X124261904Y-146264342D02*
X124309523Y-146073866D01*
X124309523Y-146073866D02*
X124309523Y-145835771D01*
X124309523Y-145835771D02*
X124261904Y-145645295D01*
X124261904Y-145645295D02*
X124214285Y-145550057D01*
X124214285Y-145550057D02*
X124166666Y-145502438D01*
X124166666Y-145502438D02*
X124071428Y-145454819D01*
X160242857Y-95454819D02*
X160576190Y-94978628D01*
X160814285Y-95454819D02*
X160814285Y-94454819D01*
X160814285Y-94454819D02*
X160433333Y-94454819D01*
X160433333Y-94454819D02*
X160338095Y-94502438D01*
X160338095Y-94502438D02*
X160290476Y-94550057D01*
X160290476Y-94550057D02*
X160242857Y-94645295D01*
X160242857Y-94645295D02*
X160242857Y-94788152D01*
X160242857Y-94788152D02*
X160290476Y-94883390D01*
X160290476Y-94883390D02*
X160338095Y-94931009D01*
X160338095Y-94931009D02*
X160433333Y-94978628D01*
X160433333Y-94978628D02*
X160814285Y-94978628D01*
X159909523Y-94454819D02*
X159242857Y-94454819D01*
X159242857Y-94454819D02*
X159671428Y-95454819D01*
X158719047Y-94883390D02*
X158814285Y-94835771D01*
X158814285Y-94835771D02*
X158861904Y-94788152D01*
X158861904Y-94788152D02*
X158909523Y-94692914D01*
X158909523Y-94692914D02*
X158909523Y-94645295D01*
X158909523Y-94645295D02*
X158861904Y-94550057D01*
X158861904Y-94550057D02*
X158814285Y-94502438D01*
X158814285Y-94502438D02*
X158719047Y-94454819D01*
X158719047Y-94454819D02*
X158528571Y-94454819D01*
X158528571Y-94454819D02*
X158433333Y-94502438D01*
X158433333Y-94502438D02*
X158385714Y-94550057D01*
X158385714Y-94550057D02*
X158338095Y-94645295D01*
X158338095Y-94645295D02*
X158338095Y-94692914D01*
X158338095Y-94692914D02*
X158385714Y-94788152D01*
X158385714Y-94788152D02*
X158433333Y-94835771D01*
X158433333Y-94835771D02*
X158528571Y-94883390D01*
X158528571Y-94883390D02*
X158719047Y-94883390D01*
X158719047Y-94883390D02*
X158814285Y-94931009D01*
X158814285Y-94931009D02*
X158861904Y-94978628D01*
X158861904Y-94978628D02*
X158909523Y-95073866D01*
X158909523Y-95073866D02*
X158909523Y-95264342D01*
X158909523Y-95264342D02*
X158861904Y-95359580D01*
X158861904Y-95359580D02*
X158814285Y-95407200D01*
X158814285Y-95407200D02*
X158719047Y-95454819D01*
X158719047Y-95454819D02*
X158528571Y-95454819D01*
X158528571Y-95454819D02*
X158433333Y-95407200D01*
X158433333Y-95407200D02*
X158385714Y-95359580D01*
X158385714Y-95359580D02*
X158338095Y-95264342D01*
X158338095Y-95264342D02*
X158338095Y-95073866D01*
X158338095Y-95073866D02*
X158385714Y-94978628D01*
X158385714Y-94978628D02*
X158433333Y-94931009D01*
X158433333Y-94931009D02*
X158528571Y-94883390D01*
X175854819Y-80557142D02*
X175378628Y-80223809D01*
X175854819Y-79985714D02*
X174854819Y-79985714D01*
X174854819Y-79985714D02*
X174854819Y-80366666D01*
X174854819Y-80366666D02*
X174902438Y-80461904D01*
X174902438Y-80461904D02*
X174950057Y-80509523D01*
X174950057Y-80509523D02*
X175045295Y-80557142D01*
X175045295Y-80557142D02*
X175188152Y-80557142D01*
X175188152Y-80557142D02*
X175283390Y-80509523D01*
X175283390Y-80509523D02*
X175331009Y-80461904D01*
X175331009Y-80461904D02*
X175378628Y-80366666D01*
X175378628Y-80366666D02*
X175378628Y-79985714D01*
X175854819Y-81509523D02*
X175854819Y-80938095D01*
X175854819Y-81223809D02*
X174854819Y-81223809D01*
X174854819Y-81223809D02*
X174997676Y-81128571D01*
X174997676Y-81128571D02*
X175092914Y-81033333D01*
X175092914Y-81033333D02*
X175140533Y-80938095D01*
X175188152Y-82366666D02*
X175854819Y-82366666D01*
X174807200Y-82128571D02*
X175521485Y-81890476D01*
X175521485Y-81890476D02*
X175521485Y-82509523D01*
X173674819Y-110482142D02*
X173198628Y-110148809D01*
X173674819Y-109910714D02*
X172674819Y-109910714D01*
X172674819Y-109910714D02*
X172674819Y-110291666D01*
X172674819Y-110291666D02*
X172722438Y-110386904D01*
X172722438Y-110386904D02*
X172770057Y-110434523D01*
X172770057Y-110434523D02*
X172865295Y-110482142D01*
X172865295Y-110482142D02*
X173008152Y-110482142D01*
X173008152Y-110482142D02*
X173103390Y-110434523D01*
X173103390Y-110434523D02*
X173151009Y-110386904D01*
X173151009Y-110386904D02*
X173198628Y-110291666D01*
X173198628Y-110291666D02*
X173198628Y-109910714D01*
X172674819Y-110815476D02*
X172674819Y-111482142D01*
X172674819Y-111482142D02*
X173674819Y-111053571D01*
X172674819Y-111767857D02*
X172674819Y-112386904D01*
X172674819Y-112386904D02*
X173055771Y-112053571D01*
X173055771Y-112053571D02*
X173055771Y-112196428D01*
X173055771Y-112196428D02*
X173103390Y-112291666D01*
X173103390Y-112291666D02*
X173151009Y-112339285D01*
X173151009Y-112339285D02*
X173246247Y-112386904D01*
X173246247Y-112386904D02*
X173484342Y-112386904D01*
X173484342Y-112386904D02*
X173579580Y-112339285D01*
X173579580Y-112339285D02*
X173627200Y-112291666D01*
X173627200Y-112291666D02*
X173674819Y-112196428D01*
X173674819Y-112196428D02*
X173674819Y-111910714D01*
X173674819Y-111910714D02*
X173627200Y-111815476D01*
X173627200Y-111815476D02*
X173579580Y-111767857D01*
X139054819Y-130357142D02*
X138578628Y-130023809D01*
X139054819Y-129785714D02*
X138054819Y-129785714D01*
X138054819Y-129785714D02*
X138054819Y-130166666D01*
X138054819Y-130166666D02*
X138102438Y-130261904D01*
X138102438Y-130261904D02*
X138150057Y-130309523D01*
X138150057Y-130309523D02*
X138245295Y-130357142D01*
X138245295Y-130357142D02*
X138388152Y-130357142D01*
X138388152Y-130357142D02*
X138483390Y-130309523D01*
X138483390Y-130309523D02*
X138531009Y-130261904D01*
X138531009Y-130261904D02*
X138578628Y-130166666D01*
X138578628Y-130166666D02*
X138578628Y-129785714D01*
X138388152Y-131214285D02*
X139054819Y-131214285D01*
X138007200Y-130976190D02*
X138721485Y-130738095D01*
X138721485Y-130738095D02*
X138721485Y-131357142D01*
X138054819Y-131928571D02*
X138054819Y-132023809D01*
X138054819Y-132023809D02*
X138102438Y-132119047D01*
X138102438Y-132119047D02*
X138150057Y-132166666D01*
X138150057Y-132166666D02*
X138245295Y-132214285D01*
X138245295Y-132214285D02*
X138435771Y-132261904D01*
X138435771Y-132261904D02*
X138673866Y-132261904D01*
X138673866Y-132261904D02*
X138864342Y-132214285D01*
X138864342Y-132214285D02*
X138959580Y-132166666D01*
X138959580Y-132166666D02*
X139007200Y-132119047D01*
X139007200Y-132119047D02*
X139054819Y-132023809D01*
X139054819Y-132023809D02*
X139054819Y-131928571D01*
X139054819Y-131928571D02*
X139007200Y-131833333D01*
X139007200Y-131833333D02*
X138959580Y-131785714D01*
X138959580Y-131785714D02*
X138864342Y-131738095D01*
X138864342Y-131738095D02*
X138673866Y-131690476D01*
X138673866Y-131690476D02*
X138435771Y-131690476D01*
X138435771Y-131690476D02*
X138245295Y-131738095D01*
X138245295Y-131738095D02*
X138150057Y-131785714D01*
X138150057Y-131785714D02*
X138102438Y-131833333D01*
X138102438Y-131833333D02*
X138054819Y-131928571D01*
X166042857Y-88759580D02*
X166090476Y-88807200D01*
X166090476Y-88807200D02*
X166233333Y-88854819D01*
X166233333Y-88854819D02*
X166328571Y-88854819D01*
X166328571Y-88854819D02*
X166471428Y-88807200D01*
X166471428Y-88807200D02*
X166566666Y-88711961D01*
X166566666Y-88711961D02*
X166614285Y-88616723D01*
X166614285Y-88616723D02*
X166661904Y-88426247D01*
X166661904Y-88426247D02*
X166661904Y-88283390D01*
X166661904Y-88283390D02*
X166614285Y-88092914D01*
X166614285Y-88092914D02*
X166566666Y-87997676D01*
X166566666Y-87997676D02*
X166471428Y-87902438D01*
X166471428Y-87902438D02*
X166328571Y-87854819D01*
X166328571Y-87854819D02*
X166233333Y-87854819D01*
X166233333Y-87854819D02*
X166090476Y-87902438D01*
X166090476Y-87902438D02*
X166042857Y-87950057D01*
X165709523Y-87854819D02*
X165090476Y-87854819D01*
X165090476Y-87854819D02*
X165423809Y-88235771D01*
X165423809Y-88235771D02*
X165280952Y-88235771D01*
X165280952Y-88235771D02*
X165185714Y-88283390D01*
X165185714Y-88283390D02*
X165138095Y-88331009D01*
X165138095Y-88331009D02*
X165090476Y-88426247D01*
X165090476Y-88426247D02*
X165090476Y-88664342D01*
X165090476Y-88664342D02*
X165138095Y-88759580D01*
X165138095Y-88759580D02*
X165185714Y-88807200D01*
X165185714Y-88807200D02*
X165280952Y-88854819D01*
X165280952Y-88854819D02*
X165566666Y-88854819D01*
X165566666Y-88854819D02*
X165661904Y-88807200D01*
X165661904Y-88807200D02*
X165709523Y-88759580D01*
X164233333Y-87854819D02*
X164423809Y-87854819D01*
X164423809Y-87854819D02*
X164519047Y-87902438D01*
X164519047Y-87902438D02*
X164566666Y-87950057D01*
X164566666Y-87950057D02*
X164661904Y-88092914D01*
X164661904Y-88092914D02*
X164709523Y-88283390D01*
X164709523Y-88283390D02*
X164709523Y-88664342D01*
X164709523Y-88664342D02*
X164661904Y-88759580D01*
X164661904Y-88759580D02*
X164614285Y-88807200D01*
X164614285Y-88807200D02*
X164519047Y-88854819D01*
X164519047Y-88854819D02*
X164328571Y-88854819D01*
X164328571Y-88854819D02*
X164233333Y-88807200D01*
X164233333Y-88807200D02*
X164185714Y-88759580D01*
X164185714Y-88759580D02*
X164138095Y-88664342D01*
X164138095Y-88664342D02*
X164138095Y-88426247D01*
X164138095Y-88426247D02*
X164185714Y-88331009D01*
X164185714Y-88331009D02*
X164233333Y-88283390D01*
X164233333Y-88283390D02*
X164328571Y-88235771D01*
X164328571Y-88235771D02*
X164519047Y-88235771D01*
X164519047Y-88235771D02*
X164614285Y-88283390D01*
X164614285Y-88283390D02*
X164661904Y-88331009D01*
X164661904Y-88331009D02*
X164709523Y-88426247D01*
X139952080Y-148435833D02*
X139999700Y-148388214D01*
X139999700Y-148388214D02*
X140047319Y-148245357D01*
X140047319Y-148245357D02*
X140047319Y-148150119D01*
X140047319Y-148150119D02*
X139999700Y-148007262D01*
X139999700Y-148007262D02*
X139904461Y-147912024D01*
X139904461Y-147912024D02*
X139809223Y-147864405D01*
X139809223Y-147864405D02*
X139618747Y-147816786D01*
X139618747Y-147816786D02*
X139475890Y-147816786D01*
X139475890Y-147816786D02*
X139285414Y-147864405D01*
X139285414Y-147864405D02*
X139190176Y-147912024D01*
X139190176Y-147912024D02*
X139094938Y-148007262D01*
X139094938Y-148007262D02*
X139047319Y-148150119D01*
X139047319Y-148150119D02*
X139047319Y-148245357D01*
X139047319Y-148245357D02*
X139094938Y-148388214D01*
X139094938Y-148388214D02*
X139142557Y-148435833D01*
X139047319Y-148769167D02*
X139047319Y-149435833D01*
X139047319Y-149435833D02*
X140047319Y-149007262D01*
X135319580Y-134777142D02*
X135367200Y-134729523D01*
X135367200Y-134729523D02*
X135414819Y-134586666D01*
X135414819Y-134586666D02*
X135414819Y-134491428D01*
X135414819Y-134491428D02*
X135367200Y-134348571D01*
X135367200Y-134348571D02*
X135271961Y-134253333D01*
X135271961Y-134253333D02*
X135176723Y-134205714D01*
X135176723Y-134205714D02*
X134986247Y-134158095D01*
X134986247Y-134158095D02*
X134843390Y-134158095D01*
X134843390Y-134158095D02*
X134652914Y-134205714D01*
X134652914Y-134205714D02*
X134557676Y-134253333D01*
X134557676Y-134253333D02*
X134462438Y-134348571D01*
X134462438Y-134348571D02*
X134414819Y-134491428D01*
X134414819Y-134491428D02*
X134414819Y-134586666D01*
X134414819Y-134586666D02*
X134462438Y-134729523D01*
X134462438Y-134729523D02*
X134510057Y-134777142D01*
X134414819Y-135681904D02*
X134414819Y-135205714D01*
X134414819Y-135205714D02*
X134891009Y-135158095D01*
X134891009Y-135158095D02*
X134843390Y-135205714D01*
X134843390Y-135205714D02*
X134795771Y-135300952D01*
X134795771Y-135300952D02*
X134795771Y-135539047D01*
X134795771Y-135539047D02*
X134843390Y-135634285D01*
X134843390Y-135634285D02*
X134891009Y-135681904D01*
X134891009Y-135681904D02*
X134986247Y-135729523D01*
X134986247Y-135729523D02*
X135224342Y-135729523D01*
X135224342Y-135729523D02*
X135319580Y-135681904D01*
X135319580Y-135681904D02*
X135367200Y-135634285D01*
X135367200Y-135634285D02*
X135414819Y-135539047D01*
X135414819Y-135539047D02*
X135414819Y-135300952D01*
X135414819Y-135300952D02*
X135367200Y-135205714D01*
X135367200Y-135205714D02*
X135319580Y-135158095D01*
X134414819Y-136348571D02*
X134414819Y-136443809D01*
X134414819Y-136443809D02*
X134462438Y-136539047D01*
X134462438Y-136539047D02*
X134510057Y-136586666D01*
X134510057Y-136586666D02*
X134605295Y-136634285D01*
X134605295Y-136634285D02*
X134795771Y-136681904D01*
X134795771Y-136681904D02*
X135033866Y-136681904D01*
X135033866Y-136681904D02*
X135224342Y-136634285D01*
X135224342Y-136634285D02*
X135319580Y-136586666D01*
X135319580Y-136586666D02*
X135367200Y-136539047D01*
X135367200Y-136539047D02*
X135414819Y-136443809D01*
X135414819Y-136443809D02*
X135414819Y-136348571D01*
X135414819Y-136348571D02*
X135367200Y-136253333D01*
X135367200Y-136253333D02*
X135319580Y-136205714D01*
X135319580Y-136205714D02*
X135224342Y-136158095D01*
X135224342Y-136158095D02*
X135033866Y-136110476D01*
X135033866Y-136110476D02*
X134795771Y-136110476D01*
X134795771Y-136110476D02*
X134605295Y-136158095D01*
X134605295Y-136158095D02*
X134510057Y-136205714D01*
X134510057Y-136205714D02*
X134462438Y-136253333D01*
X134462438Y-136253333D02*
X134414819Y-136348571D01*
X103554819Y-140261905D02*
X103554819Y-140833333D01*
X104554819Y-140547619D02*
X103554819Y-140547619D01*
X104554819Y-141166667D02*
X103554819Y-141166667D01*
X103554819Y-141166667D02*
X103554819Y-141547619D01*
X103554819Y-141547619D02*
X103602438Y-141642857D01*
X103602438Y-141642857D02*
X103650057Y-141690476D01*
X103650057Y-141690476D02*
X103745295Y-141738095D01*
X103745295Y-141738095D02*
X103888152Y-141738095D01*
X103888152Y-141738095D02*
X103983390Y-141690476D01*
X103983390Y-141690476D02*
X104031009Y-141642857D01*
X104031009Y-141642857D02*
X104078628Y-141547619D01*
X104078628Y-141547619D02*
X104078628Y-141166667D01*
X104554819Y-142690476D02*
X104554819Y-142119048D01*
X104554819Y-142404762D02*
X103554819Y-142404762D01*
X103554819Y-142404762D02*
X103697676Y-142309524D01*
X103697676Y-142309524D02*
X103792914Y-142214286D01*
X103792914Y-142214286D02*
X103840533Y-142119048D01*
X103650057Y-143071429D02*
X103602438Y-143119048D01*
X103602438Y-143119048D02*
X103554819Y-143214286D01*
X103554819Y-143214286D02*
X103554819Y-143452381D01*
X103554819Y-143452381D02*
X103602438Y-143547619D01*
X103602438Y-143547619D02*
X103650057Y-143595238D01*
X103650057Y-143595238D02*
X103745295Y-143642857D01*
X103745295Y-143642857D02*
X103840533Y-143642857D01*
X103840533Y-143642857D02*
X103983390Y-143595238D01*
X103983390Y-143595238D02*
X104554819Y-143023810D01*
X104554819Y-143023810D02*
X104554819Y-143642857D01*
X109242857Y-156328004D02*
X109576190Y-155851813D01*
X109814285Y-156328004D02*
X109814285Y-155328004D01*
X109814285Y-155328004D02*
X109433333Y-155328004D01*
X109433333Y-155328004D02*
X109338095Y-155375623D01*
X109338095Y-155375623D02*
X109290476Y-155423242D01*
X109290476Y-155423242D02*
X109242857Y-155518480D01*
X109242857Y-155518480D02*
X109242857Y-155661337D01*
X109242857Y-155661337D02*
X109290476Y-155756575D01*
X109290476Y-155756575D02*
X109338095Y-155804194D01*
X109338095Y-155804194D02*
X109433333Y-155851813D01*
X109433333Y-155851813D02*
X109814285Y-155851813D01*
X108385714Y-155661337D02*
X108385714Y-156328004D01*
X108623809Y-155280385D02*
X108861904Y-155994670D01*
X108861904Y-155994670D02*
X108242857Y-155994670D01*
X107338095Y-156328004D02*
X107909523Y-156328004D01*
X107623809Y-156328004D02*
X107623809Y-155328004D01*
X107623809Y-155328004D02*
X107719047Y-155470861D01*
X107719047Y-155470861D02*
X107814285Y-155566099D01*
X107814285Y-155566099D02*
X107909523Y-155613718D01*
X109284819Y-70833333D02*
X108808628Y-70500000D01*
X109284819Y-70261905D02*
X108284819Y-70261905D01*
X108284819Y-70261905D02*
X108284819Y-70642857D01*
X108284819Y-70642857D02*
X108332438Y-70738095D01*
X108332438Y-70738095D02*
X108380057Y-70785714D01*
X108380057Y-70785714D02*
X108475295Y-70833333D01*
X108475295Y-70833333D02*
X108618152Y-70833333D01*
X108618152Y-70833333D02*
X108713390Y-70785714D01*
X108713390Y-70785714D02*
X108761009Y-70738095D01*
X108761009Y-70738095D02*
X108808628Y-70642857D01*
X108808628Y-70642857D02*
X108808628Y-70261905D01*
X108618152Y-71690476D02*
X109284819Y-71690476D01*
X108237200Y-71452381D02*
X108951485Y-71214286D01*
X108951485Y-71214286D02*
X108951485Y-71833333D01*
X123914285Y-72502438D02*
X124009523Y-72454819D01*
X124009523Y-72454819D02*
X124152380Y-72454819D01*
X124152380Y-72454819D02*
X124295237Y-72502438D01*
X124295237Y-72502438D02*
X124390475Y-72597676D01*
X124390475Y-72597676D02*
X124438094Y-72692914D01*
X124438094Y-72692914D02*
X124485713Y-72883390D01*
X124485713Y-72883390D02*
X124485713Y-73026247D01*
X124485713Y-73026247D02*
X124438094Y-73216723D01*
X124438094Y-73216723D02*
X124390475Y-73311961D01*
X124390475Y-73311961D02*
X124295237Y-73407200D01*
X124295237Y-73407200D02*
X124152380Y-73454819D01*
X124152380Y-73454819D02*
X124057142Y-73454819D01*
X124057142Y-73454819D02*
X123914285Y-73407200D01*
X123914285Y-73407200D02*
X123866666Y-73359580D01*
X123866666Y-73359580D02*
X123866666Y-73026247D01*
X123866666Y-73026247D02*
X124057142Y-73026247D01*
X123438094Y-73454819D02*
X123438094Y-72454819D01*
X123438094Y-72454819D02*
X123199999Y-72454819D01*
X123199999Y-72454819D02*
X123057142Y-72502438D01*
X123057142Y-72502438D02*
X122961904Y-72597676D01*
X122961904Y-72597676D02*
X122914285Y-72692914D01*
X122914285Y-72692914D02*
X122866666Y-72883390D01*
X122866666Y-72883390D02*
X122866666Y-73026247D01*
X122866666Y-73026247D02*
X122914285Y-73216723D01*
X122914285Y-73216723D02*
X122961904Y-73311961D01*
X122961904Y-73311961D02*
X123057142Y-73407200D01*
X123057142Y-73407200D02*
X123199999Y-73454819D01*
X123199999Y-73454819D02*
X123438094Y-73454819D01*
X121914285Y-73454819D02*
X122485713Y-73454819D01*
X122199999Y-73454819D02*
X122199999Y-72454819D01*
X122199999Y-72454819D02*
X122295237Y-72597676D01*
X122295237Y-72597676D02*
X122390475Y-72692914D01*
X122390475Y-72692914D02*
X122485713Y-72740533D01*
X86179819Y-144041905D02*
X85179819Y-144041905D01*
X85179819Y-144041905D02*
X85179819Y-144280000D01*
X85179819Y-144280000D02*
X85227438Y-144422857D01*
X85227438Y-144422857D02*
X85322676Y-144518095D01*
X85322676Y-144518095D02*
X85417914Y-144565714D01*
X85417914Y-144565714D02*
X85608390Y-144613333D01*
X85608390Y-144613333D02*
X85751247Y-144613333D01*
X85751247Y-144613333D02*
X85941723Y-144565714D01*
X85941723Y-144565714D02*
X86036961Y-144518095D01*
X86036961Y-144518095D02*
X86132200Y-144422857D01*
X86132200Y-144422857D02*
X86179819Y-144280000D01*
X86179819Y-144280000D02*
X86179819Y-144041905D01*
X85513152Y-145470476D02*
X86179819Y-145470476D01*
X85132200Y-145232381D02*
X85846485Y-144994286D01*
X85846485Y-144994286D02*
X85846485Y-145613333D01*
X160054819Y-99807142D02*
X159578628Y-99473809D01*
X160054819Y-99235714D02*
X159054819Y-99235714D01*
X159054819Y-99235714D02*
X159054819Y-99616666D01*
X159054819Y-99616666D02*
X159102438Y-99711904D01*
X159102438Y-99711904D02*
X159150057Y-99759523D01*
X159150057Y-99759523D02*
X159245295Y-99807142D01*
X159245295Y-99807142D02*
X159388152Y-99807142D01*
X159388152Y-99807142D02*
X159483390Y-99759523D01*
X159483390Y-99759523D02*
X159531009Y-99711904D01*
X159531009Y-99711904D02*
X159578628Y-99616666D01*
X159578628Y-99616666D02*
X159578628Y-99235714D01*
X159054819Y-100664285D02*
X159054819Y-100473809D01*
X159054819Y-100473809D02*
X159102438Y-100378571D01*
X159102438Y-100378571D02*
X159150057Y-100330952D01*
X159150057Y-100330952D02*
X159292914Y-100235714D01*
X159292914Y-100235714D02*
X159483390Y-100188095D01*
X159483390Y-100188095D02*
X159864342Y-100188095D01*
X159864342Y-100188095D02*
X159959580Y-100235714D01*
X159959580Y-100235714D02*
X160007200Y-100283333D01*
X160007200Y-100283333D02*
X160054819Y-100378571D01*
X160054819Y-100378571D02*
X160054819Y-100569047D01*
X160054819Y-100569047D02*
X160007200Y-100664285D01*
X160007200Y-100664285D02*
X159959580Y-100711904D01*
X159959580Y-100711904D02*
X159864342Y-100759523D01*
X159864342Y-100759523D02*
X159626247Y-100759523D01*
X159626247Y-100759523D02*
X159531009Y-100711904D01*
X159531009Y-100711904D02*
X159483390Y-100664285D01*
X159483390Y-100664285D02*
X159435771Y-100569047D01*
X159435771Y-100569047D02*
X159435771Y-100378571D01*
X159435771Y-100378571D02*
X159483390Y-100283333D01*
X159483390Y-100283333D02*
X159531009Y-100235714D01*
X159531009Y-100235714D02*
X159626247Y-100188095D01*
X159054819Y-101092857D02*
X159054819Y-101759523D01*
X159054819Y-101759523D02*
X160054819Y-101330952D01*
X133442857Y-161054819D02*
X133776190Y-160578628D01*
X134014285Y-161054819D02*
X134014285Y-160054819D01*
X134014285Y-160054819D02*
X133633333Y-160054819D01*
X133633333Y-160054819D02*
X133538095Y-160102438D01*
X133538095Y-160102438D02*
X133490476Y-160150057D01*
X133490476Y-160150057D02*
X133442857Y-160245295D01*
X133442857Y-160245295D02*
X133442857Y-160388152D01*
X133442857Y-160388152D02*
X133490476Y-160483390D01*
X133490476Y-160483390D02*
X133538095Y-160531009D01*
X133538095Y-160531009D02*
X133633333Y-160578628D01*
X133633333Y-160578628D02*
X134014285Y-160578628D01*
X133109523Y-160054819D02*
X132490476Y-160054819D01*
X132490476Y-160054819D02*
X132823809Y-160435771D01*
X132823809Y-160435771D02*
X132680952Y-160435771D01*
X132680952Y-160435771D02*
X132585714Y-160483390D01*
X132585714Y-160483390D02*
X132538095Y-160531009D01*
X132538095Y-160531009D02*
X132490476Y-160626247D01*
X132490476Y-160626247D02*
X132490476Y-160864342D01*
X132490476Y-160864342D02*
X132538095Y-160959580D01*
X132538095Y-160959580D02*
X132585714Y-161007200D01*
X132585714Y-161007200D02*
X132680952Y-161054819D01*
X132680952Y-161054819D02*
X132966666Y-161054819D01*
X132966666Y-161054819D02*
X133061904Y-161007200D01*
X133061904Y-161007200D02*
X133109523Y-160959580D01*
X131633333Y-160388152D02*
X131633333Y-161054819D01*
X131871428Y-160007200D02*
X132109523Y-160721485D01*
X132109523Y-160721485D02*
X131490476Y-160721485D01*
X132254819Y-153177142D02*
X131778628Y-152843809D01*
X132254819Y-152605714D02*
X131254819Y-152605714D01*
X131254819Y-152605714D02*
X131254819Y-152986666D01*
X131254819Y-152986666D02*
X131302438Y-153081904D01*
X131302438Y-153081904D02*
X131350057Y-153129523D01*
X131350057Y-153129523D02*
X131445295Y-153177142D01*
X131445295Y-153177142D02*
X131588152Y-153177142D01*
X131588152Y-153177142D02*
X131683390Y-153129523D01*
X131683390Y-153129523D02*
X131731009Y-153081904D01*
X131731009Y-153081904D02*
X131778628Y-152986666D01*
X131778628Y-152986666D02*
X131778628Y-152605714D01*
X132254819Y-154129523D02*
X132254819Y-153558095D01*
X132254819Y-153843809D02*
X131254819Y-153843809D01*
X131254819Y-153843809D02*
X131397676Y-153748571D01*
X131397676Y-153748571D02*
X131492914Y-153653333D01*
X131492914Y-153653333D02*
X131540533Y-153558095D01*
X131254819Y-154462857D02*
X131254819Y-155129523D01*
X131254819Y-155129523D02*
X132254819Y-154700952D01*
X178024819Y-129357142D02*
X177548628Y-129023809D01*
X178024819Y-128785714D02*
X177024819Y-128785714D01*
X177024819Y-128785714D02*
X177024819Y-129166666D01*
X177024819Y-129166666D02*
X177072438Y-129261904D01*
X177072438Y-129261904D02*
X177120057Y-129309523D01*
X177120057Y-129309523D02*
X177215295Y-129357142D01*
X177215295Y-129357142D02*
X177358152Y-129357142D01*
X177358152Y-129357142D02*
X177453390Y-129309523D01*
X177453390Y-129309523D02*
X177501009Y-129261904D01*
X177501009Y-129261904D02*
X177548628Y-129166666D01*
X177548628Y-129166666D02*
X177548628Y-128785714D01*
X177024819Y-129690476D02*
X177024819Y-130309523D01*
X177024819Y-130309523D02*
X177405771Y-129976190D01*
X177405771Y-129976190D02*
X177405771Y-130119047D01*
X177405771Y-130119047D02*
X177453390Y-130214285D01*
X177453390Y-130214285D02*
X177501009Y-130261904D01*
X177501009Y-130261904D02*
X177596247Y-130309523D01*
X177596247Y-130309523D02*
X177834342Y-130309523D01*
X177834342Y-130309523D02*
X177929580Y-130261904D01*
X177929580Y-130261904D02*
X177977200Y-130214285D01*
X177977200Y-130214285D02*
X178024819Y-130119047D01*
X178024819Y-130119047D02*
X178024819Y-129833333D01*
X178024819Y-129833333D02*
X177977200Y-129738095D01*
X177977200Y-129738095D02*
X177929580Y-129690476D01*
X177453390Y-130880952D02*
X177405771Y-130785714D01*
X177405771Y-130785714D02*
X177358152Y-130738095D01*
X177358152Y-130738095D02*
X177262914Y-130690476D01*
X177262914Y-130690476D02*
X177215295Y-130690476D01*
X177215295Y-130690476D02*
X177120057Y-130738095D01*
X177120057Y-130738095D02*
X177072438Y-130785714D01*
X177072438Y-130785714D02*
X177024819Y-130880952D01*
X177024819Y-130880952D02*
X177024819Y-131071428D01*
X177024819Y-131071428D02*
X177072438Y-131166666D01*
X177072438Y-131166666D02*
X177120057Y-131214285D01*
X177120057Y-131214285D02*
X177215295Y-131261904D01*
X177215295Y-131261904D02*
X177262914Y-131261904D01*
X177262914Y-131261904D02*
X177358152Y-131214285D01*
X177358152Y-131214285D02*
X177405771Y-131166666D01*
X177405771Y-131166666D02*
X177453390Y-131071428D01*
X177453390Y-131071428D02*
X177453390Y-130880952D01*
X177453390Y-130880952D02*
X177501009Y-130785714D01*
X177501009Y-130785714D02*
X177548628Y-130738095D01*
X177548628Y-130738095D02*
X177643866Y-130690476D01*
X177643866Y-130690476D02*
X177834342Y-130690476D01*
X177834342Y-130690476D02*
X177929580Y-130738095D01*
X177929580Y-130738095D02*
X177977200Y-130785714D01*
X177977200Y-130785714D02*
X178024819Y-130880952D01*
X178024819Y-130880952D02*
X178024819Y-131071428D01*
X178024819Y-131071428D02*
X177977200Y-131166666D01*
X177977200Y-131166666D02*
X177929580Y-131214285D01*
X177929580Y-131214285D02*
X177834342Y-131261904D01*
X177834342Y-131261904D02*
X177643866Y-131261904D01*
X177643866Y-131261904D02*
X177548628Y-131214285D01*
X177548628Y-131214285D02*
X177501009Y-131166666D01*
X177501009Y-131166666D02*
X177453390Y-131071428D01*
X179254819Y-80557142D02*
X178778628Y-80223809D01*
X179254819Y-79985714D02*
X178254819Y-79985714D01*
X178254819Y-79985714D02*
X178254819Y-80366666D01*
X178254819Y-80366666D02*
X178302438Y-80461904D01*
X178302438Y-80461904D02*
X178350057Y-80509523D01*
X178350057Y-80509523D02*
X178445295Y-80557142D01*
X178445295Y-80557142D02*
X178588152Y-80557142D01*
X178588152Y-80557142D02*
X178683390Y-80509523D01*
X178683390Y-80509523D02*
X178731009Y-80461904D01*
X178731009Y-80461904D02*
X178778628Y-80366666D01*
X178778628Y-80366666D02*
X178778628Y-79985714D01*
X179254819Y-81509523D02*
X179254819Y-80938095D01*
X179254819Y-81223809D02*
X178254819Y-81223809D01*
X178254819Y-81223809D02*
X178397676Y-81128571D01*
X178397676Y-81128571D02*
X178492914Y-81033333D01*
X178492914Y-81033333D02*
X178540533Y-80938095D01*
X178254819Y-81842857D02*
X178254819Y-82461904D01*
X178254819Y-82461904D02*
X178635771Y-82128571D01*
X178635771Y-82128571D02*
X178635771Y-82271428D01*
X178635771Y-82271428D02*
X178683390Y-82366666D01*
X178683390Y-82366666D02*
X178731009Y-82414285D01*
X178731009Y-82414285D02*
X178826247Y-82461904D01*
X178826247Y-82461904D02*
X179064342Y-82461904D01*
X179064342Y-82461904D02*
X179159580Y-82414285D01*
X179159580Y-82414285D02*
X179207200Y-82366666D01*
X179207200Y-82366666D02*
X179254819Y-82271428D01*
X179254819Y-82271428D02*
X179254819Y-81985714D01*
X179254819Y-81985714D02*
X179207200Y-81890476D01*
X179207200Y-81890476D02*
X179159580Y-81842857D01*
X173104819Y-87957142D02*
X172628628Y-87623809D01*
X173104819Y-87385714D02*
X172104819Y-87385714D01*
X172104819Y-87385714D02*
X172104819Y-87766666D01*
X172104819Y-87766666D02*
X172152438Y-87861904D01*
X172152438Y-87861904D02*
X172200057Y-87909523D01*
X172200057Y-87909523D02*
X172295295Y-87957142D01*
X172295295Y-87957142D02*
X172438152Y-87957142D01*
X172438152Y-87957142D02*
X172533390Y-87909523D01*
X172533390Y-87909523D02*
X172581009Y-87861904D01*
X172581009Y-87861904D02*
X172628628Y-87766666D01*
X172628628Y-87766666D02*
X172628628Y-87385714D01*
X172200057Y-88338095D02*
X172152438Y-88385714D01*
X172152438Y-88385714D02*
X172104819Y-88480952D01*
X172104819Y-88480952D02*
X172104819Y-88719047D01*
X172104819Y-88719047D02*
X172152438Y-88814285D01*
X172152438Y-88814285D02*
X172200057Y-88861904D01*
X172200057Y-88861904D02*
X172295295Y-88909523D01*
X172295295Y-88909523D02*
X172390533Y-88909523D01*
X172390533Y-88909523D02*
X172533390Y-88861904D01*
X172533390Y-88861904D02*
X173104819Y-88290476D01*
X173104819Y-88290476D02*
X173104819Y-88909523D01*
X173104819Y-89861904D02*
X173104819Y-89290476D01*
X173104819Y-89576190D02*
X172104819Y-89576190D01*
X172104819Y-89576190D02*
X172247676Y-89480952D01*
X172247676Y-89480952D02*
X172342914Y-89385714D01*
X172342914Y-89385714D02*
X172390533Y-89290476D01*
X170254819Y-106757142D02*
X169778628Y-106423809D01*
X170254819Y-106185714D02*
X169254819Y-106185714D01*
X169254819Y-106185714D02*
X169254819Y-106566666D01*
X169254819Y-106566666D02*
X169302438Y-106661904D01*
X169302438Y-106661904D02*
X169350057Y-106709523D01*
X169350057Y-106709523D02*
X169445295Y-106757142D01*
X169445295Y-106757142D02*
X169588152Y-106757142D01*
X169588152Y-106757142D02*
X169683390Y-106709523D01*
X169683390Y-106709523D02*
X169731009Y-106661904D01*
X169731009Y-106661904D02*
X169778628Y-106566666D01*
X169778628Y-106566666D02*
X169778628Y-106185714D01*
X169254819Y-107090476D02*
X169254819Y-107757142D01*
X169254819Y-107757142D02*
X170254819Y-107328571D01*
X169588152Y-108566666D02*
X170254819Y-108566666D01*
X169207200Y-108328571D02*
X169921485Y-108090476D01*
X169921485Y-108090476D02*
X169921485Y-108709523D01*
X163842857Y-97854819D02*
X164176190Y-97378628D01*
X164414285Y-97854819D02*
X164414285Y-96854819D01*
X164414285Y-96854819D02*
X164033333Y-96854819D01*
X164033333Y-96854819D02*
X163938095Y-96902438D01*
X163938095Y-96902438D02*
X163890476Y-96950057D01*
X163890476Y-96950057D02*
X163842857Y-97045295D01*
X163842857Y-97045295D02*
X163842857Y-97188152D01*
X163842857Y-97188152D02*
X163890476Y-97283390D01*
X163890476Y-97283390D02*
X163938095Y-97331009D01*
X163938095Y-97331009D02*
X164033333Y-97378628D01*
X164033333Y-97378628D02*
X164414285Y-97378628D01*
X163271428Y-97283390D02*
X163366666Y-97235771D01*
X163366666Y-97235771D02*
X163414285Y-97188152D01*
X163414285Y-97188152D02*
X163461904Y-97092914D01*
X163461904Y-97092914D02*
X163461904Y-97045295D01*
X163461904Y-97045295D02*
X163414285Y-96950057D01*
X163414285Y-96950057D02*
X163366666Y-96902438D01*
X163366666Y-96902438D02*
X163271428Y-96854819D01*
X163271428Y-96854819D02*
X163080952Y-96854819D01*
X163080952Y-96854819D02*
X162985714Y-96902438D01*
X162985714Y-96902438D02*
X162938095Y-96950057D01*
X162938095Y-96950057D02*
X162890476Y-97045295D01*
X162890476Y-97045295D02*
X162890476Y-97092914D01*
X162890476Y-97092914D02*
X162938095Y-97188152D01*
X162938095Y-97188152D02*
X162985714Y-97235771D01*
X162985714Y-97235771D02*
X163080952Y-97283390D01*
X163080952Y-97283390D02*
X163271428Y-97283390D01*
X163271428Y-97283390D02*
X163366666Y-97331009D01*
X163366666Y-97331009D02*
X163414285Y-97378628D01*
X163414285Y-97378628D02*
X163461904Y-97473866D01*
X163461904Y-97473866D02*
X163461904Y-97664342D01*
X163461904Y-97664342D02*
X163414285Y-97759580D01*
X163414285Y-97759580D02*
X163366666Y-97807200D01*
X163366666Y-97807200D02*
X163271428Y-97854819D01*
X163271428Y-97854819D02*
X163080952Y-97854819D01*
X163080952Y-97854819D02*
X162985714Y-97807200D01*
X162985714Y-97807200D02*
X162938095Y-97759580D01*
X162938095Y-97759580D02*
X162890476Y-97664342D01*
X162890476Y-97664342D02*
X162890476Y-97473866D01*
X162890476Y-97473866D02*
X162938095Y-97378628D01*
X162938095Y-97378628D02*
X162985714Y-97331009D01*
X162985714Y-97331009D02*
X163080952Y-97283390D01*
X162509523Y-96950057D02*
X162461904Y-96902438D01*
X162461904Y-96902438D02*
X162366666Y-96854819D01*
X162366666Y-96854819D02*
X162128571Y-96854819D01*
X162128571Y-96854819D02*
X162033333Y-96902438D01*
X162033333Y-96902438D02*
X161985714Y-96950057D01*
X161985714Y-96950057D02*
X161938095Y-97045295D01*
X161938095Y-97045295D02*
X161938095Y-97140533D01*
X161938095Y-97140533D02*
X161985714Y-97283390D01*
X161985714Y-97283390D02*
X162557142Y-97854819D01*
X162557142Y-97854819D02*
X161938095Y-97854819D01*
X92971428Y-138950057D02*
X93066666Y-138902438D01*
X93066666Y-138902438D02*
X93161904Y-138807200D01*
X93161904Y-138807200D02*
X93304761Y-138664342D01*
X93304761Y-138664342D02*
X93399999Y-138616723D01*
X93399999Y-138616723D02*
X93495237Y-138616723D01*
X93447618Y-138854819D02*
X93542856Y-138807200D01*
X93542856Y-138807200D02*
X93638094Y-138711961D01*
X93638094Y-138711961D02*
X93685713Y-138521485D01*
X93685713Y-138521485D02*
X93685713Y-138188152D01*
X93685713Y-138188152D02*
X93638094Y-137997676D01*
X93638094Y-137997676D02*
X93542856Y-137902438D01*
X93542856Y-137902438D02*
X93447618Y-137854819D01*
X93447618Y-137854819D02*
X93257142Y-137854819D01*
X93257142Y-137854819D02*
X93161904Y-137902438D01*
X93161904Y-137902438D02*
X93066666Y-137997676D01*
X93066666Y-137997676D02*
X93019047Y-138188152D01*
X93019047Y-138188152D02*
X93019047Y-138521485D01*
X93019047Y-138521485D02*
X93066666Y-138711961D01*
X93066666Y-138711961D02*
X93161904Y-138807200D01*
X93161904Y-138807200D02*
X93257142Y-138854819D01*
X93257142Y-138854819D02*
X93447618Y-138854819D01*
X92066666Y-138854819D02*
X92638094Y-138854819D01*
X92352380Y-138854819D02*
X92352380Y-137854819D01*
X92352380Y-137854819D02*
X92447618Y-137997676D01*
X92447618Y-137997676D02*
X92542856Y-138092914D01*
X92542856Y-138092914D02*
X92638094Y-138140533D01*
X91447618Y-137854819D02*
X91352380Y-137854819D01*
X91352380Y-137854819D02*
X91257142Y-137902438D01*
X91257142Y-137902438D02*
X91209523Y-137950057D01*
X91209523Y-137950057D02*
X91161904Y-138045295D01*
X91161904Y-138045295D02*
X91114285Y-138235771D01*
X91114285Y-138235771D02*
X91114285Y-138473866D01*
X91114285Y-138473866D02*
X91161904Y-138664342D01*
X91161904Y-138664342D02*
X91209523Y-138759580D01*
X91209523Y-138759580D02*
X91257142Y-138807200D01*
X91257142Y-138807200D02*
X91352380Y-138854819D01*
X91352380Y-138854819D02*
X91447618Y-138854819D01*
X91447618Y-138854819D02*
X91542856Y-138807200D01*
X91542856Y-138807200D02*
X91590475Y-138759580D01*
X91590475Y-138759580D02*
X91638094Y-138664342D01*
X91638094Y-138664342D02*
X91685713Y-138473866D01*
X91685713Y-138473866D02*
X91685713Y-138235771D01*
X91685713Y-138235771D02*
X91638094Y-138045295D01*
X91638094Y-138045295D02*
X91590475Y-137950057D01*
X91590475Y-137950057D02*
X91542856Y-137902438D01*
X91542856Y-137902438D02*
X91447618Y-137854819D01*
X124766666Y-152519580D02*
X124814285Y-152567200D01*
X124814285Y-152567200D02*
X124957142Y-152614819D01*
X124957142Y-152614819D02*
X125052380Y-152614819D01*
X125052380Y-152614819D02*
X125195237Y-152567200D01*
X125195237Y-152567200D02*
X125290475Y-152471961D01*
X125290475Y-152471961D02*
X125338094Y-152376723D01*
X125338094Y-152376723D02*
X125385713Y-152186247D01*
X125385713Y-152186247D02*
X125385713Y-152043390D01*
X125385713Y-152043390D02*
X125338094Y-151852914D01*
X125338094Y-151852914D02*
X125290475Y-151757676D01*
X125290475Y-151757676D02*
X125195237Y-151662438D01*
X125195237Y-151662438D02*
X125052380Y-151614819D01*
X125052380Y-151614819D02*
X124957142Y-151614819D01*
X124957142Y-151614819D02*
X124814285Y-151662438D01*
X124814285Y-151662438D02*
X124766666Y-151710057D01*
X123861904Y-151614819D02*
X124338094Y-151614819D01*
X124338094Y-151614819D02*
X124385713Y-152091009D01*
X124385713Y-152091009D02*
X124338094Y-152043390D01*
X124338094Y-152043390D02*
X124242856Y-151995771D01*
X124242856Y-151995771D02*
X124004761Y-151995771D01*
X124004761Y-151995771D02*
X123909523Y-152043390D01*
X123909523Y-152043390D02*
X123861904Y-152091009D01*
X123861904Y-152091009D02*
X123814285Y-152186247D01*
X123814285Y-152186247D02*
X123814285Y-152424342D01*
X123814285Y-152424342D02*
X123861904Y-152519580D01*
X123861904Y-152519580D02*
X123909523Y-152567200D01*
X123909523Y-152567200D02*
X124004761Y-152614819D01*
X124004761Y-152614819D02*
X124242856Y-152614819D01*
X124242856Y-152614819D02*
X124338094Y-152567200D01*
X124338094Y-152567200D02*
X124385713Y-152519580D01*
X164642857Y-91359580D02*
X164690476Y-91407200D01*
X164690476Y-91407200D02*
X164833333Y-91454819D01*
X164833333Y-91454819D02*
X164928571Y-91454819D01*
X164928571Y-91454819D02*
X165071428Y-91407200D01*
X165071428Y-91407200D02*
X165166666Y-91311961D01*
X165166666Y-91311961D02*
X165214285Y-91216723D01*
X165214285Y-91216723D02*
X165261904Y-91026247D01*
X165261904Y-91026247D02*
X165261904Y-90883390D01*
X165261904Y-90883390D02*
X165214285Y-90692914D01*
X165214285Y-90692914D02*
X165166666Y-90597676D01*
X165166666Y-90597676D02*
X165071428Y-90502438D01*
X165071428Y-90502438D02*
X164928571Y-90454819D01*
X164928571Y-90454819D02*
X164833333Y-90454819D01*
X164833333Y-90454819D02*
X164690476Y-90502438D01*
X164690476Y-90502438D02*
X164642857Y-90550057D01*
X163785714Y-90788152D02*
X163785714Y-91454819D01*
X164023809Y-90407200D02*
X164261904Y-91121485D01*
X164261904Y-91121485D02*
X163642857Y-91121485D01*
X162833333Y-90454819D02*
X163023809Y-90454819D01*
X163023809Y-90454819D02*
X163119047Y-90502438D01*
X163119047Y-90502438D02*
X163166666Y-90550057D01*
X163166666Y-90550057D02*
X163261904Y-90692914D01*
X163261904Y-90692914D02*
X163309523Y-90883390D01*
X163309523Y-90883390D02*
X163309523Y-91264342D01*
X163309523Y-91264342D02*
X163261904Y-91359580D01*
X163261904Y-91359580D02*
X163214285Y-91407200D01*
X163214285Y-91407200D02*
X163119047Y-91454819D01*
X163119047Y-91454819D02*
X162928571Y-91454819D01*
X162928571Y-91454819D02*
X162833333Y-91407200D01*
X162833333Y-91407200D02*
X162785714Y-91359580D01*
X162785714Y-91359580D02*
X162738095Y-91264342D01*
X162738095Y-91264342D02*
X162738095Y-91026247D01*
X162738095Y-91026247D02*
X162785714Y-90931009D01*
X162785714Y-90931009D02*
X162833333Y-90883390D01*
X162833333Y-90883390D02*
X162928571Y-90835771D01*
X162928571Y-90835771D02*
X163119047Y-90835771D01*
X163119047Y-90835771D02*
X163214285Y-90883390D01*
X163214285Y-90883390D02*
X163261904Y-90931009D01*
X163261904Y-90931009D02*
X163309523Y-91026247D01*
X190614285Y-102854819D02*
X190614285Y-101854819D01*
X190614285Y-101854819D02*
X190376190Y-101854819D01*
X190376190Y-101854819D02*
X190233333Y-101902438D01*
X190233333Y-101902438D02*
X190138095Y-101997676D01*
X190138095Y-101997676D02*
X190090476Y-102092914D01*
X190090476Y-102092914D02*
X190042857Y-102283390D01*
X190042857Y-102283390D02*
X190042857Y-102426247D01*
X190042857Y-102426247D02*
X190090476Y-102616723D01*
X190090476Y-102616723D02*
X190138095Y-102711961D01*
X190138095Y-102711961D02*
X190233333Y-102807200D01*
X190233333Y-102807200D02*
X190376190Y-102854819D01*
X190376190Y-102854819D02*
X190614285Y-102854819D01*
X189661904Y-101950057D02*
X189614285Y-101902438D01*
X189614285Y-101902438D02*
X189519047Y-101854819D01*
X189519047Y-101854819D02*
X189280952Y-101854819D01*
X189280952Y-101854819D02*
X189185714Y-101902438D01*
X189185714Y-101902438D02*
X189138095Y-101950057D01*
X189138095Y-101950057D02*
X189090476Y-102045295D01*
X189090476Y-102045295D02*
X189090476Y-102140533D01*
X189090476Y-102140533D02*
X189138095Y-102283390D01*
X189138095Y-102283390D02*
X189709523Y-102854819D01*
X189709523Y-102854819D02*
X189090476Y-102854819D01*
X188233333Y-102188152D02*
X188233333Y-102854819D01*
X188471428Y-101807200D02*
X188709523Y-102521485D01*
X188709523Y-102521485D02*
X188090476Y-102521485D01*
X118424404Y-154704819D02*
X118424404Y-155514342D01*
X118424404Y-155514342D02*
X118376785Y-155609580D01*
X118376785Y-155609580D02*
X118329166Y-155657200D01*
X118329166Y-155657200D02*
X118233928Y-155704819D01*
X118233928Y-155704819D02*
X118043452Y-155704819D01*
X118043452Y-155704819D02*
X117948214Y-155657200D01*
X117948214Y-155657200D02*
X117900595Y-155609580D01*
X117900595Y-155609580D02*
X117852976Y-155514342D01*
X117852976Y-155514342D02*
X117852976Y-154704819D01*
X116852976Y-155704819D02*
X117424404Y-155704819D01*
X117138690Y-155704819D02*
X117138690Y-154704819D01*
X117138690Y-154704819D02*
X117233928Y-154847676D01*
X117233928Y-154847676D02*
X117329166Y-154942914D01*
X117329166Y-154942914D02*
X117424404Y-154990533D01*
X125542857Y-141329580D02*
X125590476Y-141377200D01*
X125590476Y-141377200D02*
X125733333Y-141424819D01*
X125733333Y-141424819D02*
X125828571Y-141424819D01*
X125828571Y-141424819D02*
X125971428Y-141377200D01*
X125971428Y-141377200D02*
X126066666Y-141281961D01*
X126066666Y-141281961D02*
X126114285Y-141186723D01*
X126114285Y-141186723D02*
X126161904Y-140996247D01*
X126161904Y-140996247D02*
X126161904Y-140853390D01*
X126161904Y-140853390D02*
X126114285Y-140662914D01*
X126114285Y-140662914D02*
X126066666Y-140567676D01*
X126066666Y-140567676D02*
X125971428Y-140472438D01*
X125971428Y-140472438D02*
X125828571Y-140424819D01*
X125828571Y-140424819D02*
X125733333Y-140424819D01*
X125733333Y-140424819D02*
X125590476Y-140472438D01*
X125590476Y-140472438D02*
X125542857Y-140520057D01*
X125161904Y-140520057D02*
X125114285Y-140472438D01*
X125114285Y-140472438D02*
X125019047Y-140424819D01*
X125019047Y-140424819D02*
X124780952Y-140424819D01*
X124780952Y-140424819D02*
X124685714Y-140472438D01*
X124685714Y-140472438D02*
X124638095Y-140520057D01*
X124638095Y-140520057D02*
X124590476Y-140615295D01*
X124590476Y-140615295D02*
X124590476Y-140710533D01*
X124590476Y-140710533D02*
X124638095Y-140853390D01*
X124638095Y-140853390D02*
X125209523Y-141424819D01*
X125209523Y-141424819D02*
X124590476Y-141424819D01*
X123638095Y-141424819D02*
X124209523Y-141424819D01*
X123923809Y-141424819D02*
X123923809Y-140424819D01*
X123923809Y-140424819D02*
X124019047Y-140567676D01*
X124019047Y-140567676D02*
X124114285Y-140662914D01*
X124114285Y-140662914D02*
X124209523Y-140710533D01*
X181842857Y-91854819D02*
X182176190Y-91378628D01*
X182414285Y-91854819D02*
X182414285Y-90854819D01*
X182414285Y-90854819D02*
X182033333Y-90854819D01*
X182033333Y-90854819D02*
X181938095Y-90902438D01*
X181938095Y-90902438D02*
X181890476Y-90950057D01*
X181890476Y-90950057D02*
X181842857Y-91045295D01*
X181842857Y-91045295D02*
X181842857Y-91188152D01*
X181842857Y-91188152D02*
X181890476Y-91283390D01*
X181890476Y-91283390D02*
X181938095Y-91331009D01*
X181938095Y-91331009D02*
X182033333Y-91378628D01*
X182033333Y-91378628D02*
X182414285Y-91378628D01*
X181509523Y-90854819D02*
X180842857Y-90854819D01*
X180842857Y-90854819D02*
X181271428Y-91854819D01*
X179938095Y-91854819D02*
X180509523Y-91854819D01*
X180223809Y-91854819D02*
X180223809Y-90854819D01*
X180223809Y-90854819D02*
X180319047Y-90997676D01*
X180319047Y-90997676D02*
X180414285Y-91092914D01*
X180414285Y-91092914D02*
X180509523Y-91140533D01*
X110042857Y-164854819D02*
X110376190Y-164378628D01*
X110614285Y-164854819D02*
X110614285Y-163854819D01*
X110614285Y-163854819D02*
X110233333Y-163854819D01*
X110233333Y-163854819D02*
X110138095Y-163902438D01*
X110138095Y-163902438D02*
X110090476Y-163950057D01*
X110090476Y-163950057D02*
X110042857Y-164045295D01*
X110042857Y-164045295D02*
X110042857Y-164188152D01*
X110042857Y-164188152D02*
X110090476Y-164283390D01*
X110090476Y-164283390D02*
X110138095Y-164331009D01*
X110138095Y-164331009D02*
X110233333Y-164378628D01*
X110233333Y-164378628D02*
X110614285Y-164378628D01*
X109138095Y-163854819D02*
X109614285Y-163854819D01*
X109614285Y-163854819D02*
X109661904Y-164331009D01*
X109661904Y-164331009D02*
X109614285Y-164283390D01*
X109614285Y-164283390D02*
X109519047Y-164235771D01*
X109519047Y-164235771D02*
X109280952Y-164235771D01*
X109280952Y-164235771D02*
X109185714Y-164283390D01*
X109185714Y-164283390D02*
X109138095Y-164331009D01*
X109138095Y-164331009D02*
X109090476Y-164426247D01*
X109090476Y-164426247D02*
X109090476Y-164664342D01*
X109090476Y-164664342D02*
X109138095Y-164759580D01*
X109138095Y-164759580D02*
X109185714Y-164807200D01*
X109185714Y-164807200D02*
X109280952Y-164854819D01*
X109280952Y-164854819D02*
X109519047Y-164854819D01*
X109519047Y-164854819D02*
X109614285Y-164807200D01*
X109614285Y-164807200D02*
X109661904Y-164759580D01*
X108757142Y-163854819D02*
X108138095Y-163854819D01*
X108138095Y-163854819D02*
X108471428Y-164235771D01*
X108471428Y-164235771D02*
X108328571Y-164235771D01*
X108328571Y-164235771D02*
X108233333Y-164283390D01*
X108233333Y-164283390D02*
X108185714Y-164331009D01*
X108185714Y-164331009D02*
X108138095Y-164426247D01*
X108138095Y-164426247D02*
X108138095Y-164664342D01*
X108138095Y-164664342D02*
X108185714Y-164759580D01*
X108185714Y-164759580D02*
X108233333Y-164807200D01*
X108233333Y-164807200D02*
X108328571Y-164854819D01*
X108328571Y-164854819D02*
X108614285Y-164854819D01*
X108614285Y-164854819D02*
X108709523Y-164807200D01*
X108709523Y-164807200D02*
X108757142Y-164759580D01*
X179409580Y-106057142D02*
X179457200Y-106009523D01*
X179457200Y-106009523D02*
X179504819Y-105866666D01*
X179504819Y-105866666D02*
X179504819Y-105771428D01*
X179504819Y-105771428D02*
X179457200Y-105628571D01*
X179457200Y-105628571D02*
X179361961Y-105533333D01*
X179361961Y-105533333D02*
X179266723Y-105485714D01*
X179266723Y-105485714D02*
X179076247Y-105438095D01*
X179076247Y-105438095D02*
X178933390Y-105438095D01*
X178933390Y-105438095D02*
X178742914Y-105485714D01*
X178742914Y-105485714D02*
X178647676Y-105533333D01*
X178647676Y-105533333D02*
X178552438Y-105628571D01*
X178552438Y-105628571D02*
X178504819Y-105771428D01*
X178504819Y-105771428D02*
X178504819Y-105866666D01*
X178504819Y-105866666D02*
X178552438Y-106009523D01*
X178552438Y-106009523D02*
X178600057Y-106057142D01*
X178838152Y-106914285D02*
X179504819Y-106914285D01*
X178457200Y-106676190D02*
X179171485Y-106438095D01*
X179171485Y-106438095D02*
X179171485Y-107057142D01*
X178600057Y-107390476D02*
X178552438Y-107438095D01*
X178552438Y-107438095D02*
X178504819Y-107533333D01*
X178504819Y-107533333D02*
X178504819Y-107771428D01*
X178504819Y-107771428D02*
X178552438Y-107866666D01*
X178552438Y-107866666D02*
X178600057Y-107914285D01*
X178600057Y-107914285D02*
X178695295Y-107961904D01*
X178695295Y-107961904D02*
X178790533Y-107961904D01*
X178790533Y-107961904D02*
X178933390Y-107914285D01*
X178933390Y-107914285D02*
X179504819Y-107342857D01*
X179504819Y-107342857D02*
X179504819Y-107961904D01*
X169132557Y-118064761D02*
X169084938Y-117969523D01*
X169084938Y-117969523D02*
X168989700Y-117874285D01*
X168989700Y-117874285D02*
X168846842Y-117731428D01*
X168846842Y-117731428D02*
X168799223Y-117636190D01*
X168799223Y-117636190D02*
X168799223Y-117540952D01*
X169037319Y-117588571D02*
X168989700Y-117493333D01*
X168989700Y-117493333D02*
X168894461Y-117398095D01*
X168894461Y-117398095D02*
X168703985Y-117350476D01*
X168703985Y-117350476D02*
X168370652Y-117350476D01*
X168370652Y-117350476D02*
X168180176Y-117398095D01*
X168180176Y-117398095D02*
X168084938Y-117493333D01*
X168084938Y-117493333D02*
X168037319Y-117588571D01*
X168037319Y-117588571D02*
X168037319Y-117779047D01*
X168037319Y-117779047D02*
X168084938Y-117874285D01*
X168084938Y-117874285D02*
X168180176Y-117969523D01*
X168180176Y-117969523D02*
X168370652Y-118017142D01*
X168370652Y-118017142D02*
X168703985Y-118017142D01*
X168703985Y-118017142D02*
X168894461Y-117969523D01*
X168894461Y-117969523D02*
X168989700Y-117874285D01*
X168989700Y-117874285D02*
X169037319Y-117779047D01*
X169037319Y-117779047D02*
X169037319Y-117588571D01*
X168037319Y-118874285D02*
X168037319Y-118683809D01*
X168037319Y-118683809D02*
X168084938Y-118588571D01*
X168084938Y-118588571D02*
X168132557Y-118540952D01*
X168132557Y-118540952D02*
X168275414Y-118445714D01*
X168275414Y-118445714D02*
X168465890Y-118398095D01*
X168465890Y-118398095D02*
X168846842Y-118398095D01*
X168846842Y-118398095D02*
X168942080Y-118445714D01*
X168942080Y-118445714D02*
X168989700Y-118493333D01*
X168989700Y-118493333D02*
X169037319Y-118588571D01*
X169037319Y-118588571D02*
X169037319Y-118779047D01*
X169037319Y-118779047D02*
X168989700Y-118874285D01*
X168989700Y-118874285D02*
X168942080Y-118921904D01*
X168942080Y-118921904D02*
X168846842Y-118969523D01*
X168846842Y-118969523D02*
X168608747Y-118969523D01*
X168608747Y-118969523D02*
X168513509Y-118921904D01*
X168513509Y-118921904D02*
X168465890Y-118874285D01*
X168465890Y-118874285D02*
X168418271Y-118779047D01*
X168418271Y-118779047D02*
X168418271Y-118588571D01*
X168418271Y-118588571D02*
X168465890Y-118493333D01*
X168465890Y-118493333D02*
X168513509Y-118445714D01*
X168513509Y-118445714D02*
X168608747Y-118398095D01*
X181242857Y-89359580D02*
X181290476Y-89407200D01*
X181290476Y-89407200D02*
X181433333Y-89454819D01*
X181433333Y-89454819D02*
X181528571Y-89454819D01*
X181528571Y-89454819D02*
X181671428Y-89407200D01*
X181671428Y-89407200D02*
X181766666Y-89311961D01*
X181766666Y-89311961D02*
X181814285Y-89216723D01*
X181814285Y-89216723D02*
X181861904Y-89026247D01*
X181861904Y-89026247D02*
X181861904Y-88883390D01*
X181861904Y-88883390D02*
X181814285Y-88692914D01*
X181814285Y-88692914D02*
X181766666Y-88597676D01*
X181766666Y-88597676D02*
X181671428Y-88502438D01*
X181671428Y-88502438D02*
X181528571Y-88454819D01*
X181528571Y-88454819D02*
X181433333Y-88454819D01*
X181433333Y-88454819D02*
X181290476Y-88502438D01*
X181290476Y-88502438D02*
X181242857Y-88550057D01*
X180385714Y-88788152D02*
X180385714Y-89454819D01*
X180623809Y-88407200D02*
X180861904Y-89121485D01*
X180861904Y-89121485D02*
X180242857Y-89121485D01*
X179671428Y-88454819D02*
X179576190Y-88454819D01*
X179576190Y-88454819D02*
X179480952Y-88502438D01*
X179480952Y-88502438D02*
X179433333Y-88550057D01*
X179433333Y-88550057D02*
X179385714Y-88645295D01*
X179385714Y-88645295D02*
X179338095Y-88835771D01*
X179338095Y-88835771D02*
X179338095Y-89073866D01*
X179338095Y-89073866D02*
X179385714Y-89264342D01*
X179385714Y-89264342D02*
X179433333Y-89359580D01*
X179433333Y-89359580D02*
X179480952Y-89407200D01*
X179480952Y-89407200D02*
X179576190Y-89454819D01*
X179576190Y-89454819D02*
X179671428Y-89454819D01*
X179671428Y-89454819D02*
X179766666Y-89407200D01*
X179766666Y-89407200D02*
X179814285Y-89359580D01*
X179814285Y-89359580D02*
X179861904Y-89264342D01*
X179861904Y-89264342D02*
X179909523Y-89073866D01*
X179909523Y-89073866D02*
X179909523Y-88835771D01*
X179909523Y-88835771D02*
X179861904Y-88645295D01*
X179861904Y-88645295D02*
X179814285Y-88550057D01*
X179814285Y-88550057D02*
X179766666Y-88502438D01*
X179766666Y-88502438D02*
X179671428Y-88454819D01*
X150754819Y-126937142D02*
X150278628Y-126603809D01*
X150754819Y-126365714D02*
X149754819Y-126365714D01*
X149754819Y-126365714D02*
X149754819Y-126746666D01*
X149754819Y-126746666D02*
X149802438Y-126841904D01*
X149802438Y-126841904D02*
X149850057Y-126889523D01*
X149850057Y-126889523D02*
X149945295Y-126937142D01*
X149945295Y-126937142D02*
X150088152Y-126937142D01*
X150088152Y-126937142D02*
X150183390Y-126889523D01*
X150183390Y-126889523D02*
X150231009Y-126841904D01*
X150231009Y-126841904D02*
X150278628Y-126746666D01*
X150278628Y-126746666D02*
X150278628Y-126365714D01*
X149754819Y-127270476D02*
X149754819Y-127889523D01*
X149754819Y-127889523D02*
X150135771Y-127556190D01*
X150135771Y-127556190D02*
X150135771Y-127699047D01*
X150135771Y-127699047D02*
X150183390Y-127794285D01*
X150183390Y-127794285D02*
X150231009Y-127841904D01*
X150231009Y-127841904D02*
X150326247Y-127889523D01*
X150326247Y-127889523D02*
X150564342Y-127889523D01*
X150564342Y-127889523D02*
X150659580Y-127841904D01*
X150659580Y-127841904D02*
X150707200Y-127794285D01*
X150707200Y-127794285D02*
X150754819Y-127699047D01*
X150754819Y-127699047D02*
X150754819Y-127413333D01*
X150754819Y-127413333D02*
X150707200Y-127318095D01*
X150707200Y-127318095D02*
X150659580Y-127270476D01*
X149850057Y-128270476D02*
X149802438Y-128318095D01*
X149802438Y-128318095D02*
X149754819Y-128413333D01*
X149754819Y-128413333D02*
X149754819Y-128651428D01*
X149754819Y-128651428D02*
X149802438Y-128746666D01*
X149802438Y-128746666D02*
X149850057Y-128794285D01*
X149850057Y-128794285D02*
X149945295Y-128841904D01*
X149945295Y-128841904D02*
X150040533Y-128841904D01*
X150040533Y-128841904D02*
X150183390Y-128794285D01*
X150183390Y-128794285D02*
X150754819Y-128222857D01*
X150754819Y-128222857D02*
X150754819Y-128841904D01*
X119442857Y-149254819D02*
X119776190Y-148778628D01*
X120014285Y-149254819D02*
X120014285Y-148254819D01*
X120014285Y-148254819D02*
X119633333Y-148254819D01*
X119633333Y-148254819D02*
X119538095Y-148302438D01*
X119538095Y-148302438D02*
X119490476Y-148350057D01*
X119490476Y-148350057D02*
X119442857Y-148445295D01*
X119442857Y-148445295D02*
X119442857Y-148588152D01*
X119442857Y-148588152D02*
X119490476Y-148683390D01*
X119490476Y-148683390D02*
X119538095Y-148731009D01*
X119538095Y-148731009D02*
X119633333Y-148778628D01*
X119633333Y-148778628D02*
X120014285Y-148778628D01*
X119061904Y-148350057D02*
X119014285Y-148302438D01*
X119014285Y-148302438D02*
X118919047Y-148254819D01*
X118919047Y-148254819D02*
X118680952Y-148254819D01*
X118680952Y-148254819D02*
X118585714Y-148302438D01*
X118585714Y-148302438D02*
X118538095Y-148350057D01*
X118538095Y-148350057D02*
X118490476Y-148445295D01*
X118490476Y-148445295D02*
X118490476Y-148540533D01*
X118490476Y-148540533D02*
X118538095Y-148683390D01*
X118538095Y-148683390D02*
X119109523Y-149254819D01*
X119109523Y-149254819D02*
X118490476Y-149254819D01*
X117871428Y-148254819D02*
X117776190Y-148254819D01*
X117776190Y-148254819D02*
X117680952Y-148302438D01*
X117680952Y-148302438D02*
X117633333Y-148350057D01*
X117633333Y-148350057D02*
X117585714Y-148445295D01*
X117585714Y-148445295D02*
X117538095Y-148635771D01*
X117538095Y-148635771D02*
X117538095Y-148873866D01*
X117538095Y-148873866D02*
X117585714Y-149064342D01*
X117585714Y-149064342D02*
X117633333Y-149159580D01*
X117633333Y-149159580D02*
X117680952Y-149207200D01*
X117680952Y-149207200D02*
X117776190Y-149254819D01*
X117776190Y-149254819D02*
X117871428Y-149254819D01*
X117871428Y-149254819D02*
X117966666Y-149207200D01*
X117966666Y-149207200D02*
X118014285Y-149159580D01*
X118014285Y-149159580D02*
X118061904Y-149064342D01*
X118061904Y-149064342D02*
X118109523Y-148873866D01*
X118109523Y-148873866D02*
X118109523Y-148635771D01*
X118109523Y-148635771D02*
X118061904Y-148445295D01*
X118061904Y-148445295D02*
X118014285Y-148350057D01*
X118014285Y-148350057D02*
X117966666Y-148302438D01*
X117966666Y-148302438D02*
X117871428Y-148254819D01*
X185842857Y-98454819D02*
X186176190Y-97978628D01*
X186414285Y-98454819D02*
X186414285Y-97454819D01*
X186414285Y-97454819D02*
X186033333Y-97454819D01*
X186033333Y-97454819D02*
X185938095Y-97502438D01*
X185938095Y-97502438D02*
X185890476Y-97550057D01*
X185890476Y-97550057D02*
X185842857Y-97645295D01*
X185842857Y-97645295D02*
X185842857Y-97788152D01*
X185842857Y-97788152D02*
X185890476Y-97883390D01*
X185890476Y-97883390D02*
X185938095Y-97931009D01*
X185938095Y-97931009D02*
X186033333Y-97978628D01*
X186033333Y-97978628D02*
X186414285Y-97978628D01*
X184985714Y-97454819D02*
X185176190Y-97454819D01*
X185176190Y-97454819D02*
X185271428Y-97502438D01*
X185271428Y-97502438D02*
X185319047Y-97550057D01*
X185319047Y-97550057D02*
X185414285Y-97692914D01*
X185414285Y-97692914D02*
X185461904Y-97883390D01*
X185461904Y-97883390D02*
X185461904Y-98264342D01*
X185461904Y-98264342D02*
X185414285Y-98359580D01*
X185414285Y-98359580D02*
X185366666Y-98407200D01*
X185366666Y-98407200D02*
X185271428Y-98454819D01*
X185271428Y-98454819D02*
X185080952Y-98454819D01*
X185080952Y-98454819D02*
X184985714Y-98407200D01*
X184985714Y-98407200D02*
X184938095Y-98359580D01*
X184938095Y-98359580D02*
X184890476Y-98264342D01*
X184890476Y-98264342D02*
X184890476Y-98026247D01*
X184890476Y-98026247D02*
X184938095Y-97931009D01*
X184938095Y-97931009D02*
X184985714Y-97883390D01*
X184985714Y-97883390D02*
X185080952Y-97835771D01*
X185080952Y-97835771D02*
X185271428Y-97835771D01*
X185271428Y-97835771D02*
X185366666Y-97883390D01*
X185366666Y-97883390D02*
X185414285Y-97931009D01*
X185414285Y-97931009D02*
X185461904Y-98026247D01*
X184557142Y-97454819D02*
X183938095Y-97454819D01*
X183938095Y-97454819D02*
X184271428Y-97835771D01*
X184271428Y-97835771D02*
X184128571Y-97835771D01*
X184128571Y-97835771D02*
X184033333Y-97883390D01*
X184033333Y-97883390D02*
X183985714Y-97931009D01*
X183985714Y-97931009D02*
X183938095Y-98026247D01*
X183938095Y-98026247D02*
X183938095Y-98264342D01*
X183938095Y-98264342D02*
X183985714Y-98359580D01*
X183985714Y-98359580D02*
X184033333Y-98407200D01*
X184033333Y-98407200D02*
X184128571Y-98454819D01*
X184128571Y-98454819D02*
X184414285Y-98454819D01*
X184414285Y-98454819D02*
X184509523Y-98407200D01*
X184509523Y-98407200D02*
X184557142Y-98359580D01*
X169254819Y-120357142D02*
X168778628Y-120023809D01*
X169254819Y-119785714D02*
X168254819Y-119785714D01*
X168254819Y-119785714D02*
X168254819Y-120166666D01*
X168254819Y-120166666D02*
X168302438Y-120261904D01*
X168302438Y-120261904D02*
X168350057Y-120309523D01*
X168350057Y-120309523D02*
X168445295Y-120357142D01*
X168445295Y-120357142D02*
X168588152Y-120357142D01*
X168588152Y-120357142D02*
X168683390Y-120309523D01*
X168683390Y-120309523D02*
X168731009Y-120261904D01*
X168731009Y-120261904D02*
X168778628Y-120166666D01*
X168778628Y-120166666D02*
X168778628Y-119785714D01*
X168254819Y-120690476D02*
X168254819Y-121309523D01*
X168254819Y-121309523D02*
X168635771Y-120976190D01*
X168635771Y-120976190D02*
X168635771Y-121119047D01*
X168635771Y-121119047D02*
X168683390Y-121214285D01*
X168683390Y-121214285D02*
X168731009Y-121261904D01*
X168731009Y-121261904D02*
X168826247Y-121309523D01*
X168826247Y-121309523D02*
X169064342Y-121309523D01*
X169064342Y-121309523D02*
X169159580Y-121261904D01*
X169159580Y-121261904D02*
X169207200Y-121214285D01*
X169207200Y-121214285D02*
X169254819Y-121119047D01*
X169254819Y-121119047D02*
X169254819Y-120833333D01*
X169254819Y-120833333D02*
X169207200Y-120738095D01*
X169207200Y-120738095D02*
X169159580Y-120690476D01*
X169254819Y-122261904D02*
X169254819Y-121690476D01*
X169254819Y-121976190D02*
X168254819Y-121976190D01*
X168254819Y-121976190D02*
X168397676Y-121880952D01*
X168397676Y-121880952D02*
X168492914Y-121785714D01*
X168492914Y-121785714D02*
X168540533Y-121690476D01*
X147842857Y-144054819D02*
X148176190Y-143578628D01*
X148414285Y-144054819D02*
X148414285Y-143054819D01*
X148414285Y-143054819D02*
X148033333Y-143054819D01*
X148033333Y-143054819D02*
X147938095Y-143102438D01*
X147938095Y-143102438D02*
X147890476Y-143150057D01*
X147890476Y-143150057D02*
X147842857Y-143245295D01*
X147842857Y-143245295D02*
X147842857Y-143388152D01*
X147842857Y-143388152D02*
X147890476Y-143483390D01*
X147890476Y-143483390D02*
X147938095Y-143531009D01*
X147938095Y-143531009D02*
X148033333Y-143578628D01*
X148033333Y-143578628D02*
X148414285Y-143578628D01*
X147461904Y-143150057D02*
X147414285Y-143102438D01*
X147414285Y-143102438D02*
X147319047Y-143054819D01*
X147319047Y-143054819D02*
X147080952Y-143054819D01*
X147080952Y-143054819D02*
X146985714Y-143102438D01*
X146985714Y-143102438D02*
X146938095Y-143150057D01*
X146938095Y-143150057D02*
X146890476Y-143245295D01*
X146890476Y-143245295D02*
X146890476Y-143340533D01*
X146890476Y-143340533D02*
X146938095Y-143483390D01*
X146938095Y-143483390D02*
X147509523Y-144054819D01*
X147509523Y-144054819D02*
X146890476Y-144054819D01*
X146033333Y-143388152D02*
X146033333Y-144054819D01*
X146271428Y-143007200D02*
X146509523Y-143721485D01*
X146509523Y-143721485D02*
X145890476Y-143721485D01*
X127654819Y-131957142D02*
X127178628Y-131623809D01*
X127654819Y-131385714D02*
X126654819Y-131385714D01*
X126654819Y-131385714D02*
X126654819Y-131766666D01*
X126654819Y-131766666D02*
X126702438Y-131861904D01*
X126702438Y-131861904D02*
X126750057Y-131909523D01*
X126750057Y-131909523D02*
X126845295Y-131957142D01*
X126845295Y-131957142D02*
X126988152Y-131957142D01*
X126988152Y-131957142D02*
X127083390Y-131909523D01*
X127083390Y-131909523D02*
X127131009Y-131861904D01*
X127131009Y-131861904D02*
X127178628Y-131766666D01*
X127178628Y-131766666D02*
X127178628Y-131385714D01*
X126654819Y-132290476D02*
X126654819Y-132909523D01*
X126654819Y-132909523D02*
X127035771Y-132576190D01*
X127035771Y-132576190D02*
X127035771Y-132719047D01*
X127035771Y-132719047D02*
X127083390Y-132814285D01*
X127083390Y-132814285D02*
X127131009Y-132861904D01*
X127131009Y-132861904D02*
X127226247Y-132909523D01*
X127226247Y-132909523D02*
X127464342Y-132909523D01*
X127464342Y-132909523D02*
X127559580Y-132861904D01*
X127559580Y-132861904D02*
X127607200Y-132814285D01*
X127607200Y-132814285D02*
X127654819Y-132719047D01*
X127654819Y-132719047D02*
X127654819Y-132433333D01*
X127654819Y-132433333D02*
X127607200Y-132338095D01*
X127607200Y-132338095D02*
X127559580Y-132290476D01*
X126654819Y-133814285D02*
X126654819Y-133338095D01*
X126654819Y-133338095D02*
X127131009Y-133290476D01*
X127131009Y-133290476D02*
X127083390Y-133338095D01*
X127083390Y-133338095D02*
X127035771Y-133433333D01*
X127035771Y-133433333D02*
X127035771Y-133671428D01*
X127035771Y-133671428D02*
X127083390Y-133766666D01*
X127083390Y-133766666D02*
X127131009Y-133814285D01*
X127131009Y-133814285D02*
X127226247Y-133861904D01*
X127226247Y-133861904D02*
X127464342Y-133861904D01*
X127464342Y-133861904D02*
X127559580Y-133814285D01*
X127559580Y-133814285D02*
X127607200Y-133766666D01*
X127607200Y-133766666D02*
X127654819Y-133671428D01*
X127654819Y-133671428D02*
X127654819Y-133433333D01*
X127654819Y-133433333D02*
X127607200Y-133338095D01*
X127607200Y-133338095D02*
X127559580Y-133290476D01*
X186309580Y-106094642D02*
X186357200Y-106047023D01*
X186357200Y-106047023D02*
X186404819Y-105904166D01*
X186404819Y-105904166D02*
X186404819Y-105808928D01*
X186404819Y-105808928D02*
X186357200Y-105666071D01*
X186357200Y-105666071D02*
X186261961Y-105570833D01*
X186261961Y-105570833D02*
X186166723Y-105523214D01*
X186166723Y-105523214D02*
X185976247Y-105475595D01*
X185976247Y-105475595D02*
X185833390Y-105475595D01*
X185833390Y-105475595D02*
X185642914Y-105523214D01*
X185642914Y-105523214D02*
X185547676Y-105570833D01*
X185547676Y-105570833D02*
X185452438Y-105666071D01*
X185452438Y-105666071D02*
X185404819Y-105808928D01*
X185404819Y-105808928D02*
X185404819Y-105904166D01*
X185404819Y-105904166D02*
X185452438Y-106047023D01*
X185452438Y-106047023D02*
X185500057Y-106094642D01*
X185738152Y-106951785D02*
X186404819Y-106951785D01*
X185357200Y-106713690D02*
X186071485Y-106475595D01*
X186071485Y-106475595D02*
X186071485Y-107094642D01*
X185833390Y-107618452D02*
X185785771Y-107523214D01*
X185785771Y-107523214D02*
X185738152Y-107475595D01*
X185738152Y-107475595D02*
X185642914Y-107427976D01*
X185642914Y-107427976D02*
X185595295Y-107427976D01*
X185595295Y-107427976D02*
X185500057Y-107475595D01*
X185500057Y-107475595D02*
X185452438Y-107523214D01*
X185452438Y-107523214D02*
X185404819Y-107618452D01*
X185404819Y-107618452D02*
X185404819Y-107808928D01*
X185404819Y-107808928D02*
X185452438Y-107904166D01*
X185452438Y-107904166D02*
X185500057Y-107951785D01*
X185500057Y-107951785D02*
X185595295Y-107999404D01*
X185595295Y-107999404D02*
X185642914Y-107999404D01*
X185642914Y-107999404D02*
X185738152Y-107951785D01*
X185738152Y-107951785D02*
X185785771Y-107904166D01*
X185785771Y-107904166D02*
X185833390Y-107808928D01*
X185833390Y-107808928D02*
X185833390Y-107618452D01*
X185833390Y-107618452D02*
X185881009Y-107523214D01*
X185881009Y-107523214D02*
X185928628Y-107475595D01*
X185928628Y-107475595D02*
X186023866Y-107427976D01*
X186023866Y-107427976D02*
X186214342Y-107427976D01*
X186214342Y-107427976D02*
X186309580Y-107475595D01*
X186309580Y-107475595D02*
X186357200Y-107523214D01*
X186357200Y-107523214D02*
X186404819Y-107618452D01*
X186404819Y-107618452D02*
X186404819Y-107808928D01*
X186404819Y-107808928D02*
X186357200Y-107904166D01*
X186357200Y-107904166D02*
X186309580Y-107951785D01*
X186309580Y-107951785D02*
X186214342Y-107999404D01*
X186214342Y-107999404D02*
X186023866Y-107999404D01*
X186023866Y-107999404D02*
X185928628Y-107951785D01*
X185928628Y-107951785D02*
X185881009Y-107904166D01*
X185881009Y-107904166D02*
X185833390Y-107808928D01*
X174761904Y-102454819D02*
X174761904Y-103264342D01*
X174761904Y-103264342D02*
X174714285Y-103359580D01*
X174714285Y-103359580D02*
X174666666Y-103407200D01*
X174666666Y-103407200D02*
X174571428Y-103454819D01*
X174571428Y-103454819D02*
X174380952Y-103454819D01*
X174380952Y-103454819D02*
X174285714Y-103407200D01*
X174285714Y-103407200D02*
X174238095Y-103359580D01*
X174238095Y-103359580D02*
X174190476Y-103264342D01*
X174190476Y-103264342D02*
X174190476Y-102454819D01*
X173761904Y-102550057D02*
X173714285Y-102502438D01*
X173714285Y-102502438D02*
X173619047Y-102454819D01*
X173619047Y-102454819D02*
X173380952Y-102454819D01*
X173380952Y-102454819D02*
X173285714Y-102502438D01*
X173285714Y-102502438D02*
X173238095Y-102550057D01*
X173238095Y-102550057D02*
X173190476Y-102645295D01*
X173190476Y-102645295D02*
X173190476Y-102740533D01*
X173190476Y-102740533D02*
X173238095Y-102883390D01*
X173238095Y-102883390D02*
X173809523Y-103454819D01*
X173809523Y-103454819D02*
X173190476Y-103454819D01*
X103234819Y-76027142D02*
X102758628Y-75693809D01*
X103234819Y-75455714D02*
X102234819Y-75455714D01*
X102234819Y-75455714D02*
X102234819Y-75836666D01*
X102234819Y-75836666D02*
X102282438Y-75931904D01*
X102282438Y-75931904D02*
X102330057Y-75979523D01*
X102330057Y-75979523D02*
X102425295Y-76027142D01*
X102425295Y-76027142D02*
X102568152Y-76027142D01*
X102568152Y-76027142D02*
X102663390Y-75979523D01*
X102663390Y-75979523D02*
X102711009Y-75931904D01*
X102711009Y-75931904D02*
X102758628Y-75836666D01*
X102758628Y-75836666D02*
X102758628Y-75455714D01*
X103234819Y-76979523D02*
X103234819Y-76408095D01*
X103234819Y-76693809D02*
X102234819Y-76693809D01*
X102234819Y-76693809D02*
X102377676Y-76598571D01*
X102377676Y-76598571D02*
X102472914Y-76503333D01*
X102472914Y-76503333D02*
X102520533Y-76408095D01*
X102330057Y-77360476D02*
X102282438Y-77408095D01*
X102282438Y-77408095D02*
X102234819Y-77503333D01*
X102234819Y-77503333D02*
X102234819Y-77741428D01*
X102234819Y-77741428D02*
X102282438Y-77836666D01*
X102282438Y-77836666D02*
X102330057Y-77884285D01*
X102330057Y-77884285D02*
X102425295Y-77931904D01*
X102425295Y-77931904D02*
X102520533Y-77931904D01*
X102520533Y-77931904D02*
X102663390Y-77884285D01*
X102663390Y-77884285D02*
X103234819Y-77312857D01*
X103234819Y-77312857D02*
X103234819Y-77931904D01*
X140938094Y-131654819D02*
X140938094Y-130654819D01*
X140938094Y-130654819D02*
X140699999Y-130654819D01*
X140699999Y-130654819D02*
X140557142Y-130702438D01*
X140557142Y-130702438D02*
X140461904Y-130797676D01*
X140461904Y-130797676D02*
X140414285Y-130892914D01*
X140414285Y-130892914D02*
X140366666Y-131083390D01*
X140366666Y-131083390D02*
X140366666Y-131226247D01*
X140366666Y-131226247D02*
X140414285Y-131416723D01*
X140414285Y-131416723D02*
X140461904Y-131511961D01*
X140461904Y-131511961D02*
X140557142Y-131607200D01*
X140557142Y-131607200D02*
X140699999Y-131654819D01*
X140699999Y-131654819D02*
X140938094Y-131654819D01*
X139985713Y-130750057D02*
X139938094Y-130702438D01*
X139938094Y-130702438D02*
X139842856Y-130654819D01*
X139842856Y-130654819D02*
X139604761Y-130654819D01*
X139604761Y-130654819D02*
X139509523Y-130702438D01*
X139509523Y-130702438D02*
X139461904Y-130750057D01*
X139461904Y-130750057D02*
X139414285Y-130845295D01*
X139414285Y-130845295D02*
X139414285Y-130940533D01*
X139414285Y-130940533D02*
X139461904Y-131083390D01*
X139461904Y-131083390D02*
X140033332Y-131654819D01*
X140033332Y-131654819D02*
X139414285Y-131654819D01*
X90042857Y-144754819D02*
X90376190Y-144278628D01*
X90614285Y-144754819D02*
X90614285Y-143754819D01*
X90614285Y-143754819D02*
X90233333Y-143754819D01*
X90233333Y-143754819D02*
X90138095Y-143802438D01*
X90138095Y-143802438D02*
X90090476Y-143850057D01*
X90090476Y-143850057D02*
X90042857Y-143945295D01*
X90042857Y-143945295D02*
X90042857Y-144088152D01*
X90042857Y-144088152D02*
X90090476Y-144183390D01*
X90090476Y-144183390D02*
X90138095Y-144231009D01*
X90138095Y-144231009D02*
X90233333Y-144278628D01*
X90233333Y-144278628D02*
X90614285Y-144278628D01*
X89661904Y-143850057D02*
X89614285Y-143802438D01*
X89614285Y-143802438D02*
X89519047Y-143754819D01*
X89519047Y-143754819D02*
X89280952Y-143754819D01*
X89280952Y-143754819D02*
X89185714Y-143802438D01*
X89185714Y-143802438D02*
X89138095Y-143850057D01*
X89138095Y-143850057D02*
X89090476Y-143945295D01*
X89090476Y-143945295D02*
X89090476Y-144040533D01*
X89090476Y-144040533D02*
X89138095Y-144183390D01*
X89138095Y-144183390D02*
X89709523Y-144754819D01*
X89709523Y-144754819D02*
X89090476Y-144754819D01*
X88185714Y-143754819D02*
X88661904Y-143754819D01*
X88661904Y-143754819D02*
X88709523Y-144231009D01*
X88709523Y-144231009D02*
X88661904Y-144183390D01*
X88661904Y-144183390D02*
X88566666Y-144135771D01*
X88566666Y-144135771D02*
X88328571Y-144135771D01*
X88328571Y-144135771D02*
X88233333Y-144183390D01*
X88233333Y-144183390D02*
X88185714Y-144231009D01*
X88185714Y-144231009D02*
X88138095Y-144326247D01*
X88138095Y-144326247D02*
X88138095Y-144564342D01*
X88138095Y-144564342D02*
X88185714Y-144659580D01*
X88185714Y-144659580D02*
X88233333Y-144707200D01*
X88233333Y-144707200D02*
X88328571Y-144754819D01*
X88328571Y-144754819D02*
X88566666Y-144754819D01*
X88566666Y-144754819D02*
X88661904Y-144707200D01*
X88661904Y-144707200D02*
X88709523Y-144659580D01*
X162054819Y-108557142D02*
X161578628Y-108223809D01*
X162054819Y-107985714D02*
X161054819Y-107985714D01*
X161054819Y-107985714D02*
X161054819Y-108366666D01*
X161054819Y-108366666D02*
X161102438Y-108461904D01*
X161102438Y-108461904D02*
X161150057Y-108509523D01*
X161150057Y-108509523D02*
X161245295Y-108557142D01*
X161245295Y-108557142D02*
X161388152Y-108557142D01*
X161388152Y-108557142D02*
X161483390Y-108509523D01*
X161483390Y-108509523D02*
X161531009Y-108461904D01*
X161531009Y-108461904D02*
X161578628Y-108366666D01*
X161578628Y-108366666D02*
X161578628Y-107985714D01*
X161054819Y-109414285D02*
X161054819Y-109223809D01*
X161054819Y-109223809D02*
X161102438Y-109128571D01*
X161102438Y-109128571D02*
X161150057Y-109080952D01*
X161150057Y-109080952D02*
X161292914Y-108985714D01*
X161292914Y-108985714D02*
X161483390Y-108938095D01*
X161483390Y-108938095D02*
X161864342Y-108938095D01*
X161864342Y-108938095D02*
X161959580Y-108985714D01*
X161959580Y-108985714D02*
X162007200Y-109033333D01*
X162007200Y-109033333D02*
X162054819Y-109128571D01*
X162054819Y-109128571D02*
X162054819Y-109319047D01*
X162054819Y-109319047D02*
X162007200Y-109414285D01*
X162007200Y-109414285D02*
X161959580Y-109461904D01*
X161959580Y-109461904D02*
X161864342Y-109509523D01*
X161864342Y-109509523D02*
X161626247Y-109509523D01*
X161626247Y-109509523D02*
X161531009Y-109461904D01*
X161531009Y-109461904D02*
X161483390Y-109414285D01*
X161483390Y-109414285D02*
X161435771Y-109319047D01*
X161435771Y-109319047D02*
X161435771Y-109128571D01*
X161435771Y-109128571D02*
X161483390Y-109033333D01*
X161483390Y-109033333D02*
X161531009Y-108985714D01*
X161531009Y-108985714D02*
X161626247Y-108938095D01*
X161483390Y-110080952D02*
X161435771Y-109985714D01*
X161435771Y-109985714D02*
X161388152Y-109938095D01*
X161388152Y-109938095D02*
X161292914Y-109890476D01*
X161292914Y-109890476D02*
X161245295Y-109890476D01*
X161245295Y-109890476D02*
X161150057Y-109938095D01*
X161150057Y-109938095D02*
X161102438Y-109985714D01*
X161102438Y-109985714D02*
X161054819Y-110080952D01*
X161054819Y-110080952D02*
X161054819Y-110271428D01*
X161054819Y-110271428D02*
X161102438Y-110366666D01*
X161102438Y-110366666D02*
X161150057Y-110414285D01*
X161150057Y-110414285D02*
X161245295Y-110461904D01*
X161245295Y-110461904D02*
X161292914Y-110461904D01*
X161292914Y-110461904D02*
X161388152Y-110414285D01*
X161388152Y-110414285D02*
X161435771Y-110366666D01*
X161435771Y-110366666D02*
X161483390Y-110271428D01*
X161483390Y-110271428D02*
X161483390Y-110080952D01*
X161483390Y-110080952D02*
X161531009Y-109985714D01*
X161531009Y-109985714D02*
X161578628Y-109938095D01*
X161578628Y-109938095D02*
X161673866Y-109890476D01*
X161673866Y-109890476D02*
X161864342Y-109890476D01*
X161864342Y-109890476D02*
X161959580Y-109938095D01*
X161959580Y-109938095D02*
X162007200Y-109985714D01*
X162007200Y-109985714D02*
X162054819Y-110080952D01*
X162054819Y-110080952D02*
X162054819Y-110271428D01*
X162054819Y-110271428D02*
X162007200Y-110366666D01*
X162007200Y-110366666D02*
X161959580Y-110414285D01*
X161959580Y-110414285D02*
X161864342Y-110461904D01*
X161864342Y-110461904D02*
X161673866Y-110461904D01*
X161673866Y-110461904D02*
X161578628Y-110414285D01*
X161578628Y-110414285D02*
X161531009Y-110366666D01*
X161531009Y-110366666D02*
X161483390Y-110271428D01*
X75759580Y-125033333D02*
X75807200Y-124985714D01*
X75807200Y-124985714D02*
X75854819Y-124842857D01*
X75854819Y-124842857D02*
X75854819Y-124747619D01*
X75854819Y-124747619D02*
X75807200Y-124604762D01*
X75807200Y-124604762D02*
X75711961Y-124509524D01*
X75711961Y-124509524D02*
X75616723Y-124461905D01*
X75616723Y-124461905D02*
X75426247Y-124414286D01*
X75426247Y-124414286D02*
X75283390Y-124414286D01*
X75283390Y-124414286D02*
X75092914Y-124461905D01*
X75092914Y-124461905D02*
X74997676Y-124509524D01*
X74997676Y-124509524D02*
X74902438Y-124604762D01*
X74902438Y-124604762D02*
X74854819Y-124747619D01*
X74854819Y-124747619D02*
X74854819Y-124842857D01*
X74854819Y-124842857D02*
X74902438Y-124985714D01*
X74902438Y-124985714D02*
X74950057Y-125033333D01*
X75854819Y-125985714D02*
X75854819Y-125414286D01*
X75854819Y-125700000D02*
X74854819Y-125700000D01*
X74854819Y-125700000D02*
X74997676Y-125604762D01*
X74997676Y-125604762D02*
X75092914Y-125509524D01*
X75092914Y-125509524D02*
X75140533Y-125414286D01*
X121966666Y-146854819D02*
X122299999Y-146378628D01*
X122538094Y-146854819D02*
X122538094Y-145854819D01*
X122538094Y-145854819D02*
X122157142Y-145854819D01*
X122157142Y-145854819D02*
X122061904Y-145902438D01*
X122061904Y-145902438D02*
X122014285Y-145950057D01*
X122014285Y-145950057D02*
X121966666Y-146045295D01*
X121966666Y-146045295D02*
X121966666Y-146188152D01*
X121966666Y-146188152D02*
X122014285Y-146283390D01*
X122014285Y-146283390D02*
X122061904Y-146331009D01*
X122061904Y-146331009D02*
X122157142Y-146378628D01*
X122157142Y-146378628D02*
X122538094Y-146378628D01*
X121014285Y-146854819D02*
X121585713Y-146854819D01*
X121299999Y-146854819D02*
X121299999Y-145854819D01*
X121299999Y-145854819D02*
X121395237Y-145997676D01*
X121395237Y-145997676D02*
X121490475Y-146092914D01*
X121490475Y-146092914D02*
X121585713Y-146140533D01*
X115166666Y-154759580D02*
X115214285Y-154807200D01*
X115214285Y-154807200D02*
X115357142Y-154854819D01*
X115357142Y-154854819D02*
X115452380Y-154854819D01*
X115452380Y-154854819D02*
X115595237Y-154807200D01*
X115595237Y-154807200D02*
X115690475Y-154711961D01*
X115690475Y-154711961D02*
X115738094Y-154616723D01*
X115738094Y-154616723D02*
X115785713Y-154426247D01*
X115785713Y-154426247D02*
X115785713Y-154283390D01*
X115785713Y-154283390D02*
X115738094Y-154092914D01*
X115738094Y-154092914D02*
X115690475Y-153997676D01*
X115690475Y-153997676D02*
X115595237Y-153902438D01*
X115595237Y-153902438D02*
X115452380Y-153854819D01*
X115452380Y-153854819D02*
X115357142Y-153854819D01*
X115357142Y-153854819D02*
X115214285Y-153902438D01*
X115214285Y-153902438D02*
X115166666Y-153950057D01*
X114309523Y-154188152D02*
X114309523Y-154854819D01*
X114547618Y-153807200D02*
X114785713Y-154521485D01*
X114785713Y-154521485D02*
X114166666Y-154521485D01*
X174442857Y-115054819D02*
X174776190Y-114578628D01*
X175014285Y-115054819D02*
X175014285Y-114054819D01*
X175014285Y-114054819D02*
X174633333Y-114054819D01*
X174633333Y-114054819D02*
X174538095Y-114102438D01*
X174538095Y-114102438D02*
X174490476Y-114150057D01*
X174490476Y-114150057D02*
X174442857Y-114245295D01*
X174442857Y-114245295D02*
X174442857Y-114388152D01*
X174442857Y-114388152D02*
X174490476Y-114483390D01*
X174490476Y-114483390D02*
X174538095Y-114531009D01*
X174538095Y-114531009D02*
X174633333Y-114578628D01*
X174633333Y-114578628D02*
X175014285Y-114578628D01*
X173490476Y-115054819D02*
X174061904Y-115054819D01*
X173776190Y-115054819D02*
X173776190Y-114054819D01*
X173776190Y-114054819D02*
X173871428Y-114197676D01*
X173871428Y-114197676D02*
X173966666Y-114292914D01*
X173966666Y-114292914D02*
X174061904Y-114340533D01*
X172538095Y-115054819D02*
X173109523Y-115054819D01*
X172823809Y-115054819D02*
X172823809Y-114054819D01*
X172823809Y-114054819D02*
X172919047Y-114197676D01*
X172919047Y-114197676D02*
X173014285Y-114292914D01*
X173014285Y-114292914D02*
X173109523Y-114340533D01*
X130689580Y-136657142D02*
X130737200Y-136609523D01*
X130737200Y-136609523D02*
X130784819Y-136466666D01*
X130784819Y-136466666D02*
X130784819Y-136371428D01*
X130784819Y-136371428D02*
X130737200Y-136228571D01*
X130737200Y-136228571D02*
X130641961Y-136133333D01*
X130641961Y-136133333D02*
X130546723Y-136085714D01*
X130546723Y-136085714D02*
X130356247Y-136038095D01*
X130356247Y-136038095D02*
X130213390Y-136038095D01*
X130213390Y-136038095D02*
X130022914Y-136085714D01*
X130022914Y-136085714D02*
X129927676Y-136133333D01*
X129927676Y-136133333D02*
X129832438Y-136228571D01*
X129832438Y-136228571D02*
X129784819Y-136371428D01*
X129784819Y-136371428D02*
X129784819Y-136466666D01*
X129784819Y-136466666D02*
X129832438Y-136609523D01*
X129832438Y-136609523D02*
X129880057Y-136657142D01*
X130784819Y-137609523D02*
X130784819Y-137038095D01*
X130784819Y-137323809D02*
X129784819Y-137323809D01*
X129784819Y-137323809D02*
X129927676Y-137228571D01*
X129927676Y-137228571D02*
X130022914Y-137133333D01*
X130022914Y-137133333D02*
X130070533Y-137038095D01*
X129784819Y-138228571D02*
X129784819Y-138323809D01*
X129784819Y-138323809D02*
X129832438Y-138419047D01*
X129832438Y-138419047D02*
X129880057Y-138466666D01*
X129880057Y-138466666D02*
X129975295Y-138514285D01*
X129975295Y-138514285D02*
X130165771Y-138561904D01*
X130165771Y-138561904D02*
X130403866Y-138561904D01*
X130403866Y-138561904D02*
X130594342Y-138514285D01*
X130594342Y-138514285D02*
X130689580Y-138466666D01*
X130689580Y-138466666D02*
X130737200Y-138419047D01*
X130737200Y-138419047D02*
X130784819Y-138323809D01*
X130784819Y-138323809D02*
X130784819Y-138228571D01*
X130784819Y-138228571D02*
X130737200Y-138133333D01*
X130737200Y-138133333D02*
X130689580Y-138085714D01*
X130689580Y-138085714D02*
X130594342Y-138038095D01*
X130594342Y-138038095D02*
X130403866Y-137990476D01*
X130403866Y-137990476D02*
X130165771Y-137990476D01*
X130165771Y-137990476D02*
X129975295Y-138038095D01*
X129975295Y-138038095D02*
X129880057Y-138085714D01*
X129880057Y-138085714D02*
X129832438Y-138133333D01*
X129832438Y-138133333D02*
X129784819Y-138228571D01*
X124561904Y-162454819D02*
X124561904Y-163264342D01*
X124561904Y-163264342D02*
X124514285Y-163359580D01*
X124514285Y-163359580D02*
X124466666Y-163407200D01*
X124466666Y-163407200D02*
X124371428Y-163454819D01*
X124371428Y-163454819D02*
X124180952Y-163454819D01*
X124180952Y-163454819D02*
X124085714Y-163407200D01*
X124085714Y-163407200D02*
X124038095Y-163359580D01*
X124038095Y-163359580D02*
X123990476Y-163264342D01*
X123990476Y-163264342D02*
X123990476Y-162454819D01*
X123085714Y-162788152D02*
X123085714Y-163454819D01*
X123323809Y-162407200D02*
X123561904Y-163121485D01*
X123561904Y-163121485D02*
X122942857Y-163121485D01*
X173442857Y-93854819D02*
X173776190Y-93378628D01*
X174014285Y-93854819D02*
X174014285Y-92854819D01*
X174014285Y-92854819D02*
X173633333Y-92854819D01*
X173633333Y-92854819D02*
X173538095Y-92902438D01*
X173538095Y-92902438D02*
X173490476Y-92950057D01*
X173490476Y-92950057D02*
X173442857Y-93045295D01*
X173442857Y-93045295D02*
X173442857Y-93188152D01*
X173442857Y-93188152D02*
X173490476Y-93283390D01*
X173490476Y-93283390D02*
X173538095Y-93331009D01*
X173538095Y-93331009D02*
X173633333Y-93378628D01*
X173633333Y-93378628D02*
X174014285Y-93378628D01*
X173109523Y-92854819D02*
X172442857Y-92854819D01*
X172442857Y-92854819D02*
X172871428Y-93854819D01*
X171871428Y-92854819D02*
X171776190Y-92854819D01*
X171776190Y-92854819D02*
X171680952Y-92902438D01*
X171680952Y-92902438D02*
X171633333Y-92950057D01*
X171633333Y-92950057D02*
X171585714Y-93045295D01*
X171585714Y-93045295D02*
X171538095Y-93235771D01*
X171538095Y-93235771D02*
X171538095Y-93473866D01*
X171538095Y-93473866D02*
X171585714Y-93664342D01*
X171585714Y-93664342D02*
X171633333Y-93759580D01*
X171633333Y-93759580D02*
X171680952Y-93807200D01*
X171680952Y-93807200D02*
X171776190Y-93854819D01*
X171776190Y-93854819D02*
X171871428Y-93854819D01*
X171871428Y-93854819D02*
X171966666Y-93807200D01*
X171966666Y-93807200D02*
X172014285Y-93759580D01*
X172014285Y-93759580D02*
X172061904Y-93664342D01*
X172061904Y-93664342D02*
X172109523Y-93473866D01*
X172109523Y-93473866D02*
X172109523Y-93235771D01*
X172109523Y-93235771D02*
X172061904Y-93045295D01*
X172061904Y-93045295D02*
X172014285Y-92950057D01*
X172014285Y-92950057D02*
X171966666Y-92902438D01*
X171966666Y-92902438D02*
X171871428Y-92854819D01*
X141214285Y-140954819D02*
X141214285Y-139954819D01*
X141214285Y-139954819D02*
X140976190Y-139954819D01*
X140976190Y-139954819D02*
X140833333Y-140002438D01*
X140833333Y-140002438D02*
X140738095Y-140097676D01*
X140738095Y-140097676D02*
X140690476Y-140192914D01*
X140690476Y-140192914D02*
X140642857Y-140383390D01*
X140642857Y-140383390D02*
X140642857Y-140526247D01*
X140642857Y-140526247D02*
X140690476Y-140716723D01*
X140690476Y-140716723D02*
X140738095Y-140811961D01*
X140738095Y-140811961D02*
X140833333Y-140907200D01*
X140833333Y-140907200D02*
X140976190Y-140954819D01*
X140976190Y-140954819D02*
X141214285Y-140954819D01*
X139690476Y-140954819D02*
X140261904Y-140954819D01*
X139976190Y-140954819D02*
X139976190Y-139954819D01*
X139976190Y-139954819D02*
X140071428Y-140097676D01*
X140071428Y-140097676D02*
X140166666Y-140192914D01*
X140166666Y-140192914D02*
X140261904Y-140240533D01*
X138833333Y-140288152D02*
X138833333Y-140954819D01*
X139071428Y-139907200D02*
X139309523Y-140621485D01*
X139309523Y-140621485D02*
X138690476Y-140621485D01*
X149559580Y-134757142D02*
X149607200Y-134709523D01*
X149607200Y-134709523D02*
X149654819Y-134566666D01*
X149654819Y-134566666D02*
X149654819Y-134471428D01*
X149654819Y-134471428D02*
X149607200Y-134328571D01*
X149607200Y-134328571D02*
X149511961Y-134233333D01*
X149511961Y-134233333D02*
X149416723Y-134185714D01*
X149416723Y-134185714D02*
X149226247Y-134138095D01*
X149226247Y-134138095D02*
X149083390Y-134138095D01*
X149083390Y-134138095D02*
X148892914Y-134185714D01*
X148892914Y-134185714D02*
X148797676Y-134233333D01*
X148797676Y-134233333D02*
X148702438Y-134328571D01*
X148702438Y-134328571D02*
X148654819Y-134471428D01*
X148654819Y-134471428D02*
X148654819Y-134566666D01*
X148654819Y-134566666D02*
X148702438Y-134709523D01*
X148702438Y-134709523D02*
X148750057Y-134757142D01*
X148988152Y-135614285D02*
X149654819Y-135614285D01*
X148607200Y-135376190D02*
X149321485Y-135138095D01*
X149321485Y-135138095D02*
X149321485Y-135757142D01*
X149654819Y-136185714D02*
X149654819Y-136376190D01*
X149654819Y-136376190D02*
X149607200Y-136471428D01*
X149607200Y-136471428D02*
X149559580Y-136519047D01*
X149559580Y-136519047D02*
X149416723Y-136614285D01*
X149416723Y-136614285D02*
X149226247Y-136661904D01*
X149226247Y-136661904D02*
X148845295Y-136661904D01*
X148845295Y-136661904D02*
X148750057Y-136614285D01*
X148750057Y-136614285D02*
X148702438Y-136566666D01*
X148702438Y-136566666D02*
X148654819Y-136471428D01*
X148654819Y-136471428D02*
X148654819Y-136280952D01*
X148654819Y-136280952D02*
X148702438Y-136185714D01*
X148702438Y-136185714D02*
X148750057Y-136138095D01*
X148750057Y-136138095D02*
X148845295Y-136090476D01*
X148845295Y-136090476D02*
X149083390Y-136090476D01*
X149083390Y-136090476D02*
X149178628Y-136138095D01*
X149178628Y-136138095D02*
X149226247Y-136185714D01*
X149226247Y-136185714D02*
X149273866Y-136280952D01*
X149273866Y-136280952D02*
X149273866Y-136471428D01*
X149273866Y-136471428D02*
X149226247Y-136566666D01*
X149226247Y-136566666D02*
X149178628Y-136614285D01*
X149178628Y-136614285D02*
X149083390Y-136661904D01*
X103234819Y-71033333D02*
X102758628Y-70700000D01*
X103234819Y-70461905D02*
X102234819Y-70461905D01*
X102234819Y-70461905D02*
X102234819Y-70842857D01*
X102234819Y-70842857D02*
X102282438Y-70938095D01*
X102282438Y-70938095D02*
X102330057Y-70985714D01*
X102330057Y-70985714D02*
X102425295Y-71033333D01*
X102425295Y-71033333D02*
X102568152Y-71033333D01*
X102568152Y-71033333D02*
X102663390Y-70985714D01*
X102663390Y-70985714D02*
X102711009Y-70938095D01*
X102711009Y-70938095D02*
X102758628Y-70842857D01*
X102758628Y-70842857D02*
X102758628Y-70461905D01*
X102663390Y-71604762D02*
X102615771Y-71509524D01*
X102615771Y-71509524D02*
X102568152Y-71461905D01*
X102568152Y-71461905D02*
X102472914Y-71414286D01*
X102472914Y-71414286D02*
X102425295Y-71414286D01*
X102425295Y-71414286D02*
X102330057Y-71461905D01*
X102330057Y-71461905D02*
X102282438Y-71509524D01*
X102282438Y-71509524D02*
X102234819Y-71604762D01*
X102234819Y-71604762D02*
X102234819Y-71795238D01*
X102234819Y-71795238D02*
X102282438Y-71890476D01*
X102282438Y-71890476D02*
X102330057Y-71938095D01*
X102330057Y-71938095D02*
X102425295Y-71985714D01*
X102425295Y-71985714D02*
X102472914Y-71985714D01*
X102472914Y-71985714D02*
X102568152Y-71938095D01*
X102568152Y-71938095D02*
X102615771Y-71890476D01*
X102615771Y-71890476D02*
X102663390Y-71795238D01*
X102663390Y-71795238D02*
X102663390Y-71604762D01*
X102663390Y-71604762D02*
X102711009Y-71509524D01*
X102711009Y-71509524D02*
X102758628Y-71461905D01*
X102758628Y-71461905D02*
X102853866Y-71414286D01*
X102853866Y-71414286D02*
X103044342Y-71414286D01*
X103044342Y-71414286D02*
X103139580Y-71461905D01*
X103139580Y-71461905D02*
X103187200Y-71509524D01*
X103187200Y-71509524D02*
X103234819Y-71604762D01*
X103234819Y-71604762D02*
X103234819Y-71795238D01*
X103234819Y-71795238D02*
X103187200Y-71890476D01*
X103187200Y-71890476D02*
X103139580Y-71938095D01*
X103139580Y-71938095D02*
X103044342Y-71985714D01*
X103044342Y-71985714D02*
X102853866Y-71985714D01*
X102853866Y-71985714D02*
X102758628Y-71938095D01*
X102758628Y-71938095D02*
X102711009Y-71890476D01*
X102711009Y-71890476D02*
X102663390Y-71795238D01*
X78654819Y-135185714D02*
X77654819Y-135185714D01*
X77654819Y-135185714D02*
X77654819Y-135423809D01*
X77654819Y-135423809D02*
X77702438Y-135566666D01*
X77702438Y-135566666D02*
X77797676Y-135661904D01*
X77797676Y-135661904D02*
X77892914Y-135709523D01*
X77892914Y-135709523D02*
X78083390Y-135757142D01*
X78083390Y-135757142D02*
X78226247Y-135757142D01*
X78226247Y-135757142D02*
X78416723Y-135709523D01*
X78416723Y-135709523D02*
X78511961Y-135661904D01*
X78511961Y-135661904D02*
X78607200Y-135566666D01*
X78607200Y-135566666D02*
X78654819Y-135423809D01*
X78654819Y-135423809D02*
X78654819Y-135185714D01*
X78654819Y-136709523D02*
X78654819Y-136138095D01*
X78654819Y-136423809D02*
X77654819Y-136423809D01*
X77654819Y-136423809D02*
X77797676Y-136328571D01*
X77797676Y-136328571D02*
X77892914Y-136233333D01*
X77892914Y-136233333D02*
X77940533Y-136138095D01*
X78654819Y-137185714D02*
X78654819Y-137376190D01*
X78654819Y-137376190D02*
X78607200Y-137471428D01*
X78607200Y-137471428D02*
X78559580Y-137519047D01*
X78559580Y-137519047D02*
X78416723Y-137614285D01*
X78416723Y-137614285D02*
X78226247Y-137661904D01*
X78226247Y-137661904D02*
X77845295Y-137661904D01*
X77845295Y-137661904D02*
X77750057Y-137614285D01*
X77750057Y-137614285D02*
X77702438Y-137566666D01*
X77702438Y-137566666D02*
X77654819Y-137471428D01*
X77654819Y-137471428D02*
X77654819Y-137280952D01*
X77654819Y-137280952D02*
X77702438Y-137185714D01*
X77702438Y-137185714D02*
X77750057Y-137138095D01*
X77750057Y-137138095D02*
X77845295Y-137090476D01*
X77845295Y-137090476D02*
X78083390Y-137090476D01*
X78083390Y-137090476D02*
X78178628Y-137138095D01*
X78178628Y-137138095D02*
X78226247Y-137185714D01*
X78226247Y-137185714D02*
X78273866Y-137280952D01*
X78273866Y-137280952D02*
X78273866Y-137471428D01*
X78273866Y-137471428D02*
X78226247Y-137566666D01*
X78226247Y-137566666D02*
X78178628Y-137614285D01*
X78178628Y-137614285D02*
X78083390Y-137661904D01*
X178714285Y-136454819D02*
X178714285Y-135454819D01*
X178714285Y-135454819D02*
X178476190Y-135454819D01*
X178476190Y-135454819D02*
X178333333Y-135502438D01*
X178333333Y-135502438D02*
X178238095Y-135597676D01*
X178238095Y-135597676D02*
X178190476Y-135692914D01*
X178190476Y-135692914D02*
X178142857Y-135883390D01*
X178142857Y-135883390D02*
X178142857Y-136026247D01*
X178142857Y-136026247D02*
X178190476Y-136216723D01*
X178190476Y-136216723D02*
X178238095Y-136311961D01*
X178238095Y-136311961D02*
X178333333Y-136407200D01*
X178333333Y-136407200D02*
X178476190Y-136454819D01*
X178476190Y-136454819D02*
X178714285Y-136454819D01*
X177190476Y-136454819D02*
X177761904Y-136454819D01*
X177476190Y-136454819D02*
X177476190Y-135454819D01*
X177476190Y-135454819D02*
X177571428Y-135597676D01*
X177571428Y-135597676D02*
X177666666Y-135692914D01*
X177666666Y-135692914D02*
X177761904Y-135740533D01*
X176285714Y-135454819D02*
X176761904Y-135454819D01*
X176761904Y-135454819D02*
X176809523Y-135931009D01*
X176809523Y-135931009D02*
X176761904Y-135883390D01*
X176761904Y-135883390D02*
X176666666Y-135835771D01*
X176666666Y-135835771D02*
X176428571Y-135835771D01*
X176428571Y-135835771D02*
X176333333Y-135883390D01*
X176333333Y-135883390D02*
X176285714Y-135931009D01*
X176285714Y-135931009D02*
X176238095Y-136026247D01*
X176238095Y-136026247D02*
X176238095Y-136264342D01*
X176238095Y-136264342D02*
X176285714Y-136359580D01*
X176285714Y-136359580D02*
X176333333Y-136407200D01*
X176333333Y-136407200D02*
X176428571Y-136454819D01*
X176428571Y-136454819D02*
X176666666Y-136454819D01*
X176666666Y-136454819D02*
X176761904Y-136407200D01*
X176761904Y-136407200D02*
X176809523Y-136359580D01*
X173684819Y-124157142D02*
X173208628Y-123823809D01*
X173684819Y-123585714D02*
X172684819Y-123585714D01*
X172684819Y-123585714D02*
X172684819Y-123966666D01*
X172684819Y-123966666D02*
X172732438Y-124061904D01*
X172732438Y-124061904D02*
X172780057Y-124109523D01*
X172780057Y-124109523D02*
X172875295Y-124157142D01*
X172875295Y-124157142D02*
X173018152Y-124157142D01*
X173018152Y-124157142D02*
X173113390Y-124109523D01*
X173113390Y-124109523D02*
X173161009Y-124061904D01*
X173161009Y-124061904D02*
X173208628Y-123966666D01*
X173208628Y-123966666D02*
X173208628Y-123585714D01*
X172684819Y-124490476D02*
X172684819Y-125109523D01*
X172684819Y-125109523D02*
X173065771Y-124776190D01*
X173065771Y-124776190D02*
X173065771Y-124919047D01*
X173065771Y-124919047D02*
X173113390Y-125014285D01*
X173113390Y-125014285D02*
X173161009Y-125061904D01*
X173161009Y-125061904D02*
X173256247Y-125109523D01*
X173256247Y-125109523D02*
X173494342Y-125109523D01*
X173494342Y-125109523D02*
X173589580Y-125061904D01*
X173589580Y-125061904D02*
X173637200Y-125014285D01*
X173637200Y-125014285D02*
X173684819Y-124919047D01*
X173684819Y-124919047D02*
X173684819Y-124633333D01*
X173684819Y-124633333D02*
X173637200Y-124538095D01*
X173637200Y-124538095D02*
X173589580Y-124490476D01*
X172684819Y-125728571D02*
X172684819Y-125823809D01*
X172684819Y-125823809D02*
X172732438Y-125919047D01*
X172732438Y-125919047D02*
X172780057Y-125966666D01*
X172780057Y-125966666D02*
X172875295Y-126014285D01*
X172875295Y-126014285D02*
X173065771Y-126061904D01*
X173065771Y-126061904D02*
X173303866Y-126061904D01*
X173303866Y-126061904D02*
X173494342Y-126014285D01*
X173494342Y-126014285D02*
X173589580Y-125966666D01*
X173589580Y-125966666D02*
X173637200Y-125919047D01*
X173637200Y-125919047D02*
X173684819Y-125823809D01*
X173684819Y-125823809D02*
X173684819Y-125728571D01*
X173684819Y-125728571D02*
X173637200Y-125633333D01*
X173637200Y-125633333D02*
X173589580Y-125585714D01*
X173589580Y-125585714D02*
X173494342Y-125538095D01*
X173494342Y-125538095D02*
X173303866Y-125490476D01*
X173303866Y-125490476D02*
X173065771Y-125490476D01*
X173065771Y-125490476D02*
X172875295Y-125538095D01*
X172875295Y-125538095D02*
X172780057Y-125585714D01*
X172780057Y-125585714D02*
X172732438Y-125633333D01*
X172732438Y-125633333D02*
X172684819Y-125728571D01*
X168854819Y-110757142D02*
X168378628Y-110423809D01*
X168854819Y-110185714D02*
X167854819Y-110185714D01*
X167854819Y-110185714D02*
X167854819Y-110566666D01*
X167854819Y-110566666D02*
X167902438Y-110661904D01*
X167902438Y-110661904D02*
X167950057Y-110709523D01*
X167950057Y-110709523D02*
X168045295Y-110757142D01*
X168045295Y-110757142D02*
X168188152Y-110757142D01*
X168188152Y-110757142D02*
X168283390Y-110709523D01*
X168283390Y-110709523D02*
X168331009Y-110661904D01*
X168331009Y-110661904D02*
X168378628Y-110566666D01*
X168378628Y-110566666D02*
X168378628Y-110185714D01*
X167854819Y-111090476D02*
X167854819Y-111757142D01*
X167854819Y-111757142D02*
X168854819Y-111328571D01*
X167854819Y-112566666D02*
X167854819Y-112376190D01*
X167854819Y-112376190D02*
X167902438Y-112280952D01*
X167902438Y-112280952D02*
X167950057Y-112233333D01*
X167950057Y-112233333D02*
X168092914Y-112138095D01*
X168092914Y-112138095D02*
X168283390Y-112090476D01*
X168283390Y-112090476D02*
X168664342Y-112090476D01*
X168664342Y-112090476D02*
X168759580Y-112138095D01*
X168759580Y-112138095D02*
X168807200Y-112185714D01*
X168807200Y-112185714D02*
X168854819Y-112280952D01*
X168854819Y-112280952D02*
X168854819Y-112471428D01*
X168854819Y-112471428D02*
X168807200Y-112566666D01*
X168807200Y-112566666D02*
X168759580Y-112614285D01*
X168759580Y-112614285D02*
X168664342Y-112661904D01*
X168664342Y-112661904D02*
X168426247Y-112661904D01*
X168426247Y-112661904D02*
X168331009Y-112614285D01*
X168331009Y-112614285D02*
X168283390Y-112566666D01*
X168283390Y-112566666D02*
X168235771Y-112471428D01*
X168235771Y-112471428D02*
X168235771Y-112280952D01*
X168235771Y-112280952D02*
X168283390Y-112185714D01*
X168283390Y-112185714D02*
X168331009Y-112138095D01*
X168331009Y-112138095D02*
X168426247Y-112090476D01*
X130684819Y-152557142D02*
X130208628Y-152223809D01*
X130684819Y-151985714D02*
X129684819Y-151985714D01*
X129684819Y-151985714D02*
X129684819Y-152366666D01*
X129684819Y-152366666D02*
X129732438Y-152461904D01*
X129732438Y-152461904D02*
X129780057Y-152509523D01*
X129780057Y-152509523D02*
X129875295Y-152557142D01*
X129875295Y-152557142D02*
X130018152Y-152557142D01*
X130018152Y-152557142D02*
X130113390Y-152509523D01*
X130113390Y-152509523D02*
X130161009Y-152461904D01*
X130161009Y-152461904D02*
X130208628Y-152366666D01*
X130208628Y-152366666D02*
X130208628Y-151985714D01*
X130684819Y-153509523D02*
X130684819Y-152938095D01*
X130684819Y-153223809D02*
X129684819Y-153223809D01*
X129684819Y-153223809D02*
X129827676Y-153128571D01*
X129827676Y-153128571D02*
X129922914Y-153033333D01*
X129922914Y-153033333D02*
X129970533Y-152938095D01*
X129684819Y-154366666D02*
X129684819Y-154176190D01*
X129684819Y-154176190D02*
X129732438Y-154080952D01*
X129732438Y-154080952D02*
X129780057Y-154033333D01*
X129780057Y-154033333D02*
X129922914Y-153938095D01*
X129922914Y-153938095D02*
X130113390Y-153890476D01*
X130113390Y-153890476D02*
X130494342Y-153890476D01*
X130494342Y-153890476D02*
X130589580Y-153938095D01*
X130589580Y-153938095D02*
X130637200Y-153985714D01*
X130637200Y-153985714D02*
X130684819Y-154080952D01*
X130684819Y-154080952D02*
X130684819Y-154271428D01*
X130684819Y-154271428D02*
X130637200Y-154366666D01*
X130637200Y-154366666D02*
X130589580Y-154414285D01*
X130589580Y-154414285D02*
X130494342Y-154461904D01*
X130494342Y-154461904D02*
X130256247Y-154461904D01*
X130256247Y-154461904D02*
X130161009Y-154414285D01*
X130161009Y-154414285D02*
X130113390Y-154366666D01*
X130113390Y-154366666D02*
X130065771Y-154271428D01*
X130065771Y-154271428D02*
X130065771Y-154080952D01*
X130065771Y-154080952D02*
X130113390Y-153985714D01*
X130113390Y-153985714D02*
X130161009Y-153938095D01*
X130161009Y-153938095D02*
X130256247Y-153890476D01*
X160242857Y-96854819D02*
X160576190Y-96378628D01*
X160814285Y-96854819D02*
X160814285Y-95854819D01*
X160814285Y-95854819D02*
X160433333Y-95854819D01*
X160433333Y-95854819D02*
X160338095Y-95902438D01*
X160338095Y-95902438D02*
X160290476Y-95950057D01*
X160290476Y-95950057D02*
X160242857Y-96045295D01*
X160242857Y-96045295D02*
X160242857Y-96188152D01*
X160242857Y-96188152D02*
X160290476Y-96283390D01*
X160290476Y-96283390D02*
X160338095Y-96331009D01*
X160338095Y-96331009D02*
X160433333Y-96378628D01*
X160433333Y-96378628D02*
X160814285Y-96378628D01*
X159909523Y-95854819D02*
X159242857Y-95854819D01*
X159242857Y-95854819D02*
X159671428Y-96854819D01*
X158814285Y-96854819D02*
X158623809Y-96854819D01*
X158623809Y-96854819D02*
X158528571Y-96807200D01*
X158528571Y-96807200D02*
X158480952Y-96759580D01*
X158480952Y-96759580D02*
X158385714Y-96616723D01*
X158385714Y-96616723D02*
X158338095Y-96426247D01*
X158338095Y-96426247D02*
X158338095Y-96045295D01*
X158338095Y-96045295D02*
X158385714Y-95950057D01*
X158385714Y-95950057D02*
X158433333Y-95902438D01*
X158433333Y-95902438D02*
X158528571Y-95854819D01*
X158528571Y-95854819D02*
X158719047Y-95854819D01*
X158719047Y-95854819D02*
X158814285Y-95902438D01*
X158814285Y-95902438D02*
X158861904Y-95950057D01*
X158861904Y-95950057D02*
X158909523Y-96045295D01*
X158909523Y-96045295D02*
X158909523Y-96283390D01*
X158909523Y-96283390D02*
X158861904Y-96378628D01*
X158861904Y-96378628D02*
X158814285Y-96426247D01*
X158814285Y-96426247D02*
X158719047Y-96473866D01*
X158719047Y-96473866D02*
X158528571Y-96473866D01*
X158528571Y-96473866D02*
X158433333Y-96426247D01*
X158433333Y-96426247D02*
X158385714Y-96378628D01*
X158385714Y-96378628D02*
X158338095Y-96283390D01*
X140966666Y-153054819D02*
X141299999Y-152578628D01*
X141538094Y-153054819D02*
X141538094Y-152054819D01*
X141538094Y-152054819D02*
X141157142Y-152054819D01*
X141157142Y-152054819D02*
X141061904Y-152102438D01*
X141061904Y-152102438D02*
X141014285Y-152150057D01*
X141014285Y-152150057D02*
X140966666Y-152245295D01*
X140966666Y-152245295D02*
X140966666Y-152388152D01*
X140966666Y-152388152D02*
X141014285Y-152483390D01*
X141014285Y-152483390D02*
X141061904Y-152531009D01*
X141061904Y-152531009D02*
X141157142Y-152578628D01*
X141157142Y-152578628D02*
X141538094Y-152578628D01*
X140061904Y-152054819D02*
X140538094Y-152054819D01*
X140538094Y-152054819D02*
X140585713Y-152531009D01*
X140585713Y-152531009D02*
X140538094Y-152483390D01*
X140538094Y-152483390D02*
X140442856Y-152435771D01*
X140442856Y-152435771D02*
X140204761Y-152435771D01*
X140204761Y-152435771D02*
X140109523Y-152483390D01*
X140109523Y-152483390D02*
X140061904Y-152531009D01*
X140061904Y-152531009D02*
X140014285Y-152626247D01*
X140014285Y-152626247D02*
X140014285Y-152864342D01*
X140014285Y-152864342D02*
X140061904Y-152959580D01*
X140061904Y-152959580D02*
X140109523Y-153007200D01*
X140109523Y-153007200D02*
X140204761Y-153054819D01*
X140204761Y-153054819D02*
X140442856Y-153054819D01*
X140442856Y-153054819D02*
X140538094Y-153007200D01*
X140538094Y-153007200D02*
X140585713Y-152959580D01*
X187654819Y-125557142D02*
X187178628Y-125223809D01*
X187654819Y-124985714D02*
X186654819Y-124985714D01*
X186654819Y-124985714D02*
X186654819Y-125366666D01*
X186654819Y-125366666D02*
X186702438Y-125461904D01*
X186702438Y-125461904D02*
X186750057Y-125509523D01*
X186750057Y-125509523D02*
X186845295Y-125557142D01*
X186845295Y-125557142D02*
X186988152Y-125557142D01*
X186988152Y-125557142D02*
X187083390Y-125509523D01*
X187083390Y-125509523D02*
X187131009Y-125461904D01*
X187131009Y-125461904D02*
X187178628Y-125366666D01*
X187178628Y-125366666D02*
X187178628Y-124985714D01*
X186654819Y-125890476D02*
X186654819Y-126509523D01*
X186654819Y-126509523D02*
X187035771Y-126176190D01*
X187035771Y-126176190D02*
X187035771Y-126319047D01*
X187035771Y-126319047D02*
X187083390Y-126414285D01*
X187083390Y-126414285D02*
X187131009Y-126461904D01*
X187131009Y-126461904D02*
X187226247Y-126509523D01*
X187226247Y-126509523D02*
X187464342Y-126509523D01*
X187464342Y-126509523D02*
X187559580Y-126461904D01*
X187559580Y-126461904D02*
X187607200Y-126414285D01*
X187607200Y-126414285D02*
X187654819Y-126319047D01*
X187654819Y-126319047D02*
X187654819Y-126033333D01*
X187654819Y-126033333D02*
X187607200Y-125938095D01*
X187607200Y-125938095D02*
X187559580Y-125890476D01*
X187654819Y-126985714D02*
X187654819Y-127176190D01*
X187654819Y-127176190D02*
X187607200Y-127271428D01*
X187607200Y-127271428D02*
X187559580Y-127319047D01*
X187559580Y-127319047D02*
X187416723Y-127414285D01*
X187416723Y-127414285D02*
X187226247Y-127461904D01*
X187226247Y-127461904D02*
X186845295Y-127461904D01*
X186845295Y-127461904D02*
X186750057Y-127414285D01*
X186750057Y-127414285D02*
X186702438Y-127366666D01*
X186702438Y-127366666D02*
X186654819Y-127271428D01*
X186654819Y-127271428D02*
X186654819Y-127080952D01*
X186654819Y-127080952D02*
X186702438Y-126985714D01*
X186702438Y-126985714D02*
X186750057Y-126938095D01*
X186750057Y-126938095D02*
X186845295Y-126890476D01*
X186845295Y-126890476D02*
X187083390Y-126890476D01*
X187083390Y-126890476D02*
X187178628Y-126938095D01*
X187178628Y-126938095D02*
X187226247Y-126985714D01*
X187226247Y-126985714D02*
X187273866Y-127080952D01*
X187273866Y-127080952D02*
X187273866Y-127271428D01*
X187273866Y-127271428D02*
X187226247Y-127366666D01*
X187226247Y-127366666D02*
X187178628Y-127414285D01*
X187178628Y-127414285D02*
X187083390Y-127461904D01*
X157054819Y-104737142D02*
X156578628Y-104403809D01*
X157054819Y-104165714D02*
X156054819Y-104165714D01*
X156054819Y-104165714D02*
X156054819Y-104546666D01*
X156054819Y-104546666D02*
X156102438Y-104641904D01*
X156102438Y-104641904D02*
X156150057Y-104689523D01*
X156150057Y-104689523D02*
X156245295Y-104737142D01*
X156245295Y-104737142D02*
X156388152Y-104737142D01*
X156388152Y-104737142D02*
X156483390Y-104689523D01*
X156483390Y-104689523D02*
X156531009Y-104641904D01*
X156531009Y-104641904D02*
X156578628Y-104546666D01*
X156578628Y-104546666D02*
X156578628Y-104165714D01*
X156054819Y-105594285D02*
X156054819Y-105403809D01*
X156054819Y-105403809D02*
X156102438Y-105308571D01*
X156102438Y-105308571D02*
X156150057Y-105260952D01*
X156150057Y-105260952D02*
X156292914Y-105165714D01*
X156292914Y-105165714D02*
X156483390Y-105118095D01*
X156483390Y-105118095D02*
X156864342Y-105118095D01*
X156864342Y-105118095D02*
X156959580Y-105165714D01*
X156959580Y-105165714D02*
X157007200Y-105213333D01*
X157007200Y-105213333D02*
X157054819Y-105308571D01*
X157054819Y-105308571D02*
X157054819Y-105499047D01*
X157054819Y-105499047D02*
X157007200Y-105594285D01*
X157007200Y-105594285D02*
X156959580Y-105641904D01*
X156959580Y-105641904D02*
X156864342Y-105689523D01*
X156864342Y-105689523D02*
X156626247Y-105689523D01*
X156626247Y-105689523D02*
X156531009Y-105641904D01*
X156531009Y-105641904D02*
X156483390Y-105594285D01*
X156483390Y-105594285D02*
X156435771Y-105499047D01*
X156435771Y-105499047D02*
X156435771Y-105308571D01*
X156435771Y-105308571D02*
X156483390Y-105213333D01*
X156483390Y-105213333D02*
X156531009Y-105165714D01*
X156531009Y-105165714D02*
X156626247Y-105118095D01*
X157054819Y-106165714D02*
X157054819Y-106356190D01*
X157054819Y-106356190D02*
X157007200Y-106451428D01*
X157007200Y-106451428D02*
X156959580Y-106499047D01*
X156959580Y-106499047D02*
X156816723Y-106594285D01*
X156816723Y-106594285D02*
X156626247Y-106641904D01*
X156626247Y-106641904D02*
X156245295Y-106641904D01*
X156245295Y-106641904D02*
X156150057Y-106594285D01*
X156150057Y-106594285D02*
X156102438Y-106546666D01*
X156102438Y-106546666D02*
X156054819Y-106451428D01*
X156054819Y-106451428D02*
X156054819Y-106260952D01*
X156054819Y-106260952D02*
X156102438Y-106165714D01*
X156102438Y-106165714D02*
X156150057Y-106118095D01*
X156150057Y-106118095D02*
X156245295Y-106070476D01*
X156245295Y-106070476D02*
X156483390Y-106070476D01*
X156483390Y-106070476D02*
X156578628Y-106118095D01*
X156578628Y-106118095D02*
X156626247Y-106165714D01*
X156626247Y-106165714D02*
X156673866Y-106260952D01*
X156673866Y-106260952D02*
X156673866Y-106451428D01*
X156673866Y-106451428D02*
X156626247Y-106546666D01*
X156626247Y-106546666D02*
X156578628Y-106594285D01*
X156578628Y-106594285D02*
X156483390Y-106641904D01*
X170642857Y-93654819D02*
X170976190Y-93178628D01*
X171214285Y-93654819D02*
X171214285Y-92654819D01*
X171214285Y-92654819D02*
X170833333Y-92654819D01*
X170833333Y-92654819D02*
X170738095Y-92702438D01*
X170738095Y-92702438D02*
X170690476Y-92750057D01*
X170690476Y-92750057D02*
X170642857Y-92845295D01*
X170642857Y-92845295D02*
X170642857Y-92988152D01*
X170642857Y-92988152D02*
X170690476Y-93083390D01*
X170690476Y-93083390D02*
X170738095Y-93131009D01*
X170738095Y-93131009D02*
X170833333Y-93178628D01*
X170833333Y-93178628D02*
X171214285Y-93178628D01*
X170071428Y-93083390D02*
X170166666Y-93035771D01*
X170166666Y-93035771D02*
X170214285Y-92988152D01*
X170214285Y-92988152D02*
X170261904Y-92892914D01*
X170261904Y-92892914D02*
X170261904Y-92845295D01*
X170261904Y-92845295D02*
X170214285Y-92750057D01*
X170214285Y-92750057D02*
X170166666Y-92702438D01*
X170166666Y-92702438D02*
X170071428Y-92654819D01*
X170071428Y-92654819D02*
X169880952Y-92654819D01*
X169880952Y-92654819D02*
X169785714Y-92702438D01*
X169785714Y-92702438D02*
X169738095Y-92750057D01*
X169738095Y-92750057D02*
X169690476Y-92845295D01*
X169690476Y-92845295D02*
X169690476Y-92892914D01*
X169690476Y-92892914D02*
X169738095Y-92988152D01*
X169738095Y-92988152D02*
X169785714Y-93035771D01*
X169785714Y-93035771D02*
X169880952Y-93083390D01*
X169880952Y-93083390D02*
X170071428Y-93083390D01*
X170071428Y-93083390D02*
X170166666Y-93131009D01*
X170166666Y-93131009D02*
X170214285Y-93178628D01*
X170214285Y-93178628D02*
X170261904Y-93273866D01*
X170261904Y-93273866D02*
X170261904Y-93464342D01*
X170261904Y-93464342D02*
X170214285Y-93559580D01*
X170214285Y-93559580D02*
X170166666Y-93607200D01*
X170166666Y-93607200D02*
X170071428Y-93654819D01*
X170071428Y-93654819D02*
X169880952Y-93654819D01*
X169880952Y-93654819D02*
X169785714Y-93607200D01*
X169785714Y-93607200D02*
X169738095Y-93559580D01*
X169738095Y-93559580D02*
X169690476Y-93464342D01*
X169690476Y-93464342D02*
X169690476Y-93273866D01*
X169690476Y-93273866D02*
X169738095Y-93178628D01*
X169738095Y-93178628D02*
X169785714Y-93131009D01*
X169785714Y-93131009D02*
X169880952Y-93083390D01*
X169071428Y-92654819D02*
X168976190Y-92654819D01*
X168976190Y-92654819D02*
X168880952Y-92702438D01*
X168880952Y-92702438D02*
X168833333Y-92750057D01*
X168833333Y-92750057D02*
X168785714Y-92845295D01*
X168785714Y-92845295D02*
X168738095Y-93035771D01*
X168738095Y-93035771D02*
X168738095Y-93273866D01*
X168738095Y-93273866D02*
X168785714Y-93464342D01*
X168785714Y-93464342D02*
X168833333Y-93559580D01*
X168833333Y-93559580D02*
X168880952Y-93607200D01*
X168880952Y-93607200D02*
X168976190Y-93654819D01*
X168976190Y-93654819D02*
X169071428Y-93654819D01*
X169071428Y-93654819D02*
X169166666Y-93607200D01*
X169166666Y-93607200D02*
X169214285Y-93559580D01*
X169214285Y-93559580D02*
X169261904Y-93464342D01*
X169261904Y-93464342D02*
X169309523Y-93273866D01*
X169309523Y-93273866D02*
X169309523Y-93035771D01*
X169309523Y-93035771D02*
X169261904Y-92845295D01*
X169261904Y-92845295D02*
X169214285Y-92750057D01*
X169214285Y-92750057D02*
X169166666Y-92702438D01*
X169166666Y-92702438D02*
X169071428Y-92654819D01*
X109284819Y-75833333D02*
X108808628Y-75500000D01*
X109284819Y-75261905D02*
X108284819Y-75261905D01*
X108284819Y-75261905D02*
X108284819Y-75642857D01*
X108284819Y-75642857D02*
X108332438Y-75738095D01*
X108332438Y-75738095D02*
X108380057Y-75785714D01*
X108380057Y-75785714D02*
X108475295Y-75833333D01*
X108475295Y-75833333D02*
X108618152Y-75833333D01*
X108618152Y-75833333D02*
X108713390Y-75785714D01*
X108713390Y-75785714D02*
X108761009Y-75738095D01*
X108761009Y-75738095D02*
X108808628Y-75642857D01*
X108808628Y-75642857D02*
X108808628Y-75261905D01*
X108284819Y-76166667D02*
X108284819Y-76833333D01*
X108284819Y-76833333D02*
X109284819Y-76404762D01*
X172654819Y-80357142D02*
X172178628Y-80023809D01*
X172654819Y-79785714D02*
X171654819Y-79785714D01*
X171654819Y-79785714D02*
X171654819Y-80166666D01*
X171654819Y-80166666D02*
X171702438Y-80261904D01*
X171702438Y-80261904D02*
X171750057Y-80309523D01*
X171750057Y-80309523D02*
X171845295Y-80357142D01*
X171845295Y-80357142D02*
X171988152Y-80357142D01*
X171988152Y-80357142D02*
X172083390Y-80309523D01*
X172083390Y-80309523D02*
X172131009Y-80261904D01*
X172131009Y-80261904D02*
X172178628Y-80166666D01*
X172178628Y-80166666D02*
X172178628Y-79785714D01*
X172654819Y-81309523D02*
X172654819Y-80738095D01*
X172654819Y-81023809D02*
X171654819Y-81023809D01*
X171654819Y-81023809D02*
X171797676Y-80928571D01*
X171797676Y-80928571D02*
X171892914Y-80833333D01*
X171892914Y-80833333D02*
X171940533Y-80738095D01*
X171654819Y-82214285D02*
X171654819Y-81738095D01*
X171654819Y-81738095D02*
X172131009Y-81690476D01*
X172131009Y-81690476D02*
X172083390Y-81738095D01*
X172083390Y-81738095D02*
X172035771Y-81833333D01*
X172035771Y-81833333D02*
X172035771Y-82071428D01*
X172035771Y-82071428D02*
X172083390Y-82166666D01*
X172083390Y-82166666D02*
X172131009Y-82214285D01*
X172131009Y-82214285D02*
X172226247Y-82261904D01*
X172226247Y-82261904D02*
X172464342Y-82261904D01*
X172464342Y-82261904D02*
X172559580Y-82214285D01*
X172559580Y-82214285D02*
X172607200Y-82166666D01*
X172607200Y-82166666D02*
X172654819Y-82071428D01*
X172654819Y-82071428D02*
X172654819Y-81833333D01*
X172654819Y-81833333D02*
X172607200Y-81738095D01*
X172607200Y-81738095D02*
X172559580Y-81690476D01*
X132854819Y-131557142D02*
X132378628Y-131223809D01*
X132854819Y-130985714D02*
X131854819Y-130985714D01*
X131854819Y-130985714D02*
X131854819Y-131366666D01*
X131854819Y-131366666D02*
X131902438Y-131461904D01*
X131902438Y-131461904D02*
X131950057Y-131509523D01*
X131950057Y-131509523D02*
X132045295Y-131557142D01*
X132045295Y-131557142D02*
X132188152Y-131557142D01*
X132188152Y-131557142D02*
X132283390Y-131509523D01*
X132283390Y-131509523D02*
X132331009Y-131461904D01*
X132331009Y-131461904D02*
X132378628Y-131366666D01*
X132378628Y-131366666D02*
X132378628Y-130985714D01*
X131854819Y-131890476D02*
X131854819Y-132509523D01*
X131854819Y-132509523D02*
X132235771Y-132176190D01*
X132235771Y-132176190D02*
X132235771Y-132319047D01*
X132235771Y-132319047D02*
X132283390Y-132414285D01*
X132283390Y-132414285D02*
X132331009Y-132461904D01*
X132331009Y-132461904D02*
X132426247Y-132509523D01*
X132426247Y-132509523D02*
X132664342Y-132509523D01*
X132664342Y-132509523D02*
X132759580Y-132461904D01*
X132759580Y-132461904D02*
X132807200Y-132414285D01*
X132807200Y-132414285D02*
X132854819Y-132319047D01*
X132854819Y-132319047D02*
X132854819Y-132033333D01*
X132854819Y-132033333D02*
X132807200Y-131938095D01*
X132807200Y-131938095D02*
X132759580Y-131890476D01*
X131854819Y-132842857D02*
X131854819Y-133509523D01*
X131854819Y-133509523D02*
X132854819Y-133080952D01*
X193135238Y-101250057D02*
X193230476Y-101202438D01*
X193230476Y-101202438D02*
X193325714Y-101107200D01*
X193325714Y-101107200D02*
X193468571Y-100964342D01*
X193468571Y-100964342D02*
X193563809Y-100916723D01*
X193563809Y-100916723D02*
X193659047Y-100916723D01*
X193611428Y-101154819D02*
X193706666Y-101107200D01*
X193706666Y-101107200D02*
X193801904Y-101011961D01*
X193801904Y-101011961D02*
X193849523Y-100821485D01*
X193849523Y-100821485D02*
X193849523Y-100488152D01*
X193849523Y-100488152D02*
X193801904Y-100297676D01*
X193801904Y-100297676D02*
X193706666Y-100202438D01*
X193706666Y-100202438D02*
X193611428Y-100154819D01*
X193611428Y-100154819D02*
X193420952Y-100154819D01*
X193420952Y-100154819D02*
X193325714Y-100202438D01*
X193325714Y-100202438D02*
X193230476Y-100297676D01*
X193230476Y-100297676D02*
X193182857Y-100488152D01*
X193182857Y-100488152D02*
X193182857Y-100821485D01*
X193182857Y-100821485D02*
X193230476Y-101011961D01*
X193230476Y-101011961D02*
X193325714Y-101107200D01*
X193325714Y-101107200D02*
X193420952Y-101154819D01*
X193420952Y-101154819D02*
X193611428Y-101154819D01*
X192278095Y-100154819D02*
X192754285Y-100154819D01*
X192754285Y-100154819D02*
X192801904Y-100631009D01*
X192801904Y-100631009D02*
X192754285Y-100583390D01*
X192754285Y-100583390D02*
X192659047Y-100535771D01*
X192659047Y-100535771D02*
X192420952Y-100535771D01*
X192420952Y-100535771D02*
X192325714Y-100583390D01*
X192325714Y-100583390D02*
X192278095Y-100631009D01*
X192278095Y-100631009D02*
X192230476Y-100726247D01*
X192230476Y-100726247D02*
X192230476Y-100964342D01*
X192230476Y-100964342D02*
X192278095Y-101059580D01*
X192278095Y-101059580D02*
X192325714Y-101107200D01*
X192325714Y-101107200D02*
X192420952Y-101154819D01*
X192420952Y-101154819D02*
X192659047Y-101154819D01*
X192659047Y-101154819D02*
X192754285Y-101107200D01*
X192754285Y-101107200D02*
X192801904Y-101059580D01*
X151959580Y-134757142D02*
X152007200Y-134709523D01*
X152007200Y-134709523D02*
X152054819Y-134566666D01*
X152054819Y-134566666D02*
X152054819Y-134471428D01*
X152054819Y-134471428D02*
X152007200Y-134328571D01*
X152007200Y-134328571D02*
X151911961Y-134233333D01*
X151911961Y-134233333D02*
X151816723Y-134185714D01*
X151816723Y-134185714D02*
X151626247Y-134138095D01*
X151626247Y-134138095D02*
X151483390Y-134138095D01*
X151483390Y-134138095D02*
X151292914Y-134185714D01*
X151292914Y-134185714D02*
X151197676Y-134233333D01*
X151197676Y-134233333D02*
X151102438Y-134328571D01*
X151102438Y-134328571D02*
X151054819Y-134471428D01*
X151054819Y-134471428D02*
X151054819Y-134566666D01*
X151054819Y-134566666D02*
X151102438Y-134709523D01*
X151102438Y-134709523D02*
X151150057Y-134757142D01*
X151054819Y-135090476D02*
X151054819Y-135709523D01*
X151054819Y-135709523D02*
X151435771Y-135376190D01*
X151435771Y-135376190D02*
X151435771Y-135519047D01*
X151435771Y-135519047D02*
X151483390Y-135614285D01*
X151483390Y-135614285D02*
X151531009Y-135661904D01*
X151531009Y-135661904D02*
X151626247Y-135709523D01*
X151626247Y-135709523D02*
X151864342Y-135709523D01*
X151864342Y-135709523D02*
X151959580Y-135661904D01*
X151959580Y-135661904D02*
X152007200Y-135614285D01*
X152007200Y-135614285D02*
X152054819Y-135519047D01*
X152054819Y-135519047D02*
X152054819Y-135233333D01*
X152054819Y-135233333D02*
X152007200Y-135138095D01*
X152007200Y-135138095D02*
X151959580Y-135090476D01*
X151150057Y-136090476D02*
X151102438Y-136138095D01*
X151102438Y-136138095D02*
X151054819Y-136233333D01*
X151054819Y-136233333D02*
X151054819Y-136471428D01*
X151054819Y-136471428D02*
X151102438Y-136566666D01*
X151102438Y-136566666D02*
X151150057Y-136614285D01*
X151150057Y-136614285D02*
X151245295Y-136661904D01*
X151245295Y-136661904D02*
X151340533Y-136661904D01*
X151340533Y-136661904D02*
X151483390Y-136614285D01*
X151483390Y-136614285D02*
X152054819Y-136042857D01*
X152054819Y-136042857D02*
X152054819Y-136661904D01*
X190242857Y-129159580D02*
X190290476Y-129207200D01*
X190290476Y-129207200D02*
X190433333Y-129254819D01*
X190433333Y-129254819D02*
X190528571Y-129254819D01*
X190528571Y-129254819D02*
X190671428Y-129207200D01*
X190671428Y-129207200D02*
X190766666Y-129111961D01*
X190766666Y-129111961D02*
X190814285Y-129016723D01*
X190814285Y-129016723D02*
X190861904Y-128826247D01*
X190861904Y-128826247D02*
X190861904Y-128683390D01*
X190861904Y-128683390D02*
X190814285Y-128492914D01*
X190814285Y-128492914D02*
X190766666Y-128397676D01*
X190766666Y-128397676D02*
X190671428Y-128302438D01*
X190671428Y-128302438D02*
X190528571Y-128254819D01*
X190528571Y-128254819D02*
X190433333Y-128254819D01*
X190433333Y-128254819D02*
X190290476Y-128302438D01*
X190290476Y-128302438D02*
X190242857Y-128350057D01*
X189861904Y-128350057D02*
X189814285Y-128302438D01*
X189814285Y-128302438D02*
X189719047Y-128254819D01*
X189719047Y-128254819D02*
X189480952Y-128254819D01*
X189480952Y-128254819D02*
X189385714Y-128302438D01*
X189385714Y-128302438D02*
X189338095Y-128350057D01*
X189338095Y-128350057D02*
X189290476Y-128445295D01*
X189290476Y-128445295D02*
X189290476Y-128540533D01*
X189290476Y-128540533D02*
X189338095Y-128683390D01*
X189338095Y-128683390D02*
X189909523Y-129254819D01*
X189909523Y-129254819D02*
X189290476Y-129254819D01*
X188719047Y-128683390D02*
X188814285Y-128635771D01*
X188814285Y-128635771D02*
X188861904Y-128588152D01*
X188861904Y-128588152D02*
X188909523Y-128492914D01*
X188909523Y-128492914D02*
X188909523Y-128445295D01*
X188909523Y-128445295D02*
X188861904Y-128350057D01*
X188861904Y-128350057D02*
X188814285Y-128302438D01*
X188814285Y-128302438D02*
X188719047Y-128254819D01*
X188719047Y-128254819D02*
X188528571Y-128254819D01*
X188528571Y-128254819D02*
X188433333Y-128302438D01*
X188433333Y-128302438D02*
X188385714Y-128350057D01*
X188385714Y-128350057D02*
X188338095Y-128445295D01*
X188338095Y-128445295D02*
X188338095Y-128492914D01*
X188338095Y-128492914D02*
X188385714Y-128588152D01*
X188385714Y-128588152D02*
X188433333Y-128635771D01*
X188433333Y-128635771D02*
X188528571Y-128683390D01*
X188528571Y-128683390D02*
X188719047Y-128683390D01*
X188719047Y-128683390D02*
X188814285Y-128731009D01*
X188814285Y-128731009D02*
X188861904Y-128778628D01*
X188861904Y-128778628D02*
X188909523Y-128873866D01*
X188909523Y-128873866D02*
X188909523Y-129064342D01*
X188909523Y-129064342D02*
X188861904Y-129159580D01*
X188861904Y-129159580D02*
X188814285Y-129207200D01*
X188814285Y-129207200D02*
X188719047Y-129254819D01*
X188719047Y-129254819D02*
X188528571Y-129254819D01*
X188528571Y-129254819D02*
X188433333Y-129207200D01*
X188433333Y-129207200D02*
X188385714Y-129159580D01*
X188385714Y-129159580D02*
X188338095Y-129064342D01*
X188338095Y-129064342D02*
X188338095Y-128873866D01*
X188338095Y-128873866D02*
X188385714Y-128778628D01*
X188385714Y-128778628D02*
X188433333Y-128731009D01*
X188433333Y-128731009D02*
X188528571Y-128683390D01*
X185042857Y-93854819D02*
X185376190Y-93378628D01*
X185614285Y-93854819D02*
X185614285Y-92854819D01*
X185614285Y-92854819D02*
X185233333Y-92854819D01*
X185233333Y-92854819D02*
X185138095Y-92902438D01*
X185138095Y-92902438D02*
X185090476Y-92950057D01*
X185090476Y-92950057D02*
X185042857Y-93045295D01*
X185042857Y-93045295D02*
X185042857Y-93188152D01*
X185042857Y-93188152D02*
X185090476Y-93283390D01*
X185090476Y-93283390D02*
X185138095Y-93331009D01*
X185138095Y-93331009D02*
X185233333Y-93378628D01*
X185233333Y-93378628D02*
X185614285Y-93378628D01*
X184709523Y-92854819D02*
X184090476Y-92854819D01*
X184090476Y-92854819D02*
X184423809Y-93235771D01*
X184423809Y-93235771D02*
X184280952Y-93235771D01*
X184280952Y-93235771D02*
X184185714Y-93283390D01*
X184185714Y-93283390D02*
X184138095Y-93331009D01*
X184138095Y-93331009D02*
X184090476Y-93426247D01*
X184090476Y-93426247D02*
X184090476Y-93664342D01*
X184090476Y-93664342D02*
X184138095Y-93759580D01*
X184138095Y-93759580D02*
X184185714Y-93807200D01*
X184185714Y-93807200D02*
X184280952Y-93854819D01*
X184280952Y-93854819D02*
X184566666Y-93854819D01*
X184566666Y-93854819D02*
X184661904Y-93807200D01*
X184661904Y-93807200D02*
X184709523Y-93759580D01*
X183233333Y-92854819D02*
X183423809Y-92854819D01*
X183423809Y-92854819D02*
X183519047Y-92902438D01*
X183519047Y-92902438D02*
X183566666Y-92950057D01*
X183566666Y-92950057D02*
X183661904Y-93092914D01*
X183661904Y-93092914D02*
X183709523Y-93283390D01*
X183709523Y-93283390D02*
X183709523Y-93664342D01*
X183709523Y-93664342D02*
X183661904Y-93759580D01*
X183661904Y-93759580D02*
X183614285Y-93807200D01*
X183614285Y-93807200D02*
X183519047Y-93854819D01*
X183519047Y-93854819D02*
X183328571Y-93854819D01*
X183328571Y-93854819D02*
X183233333Y-93807200D01*
X183233333Y-93807200D02*
X183185714Y-93759580D01*
X183185714Y-93759580D02*
X183138095Y-93664342D01*
X183138095Y-93664342D02*
X183138095Y-93426247D01*
X183138095Y-93426247D02*
X183185714Y-93331009D01*
X183185714Y-93331009D02*
X183233333Y-93283390D01*
X183233333Y-93283390D02*
X183328571Y-93235771D01*
X183328571Y-93235771D02*
X183519047Y-93235771D01*
X183519047Y-93235771D02*
X183614285Y-93283390D01*
X183614285Y-93283390D02*
X183661904Y-93331009D01*
X183661904Y-93331009D02*
X183709523Y-93426247D01*
X122242857Y-150654819D02*
X122576190Y-150178628D01*
X122814285Y-150654819D02*
X122814285Y-149654819D01*
X122814285Y-149654819D02*
X122433333Y-149654819D01*
X122433333Y-149654819D02*
X122338095Y-149702438D01*
X122338095Y-149702438D02*
X122290476Y-149750057D01*
X122290476Y-149750057D02*
X122242857Y-149845295D01*
X122242857Y-149845295D02*
X122242857Y-149988152D01*
X122242857Y-149988152D02*
X122290476Y-150083390D01*
X122290476Y-150083390D02*
X122338095Y-150131009D01*
X122338095Y-150131009D02*
X122433333Y-150178628D01*
X122433333Y-150178628D02*
X122814285Y-150178628D01*
X121290476Y-150654819D02*
X121861904Y-150654819D01*
X121576190Y-150654819D02*
X121576190Y-149654819D01*
X121576190Y-149654819D02*
X121671428Y-149797676D01*
X121671428Y-149797676D02*
X121766666Y-149892914D01*
X121766666Y-149892914D02*
X121861904Y-149940533D01*
X120671428Y-149654819D02*
X120576190Y-149654819D01*
X120576190Y-149654819D02*
X120480952Y-149702438D01*
X120480952Y-149702438D02*
X120433333Y-149750057D01*
X120433333Y-149750057D02*
X120385714Y-149845295D01*
X120385714Y-149845295D02*
X120338095Y-150035771D01*
X120338095Y-150035771D02*
X120338095Y-150273866D01*
X120338095Y-150273866D02*
X120385714Y-150464342D01*
X120385714Y-150464342D02*
X120433333Y-150559580D01*
X120433333Y-150559580D02*
X120480952Y-150607200D01*
X120480952Y-150607200D02*
X120576190Y-150654819D01*
X120576190Y-150654819D02*
X120671428Y-150654819D01*
X120671428Y-150654819D02*
X120766666Y-150607200D01*
X120766666Y-150607200D02*
X120814285Y-150559580D01*
X120814285Y-150559580D02*
X120861904Y-150464342D01*
X120861904Y-150464342D02*
X120909523Y-150273866D01*
X120909523Y-150273866D02*
X120909523Y-150035771D01*
X120909523Y-150035771D02*
X120861904Y-149845295D01*
X120861904Y-149845295D02*
X120814285Y-149750057D01*
X120814285Y-149750057D02*
X120766666Y-149702438D01*
X120766666Y-149702438D02*
X120671428Y-149654819D01*
D11*
G04 #@! TO.C,L3*
X154631000Y-99416595D02*
G75*
G02*
X153869000Y-99416595I-381000J0D01*
G01*
X153869000Y-99416595D02*
G75*
G02*
X154631000Y-99416595I381000J0D01*
G01*
D12*
G04 #@! TO.C,D9*
X107690000Y-160460000D02*
X107690000Y-153050000D01*
X109910000Y-153050000D02*
X109910000Y-160460000D01*
X109910000Y-160460000D02*
X107690000Y-160460000D01*
G04 #@! TO.C,D12*
X142390000Y-139840000D02*
X144610000Y-139840000D01*
X142390000Y-147250000D02*
X142390000Y-139840000D01*
X144610000Y-139840000D02*
X144610000Y-147250000D01*
G04 #@! TO.C,R23*
X104922936Y-161090000D02*
X106377064Y-161090000D01*
X104922936Y-162910000D02*
X106377064Y-162910000D01*
G04 #@! TO.C,R83*
X182127064Y-95990000D02*
X180672936Y-95990000D01*
X182127064Y-97810000D02*
X180672936Y-97810000D01*
G04 #@! TO.C,C8*
X125253733Y-154290000D02*
X125546267Y-154290000D01*
X125253733Y-155310000D02*
X125546267Y-155310000D01*
G04 #@! TO.C,R22*
X110927064Y-148090000D02*
X109472936Y-148090000D01*
X110927064Y-149910000D02*
X109472936Y-149910000D01*
G04 #@! TO.C,D11*
X183940000Y-130890000D02*
X191350000Y-130890000D01*
X183940000Y-133110000D02*
X183940000Y-130890000D01*
X191350000Y-133110000D02*
X183940000Y-133110000D01*
G04 #@! TO.C,R18*
X135490000Y-155688748D02*
X135490000Y-157111252D01*
X137310000Y-155688748D02*
X137310000Y-157111252D01*
G04 #@! TO.C,D3*
X165390000Y-134160000D02*
X165390000Y-126750000D01*
X167610000Y-126750000D02*
X167610000Y-134160000D01*
X167610000Y-134160000D02*
X165390000Y-134160000D01*
G04 #@! TO.C,R19*
X167910000Y-85647064D02*
X167910000Y-84192936D01*
X169730000Y-85647064D02*
X169730000Y-84192936D01*
G04 #@! TO.C,Q7*
X142770000Y-115550000D02*
X142770000Y-121970000D01*
X142770000Y-121970000D02*
X143040000Y-121970000D01*
X149670000Y-115550000D02*
X149670000Y-121970000D01*
X149670000Y-121970000D02*
X149400000Y-121970000D01*
X149830000Y-124040000D02*
X149360000Y-123700000D01*
X149830000Y-123360000D01*
X149830000Y-124040000D01*
G36*
X149830000Y-124040000D02*
G01*
X149360000Y-123700000D01*
X149830000Y-123360000D01*
X149830000Y-124040000D01*
G37*
G04 #@! TO.C,R6*
X117622936Y-143380000D02*
X119077064Y-143380000D01*
X117622936Y-145200000D02*
X119077064Y-145200000D01*
G04 #@! TO.C,R33*
X144142936Y-125370000D02*
X145597064Y-125370000D01*
X144142936Y-127190000D02*
X145597064Y-127190000D01*
G04 #@! TO.C,R42*
X115490000Y-158672936D02*
X115490000Y-160127064D01*
X117310000Y-158672936D02*
X117310000Y-160127064D01*
G04 #@! TO.C,R81*
X167090000Y-96372936D02*
X167090000Y-97827064D01*
X168910000Y-96372936D02*
X168910000Y-97827064D01*
G04 #@! TO.C,U5*
X129140000Y-140227500D02*
X129140000Y-140432500D01*
X129140000Y-150647500D02*
X129140000Y-150442500D01*
X131900000Y-140227500D02*
X129140000Y-140227500D01*
X131900000Y-140227500D02*
X134660000Y-140227500D01*
X131900000Y-150647500D02*
X129140000Y-150647500D01*
X131900000Y-150647500D02*
X134660000Y-150647500D01*
X134660000Y-140227500D02*
X134660000Y-140432500D01*
X134660000Y-150647500D02*
X134660000Y-150442500D01*
X128590000Y-150772500D02*
X128110000Y-150772500D01*
X128350000Y-150442500D01*
X128590000Y-150772500D01*
G36*
X128590000Y-150772500D02*
G01*
X128110000Y-150772500D01*
X128350000Y-150442500D01*
X128590000Y-150772500D01*
G37*
G04 #@! TO.C,R75*
X165090000Y-107872936D02*
X165090000Y-109327064D01*
X166910000Y-107872936D02*
X166910000Y-109327064D01*
G04 #@! TO.C,C20*
X124753733Y-146890000D02*
X125046267Y-146890000D01*
X124753733Y-147910000D02*
X125046267Y-147910000D01*
G04 #@! TO.C,R78*
X159772936Y-92090000D02*
X161227064Y-92090000D01*
X159772936Y-93910000D02*
X161227064Y-93910000D01*
G04 #@! TO.C,R14*
X174530000Y-85647064D02*
X174530000Y-84192936D01*
X176350000Y-85647064D02*
X176350000Y-84192936D01*
G04 #@! TO.C,R73*
X170480000Y-111852064D02*
X170480000Y-110397936D01*
X172300000Y-111852064D02*
X172300000Y-110397936D01*
G04 #@! TO.C,R40*
X137890000Y-134122936D02*
X137890000Y-135577064D01*
X139710000Y-134122936D02*
X139710000Y-135577064D01*
G04 #@! TO.C,C36*
X168646267Y-87990000D02*
X168353733Y-87990000D01*
X168646267Y-89010000D02*
X168353733Y-89010000D01*
G04 #@! TO.C,C7*
X137652500Y-148748767D02*
X137652500Y-148456233D01*
X138672500Y-148748767D02*
X138672500Y-148456233D01*
G04 #@! TO.C,C50*
X135905000Y-135158748D02*
X135905000Y-135681252D01*
X137375000Y-135158748D02*
X137375000Y-135681252D01*
G04 #@! TO.C,TP12*
X108000000Y-142000000D02*
G75*
G02*
X105200000Y-142000000I-1400000J0D01*
G01*
X105200000Y-142000000D02*
G75*
G02*
X108000000Y-142000000I1400000J0D01*
G01*
G04 #@! TO.C,R41*
X112072936Y-155490000D02*
X113527064Y-155490000D01*
X112072936Y-157310000D02*
X113527064Y-157310000D01*
G04 #@! TO.C,R4*
X106090000Y-72089564D02*
X106090000Y-70635436D01*
X107910000Y-72089564D02*
X107910000Y-70635436D01*
G04 #@! TO.C,GD1*
D13*
X125250000Y-74250000D02*
X122450000Y-74250000D01*
X122450000Y-77750000D01*
X125250000Y-77750000D01*
X125250000Y-74250000D01*
X126950000Y-73650000D02*
X120850000Y-73650000D01*
X120850000Y-78550000D01*
X126950000Y-78550000D01*
X126950000Y-73650000D01*
D12*
G04 #@! TO.C,D4*
X84590000Y-134260000D02*
X86810000Y-134260000D01*
X84590000Y-141670000D02*
X84590000Y-134260000D01*
X86810000Y-134260000D02*
X86810000Y-141670000D01*
G04 #@! TO.C,R77*
X166327064Y-103890000D02*
X164872936Y-103890000D01*
X166327064Y-105710000D02*
X164872936Y-105710000D01*
G04 #@! TO.C,C39*
X162970000Y-100726267D02*
X162970000Y-100433733D01*
X163990000Y-100726267D02*
X163990000Y-100433733D01*
G04 #@! TO.C,R67*
X160590000Y-101177064D02*
X160590000Y-99722936D01*
X162410000Y-101177064D02*
X162410000Y-99722936D01*
G04 #@! TO.C,R34*
X133327064Y-157490000D02*
X131872936Y-157490000D01*
X133327064Y-159310000D02*
X131872936Y-159310000D01*
G04 #@! TO.C,R17*
X132752500Y-154547064D02*
X132752500Y-153092936D01*
X134572500Y-154547064D02*
X134572500Y-153092936D01*
G04 #@! TO.C,R38*
X178490000Y-129272936D02*
X178490000Y-130727064D01*
X180310000Y-129272936D02*
X180310000Y-130727064D01*
G04 #@! TO.C,R13*
X177840000Y-85647064D02*
X177840000Y-84192936D01*
X179660000Y-85647064D02*
X179660000Y-84192936D01*
G04 #@! TO.C,R21*
X171922936Y-87790000D02*
X173377064Y-87790000D01*
X171922936Y-89610000D02*
X173377064Y-89610000D01*
G04 #@! TO.C,R74*
X170490000Y-107289564D02*
X170490000Y-105835436D01*
X172310000Y-107289564D02*
X172310000Y-105835436D01*
G04 #@! TO.C,R82*
X164665000Y-98872936D02*
X164665000Y-99327064D01*
X166135000Y-98872936D02*
X166135000Y-99327064D01*
G04 #@! TO.C,Q10*
X88900000Y-137060000D02*
X88100000Y-137060000D01*
X88900000Y-137060000D02*
X89700000Y-137060000D01*
X88900000Y-140180000D02*
X88100000Y-140180000D01*
X88900000Y-140180000D02*
X89700000Y-140180000D01*
X87840000Y-140460000D02*
X87360000Y-140460000D01*
X87600000Y-140130000D01*
X87840000Y-140460000D01*
G36*
X87840000Y-140460000D02*
G01*
X87360000Y-140460000D01*
X87600000Y-140130000D01*
X87840000Y-140460000D01*
G37*
G04 #@! TO.C,C5*
X124484165Y-150640000D02*
X124715835Y-150640000D01*
X124484165Y-151360000D02*
X124715835Y-151360000D01*
G04 #@! TO.C,C46*
X166983733Y-90490000D02*
X167276267Y-90490000D01*
X166983733Y-91510000D02*
X167276267Y-91510000D01*
G04 #@! TO.C,D24*
X178390000Y-101090000D02*
X185800000Y-101090000D01*
X178390000Y-103310000D02*
X178390000Y-101090000D01*
X185800000Y-103310000D02*
X178390000Y-103310000D01*
G04 #@! TO.C,U1*
X117662500Y-151290000D02*
X117012500Y-151290000D01*
X117662500Y-151290000D02*
X118312500Y-151290000D01*
X117662500Y-154410000D02*
X117012500Y-154410000D01*
X117662500Y-154410000D02*
X118312500Y-154410000D01*
X116740000Y-154690000D02*
X116260000Y-154690000D01*
X116500000Y-154360000D01*
X116740000Y-154690000D01*
G36*
X116740000Y-154690000D02*
G01*
X116260000Y-154690000D01*
X116500000Y-154360000D01*
X116740000Y-154690000D01*
G37*
G04 #@! TO.C,C21*
X125046267Y-141890000D02*
X124753733Y-141890000D01*
X125046267Y-142910000D02*
X124753733Y-142910000D01*
G04 #@! TO.C,R71*
X178277064Y-90190000D02*
X176822936Y-90190000D01*
X178277064Y-92010000D02*
X176822936Y-92010000D01*
G04 #@! TO.C,R53*
X111577064Y-161090000D02*
X110122936Y-161090000D01*
X111577064Y-162910000D02*
X110122936Y-162910000D01*
G04 #@! TO.C,C42*
X176290000Y-107411252D02*
X176290000Y-105988748D01*
X178110000Y-107411252D02*
X178110000Y-105988748D01*
G04 #@! TO.C,Q6*
X160632500Y-115050000D02*
X160632500Y-121470000D01*
X160632500Y-121470000D02*
X160902500Y-121470000D01*
X167532500Y-115050000D02*
X167532500Y-121470000D01*
X167532500Y-121470000D02*
X167262500Y-121470000D01*
X167692500Y-123540000D02*
X167222500Y-123200000D01*
X167692500Y-122860000D01*
X167692500Y-123540000D01*
G36*
X167692500Y-123540000D02*
G01*
X167222500Y-123200000D01*
X167692500Y-122860000D01*
X167692500Y-123540000D01*
G37*
G04 #@! TO.C,C40*
X177715580Y-88390000D02*
X177434420Y-88390000D01*
X177715580Y-89410000D02*
X177434420Y-89410000D01*
G04 #@! TO.C,R32*
X147560000Y-128307064D02*
X147560000Y-126852936D01*
X149380000Y-128307064D02*
X149380000Y-126852936D01*
G04 #@! TO.C,R20*
X114472936Y-148090000D02*
X115927064Y-148090000D01*
X114472936Y-149910000D02*
X115927064Y-149910000D01*
G04 #@! TO.C,R63*
X182172936Y-98682500D02*
X183627064Y-98682500D01*
X182172936Y-100502500D02*
X183627064Y-100502500D01*
G04 #@! TO.C,R31*
X168090000Y-125527064D02*
X168090000Y-124072936D01*
X169910000Y-125527064D02*
X169910000Y-124072936D01*
G04 #@! TO.C,C44*
X168440000Y-103716267D02*
X168440000Y-103423733D01*
X169460000Y-103716267D02*
X169460000Y-103423733D01*
G04 #@! TO.C,R24*
X148227064Y-140590000D02*
X146772936Y-140590000D01*
X148227064Y-142410000D02*
X146772936Y-142410000D01*
G04 #@! TO.C,R35*
X126090000Y-137227064D02*
X126090000Y-135772936D01*
X127910000Y-137227064D02*
X127910000Y-135772936D01*
G04 #@! TO.C,C48*
X186890000Y-106026248D02*
X186890000Y-107448752D01*
X188710000Y-106026248D02*
X188710000Y-107448752D01*
G04 #@! TO.C,U2*
X174000000Y-95065000D02*
X172050000Y-95065000D01*
X174000000Y-95065000D02*
X175950000Y-95065000D01*
X174000000Y-103935000D02*
X172050000Y-103935000D01*
X174000000Y-103935000D02*
X175950000Y-103935000D01*
X171540000Y-104200000D02*
X171060000Y-104200000D01*
X171300000Y-103870000D01*
X171540000Y-104200000D01*
G36*
X171540000Y-104200000D02*
G01*
X171060000Y-104200000D01*
X171300000Y-103870000D01*
X171540000Y-104200000D01*
G37*
G04 #@! TO.C,R12*
X103690000Y-76727064D02*
X103690000Y-75272936D01*
X105510000Y-76727064D02*
X105510000Y-75272936D01*
G04 #@! TO.C,D2*
X143190000Y-130090000D02*
X150600000Y-130090000D01*
X150600000Y-130090000D02*
X150600000Y-132310000D01*
X150600000Y-132310000D02*
X143190000Y-132310000D01*
G04 #@! TO.C,R25*
X88672936Y-141560000D02*
X90127064Y-141560000D01*
X88672936Y-143380000D02*
X90127064Y-143380000D01*
G04 #@! TO.C,C41*
X168684165Y-99720000D02*
X168915835Y-99720000D01*
X168684165Y-100440000D02*
X168915835Y-100440000D01*
G04 #@! TO.C,C45*
X166253733Y-102110000D02*
X166546267Y-102110000D01*
X166253733Y-103130000D02*
X166546267Y-103130000D01*
G04 #@! TO.C,R68*
X160570000Y-104652936D02*
X160570000Y-106107064D01*
X162390000Y-104652936D02*
X162390000Y-106107064D01*
G04 #@! TO.C,C1*
X74490000Y-127888748D02*
X74490000Y-129311252D01*
X76310000Y-127888748D02*
X76310000Y-129311252D01*
G04 #@! TO.C,R1*
X117622936Y-145690000D02*
X119077064Y-145690000D01*
X117622936Y-147510000D02*
X119077064Y-147510000D01*
G04 #@! TO.C,C4*
X112453733Y-153890000D02*
X112746267Y-153890000D01*
X112453733Y-154910000D02*
X112746267Y-154910000D01*
G04 #@! TO.C,R11*
X169210436Y-113790000D02*
X170664564Y-113790000D01*
X169210436Y-115610000D02*
X170664564Y-115610000D01*
G04 #@! TO.C,C10*
X128390000Y-137446267D02*
X128390000Y-137153733D01*
X129410000Y-137446267D02*
X129410000Y-137153733D01*
G04 #@! TO.C,U4*
X120565000Y-156800000D02*
X127035000Y-156800000D01*
X120565000Y-162000000D02*
X120565000Y-156800000D01*
X122800000Y-162000000D02*
X120565000Y-162000000D01*
X127035000Y-156800000D02*
X127035000Y-162000000D01*
X127035000Y-162000000D02*
X124800000Y-162000000D01*
X122800000Y-162000000D02*
G75*
G02*
X124800000Y-162000000I1000000J0D01*
G01*
G04 #@! TO.C,R70*
X173377064Y-90190000D02*
X171922936Y-90190000D01*
X173377064Y-92010000D02*
X171922936Y-92010000D01*
G04 #@! TO.C,D14*
X135840000Y-137390000D02*
X143250000Y-137390000D01*
X135840000Y-139610000D02*
X135840000Y-137390000D01*
X143250000Y-139610000D02*
X135840000Y-139610000D01*
G04 #@! TO.C,C49*
X148265000Y-138681252D02*
X148265000Y-138158748D01*
X149735000Y-138681252D02*
X149735000Y-138158748D01*
G04 #@! TO.C,R8*
X103690000Y-72089564D02*
X103690000Y-70635436D01*
X105510000Y-72089564D02*
X105510000Y-70635436D01*
G04 #@! TO.C,D19*
X76890000Y-125540000D02*
X79110000Y-125540000D01*
X76890000Y-132950000D02*
X76890000Y-125540000D01*
X79110000Y-125540000D02*
X79110000Y-132950000D01*
G04 #@! TO.C,D15*
X176050000Y-133090000D02*
X183460000Y-133090000D01*
X183460000Y-133090000D02*
X183460000Y-135310000D01*
X183460000Y-135310000D02*
X176050000Y-135310000D01*
G04 #@! TO.C,R30*
X170490000Y-125527064D02*
X170490000Y-124072936D01*
X172310000Y-125527064D02*
X172310000Y-124072936D01*
G04 #@! TO.C,R76*
X167465000Y-107772936D02*
X167465000Y-108227064D01*
X168935000Y-107772936D02*
X168935000Y-108227064D01*
G04 #@! TO.C,R16*
X127490000Y-153927064D02*
X127490000Y-152472936D01*
X129310000Y-153927064D02*
X129310000Y-152472936D01*
G04 #@! TO.C,R79*
X162772936Y-94590000D02*
X164227064Y-94590000D01*
X162772936Y-96410000D02*
X164227064Y-96410000D01*
G04 #@! TO.C,R5*
X138189564Y-151560000D02*
X136735436Y-151560000D01*
X138189564Y-153380000D02*
X136735436Y-153380000D01*
G04 #@! TO.C,R39*
X184090000Y-124822936D02*
X184090000Y-126277064D01*
X185910000Y-124822936D02*
X185910000Y-126277064D01*
G04 #@! TO.C,R69*
X157590000Y-106227064D02*
X157590000Y-104772936D01*
X159410000Y-106227064D02*
X159410000Y-104772936D01*
G04 #@! TO.C,R80*
X165772936Y-92090000D02*
X167227064Y-92090000D01*
X165772936Y-93910000D02*
X167227064Y-93910000D01*
G04 #@! TO.C,R7*
X106090000Y-76727064D02*
X106090000Y-75272936D01*
X107910000Y-76727064D02*
X107910000Y-75272936D01*
G04 #@! TO.C,R15*
X171220000Y-85647064D02*
X171220000Y-84192936D01*
X173040000Y-85647064D02*
X173040000Y-84192936D01*
G04 #@! TO.C,R37*
X131390000Y-135510436D02*
X131390000Y-136964564D01*
X133210000Y-135510436D02*
X133210000Y-136964564D01*
G04 #@! TO.C,Q5*
X189730000Y-92750000D02*
X189730000Y-93020000D01*
X189730000Y-99650000D02*
X189730000Y-99380000D01*
X196150000Y-92750000D02*
X189730000Y-92750000D01*
X196150000Y-99650000D02*
X189730000Y-99650000D01*
X188340000Y-99810000D02*
X187660000Y-99810000D01*
X188000000Y-99340000D01*
X188340000Y-99810000D01*
G36*
X188340000Y-99810000D02*
G01*
X187660000Y-99810000D01*
X188000000Y-99340000D01*
X188340000Y-99810000D01*
G37*
G04 #@! TO.C,C32*
X150590000Y-139911252D02*
X150590000Y-138488748D01*
X152410000Y-139911252D02*
X152410000Y-138488748D01*
G04 #@! TO.C,C28*
X185316233Y-128490000D02*
X185608767Y-128490000D01*
X185316233Y-129510000D02*
X185608767Y-129510000D01*
G04 #@! TO.C,R36*
X179772936Y-93590000D02*
X181227064Y-93590000D01*
X179772936Y-95410000D02*
X181227064Y-95410000D01*
G04 #@! TO.C,R10*
X124572936Y-148465000D02*
X125027064Y-148465000D01*
X124572936Y-149935000D02*
X125027064Y-149935000D01*
G04 #@! TD*
%LPC*%
D14*
G04 #@! TO.C,R3*
X97600000Y-69000000D03*
D15*
X97600000Y-81700000D03*
G04 #@! TD*
D16*
G04 #@! TO.C,VCC*
X173800000Y-119200000D03*
G04 #@! TD*
D17*
G04 #@! TO.C,D28*
X83375000Y-103000000D03*
D18*
X100035000Y-105540000D03*
D16*
X100035000Y-100460000D03*
G04 #@! TD*
D19*
G04 #@! TO.C,D1*
X141000000Y-61300000D03*
D20*
X141000000Y-66380000D03*
X141000000Y-71460000D03*
X141000000Y-76540000D03*
G04 #@! TD*
D14*
G04 #@! TO.C,C35*
X123250000Y-96250000D03*
X123250000Y-101250000D03*
G04 #@! TD*
D16*
G04 #@! TO.C,L1*
X113650000Y-77400000D03*
X134650000Y-77400000D03*
X134650000Y-62400000D03*
X113650000Y-62400000D03*
G04 #@! TD*
D17*
G04 #@! TO.C,D18*
X83375000Y-158555000D03*
D18*
X100035000Y-161095000D03*
D16*
X100035000Y-156015000D03*
G04 #@! TD*
D19*
G04 #@! TO.C,D22*
X147650000Y-97730000D03*
D21*
X147650000Y-85030000D03*
G04 #@! TD*
D14*
G04 #@! TO.C,CY1*
X125800000Y-88600000D03*
X125800000Y-85100000D03*
G04 #@! TD*
D22*
G04 #@! TO.C,C25*
X185000000Y-121800000D03*
X183000000Y-121800000D03*
G04 #@! TD*
D14*
G04 #@! TO.C,C15*
X92800000Y-121900000D03*
X92800000Y-126900000D03*
G04 #@! TD*
D17*
G04 #@! TO.C,D29*
X83375000Y-147955000D03*
D18*
X100035000Y-150495000D03*
D16*
X100035000Y-145415000D03*
G04 #@! TD*
D14*
G04 #@! TO.C,C34*
X133750000Y-97750000D03*
X133750000Y-101250000D03*
G04 #@! TD*
G04 #@! TO.C,F1*
X76800000Y-78300000D03*
X84300000Y-78300000D03*
G04 #@! TD*
D17*
G04 #@! TO.C,D17*
X83375000Y-113540000D03*
D18*
X100035000Y-116080000D03*
D16*
X100035000Y-111000000D03*
G04 #@! TD*
D23*
G04 #@! TO.C,Q1*
X182600000Y-129740000D03*
X182600000Y-128470000D03*
D24*
X182600000Y-127200000D03*
G04 #@! TD*
D14*
G04 #@! TO.C,C14*
X95200000Y-135000000D03*
X90200000Y-135000000D03*
G04 #@! TD*
G04 #@! TO.C,C26*
X82200000Y-132535000D03*
X82200000Y-137535000D03*
G04 #@! TD*
D22*
G04 #@! TO.C,C31*
X162465000Y-160655000D03*
X164465000Y-160655000D03*
G04 #@! TD*
D14*
G04 #@! TO.C,C11*
X140500000Y-85000000D03*
X140500000Y-88500000D03*
G04 #@! TD*
G04 #@! TO.C,RV1*
X79250000Y-67533330D03*
X84250000Y-69000000D03*
G04 #@! TD*
D22*
G04 #@! TO.C,C47*
X185000000Y-116000000D03*
X183000000Y-116000000D03*
G04 #@! TD*
D16*
G04 #@! TO.C,TP8*
X190000000Y-116000000D03*
G04 #@! TD*
D25*
G04 #@! TO.C,CY9*
X105900000Y-81050000D03*
X105900000Y-66050000D03*
G04 #@! TD*
D16*
G04 #@! TO.C,TP3*
X194950000Y-71000000D03*
G04 #@! TD*
G04 #@! TO.C,VCC*
X181800000Y-105600000D03*
G04 #@! TD*
D19*
G04 #@! TO.C,D23*
X166650000Y-59000000D03*
D21*
X179350000Y-59000000D03*
G04 #@! TD*
D16*
G04 #@! TO.C,400V*
X133750000Y-91750000D03*
G04 #@! TD*
D26*
G04 #@! TO.C,TH1*
X92800000Y-78200000D03*
D14*
X90300000Y-78200000D03*
G04 #@! TD*
D27*
G04 #@! TO.C,L3*
X154250000Y-95900000D03*
X154250000Y-90799990D03*
X154250000Y-85699996D03*
X154250000Y-76099994D03*
X154250000Y-71000000D03*
X154250000Y-65899990D03*
X189750005Y-95900000D03*
X189750005Y-90799990D03*
X189750005Y-85699996D03*
X189750005Y-76099994D03*
X189750005Y-71000000D03*
X189750005Y-65899990D03*
G04 #@! TD*
D16*
G04 #@! TO.C,+12V*
X100330000Y-139700000D03*
G04 #@! TD*
D28*
G04 #@! TO.C,J2*
X67200000Y-127035000D03*
D29*
X67200000Y-132035000D03*
G04 #@! TD*
D28*
G04 #@! TO.C,J1*
X66200000Y-68200000D03*
D29*
X66200000Y-73200000D03*
X66200000Y-78200000D03*
G04 #@! TD*
D16*
G04 #@! TO.C,HVG*
X175750000Y-131250000D03*
G04 #@! TD*
D30*
G04 #@! TO.C,T2*
X154762500Y-117000000D03*
X154762500Y-124000000D03*
X154762500Y-131000000D03*
X154762500Y-138000000D03*
X154762500Y-145000000D03*
X154762500Y-152000000D03*
X154762500Y-159000000D03*
X113262500Y-159000000D03*
X113262500Y-152000000D03*
X113262500Y-145000000D03*
X113262500Y-138000000D03*
X113262500Y-131000000D03*
X113262500Y-124000000D03*
X113262500Y-117000000D03*
G04 #@! TD*
D16*
G04 #@! TO.C,L*
X146950000Y-71500000D03*
G04 #@! TD*
G04 #@! TO.C,VAUX*
X186200000Y-138600000D03*
G04 #@! TD*
G04 #@! TO.C,N*
X146950000Y-66300000D03*
G04 #@! TD*
D22*
G04 #@! TO.C,C33*
X141250000Y-99000000D03*
X141250000Y-101000000D03*
G04 #@! TD*
D16*
G04 #@! TO.C,L2*
X82400000Y-122660000D03*
X82400000Y-127740000D03*
G04 #@! TD*
G04 #@! TO.C,Opto+*
X166000000Y-155200000D03*
G04 #@! TD*
G04 #@! TO.C,+12V*
X108500000Y-110000000D03*
G04 #@! TD*
G04 #@! TO.C,TP4*
X195000000Y-85000000D03*
G04 #@! TD*
D14*
G04 #@! TO.C,R2*
X178600000Y-124480000D03*
D15*
X178600000Y-114320000D03*
G04 #@! TD*
D14*
G04 #@! TO.C,CY2*
X147000000Y-57500000D03*
X150500000Y-57500000D03*
G04 #@! TD*
G04 #@! TO.C,R72*
X186680000Y-111000000D03*
D15*
X176520000Y-111000000D03*
G04 #@! TD*
D22*
G04 #@! TO.C,C51*
X181600000Y-138800000D03*
X179600000Y-138800000D03*
G04 #@! TD*
D16*
G04 #@! TO.C,LVG*
X162560000Y-131445000D03*
G04 #@! TD*
D22*
G04 #@! TO.C,C43*
X174200000Y-107600000D03*
X174200000Y-105600000D03*
G04 #@! TD*
D16*
G04 #@! TO.C,TP13*
X104000000Y-132000000D03*
G04 #@! TD*
D31*
G04 #@! TO.C,D9*
X108800000Y-158550000D03*
X108800000Y-153050000D03*
G04 #@! TD*
D32*
G04 #@! TO.C,D12*
X143500000Y-141750000D03*
X143500000Y-147250000D03*
G04 #@! TD*
D33*
G04 #@! TO.C,R23*
X104100000Y-162000000D03*
X107200000Y-162000000D03*
G04 #@! TD*
D34*
G04 #@! TO.C,R83*
X182950000Y-96900000D03*
X179850000Y-96900000D03*
G04 #@! TD*
D35*
G04 #@! TO.C,C8*
X124537500Y-154800000D03*
X126262500Y-154800000D03*
G04 #@! TD*
D34*
G04 #@! TO.C,R22*
X111750000Y-149000000D03*
X108650000Y-149000000D03*
G04 #@! TD*
D36*
G04 #@! TO.C,D11*
X185850000Y-132000000D03*
X191350000Y-132000000D03*
G04 #@! TD*
D37*
G04 #@! TO.C,R18*
X136400000Y-154837500D03*
X136400000Y-157962500D03*
G04 #@! TD*
D31*
G04 #@! TO.C,D3*
X166500000Y-132250000D03*
X166500000Y-126750000D03*
G04 #@! TD*
D38*
G04 #@! TO.C,R19*
X168820000Y-86382500D03*
X168820000Y-83457500D03*
G04 #@! TD*
D39*
G04 #@! TO.C,Q7*
X148500000Y-123700000D03*
D40*
X146220000Y-117400000D03*
D39*
X143940000Y-123700000D03*
G04 #@! TD*
D33*
G04 #@! TO.C,R6*
X116800000Y-144290000D03*
X119900000Y-144290000D03*
G04 #@! TD*
G04 #@! TO.C,R33*
X143320000Y-126280000D03*
X146420000Y-126280000D03*
G04 #@! TD*
D41*
G04 #@! TO.C,R42*
X116400000Y-157850000D03*
X116400000Y-160950000D03*
G04 #@! TD*
G04 #@! TO.C,R81*
X168000000Y-95550000D03*
X168000000Y-98650000D03*
G04 #@! TD*
D42*
G04 #@! TO.C,U5*
X128437500Y-149882500D03*
X128437500Y-148612500D03*
X128437500Y-147342500D03*
X128437500Y-146072500D03*
X128437500Y-144802500D03*
X128437500Y-143532500D03*
X128437500Y-142262500D03*
X128437500Y-140992500D03*
X135362500Y-140992500D03*
X135362500Y-142262500D03*
X135362500Y-143532500D03*
X135362500Y-144802500D03*
X135362500Y-146072500D03*
X135362500Y-147342500D03*
X135362500Y-148612500D03*
X135362500Y-149882500D03*
G04 #@! TD*
D41*
G04 #@! TO.C,R75*
X166000000Y-107050000D03*
X166000000Y-110150000D03*
G04 #@! TD*
D35*
G04 #@! TO.C,C20*
X124037500Y-147400000D03*
X125762500Y-147400000D03*
G04 #@! TD*
D43*
G04 #@! TO.C,R78*
X159037500Y-93000000D03*
X161962500Y-93000000D03*
G04 #@! TD*
D38*
G04 #@! TO.C,R14*
X175440000Y-86382500D03*
X175440000Y-83457500D03*
G04 #@! TD*
G04 #@! TO.C,R73*
X171390000Y-112587500D03*
X171390000Y-109662500D03*
G04 #@! TD*
D41*
G04 #@! TO.C,R40*
X138800000Y-133300000D03*
X138800000Y-136400000D03*
G04 #@! TD*
D44*
G04 #@! TO.C,C36*
X169362500Y-88500000D03*
X167637500Y-88500000D03*
G04 #@! TD*
D45*
G04 #@! TO.C,C7*
X138162500Y-149465000D03*
X138162500Y-147740000D03*
G04 #@! TD*
D46*
G04 #@! TO.C,C50*
X136640000Y-134382500D03*
X136640000Y-136457500D03*
G04 #@! TD*
D16*
G04 #@! TO.C,TP12*
X106600000Y-142000000D03*
G04 #@! TD*
D33*
G04 #@! TO.C,R41*
X111250000Y-156400000D03*
X114350000Y-156400000D03*
G04 #@! TD*
D38*
G04 #@! TO.C,R4*
X107000000Y-72825000D03*
X107000000Y-69900000D03*
G04 #@! TD*
D47*
G04 #@! TO.C,GD1*
X125850000Y-76050000D03*
D48*
X121850000Y-76050000D03*
G04 #@! TD*
D32*
G04 #@! TO.C,D4*
X85700000Y-136170000D03*
X85700000Y-141670000D03*
G04 #@! TD*
D34*
G04 #@! TO.C,R77*
X167150000Y-104800000D03*
X164050000Y-104800000D03*
G04 #@! TD*
D45*
G04 #@! TO.C,C39*
X163480000Y-101442500D03*
X163480000Y-99717500D03*
G04 #@! TD*
D49*
G04 #@! TO.C,R67*
X161500000Y-102000000D03*
X161500000Y-98900000D03*
G04 #@! TD*
D34*
G04 #@! TO.C,R34*
X134150000Y-158400000D03*
X131050000Y-158400000D03*
G04 #@! TD*
D49*
G04 #@! TO.C,R17*
X133662500Y-155370000D03*
X133662500Y-152270000D03*
G04 #@! TD*
D41*
G04 #@! TO.C,R38*
X179400000Y-128450000D03*
X179400000Y-131550000D03*
G04 #@! TD*
D38*
G04 #@! TO.C,R13*
X178750000Y-86382500D03*
X178750000Y-83457500D03*
G04 #@! TD*
D33*
G04 #@! TO.C,R21*
X171100000Y-88700000D03*
X174200000Y-88700000D03*
G04 #@! TD*
D38*
G04 #@! TO.C,R74*
X171400000Y-108025000D03*
X171400000Y-105100000D03*
G04 #@! TD*
D50*
G04 #@! TO.C,R82*
X165400000Y-98100000D03*
X165400000Y-100100000D03*
G04 #@! TD*
D51*
G04 #@! TO.C,Q10*
X87762500Y-139570000D03*
X87762500Y-137670000D03*
X90037500Y-138620000D03*
G04 #@! TD*
D52*
G04 #@! TO.C,C5*
X124032500Y-151000000D03*
X125167500Y-151000000D03*
G04 #@! TD*
D35*
G04 #@! TO.C,C46*
X166267500Y-91000000D03*
X167992500Y-91000000D03*
G04 #@! TD*
D36*
G04 #@! TO.C,D24*
X180300000Y-102200000D03*
X185800000Y-102200000D03*
G04 #@! TD*
D53*
G04 #@! TO.C,U1*
X116725000Y-153800000D03*
X116725000Y-151900000D03*
X118600000Y-152850000D03*
G04 #@! TD*
D44*
G04 #@! TO.C,C21*
X125762500Y-142400000D03*
X124037500Y-142400000D03*
G04 #@! TD*
D34*
G04 #@! TO.C,R71*
X179100000Y-91100000D03*
X176000000Y-91100000D03*
G04 #@! TD*
G04 #@! TO.C,R53*
X112400000Y-162000000D03*
X109300000Y-162000000D03*
G04 #@! TD*
D54*
G04 #@! TO.C,C42*
X177200000Y-108262500D03*
X177200000Y-105137500D03*
G04 #@! TD*
D39*
G04 #@! TO.C,Q6*
X166362500Y-123200000D03*
D40*
X164082500Y-116900000D03*
D39*
X161802500Y-123200000D03*
G04 #@! TD*
D55*
G04 #@! TO.C,C40*
X178350000Y-88900000D03*
X176800000Y-88900000D03*
G04 #@! TD*
D49*
G04 #@! TO.C,R32*
X148470000Y-129130000D03*
X148470000Y-126030000D03*
G04 #@! TD*
D43*
G04 #@! TO.C,R20*
X113737500Y-149000000D03*
X116662500Y-149000000D03*
G04 #@! TD*
D33*
G04 #@! TO.C,R63*
X181350000Y-99592500D03*
X184450000Y-99592500D03*
G04 #@! TD*
D49*
G04 #@! TO.C,R31*
X169000000Y-126350000D03*
X169000000Y-123250000D03*
G04 #@! TD*
D45*
G04 #@! TO.C,C44*
X168950000Y-104432500D03*
X168950000Y-102707500D03*
G04 #@! TD*
D34*
G04 #@! TO.C,R24*
X149050000Y-141500000D03*
X145950000Y-141500000D03*
G04 #@! TD*
D49*
G04 #@! TO.C,R35*
X127000000Y-138050000D03*
X127000000Y-134950000D03*
G04 #@! TD*
D37*
G04 #@! TO.C,C48*
X187800000Y-105175000D03*
X187800000Y-108300000D03*
G04 #@! TD*
D56*
G04 #@! TO.C,U2*
X171525000Y-103310000D03*
X171525000Y-102040000D03*
X171525000Y-100770000D03*
X171525000Y-99500000D03*
X171525000Y-98230000D03*
X171525000Y-96960000D03*
X171525000Y-95690000D03*
X176475000Y-95690000D03*
X176475000Y-96960000D03*
X176475000Y-98230000D03*
X176475000Y-99500000D03*
X176475000Y-100770000D03*
X176475000Y-102040000D03*
X176475000Y-103310000D03*
G04 #@! TD*
D38*
G04 #@! TO.C,R12*
X104600000Y-77462500D03*
X104600000Y-74537500D03*
G04 #@! TD*
D57*
G04 #@! TO.C,D2*
X148690000Y-131200000D03*
X143190000Y-131200000D03*
G04 #@! TD*
D33*
G04 #@! TO.C,R25*
X87850000Y-142470000D03*
X90950000Y-142470000D03*
G04 #@! TD*
D52*
G04 #@! TO.C,C41*
X168232500Y-100080000D03*
X169367500Y-100080000D03*
G04 #@! TD*
D35*
G04 #@! TO.C,C45*
X165537500Y-102620000D03*
X167262500Y-102620000D03*
G04 #@! TD*
D41*
G04 #@! TO.C,R68*
X161480000Y-103830000D03*
X161480000Y-106930000D03*
G04 #@! TD*
D37*
G04 #@! TO.C,C1*
X75400000Y-127037500D03*
X75400000Y-130162500D03*
G04 #@! TD*
D33*
G04 #@! TO.C,R1*
X116800000Y-146600000D03*
X119900000Y-146600000D03*
G04 #@! TD*
D35*
G04 #@! TO.C,C4*
X111737500Y-154400000D03*
X113462500Y-154400000D03*
G04 #@! TD*
D43*
G04 #@! TO.C,R11*
X168475000Y-114700000D03*
X171400000Y-114700000D03*
G04 #@! TD*
D45*
G04 #@! TO.C,C10*
X128900000Y-138162500D03*
X128900000Y-136437500D03*
G04 #@! TD*
D58*
G04 #@! TO.C,U4*
X119035000Y-160670000D03*
X119035000Y-158130000D03*
X128565000Y-158130000D03*
X128565000Y-160670000D03*
G04 #@! TD*
D34*
G04 #@! TO.C,R70*
X174200000Y-91100000D03*
X171100000Y-91100000D03*
G04 #@! TD*
D36*
G04 #@! TO.C,D14*
X137750000Y-138500000D03*
X143250000Y-138500000D03*
G04 #@! TD*
D59*
G04 #@! TO.C,C49*
X149000000Y-139370000D03*
X149000000Y-137470000D03*
G04 #@! TD*
D38*
G04 #@! TO.C,R8*
X104600000Y-72825000D03*
X104600000Y-69900000D03*
G04 #@! TD*
D32*
G04 #@! TO.C,D19*
X78000000Y-127450000D03*
X78000000Y-132950000D03*
G04 #@! TD*
D57*
G04 #@! TO.C,D15*
X181550000Y-134200000D03*
X176050000Y-134200000D03*
G04 #@! TD*
D49*
G04 #@! TO.C,R30*
X171400000Y-126350000D03*
X171400000Y-123250000D03*
G04 #@! TD*
D50*
G04 #@! TO.C,R76*
X168200000Y-107000000D03*
X168200000Y-109000000D03*
G04 #@! TD*
D38*
G04 #@! TO.C,R16*
X128400000Y-154662500D03*
X128400000Y-151737500D03*
G04 #@! TD*
D43*
G04 #@! TO.C,R79*
X162037500Y-95500000D03*
X164962500Y-95500000D03*
G04 #@! TD*
D34*
G04 #@! TO.C,R5*
X139012500Y-152470000D03*
X135912500Y-152470000D03*
G04 #@! TD*
D41*
G04 #@! TO.C,R39*
X185000000Y-124000000D03*
X185000000Y-127100000D03*
G04 #@! TD*
D38*
G04 #@! TO.C,R69*
X158500000Y-106962500D03*
X158500000Y-104037500D03*
G04 #@! TD*
D43*
G04 #@! TO.C,R80*
X165037500Y-93000000D03*
X167962500Y-93000000D03*
G04 #@! TD*
D38*
G04 #@! TO.C,R7*
X107000000Y-77462500D03*
X107000000Y-74537500D03*
G04 #@! TD*
G04 #@! TO.C,R15*
X172130000Y-86382500D03*
X172130000Y-83457500D03*
G04 #@! TD*
D41*
G04 #@! TO.C,R37*
X132300000Y-134687500D03*
X132300000Y-137787500D03*
G04 #@! TD*
D60*
G04 #@! TO.C,Q5*
X188000000Y-98480000D03*
D61*
X194300000Y-96200000D03*
D60*
X188000000Y-93920000D03*
G04 #@! TD*
D54*
G04 #@! TO.C,C32*
X151500000Y-140762500D03*
X151500000Y-137637500D03*
G04 #@! TD*
D35*
G04 #@! TO.C,C28*
X184600000Y-129000000D03*
X186325000Y-129000000D03*
G04 #@! TD*
D33*
G04 #@! TO.C,R36*
X178950000Y-94500000D03*
X182050000Y-94500000D03*
G04 #@! TD*
D62*
G04 #@! TO.C,R10*
X123800000Y-149200000D03*
X125800000Y-149200000D03*
G04 #@! TD*
%LPD*%
M02*
